G04 #@! TF.GenerationSoftware,KiCad,Pcbnew,(5.1.7-0-10_14)*
G04 #@! TF.CreationDate,2020-11-21T12:28:25-08:00*
G04 #@! TF.ProjectId,DDR Pad,44445220-5061-4642-9e6b-696361645f70,rev?*
G04 #@! TF.SameCoordinates,Original*
G04 #@! TF.FileFunction,Copper,L1,Top*
G04 #@! TF.FilePolarity,Positive*
%FSLAX46Y46*%
G04 Gerber Fmt 4.6, Leading zero omitted, Abs format (unit mm)*
G04 Created by KiCad (PCBNEW (5.1.7-0-10_14)) date 2020-11-21 12:28:25*
%MOMM*%
%LPD*%
G01*
G04 APERTURE LIST*
G04 #@! TA.AperFunction,ComponentPad*
%ADD10C,1.803400*%
G04 #@! TD*
G04 #@! TA.AperFunction,ComponentPad*
%ADD11O,1.750000X1.400000*%
G04 #@! TD*
G04 #@! TA.AperFunction,ComponentPad*
%ADD12C,0.100000*%
G04 #@! TD*
G04 #@! TA.AperFunction,ComponentPad*
%ADD13O,2.000000X1.700000*%
G04 #@! TD*
G04 #@! TA.AperFunction,ComponentPad*
%ADD14O,1.400000X1.750000*%
G04 #@! TD*
G04 #@! TA.AperFunction,ComponentPad*
%ADD15O,1.700000X2.000000*%
G04 #@! TD*
G04 #@! TA.AperFunction,ComponentPad*
%ADD16C,1.447800*%
G04 #@! TD*
G04 #@! TA.AperFunction,ComponentPad*
%ADD17R,1.447800X1.447800*%
G04 #@! TD*
G04 #@! TA.AperFunction,SMDPad,CuDef*
%ADD18R,1.500000X1.000000*%
G04 #@! TD*
G04 #@! TA.AperFunction,ViaPad*
%ADD19C,0.800000*%
G04 #@! TD*
G04 #@! TA.AperFunction,Conductor*
%ADD20C,1.400000*%
G04 #@! TD*
G04 #@! TA.AperFunction,Conductor*
%ADD21C,0.500000*%
G04 #@! TD*
G04 APERTURE END LIST*
D10*
X8000000Y-27000000D03*
X8000000Y-22000000D03*
X8000000Y-17000000D03*
G04 #@! TA.AperFunction,SMDPad,CuDef*
G36*
G01*
X8350000Y-90256250D02*
X8350000Y-89743750D01*
G75*
G02*
X8568750Y-89525000I218750J0D01*
G01*
X9006250Y-89525000D01*
G75*
G02*
X9225000Y-89743750I0J-218750D01*
G01*
X9225000Y-90256250D01*
G75*
G02*
X9006250Y-90475000I-218750J0D01*
G01*
X8568750Y-90475000D01*
G75*
G02*
X8350000Y-90256250I0J218750D01*
G01*
G37*
G04 #@! TD.AperFunction*
G04 #@! TA.AperFunction,SMDPad,CuDef*
G36*
G01*
X6775000Y-90256250D02*
X6775000Y-89743750D01*
G75*
G02*
X6993750Y-89525000I218750J0D01*
G01*
X7431250Y-89525000D01*
G75*
G02*
X7650000Y-89743750I0J-218750D01*
G01*
X7650000Y-90256250D01*
G75*
G02*
X7431250Y-90475000I-218750J0D01*
G01*
X6993750Y-90475000D01*
G75*
G02*
X6775000Y-90256250I0J218750D01*
G01*
G37*
G04 #@! TD.AperFunction*
G04 #@! TA.AperFunction,SMDPad,CuDef*
G36*
G01*
X92756250Y-193650000D02*
X92243750Y-193650000D01*
G75*
G02*
X92025000Y-193431250I0J218750D01*
G01*
X92025000Y-192993750D01*
G75*
G02*
X92243750Y-192775000I218750J0D01*
G01*
X92756250Y-192775000D01*
G75*
G02*
X92975000Y-192993750I0J-218750D01*
G01*
X92975000Y-193431250D01*
G75*
G02*
X92756250Y-193650000I-218750J0D01*
G01*
G37*
G04 #@! TD.AperFunction*
G04 #@! TA.AperFunction,SMDPad,CuDef*
G36*
G01*
X92756250Y-195225000D02*
X92243750Y-195225000D01*
G75*
G02*
X92025000Y-195006250I0J218750D01*
G01*
X92025000Y-194568750D01*
G75*
G02*
X92243750Y-194350000I218750J0D01*
G01*
X92756250Y-194350000D01*
G75*
G02*
X92975000Y-194568750I0J-218750D01*
G01*
X92975000Y-195006250D01*
G75*
G02*
X92756250Y-195225000I-218750J0D01*
G01*
G37*
G04 #@! TD.AperFunction*
G04 #@! TA.AperFunction,SMDPad,CuDef*
G36*
G01*
X177243750Y-102137500D02*
X177756250Y-102137500D01*
G75*
G02*
X177975000Y-102356250I0J-218750D01*
G01*
X177975000Y-102793750D01*
G75*
G02*
X177756250Y-103012500I-218750J0D01*
G01*
X177243750Y-103012500D01*
G75*
G02*
X177025000Y-102793750I0J218750D01*
G01*
X177025000Y-102356250D01*
G75*
G02*
X177243750Y-102137500I218750J0D01*
G01*
G37*
G04 #@! TD.AperFunction*
G04 #@! TA.AperFunction,SMDPad,CuDef*
G36*
G01*
X177243750Y-100562500D02*
X177756250Y-100562500D01*
G75*
G02*
X177975000Y-100781250I0J-218750D01*
G01*
X177975000Y-101218750D01*
G75*
G02*
X177756250Y-101437500I-218750J0D01*
G01*
X177243750Y-101437500D01*
G75*
G02*
X177025000Y-101218750I0J218750D01*
G01*
X177025000Y-100781250D01*
G75*
G02*
X177243750Y-100562500I218750J0D01*
G01*
G37*
G04 #@! TD.AperFunction*
G04 #@! TA.AperFunction,SMDPad,CuDef*
G36*
G01*
X90243750Y-7350000D02*
X90756250Y-7350000D01*
G75*
G02*
X90975000Y-7568750I0J-218750D01*
G01*
X90975000Y-8006250D01*
G75*
G02*
X90756250Y-8225000I-218750J0D01*
G01*
X90243750Y-8225000D01*
G75*
G02*
X90025000Y-8006250I0J218750D01*
G01*
X90025000Y-7568750D01*
G75*
G02*
X90243750Y-7350000I218750J0D01*
G01*
G37*
G04 #@! TD.AperFunction*
G04 #@! TA.AperFunction,SMDPad,CuDef*
G36*
G01*
X90243750Y-5775000D02*
X90756250Y-5775000D01*
G75*
G02*
X90975000Y-5993750I0J-218750D01*
G01*
X90975000Y-6431250D01*
G75*
G02*
X90756250Y-6650000I-218750J0D01*
G01*
X90243750Y-6650000D01*
G75*
G02*
X90025000Y-6431250I0J218750D01*
G01*
X90025000Y-5993750D01*
G75*
G02*
X90243750Y-5775000I218750J0D01*
G01*
G37*
G04 #@! TD.AperFunction*
D11*
X15500000Y-101000000D03*
G04 #@! TA.AperFunction,ComponentPad*
D12*
G36*
X16629804Y-102401227D02*
G01*
X16644030Y-102354329D01*
X16667133Y-102311107D01*
X16698223Y-102273223D01*
X17098223Y-101873223D01*
X17136107Y-101842133D01*
X17179329Y-101819030D01*
X17226227Y-101804804D01*
X17275000Y-101800000D01*
X18125000Y-101800000D01*
X18173773Y-101804804D01*
X18220671Y-101819030D01*
X18263893Y-101842133D01*
X18301777Y-101873223D01*
X18332867Y-101911107D01*
X18355970Y-101954329D01*
X18370196Y-102001227D01*
X18375000Y-102050000D01*
X18375000Y-102950000D01*
X18370196Y-102998773D01*
X18355970Y-103045671D01*
X18332867Y-103088893D01*
X18301777Y-103126777D01*
X18263893Y-103157867D01*
X18220671Y-103180970D01*
X18173773Y-103195196D01*
X18125000Y-103200000D01*
X16875000Y-103200000D01*
X16826227Y-103195196D01*
X16779329Y-103180970D01*
X16736107Y-103157867D01*
X16698223Y-103126777D01*
X16667133Y-103088893D01*
X16644030Y-103045671D01*
X16629804Y-102998773D01*
X16625000Y-102950000D01*
X16625000Y-102450000D01*
X16629804Y-102401227D01*
G37*
G04 #@! TD.AperFunction*
D13*
X5000000Y-100000000D03*
G04 #@! TA.AperFunction,ComponentPad*
G36*
G01*
X5750000Y-103350000D02*
X4250000Y-103350000D01*
G75*
G02*
X4000000Y-103100000I0J250000D01*
G01*
X4000000Y-101900000D01*
G75*
G02*
X4250000Y-101650000I250000J0D01*
G01*
X5750000Y-101650000D01*
G75*
G02*
X6000000Y-101900000I0J-250000D01*
G01*
X6000000Y-103100000D01*
G75*
G02*
X5750000Y-103350000I-250000J0D01*
G01*
G37*
G04 #@! TD.AperFunction*
D14*
X102000000Y-185500000D03*
G04 #@! TA.AperFunction,ComponentPad*
D12*
G36*
X100598773Y-186629804D02*
G01*
X100645671Y-186644030D01*
X100688893Y-186667133D01*
X100726777Y-186698223D01*
X101126777Y-187098223D01*
X101157867Y-187136107D01*
X101180970Y-187179329D01*
X101195196Y-187226227D01*
X101200000Y-187275000D01*
X101200000Y-188125000D01*
X101195196Y-188173773D01*
X101180970Y-188220671D01*
X101157867Y-188263893D01*
X101126777Y-188301777D01*
X101088893Y-188332867D01*
X101045671Y-188355970D01*
X100998773Y-188370196D01*
X100950000Y-188375000D01*
X100050000Y-188375000D01*
X100001227Y-188370196D01*
X99954329Y-188355970D01*
X99911107Y-188332867D01*
X99873223Y-188301777D01*
X99842133Y-188263893D01*
X99819030Y-188220671D01*
X99804804Y-188173773D01*
X99800000Y-188125000D01*
X99800000Y-186875000D01*
X99804804Y-186826227D01*
X99819030Y-186779329D01*
X99842133Y-186736107D01*
X99873223Y-186698223D01*
X99911107Y-186667133D01*
X99954329Y-186644030D01*
X100001227Y-186629804D01*
X100050000Y-186625000D01*
X100550000Y-186625000D01*
X100598773Y-186629804D01*
G37*
G04 #@! TD.AperFunction*
D15*
X102000000Y-195000000D03*
G04 #@! TA.AperFunction,ComponentPad*
G36*
G01*
X98650000Y-195750000D02*
X98650000Y-194250000D01*
G75*
G02*
X98900000Y-194000000I250000J0D01*
G01*
X100100000Y-194000000D01*
G75*
G02*
X100350000Y-194250000I0J-250000D01*
G01*
X100350000Y-195750000D01*
G75*
G02*
X100100000Y-196000000I-250000J0D01*
G01*
X98900000Y-196000000D01*
G75*
G02*
X98650000Y-195750000I0J250000D01*
G01*
G37*
G04 #@! TD.AperFunction*
D14*
X100000000Y-15500000D03*
G04 #@! TA.AperFunction,ComponentPad*
D12*
G36*
X98598773Y-16629804D02*
G01*
X98645671Y-16644030D01*
X98688893Y-16667133D01*
X98726777Y-16698223D01*
X99126777Y-17098223D01*
X99157867Y-17136107D01*
X99180970Y-17179329D01*
X99195196Y-17226227D01*
X99200000Y-17275000D01*
X99200000Y-18125000D01*
X99195196Y-18173773D01*
X99180970Y-18220671D01*
X99157867Y-18263893D01*
X99126777Y-18301777D01*
X99088893Y-18332867D01*
X99045671Y-18355970D01*
X98998773Y-18370196D01*
X98950000Y-18375000D01*
X98050000Y-18375000D01*
X98001227Y-18370196D01*
X97954329Y-18355970D01*
X97911107Y-18332867D01*
X97873223Y-18301777D01*
X97842133Y-18263893D01*
X97819030Y-18220671D01*
X97804804Y-18173773D01*
X97800000Y-18125000D01*
X97800000Y-16875000D01*
X97804804Y-16826227D01*
X97819030Y-16779329D01*
X97842133Y-16736107D01*
X97873223Y-16698223D01*
X97911107Y-16667133D01*
X97954329Y-16644030D01*
X98001227Y-16629804D01*
X98050000Y-16625000D01*
X98550000Y-16625000D01*
X98598773Y-16629804D01*
G37*
G04 #@! TD.AperFunction*
D15*
X100000000Y-5000000D03*
G04 #@! TA.AperFunction,ComponentPad*
G36*
G01*
X96650000Y-5750000D02*
X96650000Y-4250000D01*
G75*
G02*
X96900000Y-4000000I250000J0D01*
G01*
X98100000Y-4000000D01*
G75*
G02*
X98350000Y-4250000I0J-250000D01*
G01*
X98350000Y-5750000D01*
G75*
G02*
X98100000Y-6000000I-250000J0D01*
G01*
X96900000Y-6000000D01*
G75*
G02*
X96650000Y-5750000I0J250000D01*
G01*
G37*
G04 #@! TD.AperFunction*
D11*
X184000000Y-102000000D03*
G04 #@! TA.AperFunction,ComponentPad*
D12*
G36*
X182870196Y-100598773D02*
G01*
X182855970Y-100645671D01*
X182832867Y-100688893D01*
X182801777Y-100726777D01*
X182401777Y-101126777D01*
X182363893Y-101157867D01*
X182320671Y-101180970D01*
X182273773Y-101195196D01*
X182225000Y-101200000D01*
X181375000Y-101200000D01*
X181326227Y-101195196D01*
X181279329Y-101180970D01*
X181236107Y-101157867D01*
X181198223Y-101126777D01*
X181167133Y-101088893D01*
X181144030Y-101045671D01*
X181129804Y-100998773D01*
X181125000Y-100950000D01*
X181125000Y-100050000D01*
X181129804Y-100001227D01*
X181144030Y-99954329D01*
X181167133Y-99911107D01*
X181198223Y-99873223D01*
X181236107Y-99842133D01*
X181279329Y-99819030D01*
X181326227Y-99804804D01*
X181375000Y-99800000D01*
X182625000Y-99800000D01*
X182673773Y-99804804D01*
X182720671Y-99819030D01*
X182763893Y-99842133D01*
X182801777Y-99873223D01*
X182832867Y-99911107D01*
X182855970Y-99954329D01*
X182870196Y-100001227D01*
X182875000Y-100050000D01*
X182875000Y-100550000D01*
X182870196Y-100598773D01*
G37*
G04 #@! TD.AperFunction*
D13*
X195000000Y-102000000D03*
G04 #@! TA.AperFunction,ComponentPad*
G36*
G01*
X194250000Y-98650000D02*
X195750000Y-98650000D01*
G75*
G02*
X196000000Y-98900000I0J-250000D01*
G01*
X196000000Y-100100000D01*
G75*
G02*
X195750000Y-100350000I-250000J0D01*
G01*
X194250000Y-100350000D01*
G75*
G02*
X194000000Y-100100000I0J250000D01*
G01*
X194000000Y-98900000D01*
G75*
G02*
X194250000Y-98650000I250000J0D01*
G01*
G37*
G04 #@! TD.AperFunction*
D16*
X11318000Y-37444000D03*
X9540000Y-38460000D03*
X11318000Y-39476000D03*
X9540000Y-40492000D03*
X11318000Y-41508000D03*
X9540000Y-42524000D03*
X11318000Y-43540000D03*
D17*
X9540000Y-44556000D03*
D18*
X177450000Y-176600000D03*
X177450000Y-173400000D03*
X172550000Y-176600000D03*
X172550000Y-173400000D03*
X127450000Y-176600000D03*
X127450000Y-173400000D03*
X122550000Y-176600000D03*
X122550000Y-173400000D03*
X77450000Y-176600000D03*
X77450000Y-173400000D03*
X72550000Y-176600000D03*
X72550000Y-173400000D03*
X27450000Y-176600000D03*
X27450000Y-173400000D03*
X22550000Y-176600000D03*
X22550000Y-173400000D03*
X47600000Y-145900000D03*
X47600000Y-149100000D03*
X52500000Y-145900000D03*
X52500000Y-149100000D03*
X97550000Y-145900000D03*
X97550000Y-149100000D03*
X102450000Y-145900000D03*
X102450000Y-149100000D03*
X147550000Y-145900000D03*
X147550000Y-149100000D03*
X152450000Y-145900000D03*
X152450000Y-149100000D03*
X177450000Y-126600000D03*
X177450000Y-123400000D03*
X172550000Y-126600000D03*
X172550000Y-123400000D03*
X127450000Y-126600000D03*
X127450000Y-123400000D03*
X122550000Y-126600000D03*
X122550000Y-123400000D03*
X77450000Y-126600000D03*
X77450000Y-123400000D03*
X72550000Y-126600000D03*
X72550000Y-123400000D03*
X27450000Y-126600000D03*
X27450000Y-123400000D03*
X22550000Y-126600000D03*
X22550000Y-123400000D03*
X47550000Y-98400000D03*
X47550000Y-101600000D03*
X52450000Y-98400000D03*
X52450000Y-101600000D03*
X97550000Y-98400000D03*
X97550000Y-101600000D03*
X102450000Y-98400000D03*
X102450000Y-101600000D03*
X147550000Y-98400000D03*
X147550000Y-101600000D03*
X152450000Y-98400000D03*
X152450000Y-101600000D03*
X177450000Y-76600000D03*
X177450000Y-73400000D03*
X172550000Y-76600000D03*
X172550000Y-73400000D03*
X127450000Y-76600000D03*
X127450000Y-73400000D03*
X122550000Y-76600000D03*
X122550000Y-73400000D03*
X77450000Y-76600000D03*
X77450000Y-73400000D03*
X72550000Y-76600000D03*
X72550000Y-73400000D03*
X27450000Y-76600000D03*
X27450000Y-73400000D03*
X22550000Y-76600000D03*
X22550000Y-73400000D03*
X147550000Y-48400000D03*
X147550000Y-51600000D03*
X152450000Y-48400000D03*
X152450000Y-51600000D03*
X97550000Y-48400000D03*
X97550000Y-51600000D03*
X102450000Y-48400000D03*
X102450000Y-51600000D03*
X47550000Y-48400000D03*
X47550000Y-51600000D03*
X52450000Y-48400000D03*
X52450000Y-51600000D03*
X177450000Y-26600000D03*
X177450000Y-23400000D03*
X172550000Y-26600000D03*
X172550000Y-23400000D03*
X127450000Y-26600000D03*
X127450000Y-23400000D03*
X122550000Y-26600000D03*
X122550000Y-23400000D03*
X77450000Y-26600000D03*
X77450000Y-23400000D03*
X72550000Y-26600000D03*
X72550000Y-23400000D03*
X27450000Y-26600000D03*
X27450000Y-23400000D03*
X22550000Y-26600000D03*
X22550000Y-23400000D03*
D19*
X18000000Y-30000000D03*
X11000000Y-24000000D03*
X11000000Y-20000000D03*
X20112653Y-22387347D03*
X70000000Y-22500000D03*
X120000000Y-22500000D03*
X170000000Y-22500000D03*
X155000000Y-50000000D03*
X120000000Y-72500000D03*
X70000000Y-72500000D03*
X20000000Y-72500000D03*
X55000000Y-102500000D03*
X105000000Y-102500000D03*
X155000000Y-102500000D03*
X170000000Y-122500000D03*
X120000000Y-122500000D03*
X70000000Y-122500000D03*
X20000000Y-122500000D03*
X55000000Y-150000000D03*
X105000000Y-150000000D03*
X155000000Y-150000000D03*
X170000000Y-172500000D03*
X120000000Y-172500000D03*
X70000000Y-172500000D03*
X20000000Y-172500000D03*
X177500000Y-106000000D03*
X90500000Y-9500000D03*
X55000000Y-55000000D03*
X92500000Y-191500000D03*
X102450000Y-57450000D03*
X170000000Y-73000000D03*
X12000000Y-90000000D03*
X19000000Y-26000000D03*
D20*
X127450000Y-27600000D02*
X127450000Y-26600000D01*
X125050000Y-30000000D02*
X127450000Y-27600000D01*
X122500000Y-30000000D02*
X125050000Y-30000000D01*
X119100000Y-26600000D02*
X122500000Y-30000000D01*
X77450000Y-26600000D02*
X119100000Y-26600000D01*
X177500000Y-26650000D02*
X177450000Y-26600000D01*
X147800000Y-48400000D02*
X147550000Y-48400000D01*
X97550000Y-47400000D02*
X99950000Y-45000000D01*
X97550000Y-48400000D02*
X97550000Y-47400000D01*
X146300000Y-48400000D02*
X147550000Y-48400000D01*
X99950000Y-45000000D02*
X142900000Y-45000000D01*
X27450000Y-76600000D02*
X29100000Y-76600000D01*
X29100000Y-76600000D02*
X30000000Y-77500000D01*
X77450000Y-77600000D02*
X77450000Y-76600000D01*
X75050000Y-80000000D02*
X77450000Y-77600000D01*
X70000000Y-80000000D02*
X75050000Y-80000000D01*
X67500000Y-77500000D02*
X70000000Y-80000000D01*
X77450000Y-76600000D02*
X116600000Y-76600000D01*
X116600000Y-76600000D02*
X120000000Y-80000000D01*
X126200000Y-76600000D02*
X127450000Y-76600000D01*
X120000000Y-80000000D02*
X122800000Y-80000000D01*
X177200000Y-76600000D02*
X177450000Y-76600000D01*
X147300000Y-98400000D02*
X147550000Y-98400000D01*
X97550000Y-97400000D02*
X99950000Y-95000000D01*
X97550000Y-98400000D02*
X97550000Y-97400000D01*
X143900000Y-95000000D02*
X144450000Y-95550000D01*
X99950000Y-95000000D02*
X143900000Y-95000000D01*
X130000000Y-81100000D02*
X144450000Y-95550000D01*
X144450000Y-95550000D02*
X147300000Y-98400000D01*
X27450000Y-126600000D02*
X31600000Y-126600000D01*
X31600000Y-126600000D02*
X32500000Y-127500000D01*
X47600000Y-145900000D02*
X47600000Y-142600000D01*
X47600000Y-142600000D02*
X32500000Y-127500000D01*
X93000000Y-142600000D02*
X47600000Y-142600000D01*
X96300000Y-145900000D02*
X93000000Y-142600000D01*
X97550000Y-145900000D02*
X96300000Y-145900000D01*
X97550000Y-144900000D02*
X99950000Y-142500000D01*
X97550000Y-145900000D02*
X97550000Y-144900000D01*
X177700000Y-176600000D02*
X177450000Y-176600000D01*
X127450000Y-177600000D02*
X127450000Y-176600000D01*
X129850000Y-180000000D02*
X127450000Y-177600000D01*
X82100000Y-180000000D02*
X129850000Y-180000000D01*
X78700000Y-176600000D02*
X82100000Y-180000000D01*
X77450000Y-176600000D02*
X78700000Y-176600000D01*
X28700000Y-176600000D02*
X27450000Y-176600000D01*
X82100000Y-180000000D02*
X32100000Y-180000000D01*
X77450000Y-126600000D02*
X116600000Y-126600000D01*
X116600000Y-126600000D02*
X120000000Y-130000000D01*
X126200000Y-126600000D02*
X127450000Y-126600000D01*
X122800000Y-130000000D02*
X126200000Y-126600000D01*
X120000000Y-130000000D02*
X122800000Y-130000000D01*
X172500000Y-180000000D02*
X172000000Y-180000000D01*
X172000000Y-180000000D02*
X129850000Y-180000000D01*
X177400000Y-176600000D02*
X174000000Y-180000000D01*
X177450000Y-176600000D02*
X177400000Y-176600000D01*
X172000000Y-180000000D02*
X174000000Y-180000000D01*
X176499999Y-77550001D02*
X176449999Y-77550001D01*
X177450000Y-76600000D02*
X176499999Y-77550001D01*
X176449999Y-77550001D02*
X157000000Y-97000000D01*
X148950000Y-97000000D02*
X147550000Y-98400000D01*
X157000000Y-97000000D02*
X148950000Y-97000000D01*
X127450000Y-26600000D02*
X127450000Y-29550000D01*
X145950000Y-48050000D02*
X146300000Y-48400000D01*
X127450000Y-29550000D02*
X145950000Y-48050000D01*
X142900000Y-45000000D02*
X145950000Y-48050000D01*
X176499999Y-27550001D02*
X176449999Y-27550001D01*
X177450000Y-26600000D02*
X176499999Y-27550001D01*
X176449999Y-27550001D02*
X158000000Y-46000000D01*
X149950000Y-46000000D02*
X147550000Y-48400000D01*
X158000000Y-46000000D02*
X149950000Y-46000000D01*
X128250000Y-126600000D02*
X147550000Y-145900000D01*
X127450000Y-126600000D02*
X128250000Y-126600000D01*
X144150000Y-142500000D02*
X147550000Y-145900000D01*
X99950000Y-142500000D02*
X144150000Y-142500000D01*
X177450000Y-126600000D02*
X167050000Y-137000000D01*
X167050000Y-137000000D02*
X167000000Y-137000000D01*
X167000000Y-137000000D02*
X161000000Y-143000000D01*
X150450000Y-143000000D02*
X147550000Y-145900000D01*
X161000000Y-143000000D02*
X150450000Y-143000000D01*
X31050000Y-178950000D02*
X28700000Y-176600000D01*
X32100000Y-180000000D02*
X31050000Y-178950000D01*
X27500000Y-26650000D02*
X27450000Y-26600000D01*
X122800000Y-80000000D02*
X126200000Y-76600000D01*
X127600000Y-76600000D02*
X130000000Y-79000000D01*
X127450000Y-76600000D02*
X127600000Y-76600000D01*
X130000000Y-79000000D02*
X130000000Y-81100000D01*
X97400000Y-98400000D02*
X97550000Y-98400000D01*
X51000000Y-95000000D02*
X94000000Y-95000000D01*
X94000000Y-95000000D02*
X97400000Y-98400000D01*
X47600000Y-98400000D02*
X51000000Y-95000000D01*
X47550000Y-98400000D02*
X47600000Y-98400000D01*
X47550000Y-98400000D02*
X44100000Y-98400000D01*
X27450000Y-26600000D02*
X27400000Y-26600000D01*
X27400000Y-26600000D02*
X24000000Y-30000000D01*
X70000000Y-30000000D02*
X66600000Y-26600000D01*
X66600000Y-26600000D02*
X27450000Y-26600000D01*
X74050000Y-30000000D02*
X70000000Y-30000000D01*
X77450000Y-26600000D02*
X74050000Y-30000000D01*
X47550000Y-48400000D02*
X39600000Y-48400000D01*
X18000000Y-70000000D02*
X18000000Y-76000000D01*
X18000000Y-76000000D02*
X22000000Y-80000000D01*
X24050000Y-80000000D02*
X27450000Y-76600000D01*
X22000000Y-80000000D02*
X24050000Y-80000000D01*
X50950000Y-45000000D02*
X47550000Y-48400000D01*
X57500000Y-47500000D02*
X55000000Y-45000000D01*
X97550000Y-48400000D02*
X97300000Y-48400000D01*
X55000000Y-45000000D02*
X50950000Y-45000000D01*
X97300000Y-48400000D02*
X96400000Y-47500000D01*
X96400000Y-47500000D02*
X57500000Y-47500000D01*
X17000000Y-125000000D02*
X21000000Y-129000000D01*
X27400000Y-126600000D02*
X27450000Y-126600000D01*
X25000000Y-129000000D02*
X27400000Y-126600000D01*
X17000000Y-120000000D02*
X17000000Y-125000000D01*
X21000000Y-129000000D02*
X25000000Y-129000000D01*
X47550000Y-98400000D02*
X38600000Y-98400000D01*
X44100000Y-145900000D02*
X47600000Y-145900000D01*
X43100000Y-145900000D02*
X44100000Y-145900000D01*
X24050000Y-180000000D02*
X20000000Y-180000000D01*
X17000000Y-177000000D02*
X17000000Y-172000000D01*
X20000000Y-180000000D02*
X17000000Y-177000000D01*
X27450000Y-176600000D02*
X24050000Y-180000000D01*
X23000000Y-30000000D02*
X23000000Y-63000000D01*
X23000000Y-63000000D02*
X24000000Y-64000000D01*
X23000000Y-30000000D02*
X24000000Y-30000000D01*
X24000000Y-64000000D02*
X18000000Y-70000000D01*
X39600000Y-48400000D02*
X24000000Y-64000000D01*
X18000000Y-30000000D02*
X23000000Y-30000000D01*
X31500000Y-104500000D02*
X32000000Y-105000000D01*
X31500000Y-77500000D02*
X31500000Y-104500000D01*
X30000000Y-77500000D02*
X31500000Y-77500000D01*
X38600000Y-98400000D02*
X32000000Y-105000000D01*
X32000000Y-105000000D02*
X17000000Y-120000000D01*
X31500000Y-77500000D02*
X67500000Y-77500000D01*
X31600000Y-126600000D02*
X31600000Y-156600000D01*
X31600000Y-156600000D02*
X32000000Y-157000000D01*
X32000000Y-157000000D02*
X43100000Y-145900000D01*
X17000000Y-172000000D02*
X32000000Y-157000000D01*
X63600000Y-126600000D02*
X31600000Y-126600000D01*
X67000000Y-130000000D02*
X63600000Y-126600000D01*
X74000000Y-130000000D02*
X67000000Y-130000000D01*
X77400000Y-126600000D02*
X74000000Y-130000000D01*
X77450000Y-126600000D02*
X77400000Y-126600000D01*
D21*
X98500000Y-6000000D02*
X97500000Y-5000000D01*
X98500000Y-17500000D02*
X98500000Y-6000000D01*
X97500000Y-5000000D02*
X96712500Y-5000000D01*
X91712500Y-5000000D02*
X90500000Y-6212500D01*
X97500000Y-5000000D02*
X91712500Y-5000000D01*
X11318000Y-35682000D02*
X11318000Y-37444000D01*
X14000000Y-33000000D02*
X11318000Y-35682000D01*
X14000000Y-15000000D02*
X14000000Y-33000000D01*
X20787500Y-6212500D02*
X14000000Y-13000000D01*
X90500000Y-6212500D02*
X20787500Y-6212500D01*
X14000000Y-15000000D02*
X14000000Y-13000000D01*
X182774999Y-99725001D02*
X182000000Y-100500000D01*
X194774999Y-99725001D02*
X182774999Y-99725001D01*
X195000000Y-99500000D02*
X194774999Y-99725001D01*
X178000000Y-100500000D02*
X177500000Y-101000000D01*
X182000000Y-100500000D02*
X178000000Y-100500000D01*
X180000000Y-8000000D02*
X195000000Y-23000000D01*
X117000000Y-8000000D02*
X180000000Y-8000000D01*
X84000000Y-13000000D02*
X92000000Y-21000000D01*
X195000000Y-23000000D02*
X195000000Y-99500000D01*
X104000000Y-21000000D02*
X117000000Y-8000000D01*
X92000000Y-21000000D02*
X104000000Y-21000000D01*
X23000000Y-13000000D02*
X84000000Y-13000000D01*
X16000000Y-20000000D02*
X23000000Y-13000000D01*
X16000000Y-34794000D02*
X16000000Y-20000000D01*
X11318000Y-39476000D02*
X16000000Y-34794000D01*
X99500000Y-188500000D02*
X100500000Y-187500000D01*
X99500000Y-195000000D02*
X99500000Y-188500000D01*
X92712500Y-195000000D02*
X92500000Y-194787500D01*
X99500000Y-195000000D02*
X92712500Y-195000000D01*
X16000000Y-46190000D02*
X11318000Y-41508000D01*
X25000000Y-93000000D02*
X16000000Y-84000000D01*
X25000000Y-101000000D02*
X25000000Y-93000000D01*
X5000000Y-121000000D02*
X25000000Y-101000000D01*
X5000000Y-177000000D02*
X5000000Y-121000000D01*
X16000000Y-84000000D02*
X16000000Y-46190000D01*
X22787500Y-194787500D02*
X5000000Y-177000000D01*
X92500000Y-194787500D02*
X22787500Y-194787500D01*
X5000000Y-102500000D02*
X17500000Y-102500000D01*
X17212500Y-102212500D02*
X17500000Y-102500000D01*
X17500000Y-100287500D02*
X7212500Y-90000000D01*
X17500000Y-102500000D02*
X17500000Y-100287500D01*
X11318000Y-48682000D02*
X11318000Y-43540000D01*
X7212500Y-52787500D02*
X11318000Y-48682000D01*
X7212500Y-90000000D02*
X7212500Y-52787500D01*
D20*
X11000000Y-20000000D02*
X11000000Y-24000000D01*
D21*
X22550000Y-23400000D02*
X21125306Y-23400000D01*
X21125306Y-23400000D02*
X20112653Y-22387347D01*
X72550000Y-23400000D02*
X70900000Y-23400000D01*
X70900000Y-23400000D02*
X70000000Y-22500000D01*
X122550000Y-23400000D02*
X120900000Y-23400000D01*
X120900000Y-23400000D02*
X120000000Y-22500000D01*
X172550000Y-23400000D02*
X170900000Y-23400000D01*
X170900000Y-23400000D02*
X170000000Y-22500000D01*
X154300000Y-50000000D02*
X155000000Y-50000000D01*
X152450000Y-51600000D02*
X152700000Y-51600000D01*
X152700000Y-51600000D02*
X154300000Y-50000000D01*
X122550000Y-73400000D02*
X120900000Y-73400000D01*
X120900000Y-73400000D02*
X120000000Y-72500000D01*
X72550000Y-73400000D02*
X70900000Y-73400000D01*
X70900000Y-73400000D02*
X70000000Y-72500000D01*
X22550000Y-73400000D02*
X20900000Y-73400000D01*
X20900000Y-73400000D02*
X20000000Y-72500000D01*
X52450000Y-101600000D02*
X54100000Y-101600000D01*
X54100000Y-101600000D02*
X55000000Y-102500000D01*
X102450000Y-101600000D02*
X104100000Y-101600000D01*
X104100000Y-101600000D02*
X105000000Y-102500000D01*
X152450000Y-101600000D02*
X154100000Y-101600000D01*
X154100000Y-101600000D02*
X155000000Y-102500000D01*
X172550000Y-123400000D02*
X170900000Y-123400000D01*
X170900000Y-123400000D02*
X170000000Y-122500000D01*
X122550000Y-123400000D02*
X120900000Y-123400000D01*
X120900000Y-123400000D02*
X120000000Y-122500000D01*
X72550000Y-123400000D02*
X70900000Y-123400000D01*
X70900000Y-123400000D02*
X70000000Y-122500000D01*
X22550000Y-123400000D02*
X20900000Y-123400000D01*
X20900000Y-123400000D02*
X20000000Y-122500000D01*
X52500000Y-149100000D02*
X54100000Y-149100000D01*
X54100000Y-149100000D02*
X55000000Y-150000000D01*
X102450000Y-149100000D02*
X104100000Y-149100000D01*
X104100000Y-149100000D02*
X105000000Y-150000000D01*
X152450000Y-149100000D02*
X154100000Y-149100000D01*
X154100000Y-149100000D02*
X155000000Y-150000000D01*
X172550000Y-173400000D02*
X170900000Y-173400000D01*
X170900000Y-173400000D02*
X170000000Y-172500000D01*
X122550000Y-173400000D02*
X120900000Y-173400000D01*
X120900000Y-173400000D02*
X120000000Y-172500000D01*
X72550000Y-173400000D02*
X70900000Y-173400000D01*
X70900000Y-173400000D02*
X70000000Y-172500000D01*
X22550000Y-173400000D02*
X20900000Y-173400000D01*
X20900000Y-173400000D02*
X20000000Y-172500000D01*
X177500000Y-102575000D02*
X177500000Y-106000000D01*
X90500000Y-7787500D02*
X90500000Y-9500000D01*
X52450000Y-51600000D02*
X52450000Y-52450000D01*
X52450000Y-52450000D02*
X55000000Y-55000000D01*
X92500000Y-193212500D02*
X92500000Y-191500000D01*
X102450000Y-51600000D02*
X102450000Y-57450000D01*
X170400000Y-73400000D02*
X170000000Y-73000000D01*
X172550000Y-73400000D02*
X170400000Y-73400000D01*
X8787500Y-90000000D02*
X12000000Y-90000000D01*
X71400000Y-26600000D02*
X72550000Y-26600000D01*
X68200000Y-23400000D02*
X71400000Y-26600000D01*
X27450000Y-23400000D02*
X68200000Y-23400000D01*
X22550000Y-26600000D02*
X22300000Y-26600000D01*
X19600000Y-26600000D02*
X19000000Y-26000000D01*
X22550000Y-26600000D02*
X19600000Y-26600000D01*
X77450000Y-23400000D02*
X119350000Y-23400000D01*
X122550000Y-26600000D02*
X119350000Y-23400000D01*
X128700000Y-23400000D02*
X127450000Y-23400000D01*
X168100000Y-23400000D02*
X128700000Y-23400000D01*
X171300000Y-26600000D02*
X168100000Y-23400000D01*
X172550000Y-26600000D02*
X171300000Y-26600000D01*
X69350000Y-173400000D02*
X72550000Y-176600000D01*
X27450000Y-173400000D02*
X69350000Y-173400000D01*
X152450000Y-48400000D02*
X153450000Y-48400000D01*
X177450000Y-23400000D02*
X178400000Y-23400000D01*
X178400000Y-23400000D02*
X180000000Y-25000000D01*
X180000000Y-25000000D02*
X180000000Y-29000000D01*
X160600000Y-48400000D02*
X152450000Y-48400000D01*
X180000000Y-29000000D02*
X160600000Y-48400000D01*
X119350000Y-173400000D02*
X77450000Y-173400000D01*
X122550000Y-176600000D02*
X119350000Y-173400000D01*
X78700000Y-73400000D02*
X77450000Y-73400000D01*
X118100000Y-73400000D02*
X78700000Y-73400000D01*
X121300000Y-76600000D02*
X118100000Y-73400000D01*
X122550000Y-76600000D02*
X121300000Y-76600000D01*
X169350000Y-173400000D02*
X127450000Y-173400000D01*
X172550000Y-176600000D02*
X169350000Y-173400000D01*
X127700000Y-73400000D02*
X127450000Y-73400000D01*
X127450000Y-73400000D02*
X167400000Y-73400000D01*
X170600000Y-76600000D02*
X172550000Y-76600000D01*
X167400000Y-73400000D02*
X170600000Y-76600000D01*
X177700000Y-73400000D02*
X180000000Y-75700000D01*
X177450000Y-73400000D02*
X177700000Y-73400000D01*
X180000000Y-75700000D02*
X180000000Y-80000000D01*
X161600000Y-98400000D02*
X152450000Y-98400000D01*
X180000000Y-80000000D02*
X161600000Y-98400000D01*
X102700000Y-98400000D02*
X102450000Y-98400000D01*
X103700000Y-99400000D02*
X102700000Y-98400000D01*
X103700000Y-99650000D02*
X103700000Y-99400000D01*
X105650000Y-101600000D02*
X103700000Y-99650000D01*
X147550000Y-101600000D02*
X105650000Y-101600000D01*
X97300000Y-101600000D02*
X97550000Y-101600000D01*
X96300000Y-100600000D02*
X97300000Y-101600000D01*
X96300000Y-100350000D02*
X96300000Y-100600000D01*
X94350000Y-98400000D02*
X96300000Y-100350000D01*
X52450000Y-98400000D02*
X94350000Y-98400000D01*
X22550000Y-125600000D02*
X22550000Y-126600000D01*
X46550000Y-101600000D02*
X22550000Y-125600000D01*
X47550000Y-101600000D02*
X46550000Y-101600000D01*
X72300000Y-126600000D02*
X72550000Y-126600000D01*
X71300000Y-125600000D02*
X72300000Y-126600000D01*
X71300000Y-125350000D02*
X71300000Y-125600000D01*
X69350000Y-123400000D02*
X71300000Y-125350000D01*
X27450000Y-123400000D02*
X69350000Y-123400000D01*
X122300000Y-126600000D02*
X122550000Y-126600000D01*
X121300000Y-125600000D02*
X122300000Y-126600000D01*
X121300000Y-125350000D02*
X121300000Y-125600000D01*
X119350000Y-123400000D02*
X121300000Y-125350000D01*
X77450000Y-123400000D02*
X119350000Y-123400000D01*
X172300000Y-126600000D02*
X172550000Y-126600000D01*
X128700000Y-123400000D02*
X127450000Y-123400000D01*
X168100000Y-123400000D02*
X128700000Y-123400000D01*
X171300000Y-126600000D02*
X168100000Y-123400000D01*
X172550000Y-126600000D02*
X171300000Y-126600000D01*
X177450000Y-123400000D02*
X180400000Y-123400000D01*
X180400000Y-123400000D02*
X183000000Y-126000000D01*
X183000000Y-126000000D02*
X183000000Y-130000000D01*
X167100000Y-145900000D02*
X152450000Y-145900000D01*
X183000000Y-130000000D02*
X167100000Y-145900000D01*
X102700000Y-145900000D02*
X102450000Y-145900000D01*
X103700000Y-146900000D02*
X102700000Y-145900000D01*
X103700000Y-147150000D02*
X103700000Y-146900000D01*
X105650000Y-149100000D02*
X103700000Y-147150000D01*
X147550000Y-149100000D02*
X105650000Y-149100000D01*
X52750000Y-145900000D02*
X52500000Y-145900000D01*
X53750000Y-146900000D02*
X52750000Y-145900000D01*
X53750000Y-147150000D02*
X53750000Y-146900000D01*
X55700000Y-149100000D02*
X53750000Y-147150000D01*
X97550000Y-149100000D02*
X55700000Y-149100000D01*
X9540000Y-44556000D02*
X9540000Y-38460000D01*
X100000000Y-15500000D02*
X100000000Y-5000000D01*
X195000000Y-102000000D02*
X184000000Y-102000000D01*
X102000000Y-195000000D02*
X102000000Y-185500000D01*
X6000000Y-101000000D02*
X5000000Y-100000000D01*
X15500000Y-101000000D02*
X6000000Y-101000000D01*
X195000000Y-102000000D02*
X195000000Y-172000000D01*
X172000000Y-195000000D02*
X102000000Y-195000000D01*
X195000000Y-172000000D02*
X172000000Y-195000000D01*
X182000000Y-5000000D02*
X100000000Y-5000000D01*
X102000000Y-195000000D02*
X100000000Y-197000000D01*
X100000000Y-197000000D02*
X22000000Y-197000000D01*
X6684518Y-44556000D02*
X9540000Y-44556000D01*
X4898999Y-46341519D02*
X6684518Y-44556000D01*
X5000000Y-100000000D02*
X4898999Y-99898999D01*
X3000000Y-102000000D02*
X5000000Y-100000000D01*
X3000000Y-178000000D02*
X3000000Y-102000000D01*
X22000000Y-197000000D02*
X3000000Y-178000000D01*
X197000000Y-20000000D02*
X197000000Y-100000000D01*
X197000000Y-100000000D02*
X195000000Y-102000000D01*
X197000000Y-20000000D02*
X182000000Y-5000000D01*
X4898999Y-48358481D02*
X4898999Y-46341519D01*
X5000000Y-48459482D02*
X4898999Y-48358481D01*
X5000000Y-100000000D02*
X5000000Y-48459482D01*
X98000000Y-3000000D02*
X100000000Y-5000000D01*
X19000000Y-3000000D02*
X98000000Y-3000000D01*
X3000000Y-19000000D02*
X19000000Y-3000000D01*
X3000000Y-33759482D02*
X3000000Y-19000000D01*
X7700518Y-38460000D02*
X3000000Y-33759482D01*
X9540000Y-38460000D02*
X7700518Y-38460000D01*
X102450000Y-48450000D02*
X105600000Y-51600000D01*
X102450000Y-48400000D02*
X102450000Y-48450000D01*
X147550000Y-51600000D02*
X105600000Y-51600000D01*
X52450000Y-48450000D02*
X55600000Y-51600000D01*
X52450000Y-48400000D02*
X52450000Y-48450000D01*
X97550000Y-51600000D02*
X55600000Y-51600000D01*
X22550000Y-75600000D02*
X22550000Y-76600000D01*
X46550000Y-51600000D02*
X22550000Y-75600000D01*
X47550000Y-51600000D02*
X46550000Y-51600000D01*
X72300000Y-76600000D02*
X72550000Y-76600000D01*
X71300000Y-75600000D02*
X72300000Y-76600000D01*
X71300000Y-75350000D02*
X71300000Y-75600000D01*
X69350000Y-73400000D02*
X71300000Y-75350000D01*
X27450000Y-73400000D02*
X69350000Y-73400000D01*
X22550000Y-175600000D02*
X22550000Y-176600000D01*
X22550000Y-175460002D02*
X22550000Y-175600000D01*
X47600000Y-150410002D02*
X22550000Y-175460002D01*
X47600000Y-149100000D02*
X47600000Y-150410002D01*
M02*
