G04 #@! TF.GenerationSoftware,KiCad,Pcbnew,(5.1.7-0-10_14)*
G04 #@! TF.CreationDate,2020-11-21T12:28:25-08:00*
G04 #@! TF.ProjectId,DDR Pad,44445220-5061-4642-9e6b-696361645f70,rev?*
G04 #@! TF.SameCoordinates,Original*
G04 #@! TF.FileFunction,Soldermask,Top*
G04 #@! TF.FilePolarity,Negative*
%FSLAX46Y46*%
G04 Gerber Fmt 4.6, Leading zero omitted, Abs format (unit mm)*
G04 Created by KiCad (PCBNEW (5.1.7-0-10_14)) date 2020-11-21 12:28:25*
%MOMM*%
%LPD*%
G01*
G04 APERTURE LIST*
%ADD10C,4.300000*%
%ADD11C,1.803400*%
%ADD12C,0.850000*%
%ADD13O,1.750000X1.400000*%
%ADD14C,0.100000*%
%ADD15O,2.000000X1.700000*%
%ADD16O,1.400000X1.750000*%
%ADD17O,1.700000X2.000000*%
%ADD18C,3.302000*%
%ADD19C,1.447800*%
%ADD20R,1.447800X1.447800*%
%ADD21R,1.500000X1.000000*%
G04 APERTURE END LIST*
D10*
X7000000Y-7000000D03*
D11*
X8000000Y-27000000D03*
X8000000Y-22000000D03*
X8000000Y-17000000D03*
D10*
X7000000Y-193000000D03*
X193000000Y-193000000D03*
X193000000Y-7000000D03*
G36*
G01*
X8350000Y-90256250D02*
X8350000Y-89743750D01*
G75*
G02*
X8568750Y-89525000I218750J0D01*
G01*
X9006250Y-89525000D01*
G75*
G02*
X9225000Y-89743750I0J-218750D01*
G01*
X9225000Y-90256250D01*
G75*
G02*
X9006250Y-90475000I-218750J0D01*
G01*
X8568750Y-90475000D01*
G75*
G02*
X8350000Y-90256250I0J218750D01*
G01*
G37*
G36*
G01*
X6775000Y-90256250D02*
X6775000Y-89743750D01*
G75*
G02*
X6993750Y-89525000I218750J0D01*
G01*
X7431250Y-89525000D01*
G75*
G02*
X7650000Y-89743750I0J-218750D01*
G01*
X7650000Y-90256250D01*
G75*
G02*
X7431250Y-90475000I-218750J0D01*
G01*
X6993750Y-90475000D01*
G75*
G02*
X6775000Y-90256250I0J218750D01*
G01*
G37*
G36*
G01*
X92756250Y-193650000D02*
X92243750Y-193650000D01*
G75*
G02*
X92025000Y-193431250I0J218750D01*
G01*
X92025000Y-192993750D01*
G75*
G02*
X92243750Y-192775000I218750J0D01*
G01*
X92756250Y-192775000D01*
G75*
G02*
X92975000Y-192993750I0J-218750D01*
G01*
X92975000Y-193431250D01*
G75*
G02*
X92756250Y-193650000I-218750J0D01*
G01*
G37*
G36*
G01*
X92756250Y-195225000D02*
X92243750Y-195225000D01*
G75*
G02*
X92025000Y-195006250I0J218750D01*
G01*
X92025000Y-194568750D01*
G75*
G02*
X92243750Y-194350000I218750J0D01*
G01*
X92756250Y-194350000D01*
G75*
G02*
X92975000Y-194568750I0J-218750D01*
G01*
X92975000Y-195006250D01*
G75*
G02*
X92756250Y-195225000I-218750J0D01*
G01*
G37*
G36*
G01*
X177243750Y-102137500D02*
X177756250Y-102137500D01*
G75*
G02*
X177975000Y-102356250I0J-218750D01*
G01*
X177975000Y-102793750D01*
G75*
G02*
X177756250Y-103012500I-218750J0D01*
G01*
X177243750Y-103012500D01*
G75*
G02*
X177025000Y-102793750I0J218750D01*
G01*
X177025000Y-102356250D01*
G75*
G02*
X177243750Y-102137500I218750J0D01*
G01*
G37*
G36*
G01*
X177243750Y-100562500D02*
X177756250Y-100562500D01*
G75*
G02*
X177975000Y-100781250I0J-218750D01*
G01*
X177975000Y-101218750D01*
G75*
G02*
X177756250Y-101437500I-218750J0D01*
G01*
X177243750Y-101437500D01*
G75*
G02*
X177025000Y-101218750I0J218750D01*
G01*
X177025000Y-100781250D01*
G75*
G02*
X177243750Y-100562500I218750J0D01*
G01*
G37*
G36*
G01*
X90243750Y-7350000D02*
X90756250Y-7350000D01*
G75*
G02*
X90975000Y-7568750I0J-218750D01*
G01*
X90975000Y-8006250D01*
G75*
G02*
X90756250Y-8225000I-218750J0D01*
G01*
X90243750Y-8225000D01*
G75*
G02*
X90025000Y-8006250I0J218750D01*
G01*
X90025000Y-7568750D01*
G75*
G02*
X90243750Y-7350000I218750J0D01*
G01*
G37*
G36*
G01*
X90243750Y-5775000D02*
X90756250Y-5775000D01*
G75*
G02*
X90975000Y-5993750I0J-218750D01*
G01*
X90975000Y-6431250D01*
G75*
G02*
X90756250Y-6650000I-218750J0D01*
G01*
X90243750Y-6650000D01*
G75*
G02*
X90025000Y-6431250I0J218750D01*
G01*
X90025000Y-5993750D01*
G75*
G02*
X90243750Y-5775000I218750J0D01*
G01*
G37*
D12*
X13700000Y-104150000D03*
D13*
X15500000Y-101000000D03*
D14*
G36*
X16629804Y-102401227D02*
G01*
X16644030Y-102354329D01*
X16667133Y-102311107D01*
X16698223Y-102273223D01*
X17098223Y-101873223D01*
X17136107Y-101842133D01*
X17179329Y-101819030D01*
X17226227Y-101804804D01*
X17275000Y-101800000D01*
X18125000Y-101800000D01*
X18173773Y-101804804D01*
X18220671Y-101819030D01*
X18263893Y-101842133D01*
X18301777Y-101873223D01*
X18332867Y-101911107D01*
X18355970Y-101954329D01*
X18370196Y-102001227D01*
X18375000Y-102050000D01*
X18375000Y-102950000D01*
X18370196Y-102998773D01*
X18355970Y-103045671D01*
X18332867Y-103088893D01*
X18301777Y-103126777D01*
X18263893Y-103157867D01*
X18220671Y-103180970D01*
X18173773Y-103195196D01*
X18125000Y-103200000D01*
X16875000Y-103200000D01*
X16826227Y-103195196D01*
X16779329Y-103180970D01*
X16736107Y-103157867D01*
X16698223Y-103126777D01*
X16667133Y-103088893D01*
X16644030Y-103045671D01*
X16629804Y-102998773D01*
X16625000Y-102950000D01*
X16625000Y-102450000D01*
X16629804Y-102401227D01*
G37*
D15*
X5000000Y-100000000D03*
G36*
G01*
X5750000Y-103350000D02*
X4250000Y-103350000D01*
G75*
G02*
X4000000Y-103100000I0J250000D01*
G01*
X4000000Y-101900000D01*
G75*
G02*
X4250000Y-101650000I250000J0D01*
G01*
X5750000Y-101650000D01*
G75*
G02*
X6000000Y-101900000I0J-250000D01*
G01*
X6000000Y-103100000D01*
G75*
G02*
X5750000Y-103350000I-250000J0D01*
G01*
G37*
D12*
X98850000Y-183700000D03*
D16*
X102000000Y-185500000D03*
D14*
G36*
X100598773Y-186629804D02*
G01*
X100645671Y-186644030D01*
X100688893Y-186667133D01*
X100726777Y-186698223D01*
X101126777Y-187098223D01*
X101157867Y-187136107D01*
X101180970Y-187179329D01*
X101195196Y-187226227D01*
X101200000Y-187275000D01*
X101200000Y-188125000D01*
X101195196Y-188173773D01*
X101180970Y-188220671D01*
X101157867Y-188263893D01*
X101126777Y-188301777D01*
X101088893Y-188332867D01*
X101045671Y-188355970D01*
X100998773Y-188370196D01*
X100950000Y-188375000D01*
X100050000Y-188375000D01*
X100001227Y-188370196D01*
X99954329Y-188355970D01*
X99911107Y-188332867D01*
X99873223Y-188301777D01*
X99842133Y-188263893D01*
X99819030Y-188220671D01*
X99804804Y-188173773D01*
X99800000Y-188125000D01*
X99800000Y-186875000D01*
X99804804Y-186826227D01*
X99819030Y-186779329D01*
X99842133Y-186736107D01*
X99873223Y-186698223D01*
X99911107Y-186667133D01*
X99954329Y-186644030D01*
X100001227Y-186629804D01*
X100050000Y-186625000D01*
X100550000Y-186625000D01*
X100598773Y-186629804D01*
G37*
D17*
X102000000Y-195000000D03*
G36*
G01*
X98650000Y-195750000D02*
X98650000Y-194250000D01*
G75*
G02*
X98900000Y-194000000I250000J0D01*
G01*
X100100000Y-194000000D01*
G75*
G02*
X100350000Y-194250000I0J-250000D01*
G01*
X100350000Y-195750000D01*
G75*
G02*
X100100000Y-196000000I-250000J0D01*
G01*
X98900000Y-196000000D01*
G75*
G02*
X98650000Y-195750000I0J250000D01*
G01*
G37*
D12*
X96850000Y-13700000D03*
D16*
X100000000Y-15500000D03*
D14*
G36*
X98598773Y-16629804D02*
G01*
X98645671Y-16644030D01*
X98688893Y-16667133D01*
X98726777Y-16698223D01*
X99126777Y-17098223D01*
X99157867Y-17136107D01*
X99180970Y-17179329D01*
X99195196Y-17226227D01*
X99200000Y-17275000D01*
X99200000Y-18125000D01*
X99195196Y-18173773D01*
X99180970Y-18220671D01*
X99157867Y-18263893D01*
X99126777Y-18301777D01*
X99088893Y-18332867D01*
X99045671Y-18355970D01*
X98998773Y-18370196D01*
X98950000Y-18375000D01*
X98050000Y-18375000D01*
X98001227Y-18370196D01*
X97954329Y-18355970D01*
X97911107Y-18332867D01*
X97873223Y-18301777D01*
X97842133Y-18263893D01*
X97819030Y-18220671D01*
X97804804Y-18173773D01*
X97800000Y-18125000D01*
X97800000Y-16875000D01*
X97804804Y-16826227D01*
X97819030Y-16779329D01*
X97842133Y-16736107D01*
X97873223Y-16698223D01*
X97911107Y-16667133D01*
X97954329Y-16644030D01*
X98001227Y-16629804D01*
X98050000Y-16625000D01*
X98550000Y-16625000D01*
X98598773Y-16629804D01*
G37*
D17*
X100000000Y-5000000D03*
G36*
G01*
X96650000Y-5750000D02*
X96650000Y-4250000D01*
G75*
G02*
X96900000Y-4000000I250000J0D01*
G01*
X98100000Y-4000000D01*
G75*
G02*
X98350000Y-4250000I0J-250000D01*
G01*
X98350000Y-5750000D01*
G75*
G02*
X98100000Y-6000000I-250000J0D01*
G01*
X96900000Y-6000000D01*
G75*
G02*
X96650000Y-5750000I0J250000D01*
G01*
G37*
D12*
X185800000Y-98850000D03*
D13*
X184000000Y-102000000D03*
D14*
G36*
X182870196Y-100598773D02*
G01*
X182855970Y-100645671D01*
X182832867Y-100688893D01*
X182801777Y-100726777D01*
X182401777Y-101126777D01*
X182363893Y-101157867D01*
X182320671Y-101180970D01*
X182273773Y-101195196D01*
X182225000Y-101200000D01*
X181375000Y-101200000D01*
X181326227Y-101195196D01*
X181279329Y-101180970D01*
X181236107Y-101157867D01*
X181198223Y-101126777D01*
X181167133Y-101088893D01*
X181144030Y-101045671D01*
X181129804Y-100998773D01*
X181125000Y-100950000D01*
X181125000Y-100050000D01*
X181129804Y-100001227D01*
X181144030Y-99954329D01*
X181167133Y-99911107D01*
X181198223Y-99873223D01*
X181236107Y-99842133D01*
X181279329Y-99819030D01*
X181326227Y-99804804D01*
X181375000Y-99800000D01*
X182625000Y-99800000D01*
X182673773Y-99804804D01*
X182720671Y-99819030D01*
X182763893Y-99842133D01*
X182801777Y-99873223D01*
X182832867Y-99911107D01*
X182855970Y-99954329D01*
X182870196Y-100001227D01*
X182875000Y-100050000D01*
X182875000Y-100550000D01*
X182870196Y-100598773D01*
G37*
D15*
X195000000Y-102000000D03*
G36*
G01*
X194250000Y-98650000D02*
X195750000Y-98650000D01*
G75*
G02*
X196000000Y-98900000I0J-250000D01*
G01*
X196000000Y-100100000D01*
G75*
G02*
X195750000Y-100350000I-250000J0D01*
G01*
X194250000Y-100350000D01*
G75*
G02*
X194000000Y-100100000I0J250000D01*
G01*
X194000000Y-98900000D01*
G75*
G02*
X194250000Y-98650000I250000J0D01*
G01*
G37*
D18*
X7000000Y-47350000D03*
X7000000Y-34650000D03*
D19*
X11318000Y-37444000D03*
X9540000Y-38460000D03*
X11318000Y-39476000D03*
X9540000Y-40492000D03*
X11318000Y-41508000D03*
X9540000Y-42524000D03*
X11318000Y-43540000D03*
D20*
X9540000Y-44556000D03*
D21*
X177450000Y-176600000D03*
X177450000Y-173400000D03*
X172550000Y-176600000D03*
X172550000Y-173400000D03*
X127450000Y-176600000D03*
X127450000Y-173400000D03*
X122550000Y-176600000D03*
X122550000Y-173400000D03*
X77450000Y-176600000D03*
X77450000Y-173400000D03*
X72550000Y-176600000D03*
X72550000Y-173400000D03*
X27450000Y-176600000D03*
X27450000Y-173400000D03*
X22550000Y-176600000D03*
X22550000Y-173400000D03*
X47600000Y-145900000D03*
X47600000Y-149100000D03*
X52500000Y-145900000D03*
X52500000Y-149100000D03*
X97550000Y-145900000D03*
X97550000Y-149100000D03*
X102450000Y-145900000D03*
X102450000Y-149100000D03*
X147550000Y-145900000D03*
X147550000Y-149100000D03*
X152450000Y-145900000D03*
X152450000Y-149100000D03*
X177450000Y-126600000D03*
X177450000Y-123400000D03*
X172550000Y-126600000D03*
X172550000Y-123400000D03*
X127450000Y-126600000D03*
X127450000Y-123400000D03*
X122550000Y-126600000D03*
X122550000Y-123400000D03*
X77450000Y-126600000D03*
X77450000Y-123400000D03*
X72550000Y-126600000D03*
X72550000Y-123400000D03*
X27450000Y-126600000D03*
X27450000Y-123400000D03*
X22550000Y-126600000D03*
X22550000Y-123400000D03*
X47550000Y-98400000D03*
X47550000Y-101600000D03*
X52450000Y-98400000D03*
X52450000Y-101600000D03*
X97550000Y-98400000D03*
X97550000Y-101600000D03*
X102450000Y-98400000D03*
X102450000Y-101600000D03*
X147550000Y-98400000D03*
X147550000Y-101600000D03*
X152450000Y-98400000D03*
X152450000Y-101600000D03*
X177450000Y-76600000D03*
X177450000Y-73400000D03*
X172550000Y-76600000D03*
X172550000Y-73400000D03*
X127450000Y-76600000D03*
X127450000Y-73400000D03*
X122550000Y-76600000D03*
X122550000Y-73400000D03*
X77450000Y-76600000D03*
X77450000Y-73400000D03*
X72550000Y-76600000D03*
X72550000Y-73400000D03*
X27450000Y-76600000D03*
X27450000Y-73400000D03*
X22550000Y-76600000D03*
X22550000Y-73400000D03*
X147550000Y-48400000D03*
X147550000Y-51600000D03*
X152450000Y-48400000D03*
X152450000Y-51600000D03*
X97550000Y-48400000D03*
X97550000Y-51600000D03*
X102450000Y-48400000D03*
X102450000Y-51600000D03*
X47550000Y-48400000D03*
X47550000Y-51600000D03*
X52450000Y-48400000D03*
X52450000Y-51600000D03*
X177450000Y-26600000D03*
X177450000Y-23400000D03*
X172550000Y-26600000D03*
X172550000Y-23400000D03*
X127450000Y-26600000D03*
X127450000Y-23400000D03*
X122550000Y-26600000D03*
X122550000Y-23400000D03*
X77450000Y-26600000D03*
X77450000Y-23400000D03*
X72550000Y-26600000D03*
X72550000Y-23400000D03*
X27450000Y-26600000D03*
X27450000Y-23400000D03*
X22550000Y-26600000D03*
X22550000Y-23400000D03*
M02*
