G04 #@! TF.GenerationSoftware,KiCad,Pcbnew,(5.1.7-0-10_14)*
G04 #@! TF.CreationDate,2020-11-21T12:28:25-08:00*
G04 #@! TF.ProjectId,DDR Pad,44445220-5061-4642-9e6b-696361645f70,rev?*
G04 #@! TF.SameCoordinates,Original*
G04 #@! TF.FileFunction,Copper,L2,Bot*
G04 #@! TF.FilePolarity,Positive*
%FSLAX46Y46*%
G04 Gerber Fmt 4.6, Leading zero omitted, Abs format (unit mm)*
G04 Created by KiCad (PCBNEW (5.1.7-0-10_14)) date 2020-11-21 12:28:25*
%MOMM*%
%LPD*%
G01*
G04 APERTURE LIST*
G04 #@! TA.AperFunction,ComponentPad*
%ADD10C,1.803400*%
G04 #@! TD*
G04 #@! TA.AperFunction,ComponentPad*
%ADD11O,1.750000X1.400000*%
G04 #@! TD*
G04 #@! TA.AperFunction,ComponentPad*
%ADD12C,0.100000*%
G04 #@! TD*
G04 #@! TA.AperFunction,ComponentPad*
%ADD13O,2.000000X1.700000*%
G04 #@! TD*
G04 #@! TA.AperFunction,ComponentPad*
%ADD14O,1.400000X1.750000*%
G04 #@! TD*
G04 #@! TA.AperFunction,ComponentPad*
%ADD15O,1.700000X2.000000*%
G04 #@! TD*
G04 #@! TA.AperFunction,ComponentPad*
%ADD16C,1.447800*%
G04 #@! TD*
G04 #@! TA.AperFunction,ComponentPad*
%ADD17R,1.447800X1.447800*%
G04 #@! TD*
G04 #@! TA.AperFunction,ViaPad*
%ADD18C,0.800000*%
G04 #@! TD*
G04 #@! TA.AperFunction,Conductor*
%ADD19C,1.400000*%
G04 #@! TD*
G04 #@! TA.AperFunction,Conductor*
%ADD20C,0.500000*%
G04 #@! TD*
G04 #@! TA.AperFunction,Conductor*
%ADD21C,0.254000*%
G04 #@! TD*
G04 #@! TA.AperFunction,Conductor*
%ADD22C,0.100000*%
G04 #@! TD*
G04 APERTURE END LIST*
D10*
X8000000Y-27000000D03*
X8000000Y-22000000D03*
X8000000Y-17000000D03*
D11*
X15500000Y-101000000D03*
G04 #@! TA.AperFunction,ComponentPad*
D12*
G36*
X16629804Y-102401227D02*
G01*
X16644030Y-102354329D01*
X16667133Y-102311107D01*
X16698223Y-102273223D01*
X17098223Y-101873223D01*
X17136107Y-101842133D01*
X17179329Y-101819030D01*
X17226227Y-101804804D01*
X17275000Y-101800000D01*
X18125000Y-101800000D01*
X18173773Y-101804804D01*
X18220671Y-101819030D01*
X18263893Y-101842133D01*
X18301777Y-101873223D01*
X18332867Y-101911107D01*
X18355970Y-101954329D01*
X18370196Y-102001227D01*
X18375000Y-102050000D01*
X18375000Y-102950000D01*
X18370196Y-102998773D01*
X18355970Y-103045671D01*
X18332867Y-103088893D01*
X18301777Y-103126777D01*
X18263893Y-103157867D01*
X18220671Y-103180970D01*
X18173773Y-103195196D01*
X18125000Y-103200000D01*
X16875000Y-103200000D01*
X16826227Y-103195196D01*
X16779329Y-103180970D01*
X16736107Y-103157867D01*
X16698223Y-103126777D01*
X16667133Y-103088893D01*
X16644030Y-103045671D01*
X16629804Y-102998773D01*
X16625000Y-102950000D01*
X16625000Y-102450000D01*
X16629804Y-102401227D01*
G37*
G04 #@! TD.AperFunction*
D13*
X5000000Y-100000000D03*
G04 #@! TA.AperFunction,ComponentPad*
G36*
G01*
X5750000Y-103350000D02*
X4250000Y-103350000D01*
G75*
G02*
X4000000Y-103100000I0J250000D01*
G01*
X4000000Y-101900000D01*
G75*
G02*
X4250000Y-101650000I250000J0D01*
G01*
X5750000Y-101650000D01*
G75*
G02*
X6000000Y-101900000I0J-250000D01*
G01*
X6000000Y-103100000D01*
G75*
G02*
X5750000Y-103350000I-250000J0D01*
G01*
G37*
G04 #@! TD.AperFunction*
D14*
X102000000Y-185500000D03*
G04 #@! TA.AperFunction,ComponentPad*
D12*
G36*
X100598773Y-186629804D02*
G01*
X100645671Y-186644030D01*
X100688893Y-186667133D01*
X100726777Y-186698223D01*
X101126777Y-187098223D01*
X101157867Y-187136107D01*
X101180970Y-187179329D01*
X101195196Y-187226227D01*
X101200000Y-187275000D01*
X101200000Y-188125000D01*
X101195196Y-188173773D01*
X101180970Y-188220671D01*
X101157867Y-188263893D01*
X101126777Y-188301777D01*
X101088893Y-188332867D01*
X101045671Y-188355970D01*
X100998773Y-188370196D01*
X100950000Y-188375000D01*
X100050000Y-188375000D01*
X100001227Y-188370196D01*
X99954329Y-188355970D01*
X99911107Y-188332867D01*
X99873223Y-188301777D01*
X99842133Y-188263893D01*
X99819030Y-188220671D01*
X99804804Y-188173773D01*
X99800000Y-188125000D01*
X99800000Y-186875000D01*
X99804804Y-186826227D01*
X99819030Y-186779329D01*
X99842133Y-186736107D01*
X99873223Y-186698223D01*
X99911107Y-186667133D01*
X99954329Y-186644030D01*
X100001227Y-186629804D01*
X100050000Y-186625000D01*
X100550000Y-186625000D01*
X100598773Y-186629804D01*
G37*
G04 #@! TD.AperFunction*
D15*
X102000000Y-195000000D03*
G04 #@! TA.AperFunction,ComponentPad*
G36*
G01*
X98650000Y-195750000D02*
X98650000Y-194250000D01*
G75*
G02*
X98900000Y-194000000I250000J0D01*
G01*
X100100000Y-194000000D01*
G75*
G02*
X100350000Y-194250000I0J-250000D01*
G01*
X100350000Y-195750000D01*
G75*
G02*
X100100000Y-196000000I-250000J0D01*
G01*
X98900000Y-196000000D01*
G75*
G02*
X98650000Y-195750000I0J250000D01*
G01*
G37*
G04 #@! TD.AperFunction*
D14*
X100000000Y-15500000D03*
G04 #@! TA.AperFunction,ComponentPad*
D12*
G36*
X98598773Y-16629804D02*
G01*
X98645671Y-16644030D01*
X98688893Y-16667133D01*
X98726777Y-16698223D01*
X99126777Y-17098223D01*
X99157867Y-17136107D01*
X99180970Y-17179329D01*
X99195196Y-17226227D01*
X99200000Y-17275000D01*
X99200000Y-18125000D01*
X99195196Y-18173773D01*
X99180970Y-18220671D01*
X99157867Y-18263893D01*
X99126777Y-18301777D01*
X99088893Y-18332867D01*
X99045671Y-18355970D01*
X98998773Y-18370196D01*
X98950000Y-18375000D01*
X98050000Y-18375000D01*
X98001227Y-18370196D01*
X97954329Y-18355970D01*
X97911107Y-18332867D01*
X97873223Y-18301777D01*
X97842133Y-18263893D01*
X97819030Y-18220671D01*
X97804804Y-18173773D01*
X97800000Y-18125000D01*
X97800000Y-16875000D01*
X97804804Y-16826227D01*
X97819030Y-16779329D01*
X97842133Y-16736107D01*
X97873223Y-16698223D01*
X97911107Y-16667133D01*
X97954329Y-16644030D01*
X98001227Y-16629804D01*
X98050000Y-16625000D01*
X98550000Y-16625000D01*
X98598773Y-16629804D01*
G37*
G04 #@! TD.AperFunction*
D15*
X100000000Y-5000000D03*
G04 #@! TA.AperFunction,ComponentPad*
G36*
G01*
X96650000Y-5750000D02*
X96650000Y-4250000D01*
G75*
G02*
X96900000Y-4000000I250000J0D01*
G01*
X98100000Y-4000000D01*
G75*
G02*
X98350000Y-4250000I0J-250000D01*
G01*
X98350000Y-5750000D01*
G75*
G02*
X98100000Y-6000000I-250000J0D01*
G01*
X96900000Y-6000000D01*
G75*
G02*
X96650000Y-5750000I0J250000D01*
G01*
G37*
G04 #@! TD.AperFunction*
D11*
X184000000Y-102000000D03*
G04 #@! TA.AperFunction,ComponentPad*
D12*
G36*
X182870196Y-100598773D02*
G01*
X182855970Y-100645671D01*
X182832867Y-100688893D01*
X182801777Y-100726777D01*
X182401777Y-101126777D01*
X182363893Y-101157867D01*
X182320671Y-101180970D01*
X182273773Y-101195196D01*
X182225000Y-101200000D01*
X181375000Y-101200000D01*
X181326227Y-101195196D01*
X181279329Y-101180970D01*
X181236107Y-101157867D01*
X181198223Y-101126777D01*
X181167133Y-101088893D01*
X181144030Y-101045671D01*
X181129804Y-100998773D01*
X181125000Y-100950000D01*
X181125000Y-100050000D01*
X181129804Y-100001227D01*
X181144030Y-99954329D01*
X181167133Y-99911107D01*
X181198223Y-99873223D01*
X181236107Y-99842133D01*
X181279329Y-99819030D01*
X181326227Y-99804804D01*
X181375000Y-99800000D01*
X182625000Y-99800000D01*
X182673773Y-99804804D01*
X182720671Y-99819030D01*
X182763893Y-99842133D01*
X182801777Y-99873223D01*
X182832867Y-99911107D01*
X182855970Y-99954329D01*
X182870196Y-100001227D01*
X182875000Y-100050000D01*
X182875000Y-100550000D01*
X182870196Y-100598773D01*
G37*
G04 #@! TD.AperFunction*
D13*
X195000000Y-102000000D03*
G04 #@! TA.AperFunction,ComponentPad*
G36*
G01*
X194250000Y-98650000D02*
X195750000Y-98650000D01*
G75*
G02*
X196000000Y-98900000I0J-250000D01*
G01*
X196000000Y-100100000D01*
G75*
G02*
X195750000Y-100350000I-250000J0D01*
G01*
X194250000Y-100350000D01*
G75*
G02*
X194000000Y-100100000I0J250000D01*
G01*
X194000000Y-98900000D01*
G75*
G02*
X194250000Y-98650000I250000J0D01*
G01*
G37*
G04 #@! TD.AperFunction*
D16*
X11318000Y-37444000D03*
X9540000Y-38460000D03*
X11318000Y-39476000D03*
X9540000Y-40492000D03*
X11318000Y-41508000D03*
X9540000Y-42524000D03*
X11318000Y-43540000D03*
D17*
X9540000Y-44556000D03*
D18*
X18000000Y-30000000D03*
X11000000Y-24000000D03*
X11000000Y-20000000D03*
X20112653Y-22387347D03*
X70000000Y-22500000D03*
X120000000Y-22500000D03*
X170000000Y-22500000D03*
X155000000Y-50000000D03*
X120000000Y-72500000D03*
X70000000Y-72500000D03*
X20000000Y-72500000D03*
X55000000Y-102500000D03*
X105000000Y-102500000D03*
X155000000Y-102500000D03*
X170000000Y-122500000D03*
X120000000Y-122500000D03*
X70000000Y-122500000D03*
X20000000Y-122500000D03*
X55000000Y-150000000D03*
X105000000Y-150000000D03*
X155000000Y-150000000D03*
X170000000Y-172500000D03*
X120000000Y-172500000D03*
X70000000Y-172500000D03*
X20000000Y-172500000D03*
X177500000Y-106000000D03*
X90500000Y-9500000D03*
X55000000Y-55000000D03*
X92500000Y-191500000D03*
X102450000Y-57450000D03*
X170000000Y-73000000D03*
X12000000Y-90000000D03*
X19000000Y-26000000D03*
D19*
X11000000Y-30000000D02*
X8000000Y-27000000D01*
X18000000Y-30000000D02*
X11000000Y-30000000D01*
D20*
X15000000Y-22000000D02*
X8000000Y-22000000D01*
X19000000Y-26000000D02*
X15000000Y-22000000D01*
D21*
X193936842Y-731439D02*
X194853106Y-938769D01*
X195728657Y-1279252D01*
X196544265Y-1745410D01*
X197282014Y-2327005D01*
X197925689Y-3011251D01*
X198461160Y-3783129D01*
X198876659Y-4625677D01*
X199163054Y-5520376D01*
X199315689Y-6457579D01*
X199340001Y-7014427D01*
X199340000Y-192975512D01*
X199268561Y-193936841D01*
X199061231Y-194853106D01*
X198720748Y-195728657D01*
X198254590Y-196544265D01*
X197672995Y-197282014D01*
X196988749Y-197925689D01*
X196216871Y-198461160D01*
X195374323Y-198876659D01*
X194479624Y-199163054D01*
X193542414Y-199315689D01*
X192985595Y-199340000D01*
X7024488Y-199340000D01*
X6063159Y-199268561D01*
X5146894Y-199061231D01*
X4271343Y-198720748D01*
X3455735Y-198254590D01*
X2717986Y-197672995D01*
X2074311Y-196988749D01*
X1538840Y-196216871D01*
X1123341Y-195374323D01*
X836946Y-194479624D01*
X684311Y-193542414D01*
X660000Y-192985595D01*
X660000Y-192725701D01*
X4215000Y-192725701D01*
X4215000Y-193274299D01*
X4322026Y-193812354D01*
X4531965Y-194319192D01*
X4836750Y-194775334D01*
X5224666Y-195163250D01*
X5680808Y-195468035D01*
X6187646Y-195677974D01*
X6725701Y-195785000D01*
X7274299Y-195785000D01*
X7812354Y-195677974D01*
X8319192Y-195468035D01*
X8775334Y-195163250D01*
X9163250Y-194775334D01*
X9468035Y-194319192D01*
X9496695Y-194250000D01*
X98011928Y-194250000D01*
X98011928Y-195750000D01*
X98028992Y-195923254D01*
X98079528Y-196089850D01*
X98161595Y-196243386D01*
X98272038Y-196377962D01*
X98406614Y-196488405D01*
X98560150Y-196570472D01*
X98726746Y-196621008D01*
X98900000Y-196638072D01*
X100100000Y-196638072D01*
X100273254Y-196621008D01*
X100439850Y-196570472D01*
X100593386Y-196488405D01*
X100727962Y-196377962D01*
X100838405Y-196243386D01*
X100892777Y-196141663D01*
X100944866Y-196205134D01*
X101170987Y-196390706D01*
X101428967Y-196528599D01*
X101708890Y-196613513D01*
X102000000Y-196642185D01*
X102291111Y-196613513D01*
X102571034Y-196528599D01*
X102829014Y-196390706D01*
X103055134Y-196205134D01*
X103240706Y-195979014D01*
X103378599Y-195721033D01*
X103463513Y-195441110D01*
X103485000Y-195222949D01*
X103485000Y-194777050D01*
X103463513Y-194558889D01*
X103378599Y-194278966D01*
X103240706Y-194020986D01*
X103055134Y-193794866D01*
X102829013Y-193609294D01*
X102571033Y-193471401D01*
X102291110Y-193386487D01*
X102000000Y-193357815D01*
X101708889Y-193386487D01*
X101428966Y-193471401D01*
X101170986Y-193609294D01*
X100944866Y-193794866D01*
X100892777Y-193858337D01*
X100838405Y-193756614D01*
X100727962Y-193622038D01*
X100593386Y-193511595D01*
X100439850Y-193429528D01*
X100273254Y-193378992D01*
X100100000Y-193361928D01*
X98900000Y-193361928D01*
X98726746Y-193378992D01*
X98560150Y-193429528D01*
X98406614Y-193511595D01*
X98272038Y-193622038D01*
X98161595Y-193756614D01*
X98079528Y-193910150D01*
X98028992Y-194076746D01*
X98011928Y-194250000D01*
X9496695Y-194250000D01*
X9677974Y-193812354D01*
X9785000Y-193274299D01*
X9785000Y-192725701D01*
X190215000Y-192725701D01*
X190215000Y-193274299D01*
X190322026Y-193812354D01*
X190531965Y-194319192D01*
X190836750Y-194775334D01*
X191224666Y-195163250D01*
X191680808Y-195468035D01*
X192187646Y-195677974D01*
X192725701Y-195785000D01*
X193274299Y-195785000D01*
X193812354Y-195677974D01*
X194319192Y-195468035D01*
X194775334Y-195163250D01*
X195163250Y-194775334D01*
X195468035Y-194319192D01*
X195677974Y-193812354D01*
X195785000Y-193274299D01*
X195785000Y-192725701D01*
X195677974Y-192187646D01*
X195468035Y-191680808D01*
X195163250Y-191224666D01*
X194775334Y-190836750D01*
X194319192Y-190531965D01*
X193812354Y-190322026D01*
X193274299Y-190215000D01*
X192725701Y-190215000D01*
X192187646Y-190322026D01*
X191680808Y-190531965D01*
X191224666Y-190836750D01*
X190836750Y-191224666D01*
X190531965Y-191680808D01*
X190322026Y-192187646D01*
X190215000Y-192725701D01*
X9785000Y-192725701D01*
X9677974Y-192187646D01*
X9468035Y-191680808D01*
X9163250Y-191224666D01*
X8775334Y-190836750D01*
X8319192Y-190531965D01*
X7812354Y-190322026D01*
X7274299Y-190215000D01*
X6725701Y-190215000D01*
X6187646Y-190322026D01*
X5680808Y-190531965D01*
X5224666Y-190836750D01*
X4836750Y-191224666D01*
X4531965Y-191680808D01*
X4322026Y-192187646D01*
X4215000Y-192725701D01*
X660000Y-192725701D01*
X660000Y-186875000D01*
X99161928Y-186875000D01*
X99161928Y-188125000D01*
X99165001Y-188187546D01*
X99169805Y-188236319D01*
X99194206Y-188358991D01*
X99208432Y-188405889D01*
X99256303Y-188521460D01*
X99279406Y-188564682D01*
X99348893Y-188668677D01*
X99379983Y-188706561D01*
X99468439Y-188795017D01*
X99506323Y-188826107D01*
X99610318Y-188895594D01*
X99653540Y-188918697D01*
X99769111Y-188966568D01*
X99816009Y-188980794D01*
X99938681Y-189005195D01*
X99987454Y-189009999D01*
X100050000Y-189013072D01*
X100950000Y-189013072D01*
X101012546Y-189009999D01*
X101061319Y-189005195D01*
X101183991Y-188980794D01*
X101230889Y-188966568D01*
X101346460Y-188918697D01*
X101389682Y-188895594D01*
X101493677Y-188826107D01*
X101531561Y-188795017D01*
X101620017Y-188706561D01*
X101651107Y-188668677D01*
X101720594Y-188564682D01*
X101743697Y-188521460D01*
X101791568Y-188405889D01*
X101805794Y-188358991D01*
X101830195Y-188236319D01*
X101834999Y-188187546D01*
X101838072Y-188125000D01*
X101838072Y-187275000D01*
X101834999Y-187212454D01*
X101830195Y-187163681D01*
X101805794Y-187041009D01*
X101792137Y-186995986D01*
X102000000Y-187016459D01*
X102261706Y-186990683D01*
X102513354Y-186914347D01*
X102745275Y-186790382D01*
X102948555Y-186623555D01*
X103115382Y-186420275D01*
X103239347Y-186188353D01*
X103315683Y-185936705D01*
X103335000Y-185740578D01*
X103335000Y-185259421D01*
X103315683Y-185063294D01*
X103239347Y-184811646D01*
X103115382Y-184579725D01*
X102948555Y-184376445D01*
X102745274Y-184209618D01*
X102513353Y-184085653D01*
X102261705Y-184009317D01*
X102000000Y-183983541D01*
X101738294Y-184009317D01*
X101486646Y-184085653D01*
X101254725Y-184209618D01*
X101051445Y-184376445D01*
X100884618Y-184579726D01*
X100760653Y-184811647D01*
X100684317Y-185063295D01*
X100665000Y-185259422D01*
X100665000Y-185740579D01*
X100684317Y-185936706D01*
X100704549Y-186003404D01*
X100661319Y-185994805D01*
X100612546Y-185990001D01*
X100550000Y-185986928D01*
X100050000Y-185986928D01*
X99987454Y-185990001D01*
X99938681Y-185994805D01*
X99816009Y-186019206D01*
X99769111Y-186033432D01*
X99653540Y-186081303D01*
X99610318Y-186104406D01*
X99506323Y-186173893D01*
X99468439Y-186204983D01*
X99379983Y-186293439D01*
X99348893Y-186331323D01*
X99279406Y-186435318D01*
X99256303Y-186478540D01*
X99208432Y-186594111D01*
X99194206Y-186641009D01*
X99169805Y-186763681D01*
X99165001Y-186812454D01*
X99161928Y-186875000D01*
X660000Y-186875000D01*
X660000Y-183595599D01*
X97790000Y-183595599D01*
X97790000Y-183804401D01*
X97830735Y-184009191D01*
X97910640Y-184202098D01*
X98026644Y-184375711D01*
X98174289Y-184523356D01*
X98347902Y-184639360D01*
X98540809Y-184719265D01*
X98745599Y-184760000D01*
X98954401Y-184760000D01*
X99159191Y-184719265D01*
X99352098Y-184639360D01*
X99525711Y-184523356D01*
X99673356Y-184375711D01*
X99789360Y-184202098D01*
X99869265Y-184009191D01*
X99910000Y-183804401D01*
X99910000Y-183595599D01*
X99869265Y-183390809D01*
X99789360Y-183197902D01*
X99673356Y-183024289D01*
X99525711Y-182876644D01*
X99352098Y-182760640D01*
X99159191Y-182680735D01*
X98954401Y-182640000D01*
X98745599Y-182640000D01*
X98540809Y-182680735D01*
X98347902Y-182760640D01*
X98174289Y-182876644D01*
X98026644Y-183024289D01*
X97910640Y-183197902D01*
X97830735Y-183390809D01*
X97790000Y-183595599D01*
X660000Y-183595599D01*
X660000Y-104045599D01*
X12640000Y-104045599D01*
X12640000Y-104254401D01*
X12680735Y-104459191D01*
X12760640Y-104652098D01*
X12876644Y-104825711D01*
X13024289Y-104973356D01*
X13197902Y-105089360D01*
X13390809Y-105169265D01*
X13595599Y-105210000D01*
X13804401Y-105210000D01*
X14009191Y-105169265D01*
X14202098Y-105089360D01*
X14375711Y-104973356D01*
X14523356Y-104825711D01*
X14639360Y-104652098D01*
X14719265Y-104459191D01*
X14760000Y-104254401D01*
X14760000Y-104045599D01*
X14719265Y-103840809D01*
X14639360Y-103647902D01*
X14523356Y-103474289D01*
X14375711Y-103326644D01*
X14202098Y-103210640D01*
X14009191Y-103130735D01*
X13804401Y-103090000D01*
X13595599Y-103090000D01*
X13390809Y-103130735D01*
X13197902Y-103210640D01*
X13024289Y-103326644D01*
X12876644Y-103474289D01*
X12760640Y-103647902D01*
X12680735Y-103840809D01*
X12640000Y-104045599D01*
X660000Y-104045599D01*
X660000Y-100000000D01*
X3357815Y-100000000D01*
X3386487Y-100291111D01*
X3471401Y-100571034D01*
X3609294Y-100829014D01*
X3794866Y-101055134D01*
X3858337Y-101107223D01*
X3756614Y-101161595D01*
X3622038Y-101272038D01*
X3511595Y-101406614D01*
X3429528Y-101560150D01*
X3378992Y-101726746D01*
X3361928Y-101900000D01*
X3361928Y-103100000D01*
X3378992Y-103273254D01*
X3429528Y-103439850D01*
X3511595Y-103593386D01*
X3622038Y-103727962D01*
X3756614Y-103838405D01*
X3910150Y-103920472D01*
X4076746Y-103971008D01*
X4250000Y-103988072D01*
X5750000Y-103988072D01*
X5923254Y-103971008D01*
X6089850Y-103920472D01*
X6243386Y-103838405D01*
X6377962Y-103727962D01*
X6488405Y-103593386D01*
X6570472Y-103439850D01*
X6621008Y-103273254D01*
X6638072Y-103100000D01*
X6638072Y-101900000D01*
X6621008Y-101726746D01*
X6570472Y-101560150D01*
X6488405Y-101406614D01*
X6377962Y-101272038D01*
X6243386Y-101161595D01*
X6141663Y-101107223D01*
X6205134Y-101055134D01*
X6250381Y-101000000D01*
X13983541Y-101000000D01*
X14009317Y-101261706D01*
X14085653Y-101513354D01*
X14209618Y-101745275D01*
X14376445Y-101948555D01*
X14579725Y-102115382D01*
X14811646Y-102239347D01*
X15063294Y-102315683D01*
X15259421Y-102335000D01*
X15740579Y-102335000D01*
X15936706Y-102315683D01*
X16003404Y-102295451D01*
X15994805Y-102338681D01*
X15990001Y-102387454D01*
X15986928Y-102450000D01*
X15986928Y-102950000D01*
X15990001Y-103012546D01*
X15994805Y-103061319D01*
X16019206Y-103183991D01*
X16033432Y-103230889D01*
X16081303Y-103346460D01*
X16104406Y-103389682D01*
X16173893Y-103493677D01*
X16204983Y-103531561D01*
X16293439Y-103620017D01*
X16331323Y-103651107D01*
X16435318Y-103720594D01*
X16478540Y-103743697D01*
X16594111Y-103791568D01*
X16641009Y-103805794D01*
X16763681Y-103830195D01*
X16812454Y-103834999D01*
X16875000Y-103838072D01*
X18125000Y-103838072D01*
X18187546Y-103834999D01*
X18236319Y-103830195D01*
X18358991Y-103805794D01*
X18405889Y-103791568D01*
X18521460Y-103743697D01*
X18564682Y-103720594D01*
X18668677Y-103651107D01*
X18706561Y-103620017D01*
X18795017Y-103531561D01*
X18826107Y-103493677D01*
X18895594Y-103389682D01*
X18918697Y-103346460D01*
X18966568Y-103230889D01*
X18980794Y-103183991D01*
X19005195Y-103061319D01*
X19009999Y-103012546D01*
X19013072Y-102950000D01*
X19013072Y-102050000D01*
X19009999Y-101987454D01*
X19005195Y-101938681D01*
X18980794Y-101816009D01*
X18966568Y-101769111D01*
X18918697Y-101653540D01*
X18895594Y-101610318D01*
X18826107Y-101506323D01*
X18795017Y-101468439D01*
X18706561Y-101379983D01*
X18668677Y-101348893D01*
X18564682Y-101279406D01*
X18521460Y-101256303D01*
X18405889Y-101208432D01*
X18358991Y-101194206D01*
X18236319Y-101169805D01*
X18187546Y-101165001D01*
X18125000Y-101161928D01*
X17275000Y-101161928D01*
X17212454Y-101165001D01*
X17163681Y-101169805D01*
X17041009Y-101194206D01*
X16995986Y-101207863D01*
X17016459Y-101000000D01*
X16990683Y-100738294D01*
X16914347Y-100486646D01*
X16790382Y-100254725D01*
X16623555Y-100051445D01*
X16621795Y-100050000D01*
X180486928Y-100050000D01*
X180486928Y-100950000D01*
X180490001Y-101012546D01*
X180494805Y-101061319D01*
X180519206Y-101183991D01*
X180533432Y-101230889D01*
X180581303Y-101346460D01*
X180604406Y-101389682D01*
X180673893Y-101493677D01*
X180704983Y-101531561D01*
X180793439Y-101620017D01*
X180831323Y-101651107D01*
X180935318Y-101720594D01*
X180978540Y-101743697D01*
X181094111Y-101791568D01*
X181141009Y-101805794D01*
X181263681Y-101830195D01*
X181312454Y-101834999D01*
X181375000Y-101838072D01*
X182225000Y-101838072D01*
X182287546Y-101834999D01*
X182336319Y-101830195D01*
X182458991Y-101805794D01*
X182504014Y-101792137D01*
X182483541Y-102000000D01*
X182509317Y-102261706D01*
X182585653Y-102513354D01*
X182709618Y-102745275D01*
X182876445Y-102948555D01*
X183079725Y-103115382D01*
X183311646Y-103239347D01*
X183563294Y-103315683D01*
X183759421Y-103335000D01*
X184240579Y-103335000D01*
X184436706Y-103315683D01*
X184688354Y-103239347D01*
X184920275Y-103115382D01*
X185123555Y-102948555D01*
X185290382Y-102745275D01*
X185414347Y-102513354D01*
X185490683Y-102261706D01*
X185516459Y-102000000D01*
X193357815Y-102000000D01*
X193386487Y-102291111D01*
X193471401Y-102571034D01*
X193609294Y-102829014D01*
X193794866Y-103055134D01*
X194020986Y-103240706D01*
X194278966Y-103378599D01*
X194558889Y-103463513D01*
X194777050Y-103485000D01*
X195222950Y-103485000D01*
X195441111Y-103463513D01*
X195721034Y-103378599D01*
X195979014Y-103240706D01*
X196205134Y-103055134D01*
X196390706Y-102829014D01*
X196528599Y-102571034D01*
X196613513Y-102291111D01*
X196642185Y-102000000D01*
X196613513Y-101708889D01*
X196528599Y-101428966D01*
X196390706Y-101170986D01*
X196205134Y-100944866D01*
X196141663Y-100892777D01*
X196243386Y-100838405D01*
X196377962Y-100727962D01*
X196488405Y-100593386D01*
X196570472Y-100439850D01*
X196621008Y-100273254D01*
X196638072Y-100100000D01*
X196638072Y-98900000D01*
X196621008Y-98726746D01*
X196570472Y-98560150D01*
X196488405Y-98406614D01*
X196377962Y-98272038D01*
X196243386Y-98161595D01*
X196089850Y-98079528D01*
X195923254Y-98028992D01*
X195750000Y-98011928D01*
X194250000Y-98011928D01*
X194076746Y-98028992D01*
X193910150Y-98079528D01*
X193756614Y-98161595D01*
X193622038Y-98272038D01*
X193511595Y-98406614D01*
X193429528Y-98560150D01*
X193378992Y-98726746D01*
X193361928Y-98900000D01*
X193361928Y-100100000D01*
X193378992Y-100273254D01*
X193429528Y-100439850D01*
X193511595Y-100593386D01*
X193622038Y-100727962D01*
X193756614Y-100838405D01*
X193858337Y-100892777D01*
X193794866Y-100944866D01*
X193609294Y-101170986D01*
X193471401Y-101428966D01*
X193386487Y-101708889D01*
X193357815Y-102000000D01*
X185516459Y-102000000D01*
X185490683Y-101738294D01*
X185414347Y-101486646D01*
X185290382Y-101254725D01*
X185123555Y-101051445D01*
X184920275Y-100884618D01*
X184688354Y-100760653D01*
X184436706Y-100684317D01*
X184240579Y-100665000D01*
X183759421Y-100665000D01*
X183563294Y-100684317D01*
X183496596Y-100704549D01*
X183505195Y-100661319D01*
X183509999Y-100612546D01*
X183513072Y-100550000D01*
X183513072Y-100050000D01*
X183509999Y-99987454D01*
X183505195Y-99938681D01*
X183480794Y-99816009D01*
X183466568Y-99769111D01*
X183418697Y-99653540D01*
X183395594Y-99610318D01*
X183326107Y-99506323D01*
X183295017Y-99468439D01*
X183206561Y-99379983D01*
X183168677Y-99348893D01*
X183064682Y-99279406D01*
X183021460Y-99256303D01*
X182905889Y-99208432D01*
X182858991Y-99194206D01*
X182736319Y-99169805D01*
X182687546Y-99165001D01*
X182625000Y-99161928D01*
X181375000Y-99161928D01*
X181312454Y-99165001D01*
X181263681Y-99169805D01*
X181141009Y-99194206D01*
X181094111Y-99208432D01*
X180978540Y-99256303D01*
X180935318Y-99279406D01*
X180831323Y-99348893D01*
X180793439Y-99379983D01*
X180704983Y-99468439D01*
X180673893Y-99506323D01*
X180604406Y-99610318D01*
X180581303Y-99653540D01*
X180533432Y-99769111D01*
X180519206Y-99816009D01*
X180494805Y-99938681D01*
X180490001Y-99987454D01*
X180486928Y-100050000D01*
X16621795Y-100050000D01*
X16420275Y-99884618D01*
X16188354Y-99760653D01*
X15936706Y-99684317D01*
X15740579Y-99665000D01*
X15259421Y-99665000D01*
X15063294Y-99684317D01*
X14811646Y-99760653D01*
X14579725Y-99884618D01*
X14376445Y-100051445D01*
X14209618Y-100254725D01*
X14085653Y-100486646D01*
X14009317Y-100738294D01*
X13983541Y-101000000D01*
X6250381Y-101000000D01*
X6390706Y-100829014D01*
X6528599Y-100571034D01*
X6613513Y-100291111D01*
X6642185Y-100000000D01*
X6613513Y-99708889D01*
X6528599Y-99428966D01*
X6390706Y-99170986D01*
X6205134Y-98944866D01*
X5979014Y-98759294D01*
X5953393Y-98745599D01*
X184740000Y-98745599D01*
X184740000Y-98954401D01*
X184780735Y-99159191D01*
X184860640Y-99352098D01*
X184976644Y-99525711D01*
X185124289Y-99673356D01*
X185297902Y-99789360D01*
X185490809Y-99869265D01*
X185695599Y-99910000D01*
X185904401Y-99910000D01*
X186109191Y-99869265D01*
X186302098Y-99789360D01*
X186475711Y-99673356D01*
X186623356Y-99525711D01*
X186739360Y-99352098D01*
X186819265Y-99159191D01*
X186860000Y-98954401D01*
X186860000Y-98745599D01*
X186819265Y-98540809D01*
X186739360Y-98347902D01*
X186623356Y-98174289D01*
X186475711Y-98026644D01*
X186302098Y-97910640D01*
X186109191Y-97830735D01*
X185904401Y-97790000D01*
X185695599Y-97790000D01*
X185490809Y-97830735D01*
X185297902Y-97910640D01*
X185124289Y-98026644D01*
X184976644Y-98174289D01*
X184860640Y-98347902D01*
X184780735Y-98540809D01*
X184740000Y-98745599D01*
X5953393Y-98745599D01*
X5721034Y-98621401D01*
X5441111Y-98536487D01*
X5222950Y-98515000D01*
X4777050Y-98515000D01*
X4558889Y-98536487D01*
X4278966Y-98621401D01*
X4020986Y-98759294D01*
X3794866Y-98944866D01*
X3609294Y-99170986D01*
X3471401Y-99428966D01*
X3386487Y-99708889D01*
X3357815Y-100000000D01*
X660000Y-100000000D01*
X660000Y-47124849D01*
X4714000Y-47124849D01*
X4714000Y-47575151D01*
X4801850Y-48016802D01*
X4974173Y-48432827D01*
X5224348Y-48807240D01*
X5542760Y-49125652D01*
X5917173Y-49375827D01*
X6333198Y-49548150D01*
X6774849Y-49636000D01*
X7225151Y-49636000D01*
X7666802Y-49548150D01*
X8082827Y-49375827D01*
X8457240Y-49125652D01*
X8775652Y-48807240D01*
X9025827Y-48432827D01*
X9198150Y-48016802D01*
X9286000Y-47575151D01*
X9286000Y-47124849D01*
X9198150Y-46683198D01*
X9025827Y-46267173D01*
X8790836Y-45915484D01*
X8816100Y-45917972D01*
X10263900Y-45917972D01*
X10388382Y-45905712D01*
X10508080Y-45869402D01*
X10618394Y-45810437D01*
X10715085Y-45731085D01*
X10794437Y-45634394D01*
X10853402Y-45524080D01*
X10889712Y-45404382D01*
X10901972Y-45279900D01*
X10901972Y-44838538D01*
X10921624Y-44846678D01*
X11184160Y-44898900D01*
X11451840Y-44898900D01*
X11714376Y-44846678D01*
X11961680Y-44744241D01*
X12184248Y-44595526D01*
X12373526Y-44406248D01*
X12522241Y-44183680D01*
X12624678Y-43936376D01*
X12676900Y-43673840D01*
X12676900Y-43406160D01*
X12624678Y-43143624D01*
X12522241Y-42896320D01*
X12373526Y-42673752D01*
X12223774Y-42524000D01*
X12373526Y-42374248D01*
X12522241Y-42151680D01*
X12624678Y-41904376D01*
X12676900Y-41641840D01*
X12676900Y-41374160D01*
X12624678Y-41111624D01*
X12522241Y-40864320D01*
X12373526Y-40641752D01*
X12223774Y-40492000D01*
X12373526Y-40342248D01*
X12522241Y-40119680D01*
X12624678Y-39872376D01*
X12676900Y-39609840D01*
X12676900Y-39342160D01*
X12624678Y-39079624D01*
X12522241Y-38832320D01*
X12373526Y-38609752D01*
X12223774Y-38460000D01*
X12373526Y-38310248D01*
X12522241Y-38087680D01*
X12624678Y-37840376D01*
X12676900Y-37577840D01*
X12676900Y-37310160D01*
X12624678Y-37047624D01*
X12522241Y-36800320D01*
X12373526Y-36577752D01*
X12184248Y-36388474D01*
X11961680Y-36239759D01*
X11714376Y-36137322D01*
X11451840Y-36085100D01*
X11184160Y-36085100D01*
X10921624Y-36137322D01*
X10674320Y-36239759D01*
X10451752Y-36388474D01*
X10262474Y-36577752D01*
X10113759Y-36800320D01*
X10011322Y-37047624D01*
X9986193Y-37173957D01*
X9936376Y-37153322D01*
X9673840Y-37101100D01*
X9406160Y-37101100D01*
X9143624Y-37153322D01*
X8896320Y-37255759D01*
X8673752Y-37404474D01*
X8484474Y-37593752D01*
X8335759Y-37816320D01*
X8233322Y-38063624D01*
X8181100Y-38326160D01*
X8181100Y-38593840D01*
X8233322Y-38856376D01*
X8335759Y-39103680D01*
X8484474Y-39326248D01*
X8634226Y-39476000D01*
X8484474Y-39625752D01*
X8335759Y-39848320D01*
X8233322Y-40095624D01*
X8181100Y-40358160D01*
X8181100Y-40625840D01*
X8233322Y-40888376D01*
X8335759Y-41135680D01*
X8484474Y-41358248D01*
X8634226Y-41508000D01*
X8484474Y-41657752D01*
X8335759Y-41880320D01*
X8233322Y-42127624D01*
X8181100Y-42390160D01*
X8181100Y-42657840D01*
X8233322Y-42920376D01*
X8335759Y-43167680D01*
X8438104Y-43320850D01*
X8364915Y-43380915D01*
X8285563Y-43477606D01*
X8226598Y-43587920D01*
X8190288Y-43707618D01*
X8178028Y-43832100D01*
X8178028Y-45279900D01*
X8189402Y-45395384D01*
X8082827Y-45324173D01*
X7666802Y-45151850D01*
X7225151Y-45064000D01*
X6774849Y-45064000D01*
X6333198Y-45151850D01*
X5917173Y-45324173D01*
X5542760Y-45574348D01*
X5224348Y-45892760D01*
X4974173Y-46267173D01*
X4801850Y-46683198D01*
X4714000Y-47124849D01*
X660000Y-47124849D01*
X660000Y-34424849D01*
X4714000Y-34424849D01*
X4714000Y-34875151D01*
X4801850Y-35316802D01*
X4974173Y-35732827D01*
X5224348Y-36107240D01*
X5542760Y-36425652D01*
X5917173Y-36675827D01*
X6333198Y-36848150D01*
X6774849Y-36936000D01*
X7225151Y-36936000D01*
X7666802Y-36848150D01*
X8082827Y-36675827D01*
X8457240Y-36425652D01*
X8775652Y-36107240D01*
X9025827Y-35732827D01*
X9198150Y-35316802D01*
X9286000Y-34875151D01*
X9286000Y-34424849D01*
X9198150Y-33983198D01*
X9025827Y-33567173D01*
X8775652Y-33192760D01*
X8457240Y-32874348D01*
X8082827Y-32624173D01*
X7666802Y-32451850D01*
X7225151Y-32364000D01*
X6774849Y-32364000D01*
X6333198Y-32451850D01*
X5917173Y-32624173D01*
X5542760Y-32874348D01*
X5224348Y-33192760D01*
X4974173Y-33567173D01*
X4801850Y-33983198D01*
X4714000Y-34424849D01*
X660000Y-34424849D01*
X660000Y-26848648D01*
X6463300Y-26848648D01*
X6463300Y-27151352D01*
X6522355Y-27448239D01*
X6638195Y-27727900D01*
X6806368Y-27979589D01*
X7020411Y-28193632D01*
X7272100Y-28361805D01*
X7551761Y-28477645D01*
X7599084Y-28487058D01*
X10009639Y-30897614D01*
X10051445Y-30948555D01*
X10254725Y-31115382D01*
X10486646Y-31239347D01*
X10738294Y-31315683D01*
X10934421Y-31335000D01*
X11000000Y-31341459D01*
X11065579Y-31335000D01*
X18065579Y-31335000D01*
X18261706Y-31315683D01*
X18513354Y-31239347D01*
X18745275Y-31115382D01*
X18948555Y-30948555D01*
X19115382Y-30745275D01*
X19239347Y-30513354D01*
X19315683Y-30261706D01*
X19341459Y-30000000D01*
X19315683Y-29738294D01*
X19239347Y-29486646D01*
X19115382Y-29254725D01*
X18948555Y-29051445D01*
X18745275Y-28884618D01*
X18513354Y-28760653D01*
X18261706Y-28684317D01*
X18065579Y-28665000D01*
X11552975Y-28665000D01*
X9487058Y-26599084D01*
X9477645Y-26551761D01*
X9361805Y-26272100D01*
X9193632Y-26020411D01*
X8979589Y-25806368D01*
X8727900Y-25638195D01*
X8448239Y-25522355D01*
X8151352Y-25463300D01*
X7848648Y-25463300D01*
X7551761Y-25522355D01*
X7272100Y-25638195D01*
X7020411Y-25806368D01*
X6806368Y-26020411D01*
X6638195Y-26272100D01*
X6522355Y-26551761D01*
X6463300Y-26848648D01*
X660000Y-26848648D01*
X660000Y-21848648D01*
X6463300Y-21848648D01*
X6463300Y-22151352D01*
X6522355Y-22448239D01*
X6638195Y-22727900D01*
X6806368Y-22979589D01*
X7020411Y-23193632D01*
X7272100Y-23361805D01*
X7551761Y-23477645D01*
X7848648Y-23536700D01*
X8151352Y-23536700D01*
X8448239Y-23477645D01*
X8727900Y-23361805D01*
X8979589Y-23193632D01*
X9193632Y-22979589D01*
X9256834Y-22885000D01*
X14633422Y-22885000D01*
X17993465Y-26245044D01*
X18004774Y-26301898D01*
X18082795Y-26490256D01*
X18196063Y-26659774D01*
X18340226Y-26803937D01*
X18509744Y-26917205D01*
X18698102Y-26995226D01*
X18898061Y-27035000D01*
X19101939Y-27035000D01*
X19301898Y-26995226D01*
X19490256Y-26917205D01*
X19659774Y-26803937D01*
X19803937Y-26659774D01*
X19917205Y-26490256D01*
X19995226Y-26301898D01*
X20035000Y-26101939D01*
X20035000Y-25898061D01*
X19995226Y-25698102D01*
X19917205Y-25509744D01*
X19803937Y-25340226D01*
X19659774Y-25196063D01*
X19490256Y-25082795D01*
X19301898Y-25004774D01*
X19245044Y-24993465D01*
X15656534Y-21404956D01*
X15628817Y-21371183D01*
X15494059Y-21260589D01*
X15340313Y-21178411D01*
X15173490Y-21127805D01*
X15043477Y-21115000D01*
X15043469Y-21115000D01*
X15000000Y-21110719D01*
X14956531Y-21115000D01*
X9256834Y-21115000D01*
X9193632Y-21020411D01*
X8979589Y-20806368D01*
X8727900Y-20638195D01*
X8448239Y-20522355D01*
X8151352Y-20463300D01*
X7848648Y-20463300D01*
X7551761Y-20522355D01*
X7272100Y-20638195D01*
X7020411Y-20806368D01*
X6806368Y-21020411D01*
X6638195Y-21272100D01*
X6522355Y-21551761D01*
X6463300Y-21848648D01*
X660000Y-21848648D01*
X660000Y-18065293D01*
X7114312Y-18065293D01*
X7198201Y-18319647D01*
X7471058Y-18450714D01*
X7764241Y-18526030D01*
X8066486Y-18542703D01*
X8366175Y-18500090D01*
X8651792Y-18399829D01*
X8801799Y-18319647D01*
X8885688Y-18065293D01*
X8000000Y-17179605D01*
X7114312Y-18065293D01*
X660000Y-18065293D01*
X660000Y-17066486D01*
X6457297Y-17066486D01*
X6499910Y-17366175D01*
X6600171Y-17651792D01*
X6680353Y-17801799D01*
X6934707Y-17885688D01*
X7820395Y-17000000D01*
X8179605Y-17000000D01*
X9065293Y-17885688D01*
X9319647Y-17801799D01*
X9450714Y-17528942D01*
X9526030Y-17235759D01*
X9542703Y-16933514D01*
X9534383Y-16875000D01*
X97161928Y-16875000D01*
X97161928Y-18125000D01*
X97165001Y-18187546D01*
X97169805Y-18236319D01*
X97194206Y-18358991D01*
X97208432Y-18405889D01*
X97256303Y-18521460D01*
X97279406Y-18564682D01*
X97348893Y-18668677D01*
X97379983Y-18706561D01*
X97468439Y-18795017D01*
X97506323Y-18826107D01*
X97610318Y-18895594D01*
X97653540Y-18918697D01*
X97769111Y-18966568D01*
X97816009Y-18980794D01*
X97938681Y-19005195D01*
X97987454Y-19009999D01*
X98050000Y-19013072D01*
X98950000Y-19013072D01*
X99012546Y-19009999D01*
X99061319Y-19005195D01*
X99183991Y-18980794D01*
X99230889Y-18966568D01*
X99346460Y-18918697D01*
X99389682Y-18895594D01*
X99493677Y-18826107D01*
X99531561Y-18795017D01*
X99620017Y-18706561D01*
X99651107Y-18668677D01*
X99720594Y-18564682D01*
X99743697Y-18521460D01*
X99791568Y-18405889D01*
X99805794Y-18358991D01*
X99830195Y-18236319D01*
X99834999Y-18187546D01*
X99838072Y-18125000D01*
X99838072Y-17275000D01*
X99834999Y-17212454D01*
X99830195Y-17163681D01*
X99805794Y-17041009D01*
X99792137Y-16995986D01*
X100000000Y-17016459D01*
X100261706Y-16990683D01*
X100513354Y-16914347D01*
X100745275Y-16790382D01*
X100948555Y-16623555D01*
X101115382Y-16420275D01*
X101239347Y-16188353D01*
X101315683Y-15936705D01*
X101335000Y-15740578D01*
X101335000Y-15259421D01*
X101315683Y-15063294D01*
X101239347Y-14811646D01*
X101115382Y-14579725D01*
X100948555Y-14376445D01*
X100745274Y-14209618D01*
X100513353Y-14085653D01*
X100261705Y-14009317D01*
X100000000Y-13983541D01*
X99738294Y-14009317D01*
X99486646Y-14085653D01*
X99254725Y-14209618D01*
X99051445Y-14376445D01*
X98884618Y-14579726D01*
X98760653Y-14811647D01*
X98684317Y-15063295D01*
X98665000Y-15259422D01*
X98665000Y-15740579D01*
X98684317Y-15936706D01*
X98704549Y-16003404D01*
X98661319Y-15994805D01*
X98612546Y-15990001D01*
X98550000Y-15986928D01*
X98050000Y-15986928D01*
X97987454Y-15990001D01*
X97938681Y-15994805D01*
X97816009Y-16019206D01*
X97769111Y-16033432D01*
X97653540Y-16081303D01*
X97610318Y-16104406D01*
X97506323Y-16173893D01*
X97468439Y-16204983D01*
X97379983Y-16293439D01*
X97348893Y-16331323D01*
X97279406Y-16435318D01*
X97256303Y-16478540D01*
X97208432Y-16594111D01*
X97194206Y-16641009D01*
X97169805Y-16763681D01*
X97165001Y-16812454D01*
X97161928Y-16875000D01*
X9534383Y-16875000D01*
X9500090Y-16633825D01*
X9399829Y-16348208D01*
X9319647Y-16198201D01*
X9065293Y-16114312D01*
X8179605Y-17000000D01*
X7820395Y-17000000D01*
X6934707Y-16114312D01*
X6680353Y-16198201D01*
X6549286Y-16471058D01*
X6473970Y-16764241D01*
X6457297Y-17066486D01*
X660000Y-17066486D01*
X660000Y-15934707D01*
X7114312Y-15934707D01*
X8000000Y-16820395D01*
X8885688Y-15934707D01*
X8801799Y-15680353D01*
X8528942Y-15549286D01*
X8235759Y-15473970D01*
X7933514Y-15457297D01*
X7633825Y-15499910D01*
X7348208Y-15600171D01*
X7198201Y-15680353D01*
X7114312Y-15934707D01*
X660000Y-15934707D01*
X660000Y-13595599D01*
X95790000Y-13595599D01*
X95790000Y-13804401D01*
X95830735Y-14009191D01*
X95910640Y-14202098D01*
X96026644Y-14375711D01*
X96174289Y-14523356D01*
X96347902Y-14639360D01*
X96540809Y-14719265D01*
X96745599Y-14760000D01*
X96954401Y-14760000D01*
X97159191Y-14719265D01*
X97352098Y-14639360D01*
X97525711Y-14523356D01*
X97673356Y-14375711D01*
X97789360Y-14202098D01*
X97869265Y-14009191D01*
X97910000Y-13804401D01*
X97910000Y-13595599D01*
X97869265Y-13390809D01*
X97789360Y-13197902D01*
X97673356Y-13024289D01*
X97525711Y-12876644D01*
X97352098Y-12760640D01*
X97159191Y-12680735D01*
X96954401Y-12640000D01*
X96745599Y-12640000D01*
X96540809Y-12680735D01*
X96347902Y-12760640D01*
X96174289Y-12876644D01*
X96026644Y-13024289D01*
X95910640Y-13197902D01*
X95830735Y-13390809D01*
X95790000Y-13595599D01*
X660000Y-13595599D01*
X660000Y-7024488D01*
X682203Y-6725701D01*
X4215000Y-6725701D01*
X4215000Y-7274299D01*
X4322026Y-7812354D01*
X4531965Y-8319192D01*
X4836750Y-8775334D01*
X5224666Y-9163250D01*
X5680808Y-9468035D01*
X6187646Y-9677974D01*
X6725701Y-9785000D01*
X7274299Y-9785000D01*
X7812354Y-9677974D01*
X8319192Y-9468035D01*
X8775334Y-9163250D01*
X9163250Y-8775334D01*
X9468035Y-8319192D01*
X9677974Y-7812354D01*
X9785000Y-7274299D01*
X9785000Y-6725701D01*
X190215000Y-6725701D01*
X190215000Y-7274299D01*
X190322026Y-7812354D01*
X190531965Y-8319192D01*
X190836750Y-8775334D01*
X191224666Y-9163250D01*
X191680808Y-9468035D01*
X192187646Y-9677974D01*
X192725701Y-9785000D01*
X193274299Y-9785000D01*
X193812354Y-9677974D01*
X194319192Y-9468035D01*
X194775334Y-9163250D01*
X195163250Y-8775334D01*
X195468035Y-8319192D01*
X195677974Y-7812354D01*
X195785000Y-7274299D01*
X195785000Y-6725701D01*
X195677974Y-6187646D01*
X195468035Y-5680808D01*
X195163250Y-5224666D01*
X194775334Y-4836750D01*
X194319192Y-4531965D01*
X193812354Y-4322026D01*
X193274299Y-4215000D01*
X192725701Y-4215000D01*
X192187646Y-4322026D01*
X191680808Y-4531965D01*
X191224666Y-4836750D01*
X190836750Y-5224666D01*
X190531965Y-5680808D01*
X190322026Y-6187646D01*
X190215000Y-6725701D01*
X9785000Y-6725701D01*
X9677974Y-6187646D01*
X9468035Y-5680808D01*
X9163250Y-5224666D01*
X8775334Y-4836750D01*
X8319192Y-4531965D01*
X7812354Y-4322026D01*
X7450256Y-4250000D01*
X96011928Y-4250000D01*
X96011928Y-5750000D01*
X96028992Y-5923254D01*
X96079528Y-6089850D01*
X96161595Y-6243386D01*
X96272038Y-6377962D01*
X96406614Y-6488405D01*
X96560150Y-6570472D01*
X96726746Y-6621008D01*
X96900000Y-6638072D01*
X98100000Y-6638072D01*
X98273254Y-6621008D01*
X98439850Y-6570472D01*
X98593386Y-6488405D01*
X98727962Y-6377962D01*
X98838405Y-6243386D01*
X98892777Y-6141663D01*
X98944866Y-6205134D01*
X99170987Y-6390706D01*
X99428967Y-6528599D01*
X99708890Y-6613513D01*
X100000000Y-6642185D01*
X100291111Y-6613513D01*
X100571034Y-6528599D01*
X100829014Y-6390706D01*
X101055134Y-6205134D01*
X101240706Y-5979014D01*
X101378599Y-5721033D01*
X101463513Y-5441110D01*
X101485000Y-5222949D01*
X101485000Y-4777050D01*
X101463513Y-4558889D01*
X101378599Y-4278966D01*
X101240706Y-4020986D01*
X101055134Y-3794866D01*
X100829013Y-3609294D01*
X100571033Y-3471401D01*
X100291110Y-3386487D01*
X100000000Y-3357815D01*
X99708889Y-3386487D01*
X99428966Y-3471401D01*
X99170986Y-3609294D01*
X98944866Y-3794866D01*
X98892777Y-3858337D01*
X98838405Y-3756614D01*
X98727962Y-3622038D01*
X98593386Y-3511595D01*
X98439850Y-3429528D01*
X98273254Y-3378992D01*
X98100000Y-3361928D01*
X96900000Y-3361928D01*
X96726746Y-3378992D01*
X96560150Y-3429528D01*
X96406614Y-3511595D01*
X96272038Y-3622038D01*
X96161595Y-3756614D01*
X96079528Y-3910150D01*
X96028992Y-4076746D01*
X96011928Y-4250000D01*
X7450256Y-4250000D01*
X7274299Y-4215000D01*
X6725701Y-4215000D01*
X6187646Y-4322026D01*
X5680808Y-4531965D01*
X5224666Y-4836750D01*
X4836750Y-5224666D01*
X4531965Y-5680808D01*
X4322026Y-6187646D01*
X4215000Y-6725701D01*
X682203Y-6725701D01*
X731439Y-6063158D01*
X938769Y-5146894D01*
X1279252Y-4271343D01*
X1745410Y-3455735D01*
X2327005Y-2717986D01*
X3011251Y-2074311D01*
X3783129Y-1538840D01*
X4625677Y-1123341D01*
X5520376Y-836946D01*
X6457579Y-684311D01*
X7014404Y-660000D01*
X192975512Y-660000D01*
X193936842Y-731439D01*
G04 #@! TA.AperFunction,Conductor*
D22*
G36*
X193936842Y-731439D02*
G01*
X194853106Y-938769D01*
X195728657Y-1279252D01*
X196544265Y-1745410D01*
X197282014Y-2327005D01*
X197925689Y-3011251D01*
X198461160Y-3783129D01*
X198876659Y-4625677D01*
X199163054Y-5520376D01*
X199315689Y-6457579D01*
X199340001Y-7014427D01*
X199340000Y-192975512D01*
X199268561Y-193936841D01*
X199061231Y-194853106D01*
X198720748Y-195728657D01*
X198254590Y-196544265D01*
X197672995Y-197282014D01*
X196988749Y-197925689D01*
X196216871Y-198461160D01*
X195374323Y-198876659D01*
X194479624Y-199163054D01*
X193542414Y-199315689D01*
X192985595Y-199340000D01*
X7024488Y-199340000D01*
X6063159Y-199268561D01*
X5146894Y-199061231D01*
X4271343Y-198720748D01*
X3455735Y-198254590D01*
X2717986Y-197672995D01*
X2074311Y-196988749D01*
X1538840Y-196216871D01*
X1123341Y-195374323D01*
X836946Y-194479624D01*
X684311Y-193542414D01*
X660000Y-192985595D01*
X660000Y-192725701D01*
X4215000Y-192725701D01*
X4215000Y-193274299D01*
X4322026Y-193812354D01*
X4531965Y-194319192D01*
X4836750Y-194775334D01*
X5224666Y-195163250D01*
X5680808Y-195468035D01*
X6187646Y-195677974D01*
X6725701Y-195785000D01*
X7274299Y-195785000D01*
X7812354Y-195677974D01*
X8319192Y-195468035D01*
X8775334Y-195163250D01*
X9163250Y-194775334D01*
X9468035Y-194319192D01*
X9496695Y-194250000D01*
X98011928Y-194250000D01*
X98011928Y-195750000D01*
X98028992Y-195923254D01*
X98079528Y-196089850D01*
X98161595Y-196243386D01*
X98272038Y-196377962D01*
X98406614Y-196488405D01*
X98560150Y-196570472D01*
X98726746Y-196621008D01*
X98900000Y-196638072D01*
X100100000Y-196638072D01*
X100273254Y-196621008D01*
X100439850Y-196570472D01*
X100593386Y-196488405D01*
X100727962Y-196377962D01*
X100838405Y-196243386D01*
X100892777Y-196141663D01*
X100944866Y-196205134D01*
X101170987Y-196390706D01*
X101428967Y-196528599D01*
X101708890Y-196613513D01*
X102000000Y-196642185D01*
X102291111Y-196613513D01*
X102571034Y-196528599D01*
X102829014Y-196390706D01*
X103055134Y-196205134D01*
X103240706Y-195979014D01*
X103378599Y-195721033D01*
X103463513Y-195441110D01*
X103485000Y-195222949D01*
X103485000Y-194777050D01*
X103463513Y-194558889D01*
X103378599Y-194278966D01*
X103240706Y-194020986D01*
X103055134Y-193794866D01*
X102829013Y-193609294D01*
X102571033Y-193471401D01*
X102291110Y-193386487D01*
X102000000Y-193357815D01*
X101708889Y-193386487D01*
X101428966Y-193471401D01*
X101170986Y-193609294D01*
X100944866Y-193794866D01*
X100892777Y-193858337D01*
X100838405Y-193756614D01*
X100727962Y-193622038D01*
X100593386Y-193511595D01*
X100439850Y-193429528D01*
X100273254Y-193378992D01*
X100100000Y-193361928D01*
X98900000Y-193361928D01*
X98726746Y-193378992D01*
X98560150Y-193429528D01*
X98406614Y-193511595D01*
X98272038Y-193622038D01*
X98161595Y-193756614D01*
X98079528Y-193910150D01*
X98028992Y-194076746D01*
X98011928Y-194250000D01*
X9496695Y-194250000D01*
X9677974Y-193812354D01*
X9785000Y-193274299D01*
X9785000Y-192725701D01*
X190215000Y-192725701D01*
X190215000Y-193274299D01*
X190322026Y-193812354D01*
X190531965Y-194319192D01*
X190836750Y-194775334D01*
X191224666Y-195163250D01*
X191680808Y-195468035D01*
X192187646Y-195677974D01*
X192725701Y-195785000D01*
X193274299Y-195785000D01*
X193812354Y-195677974D01*
X194319192Y-195468035D01*
X194775334Y-195163250D01*
X195163250Y-194775334D01*
X195468035Y-194319192D01*
X195677974Y-193812354D01*
X195785000Y-193274299D01*
X195785000Y-192725701D01*
X195677974Y-192187646D01*
X195468035Y-191680808D01*
X195163250Y-191224666D01*
X194775334Y-190836750D01*
X194319192Y-190531965D01*
X193812354Y-190322026D01*
X193274299Y-190215000D01*
X192725701Y-190215000D01*
X192187646Y-190322026D01*
X191680808Y-190531965D01*
X191224666Y-190836750D01*
X190836750Y-191224666D01*
X190531965Y-191680808D01*
X190322026Y-192187646D01*
X190215000Y-192725701D01*
X9785000Y-192725701D01*
X9677974Y-192187646D01*
X9468035Y-191680808D01*
X9163250Y-191224666D01*
X8775334Y-190836750D01*
X8319192Y-190531965D01*
X7812354Y-190322026D01*
X7274299Y-190215000D01*
X6725701Y-190215000D01*
X6187646Y-190322026D01*
X5680808Y-190531965D01*
X5224666Y-190836750D01*
X4836750Y-191224666D01*
X4531965Y-191680808D01*
X4322026Y-192187646D01*
X4215000Y-192725701D01*
X660000Y-192725701D01*
X660000Y-186875000D01*
X99161928Y-186875000D01*
X99161928Y-188125000D01*
X99165001Y-188187546D01*
X99169805Y-188236319D01*
X99194206Y-188358991D01*
X99208432Y-188405889D01*
X99256303Y-188521460D01*
X99279406Y-188564682D01*
X99348893Y-188668677D01*
X99379983Y-188706561D01*
X99468439Y-188795017D01*
X99506323Y-188826107D01*
X99610318Y-188895594D01*
X99653540Y-188918697D01*
X99769111Y-188966568D01*
X99816009Y-188980794D01*
X99938681Y-189005195D01*
X99987454Y-189009999D01*
X100050000Y-189013072D01*
X100950000Y-189013072D01*
X101012546Y-189009999D01*
X101061319Y-189005195D01*
X101183991Y-188980794D01*
X101230889Y-188966568D01*
X101346460Y-188918697D01*
X101389682Y-188895594D01*
X101493677Y-188826107D01*
X101531561Y-188795017D01*
X101620017Y-188706561D01*
X101651107Y-188668677D01*
X101720594Y-188564682D01*
X101743697Y-188521460D01*
X101791568Y-188405889D01*
X101805794Y-188358991D01*
X101830195Y-188236319D01*
X101834999Y-188187546D01*
X101838072Y-188125000D01*
X101838072Y-187275000D01*
X101834999Y-187212454D01*
X101830195Y-187163681D01*
X101805794Y-187041009D01*
X101792137Y-186995986D01*
X102000000Y-187016459D01*
X102261706Y-186990683D01*
X102513354Y-186914347D01*
X102745275Y-186790382D01*
X102948555Y-186623555D01*
X103115382Y-186420275D01*
X103239347Y-186188353D01*
X103315683Y-185936705D01*
X103335000Y-185740578D01*
X103335000Y-185259421D01*
X103315683Y-185063294D01*
X103239347Y-184811646D01*
X103115382Y-184579725D01*
X102948555Y-184376445D01*
X102745274Y-184209618D01*
X102513353Y-184085653D01*
X102261705Y-184009317D01*
X102000000Y-183983541D01*
X101738294Y-184009317D01*
X101486646Y-184085653D01*
X101254725Y-184209618D01*
X101051445Y-184376445D01*
X100884618Y-184579726D01*
X100760653Y-184811647D01*
X100684317Y-185063295D01*
X100665000Y-185259422D01*
X100665000Y-185740579D01*
X100684317Y-185936706D01*
X100704549Y-186003404D01*
X100661319Y-185994805D01*
X100612546Y-185990001D01*
X100550000Y-185986928D01*
X100050000Y-185986928D01*
X99987454Y-185990001D01*
X99938681Y-185994805D01*
X99816009Y-186019206D01*
X99769111Y-186033432D01*
X99653540Y-186081303D01*
X99610318Y-186104406D01*
X99506323Y-186173893D01*
X99468439Y-186204983D01*
X99379983Y-186293439D01*
X99348893Y-186331323D01*
X99279406Y-186435318D01*
X99256303Y-186478540D01*
X99208432Y-186594111D01*
X99194206Y-186641009D01*
X99169805Y-186763681D01*
X99165001Y-186812454D01*
X99161928Y-186875000D01*
X660000Y-186875000D01*
X660000Y-183595599D01*
X97790000Y-183595599D01*
X97790000Y-183804401D01*
X97830735Y-184009191D01*
X97910640Y-184202098D01*
X98026644Y-184375711D01*
X98174289Y-184523356D01*
X98347902Y-184639360D01*
X98540809Y-184719265D01*
X98745599Y-184760000D01*
X98954401Y-184760000D01*
X99159191Y-184719265D01*
X99352098Y-184639360D01*
X99525711Y-184523356D01*
X99673356Y-184375711D01*
X99789360Y-184202098D01*
X99869265Y-184009191D01*
X99910000Y-183804401D01*
X99910000Y-183595599D01*
X99869265Y-183390809D01*
X99789360Y-183197902D01*
X99673356Y-183024289D01*
X99525711Y-182876644D01*
X99352098Y-182760640D01*
X99159191Y-182680735D01*
X98954401Y-182640000D01*
X98745599Y-182640000D01*
X98540809Y-182680735D01*
X98347902Y-182760640D01*
X98174289Y-182876644D01*
X98026644Y-183024289D01*
X97910640Y-183197902D01*
X97830735Y-183390809D01*
X97790000Y-183595599D01*
X660000Y-183595599D01*
X660000Y-104045599D01*
X12640000Y-104045599D01*
X12640000Y-104254401D01*
X12680735Y-104459191D01*
X12760640Y-104652098D01*
X12876644Y-104825711D01*
X13024289Y-104973356D01*
X13197902Y-105089360D01*
X13390809Y-105169265D01*
X13595599Y-105210000D01*
X13804401Y-105210000D01*
X14009191Y-105169265D01*
X14202098Y-105089360D01*
X14375711Y-104973356D01*
X14523356Y-104825711D01*
X14639360Y-104652098D01*
X14719265Y-104459191D01*
X14760000Y-104254401D01*
X14760000Y-104045599D01*
X14719265Y-103840809D01*
X14639360Y-103647902D01*
X14523356Y-103474289D01*
X14375711Y-103326644D01*
X14202098Y-103210640D01*
X14009191Y-103130735D01*
X13804401Y-103090000D01*
X13595599Y-103090000D01*
X13390809Y-103130735D01*
X13197902Y-103210640D01*
X13024289Y-103326644D01*
X12876644Y-103474289D01*
X12760640Y-103647902D01*
X12680735Y-103840809D01*
X12640000Y-104045599D01*
X660000Y-104045599D01*
X660000Y-100000000D01*
X3357815Y-100000000D01*
X3386487Y-100291111D01*
X3471401Y-100571034D01*
X3609294Y-100829014D01*
X3794866Y-101055134D01*
X3858337Y-101107223D01*
X3756614Y-101161595D01*
X3622038Y-101272038D01*
X3511595Y-101406614D01*
X3429528Y-101560150D01*
X3378992Y-101726746D01*
X3361928Y-101900000D01*
X3361928Y-103100000D01*
X3378992Y-103273254D01*
X3429528Y-103439850D01*
X3511595Y-103593386D01*
X3622038Y-103727962D01*
X3756614Y-103838405D01*
X3910150Y-103920472D01*
X4076746Y-103971008D01*
X4250000Y-103988072D01*
X5750000Y-103988072D01*
X5923254Y-103971008D01*
X6089850Y-103920472D01*
X6243386Y-103838405D01*
X6377962Y-103727962D01*
X6488405Y-103593386D01*
X6570472Y-103439850D01*
X6621008Y-103273254D01*
X6638072Y-103100000D01*
X6638072Y-101900000D01*
X6621008Y-101726746D01*
X6570472Y-101560150D01*
X6488405Y-101406614D01*
X6377962Y-101272038D01*
X6243386Y-101161595D01*
X6141663Y-101107223D01*
X6205134Y-101055134D01*
X6250381Y-101000000D01*
X13983541Y-101000000D01*
X14009317Y-101261706D01*
X14085653Y-101513354D01*
X14209618Y-101745275D01*
X14376445Y-101948555D01*
X14579725Y-102115382D01*
X14811646Y-102239347D01*
X15063294Y-102315683D01*
X15259421Y-102335000D01*
X15740579Y-102335000D01*
X15936706Y-102315683D01*
X16003404Y-102295451D01*
X15994805Y-102338681D01*
X15990001Y-102387454D01*
X15986928Y-102450000D01*
X15986928Y-102950000D01*
X15990001Y-103012546D01*
X15994805Y-103061319D01*
X16019206Y-103183991D01*
X16033432Y-103230889D01*
X16081303Y-103346460D01*
X16104406Y-103389682D01*
X16173893Y-103493677D01*
X16204983Y-103531561D01*
X16293439Y-103620017D01*
X16331323Y-103651107D01*
X16435318Y-103720594D01*
X16478540Y-103743697D01*
X16594111Y-103791568D01*
X16641009Y-103805794D01*
X16763681Y-103830195D01*
X16812454Y-103834999D01*
X16875000Y-103838072D01*
X18125000Y-103838072D01*
X18187546Y-103834999D01*
X18236319Y-103830195D01*
X18358991Y-103805794D01*
X18405889Y-103791568D01*
X18521460Y-103743697D01*
X18564682Y-103720594D01*
X18668677Y-103651107D01*
X18706561Y-103620017D01*
X18795017Y-103531561D01*
X18826107Y-103493677D01*
X18895594Y-103389682D01*
X18918697Y-103346460D01*
X18966568Y-103230889D01*
X18980794Y-103183991D01*
X19005195Y-103061319D01*
X19009999Y-103012546D01*
X19013072Y-102950000D01*
X19013072Y-102050000D01*
X19009999Y-101987454D01*
X19005195Y-101938681D01*
X18980794Y-101816009D01*
X18966568Y-101769111D01*
X18918697Y-101653540D01*
X18895594Y-101610318D01*
X18826107Y-101506323D01*
X18795017Y-101468439D01*
X18706561Y-101379983D01*
X18668677Y-101348893D01*
X18564682Y-101279406D01*
X18521460Y-101256303D01*
X18405889Y-101208432D01*
X18358991Y-101194206D01*
X18236319Y-101169805D01*
X18187546Y-101165001D01*
X18125000Y-101161928D01*
X17275000Y-101161928D01*
X17212454Y-101165001D01*
X17163681Y-101169805D01*
X17041009Y-101194206D01*
X16995986Y-101207863D01*
X17016459Y-101000000D01*
X16990683Y-100738294D01*
X16914347Y-100486646D01*
X16790382Y-100254725D01*
X16623555Y-100051445D01*
X16621795Y-100050000D01*
X180486928Y-100050000D01*
X180486928Y-100950000D01*
X180490001Y-101012546D01*
X180494805Y-101061319D01*
X180519206Y-101183991D01*
X180533432Y-101230889D01*
X180581303Y-101346460D01*
X180604406Y-101389682D01*
X180673893Y-101493677D01*
X180704983Y-101531561D01*
X180793439Y-101620017D01*
X180831323Y-101651107D01*
X180935318Y-101720594D01*
X180978540Y-101743697D01*
X181094111Y-101791568D01*
X181141009Y-101805794D01*
X181263681Y-101830195D01*
X181312454Y-101834999D01*
X181375000Y-101838072D01*
X182225000Y-101838072D01*
X182287546Y-101834999D01*
X182336319Y-101830195D01*
X182458991Y-101805794D01*
X182504014Y-101792137D01*
X182483541Y-102000000D01*
X182509317Y-102261706D01*
X182585653Y-102513354D01*
X182709618Y-102745275D01*
X182876445Y-102948555D01*
X183079725Y-103115382D01*
X183311646Y-103239347D01*
X183563294Y-103315683D01*
X183759421Y-103335000D01*
X184240579Y-103335000D01*
X184436706Y-103315683D01*
X184688354Y-103239347D01*
X184920275Y-103115382D01*
X185123555Y-102948555D01*
X185290382Y-102745275D01*
X185414347Y-102513354D01*
X185490683Y-102261706D01*
X185516459Y-102000000D01*
X193357815Y-102000000D01*
X193386487Y-102291111D01*
X193471401Y-102571034D01*
X193609294Y-102829014D01*
X193794866Y-103055134D01*
X194020986Y-103240706D01*
X194278966Y-103378599D01*
X194558889Y-103463513D01*
X194777050Y-103485000D01*
X195222950Y-103485000D01*
X195441111Y-103463513D01*
X195721034Y-103378599D01*
X195979014Y-103240706D01*
X196205134Y-103055134D01*
X196390706Y-102829014D01*
X196528599Y-102571034D01*
X196613513Y-102291111D01*
X196642185Y-102000000D01*
X196613513Y-101708889D01*
X196528599Y-101428966D01*
X196390706Y-101170986D01*
X196205134Y-100944866D01*
X196141663Y-100892777D01*
X196243386Y-100838405D01*
X196377962Y-100727962D01*
X196488405Y-100593386D01*
X196570472Y-100439850D01*
X196621008Y-100273254D01*
X196638072Y-100100000D01*
X196638072Y-98900000D01*
X196621008Y-98726746D01*
X196570472Y-98560150D01*
X196488405Y-98406614D01*
X196377962Y-98272038D01*
X196243386Y-98161595D01*
X196089850Y-98079528D01*
X195923254Y-98028992D01*
X195750000Y-98011928D01*
X194250000Y-98011928D01*
X194076746Y-98028992D01*
X193910150Y-98079528D01*
X193756614Y-98161595D01*
X193622038Y-98272038D01*
X193511595Y-98406614D01*
X193429528Y-98560150D01*
X193378992Y-98726746D01*
X193361928Y-98900000D01*
X193361928Y-100100000D01*
X193378992Y-100273254D01*
X193429528Y-100439850D01*
X193511595Y-100593386D01*
X193622038Y-100727962D01*
X193756614Y-100838405D01*
X193858337Y-100892777D01*
X193794866Y-100944866D01*
X193609294Y-101170986D01*
X193471401Y-101428966D01*
X193386487Y-101708889D01*
X193357815Y-102000000D01*
X185516459Y-102000000D01*
X185490683Y-101738294D01*
X185414347Y-101486646D01*
X185290382Y-101254725D01*
X185123555Y-101051445D01*
X184920275Y-100884618D01*
X184688354Y-100760653D01*
X184436706Y-100684317D01*
X184240579Y-100665000D01*
X183759421Y-100665000D01*
X183563294Y-100684317D01*
X183496596Y-100704549D01*
X183505195Y-100661319D01*
X183509999Y-100612546D01*
X183513072Y-100550000D01*
X183513072Y-100050000D01*
X183509999Y-99987454D01*
X183505195Y-99938681D01*
X183480794Y-99816009D01*
X183466568Y-99769111D01*
X183418697Y-99653540D01*
X183395594Y-99610318D01*
X183326107Y-99506323D01*
X183295017Y-99468439D01*
X183206561Y-99379983D01*
X183168677Y-99348893D01*
X183064682Y-99279406D01*
X183021460Y-99256303D01*
X182905889Y-99208432D01*
X182858991Y-99194206D01*
X182736319Y-99169805D01*
X182687546Y-99165001D01*
X182625000Y-99161928D01*
X181375000Y-99161928D01*
X181312454Y-99165001D01*
X181263681Y-99169805D01*
X181141009Y-99194206D01*
X181094111Y-99208432D01*
X180978540Y-99256303D01*
X180935318Y-99279406D01*
X180831323Y-99348893D01*
X180793439Y-99379983D01*
X180704983Y-99468439D01*
X180673893Y-99506323D01*
X180604406Y-99610318D01*
X180581303Y-99653540D01*
X180533432Y-99769111D01*
X180519206Y-99816009D01*
X180494805Y-99938681D01*
X180490001Y-99987454D01*
X180486928Y-100050000D01*
X16621795Y-100050000D01*
X16420275Y-99884618D01*
X16188354Y-99760653D01*
X15936706Y-99684317D01*
X15740579Y-99665000D01*
X15259421Y-99665000D01*
X15063294Y-99684317D01*
X14811646Y-99760653D01*
X14579725Y-99884618D01*
X14376445Y-100051445D01*
X14209618Y-100254725D01*
X14085653Y-100486646D01*
X14009317Y-100738294D01*
X13983541Y-101000000D01*
X6250381Y-101000000D01*
X6390706Y-100829014D01*
X6528599Y-100571034D01*
X6613513Y-100291111D01*
X6642185Y-100000000D01*
X6613513Y-99708889D01*
X6528599Y-99428966D01*
X6390706Y-99170986D01*
X6205134Y-98944866D01*
X5979014Y-98759294D01*
X5953393Y-98745599D01*
X184740000Y-98745599D01*
X184740000Y-98954401D01*
X184780735Y-99159191D01*
X184860640Y-99352098D01*
X184976644Y-99525711D01*
X185124289Y-99673356D01*
X185297902Y-99789360D01*
X185490809Y-99869265D01*
X185695599Y-99910000D01*
X185904401Y-99910000D01*
X186109191Y-99869265D01*
X186302098Y-99789360D01*
X186475711Y-99673356D01*
X186623356Y-99525711D01*
X186739360Y-99352098D01*
X186819265Y-99159191D01*
X186860000Y-98954401D01*
X186860000Y-98745599D01*
X186819265Y-98540809D01*
X186739360Y-98347902D01*
X186623356Y-98174289D01*
X186475711Y-98026644D01*
X186302098Y-97910640D01*
X186109191Y-97830735D01*
X185904401Y-97790000D01*
X185695599Y-97790000D01*
X185490809Y-97830735D01*
X185297902Y-97910640D01*
X185124289Y-98026644D01*
X184976644Y-98174289D01*
X184860640Y-98347902D01*
X184780735Y-98540809D01*
X184740000Y-98745599D01*
X5953393Y-98745599D01*
X5721034Y-98621401D01*
X5441111Y-98536487D01*
X5222950Y-98515000D01*
X4777050Y-98515000D01*
X4558889Y-98536487D01*
X4278966Y-98621401D01*
X4020986Y-98759294D01*
X3794866Y-98944866D01*
X3609294Y-99170986D01*
X3471401Y-99428966D01*
X3386487Y-99708889D01*
X3357815Y-100000000D01*
X660000Y-100000000D01*
X660000Y-47124849D01*
X4714000Y-47124849D01*
X4714000Y-47575151D01*
X4801850Y-48016802D01*
X4974173Y-48432827D01*
X5224348Y-48807240D01*
X5542760Y-49125652D01*
X5917173Y-49375827D01*
X6333198Y-49548150D01*
X6774849Y-49636000D01*
X7225151Y-49636000D01*
X7666802Y-49548150D01*
X8082827Y-49375827D01*
X8457240Y-49125652D01*
X8775652Y-48807240D01*
X9025827Y-48432827D01*
X9198150Y-48016802D01*
X9286000Y-47575151D01*
X9286000Y-47124849D01*
X9198150Y-46683198D01*
X9025827Y-46267173D01*
X8790836Y-45915484D01*
X8816100Y-45917972D01*
X10263900Y-45917972D01*
X10388382Y-45905712D01*
X10508080Y-45869402D01*
X10618394Y-45810437D01*
X10715085Y-45731085D01*
X10794437Y-45634394D01*
X10853402Y-45524080D01*
X10889712Y-45404382D01*
X10901972Y-45279900D01*
X10901972Y-44838538D01*
X10921624Y-44846678D01*
X11184160Y-44898900D01*
X11451840Y-44898900D01*
X11714376Y-44846678D01*
X11961680Y-44744241D01*
X12184248Y-44595526D01*
X12373526Y-44406248D01*
X12522241Y-44183680D01*
X12624678Y-43936376D01*
X12676900Y-43673840D01*
X12676900Y-43406160D01*
X12624678Y-43143624D01*
X12522241Y-42896320D01*
X12373526Y-42673752D01*
X12223774Y-42524000D01*
X12373526Y-42374248D01*
X12522241Y-42151680D01*
X12624678Y-41904376D01*
X12676900Y-41641840D01*
X12676900Y-41374160D01*
X12624678Y-41111624D01*
X12522241Y-40864320D01*
X12373526Y-40641752D01*
X12223774Y-40492000D01*
X12373526Y-40342248D01*
X12522241Y-40119680D01*
X12624678Y-39872376D01*
X12676900Y-39609840D01*
X12676900Y-39342160D01*
X12624678Y-39079624D01*
X12522241Y-38832320D01*
X12373526Y-38609752D01*
X12223774Y-38460000D01*
X12373526Y-38310248D01*
X12522241Y-38087680D01*
X12624678Y-37840376D01*
X12676900Y-37577840D01*
X12676900Y-37310160D01*
X12624678Y-37047624D01*
X12522241Y-36800320D01*
X12373526Y-36577752D01*
X12184248Y-36388474D01*
X11961680Y-36239759D01*
X11714376Y-36137322D01*
X11451840Y-36085100D01*
X11184160Y-36085100D01*
X10921624Y-36137322D01*
X10674320Y-36239759D01*
X10451752Y-36388474D01*
X10262474Y-36577752D01*
X10113759Y-36800320D01*
X10011322Y-37047624D01*
X9986193Y-37173957D01*
X9936376Y-37153322D01*
X9673840Y-37101100D01*
X9406160Y-37101100D01*
X9143624Y-37153322D01*
X8896320Y-37255759D01*
X8673752Y-37404474D01*
X8484474Y-37593752D01*
X8335759Y-37816320D01*
X8233322Y-38063624D01*
X8181100Y-38326160D01*
X8181100Y-38593840D01*
X8233322Y-38856376D01*
X8335759Y-39103680D01*
X8484474Y-39326248D01*
X8634226Y-39476000D01*
X8484474Y-39625752D01*
X8335759Y-39848320D01*
X8233322Y-40095624D01*
X8181100Y-40358160D01*
X8181100Y-40625840D01*
X8233322Y-40888376D01*
X8335759Y-41135680D01*
X8484474Y-41358248D01*
X8634226Y-41508000D01*
X8484474Y-41657752D01*
X8335759Y-41880320D01*
X8233322Y-42127624D01*
X8181100Y-42390160D01*
X8181100Y-42657840D01*
X8233322Y-42920376D01*
X8335759Y-43167680D01*
X8438104Y-43320850D01*
X8364915Y-43380915D01*
X8285563Y-43477606D01*
X8226598Y-43587920D01*
X8190288Y-43707618D01*
X8178028Y-43832100D01*
X8178028Y-45279900D01*
X8189402Y-45395384D01*
X8082827Y-45324173D01*
X7666802Y-45151850D01*
X7225151Y-45064000D01*
X6774849Y-45064000D01*
X6333198Y-45151850D01*
X5917173Y-45324173D01*
X5542760Y-45574348D01*
X5224348Y-45892760D01*
X4974173Y-46267173D01*
X4801850Y-46683198D01*
X4714000Y-47124849D01*
X660000Y-47124849D01*
X660000Y-34424849D01*
X4714000Y-34424849D01*
X4714000Y-34875151D01*
X4801850Y-35316802D01*
X4974173Y-35732827D01*
X5224348Y-36107240D01*
X5542760Y-36425652D01*
X5917173Y-36675827D01*
X6333198Y-36848150D01*
X6774849Y-36936000D01*
X7225151Y-36936000D01*
X7666802Y-36848150D01*
X8082827Y-36675827D01*
X8457240Y-36425652D01*
X8775652Y-36107240D01*
X9025827Y-35732827D01*
X9198150Y-35316802D01*
X9286000Y-34875151D01*
X9286000Y-34424849D01*
X9198150Y-33983198D01*
X9025827Y-33567173D01*
X8775652Y-33192760D01*
X8457240Y-32874348D01*
X8082827Y-32624173D01*
X7666802Y-32451850D01*
X7225151Y-32364000D01*
X6774849Y-32364000D01*
X6333198Y-32451850D01*
X5917173Y-32624173D01*
X5542760Y-32874348D01*
X5224348Y-33192760D01*
X4974173Y-33567173D01*
X4801850Y-33983198D01*
X4714000Y-34424849D01*
X660000Y-34424849D01*
X660000Y-26848648D01*
X6463300Y-26848648D01*
X6463300Y-27151352D01*
X6522355Y-27448239D01*
X6638195Y-27727900D01*
X6806368Y-27979589D01*
X7020411Y-28193632D01*
X7272100Y-28361805D01*
X7551761Y-28477645D01*
X7599084Y-28487058D01*
X10009639Y-30897614D01*
X10051445Y-30948555D01*
X10254725Y-31115382D01*
X10486646Y-31239347D01*
X10738294Y-31315683D01*
X10934421Y-31335000D01*
X11000000Y-31341459D01*
X11065579Y-31335000D01*
X18065579Y-31335000D01*
X18261706Y-31315683D01*
X18513354Y-31239347D01*
X18745275Y-31115382D01*
X18948555Y-30948555D01*
X19115382Y-30745275D01*
X19239347Y-30513354D01*
X19315683Y-30261706D01*
X19341459Y-30000000D01*
X19315683Y-29738294D01*
X19239347Y-29486646D01*
X19115382Y-29254725D01*
X18948555Y-29051445D01*
X18745275Y-28884618D01*
X18513354Y-28760653D01*
X18261706Y-28684317D01*
X18065579Y-28665000D01*
X11552975Y-28665000D01*
X9487058Y-26599084D01*
X9477645Y-26551761D01*
X9361805Y-26272100D01*
X9193632Y-26020411D01*
X8979589Y-25806368D01*
X8727900Y-25638195D01*
X8448239Y-25522355D01*
X8151352Y-25463300D01*
X7848648Y-25463300D01*
X7551761Y-25522355D01*
X7272100Y-25638195D01*
X7020411Y-25806368D01*
X6806368Y-26020411D01*
X6638195Y-26272100D01*
X6522355Y-26551761D01*
X6463300Y-26848648D01*
X660000Y-26848648D01*
X660000Y-21848648D01*
X6463300Y-21848648D01*
X6463300Y-22151352D01*
X6522355Y-22448239D01*
X6638195Y-22727900D01*
X6806368Y-22979589D01*
X7020411Y-23193632D01*
X7272100Y-23361805D01*
X7551761Y-23477645D01*
X7848648Y-23536700D01*
X8151352Y-23536700D01*
X8448239Y-23477645D01*
X8727900Y-23361805D01*
X8979589Y-23193632D01*
X9193632Y-22979589D01*
X9256834Y-22885000D01*
X14633422Y-22885000D01*
X17993465Y-26245044D01*
X18004774Y-26301898D01*
X18082795Y-26490256D01*
X18196063Y-26659774D01*
X18340226Y-26803937D01*
X18509744Y-26917205D01*
X18698102Y-26995226D01*
X18898061Y-27035000D01*
X19101939Y-27035000D01*
X19301898Y-26995226D01*
X19490256Y-26917205D01*
X19659774Y-26803937D01*
X19803937Y-26659774D01*
X19917205Y-26490256D01*
X19995226Y-26301898D01*
X20035000Y-26101939D01*
X20035000Y-25898061D01*
X19995226Y-25698102D01*
X19917205Y-25509744D01*
X19803937Y-25340226D01*
X19659774Y-25196063D01*
X19490256Y-25082795D01*
X19301898Y-25004774D01*
X19245044Y-24993465D01*
X15656534Y-21404956D01*
X15628817Y-21371183D01*
X15494059Y-21260589D01*
X15340313Y-21178411D01*
X15173490Y-21127805D01*
X15043477Y-21115000D01*
X15043469Y-21115000D01*
X15000000Y-21110719D01*
X14956531Y-21115000D01*
X9256834Y-21115000D01*
X9193632Y-21020411D01*
X8979589Y-20806368D01*
X8727900Y-20638195D01*
X8448239Y-20522355D01*
X8151352Y-20463300D01*
X7848648Y-20463300D01*
X7551761Y-20522355D01*
X7272100Y-20638195D01*
X7020411Y-20806368D01*
X6806368Y-21020411D01*
X6638195Y-21272100D01*
X6522355Y-21551761D01*
X6463300Y-21848648D01*
X660000Y-21848648D01*
X660000Y-18065293D01*
X7114312Y-18065293D01*
X7198201Y-18319647D01*
X7471058Y-18450714D01*
X7764241Y-18526030D01*
X8066486Y-18542703D01*
X8366175Y-18500090D01*
X8651792Y-18399829D01*
X8801799Y-18319647D01*
X8885688Y-18065293D01*
X8000000Y-17179605D01*
X7114312Y-18065293D01*
X660000Y-18065293D01*
X660000Y-17066486D01*
X6457297Y-17066486D01*
X6499910Y-17366175D01*
X6600171Y-17651792D01*
X6680353Y-17801799D01*
X6934707Y-17885688D01*
X7820395Y-17000000D01*
X8179605Y-17000000D01*
X9065293Y-17885688D01*
X9319647Y-17801799D01*
X9450714Y-17528942D01*
X9526030Y-17235759D01*
X9542703Y-16933514D01*
X9534383Y-16875000D01*
X97161928Y-16875000D01*
X97161928Y-18125000D01*
X97165001Y-18187546D01*
X97169805Y-18236319D01*
X97194206Y-18358991D01*
X97208432Y-18405889D01*
X97256303Y-18521460D01*
X97279406Y-18564682D01*
X97348893Y-18668677D01*
X97379983Y-18706561D01*
X97468439Y-18795017D01*
X97506323Y-18826107D01*
X97610318Y-18895594D01*
X97653540Y-18918697D01*
X97769111Y-18966568D01*
X97816009Y-18980794D01*
X97938681Y-19005195D01*
X97987454Y-19009999D01*
X98050000Y-19013072D01*
X98950000Y-19013072D01*
X99012546Y-19009999D01*
X99061319Y-19005195D01*
X99183991Y-18980794D01*
X99230889Y-18966568D01*
X99346460Y-18918697D01*
X99389682Y-18895594D01*
X99493677Y-18826107D01*
X99531561Y-18795017D01*
X99620017Y-18706561D01*
X99651107Y-18668677D01*
X99720594Y-18564682D01*
X99743697Y-18521460D01*
X99791568Y-18405889D01*
X99805794Y-18358991D01*
X99830195Y-18236319D01*
X99834999Y-18187546D01*
X99838072Y-18125000D01*
X99838072Y-17275000D01*
X99834999Y-17212454D01*
X99830195Y-17163681D01*
X99805794Y-17041009D01*
X99792137Y-16995986D01*
X100000000Y-17016459D01*
X100261706Y-16990683D01*
X100513354Y-16914347D01*
X100745275Y-16790382D01*
X100948555Y-16623555D01*
X101115382Y-16420275D01*
X101239347Y-16188353D01*
X101315683Y-15936705D01*
X101335000Y-15740578D01*
X101335000Y-15259421D01*
X101315683Y-15063294D01*
X101239347Y-14811646D01*
X101115382Y-14579725D01*
X100948555Y-14376445D01*
X100745274Y-14209618D01*
X100513353Y-14085653D01*
X100261705Y-14009317D01*
X100000000Y-13983541D01*
X99738294Y-14009317D01*
X99486646Y-14085653D01*
X99254725Y-14209618D01*
X99051445Y-14376445D01*
X98884618Y-14579726D01*
X98760653Y-14811647D01*
X98684317Y-15063295D01*
X98665000Y-15259422D01*
X98665000Y-15740579D01*
X98684317Y-15936706D01*
X98704549Y-16003404D01*
X98661319Y-15994805D01*
X98612546Y-15990001D01*
X98550000Y-15986928D01*
X98050000Y-15986928D01*
X97987454Y-15990001D01*
X97938681Y-15994805D01*
X97816009Y-16019206D01*
X97769111Y-16033432D01*
X97653540Y-16081303D01*
X97610318Y-16104406D01*
X97506323Y-16173893D01*
X97468439Y-16204983D01*
X97379983Y-16293439D01*
X97348893Y-16331323D01*
X97279406Y-16435318D01*
X97256303Y-16478540D01*
X97208432Y-16594111D01*
X97194206Y-16641009D01*
X97169805Y-16763681D01*
X97165001Y-16812454D01*
X97161928Y-16875000D01*
X9534383Y-16875000D01*
X9500090Y-16633825D01*
X9399829Y-16348208D01*
X9319647Y-16198201D01*
X9065293Y-16114312D01*
X8179605Y-17000000D01*
X7820395Y-17000000D01*
X6934707Y-16114312D01*
X6680353Y-16198201D01*
X6549286Y-16471058D01*
X6473970Y-16764241D01*
X6457297Y-17066486D01*
X660000Y-17066486D01*
X660000Y-15934707D01*
X7114312Y-15934707D01*
X8000000Y-16820395D01*
X8885688Y-15934707D01*
X8801799Y-15680353D01*
X8528942Y-15549286D01*
X8235759Y-15473970D01*
X7933514Y-15457297D01*
X7633825Y-15499910D01*
X7348208Y-15600171D01*
X7198201Y-15680353D01*
X7114312Y-15934707D01*
X660000Y-15934707D01*
X660000Y-13595599D01*
X95790000Y-13595599D01*
X95790000Y-13804401D01*
X95830735Y-14009191D01*
X95910640Y-14202098D01*
X96026644Y-14375711D01*
X96174289Y-14523356D01*
X96347902Y-14639360D01*
X96540809Y-14719265D01*
X96745599Y-14760000D01*
X96954401Y-14760000D01*
X97159191Y-14719265D01*
X97352098Y-14639360D01*
X97525711Y-14523356D01*
X97673356Y-14375711D01*
X97789360Y-14202098D01*
X97869265Y-14009191D01*
X97910000Y-13804401D01*
X97910000Y-13595599D01*
X97869265Y-13390809D01*
X97789360Y-13197902D01*
X97673356Y-13024289D01*
X97525711Y-12876644D01*
X97352098Y-12760640D01*
X97159191Y-12680735D01*
X96954401Y-12640000D01*
X96745599Y-12640000D01*
X96540809Y-12680735D01*
X96347902Y-12760640D01*
X96174289Y-12876644D01*
X96026644Y-13024289D01*
X95910640Y-13197902D01*
X95830735Y-13390809D01*
X95790000Y-13595599D01*
X660000Y-13595599D01*
X660000Y-7024488D01*
X682203Y-6725701D01*
X4215000Y-6725701D01*
X4215000Y-7274299D01*
X4322026Y-7812354D01*
X4531965Y-8319192D01*
X4836750Y-8775334D01*
X5224666Y-9163250D01*
X5680808Y-9468035D01*
X6187646Y-9677974D01*
X6725701Y-9785000D01*
X7274299Y-9785000D01*
X7812354Y-9677974D01*
X8319192Y-9468035D01*
X8775334Y-9163250D01*
X9163250Y-8775334D01*
X9468035Y-8319192D01*
X9677974Y-7812354D01*
X9785000Y-7274299D01*
X9785000Y-6725701D01*
X190215000Y-6725701D01*
X190215000Y-7274299D01*
X190322026Y-7812354D01*
X190531965Y-8319192D01*
X190836750Y-8775334D01*
X191224666Y-9163250D01*
X191680808Y-9468035D01*
X192187646Y-9677974D01*
X192725701Y-9785000D01*
X193274299Y-9785000D01*
X193812354Y-9677974D01*
X194319192Y-9468035D01*
X194775334Y-9163250D01*
X195163250Y-8775334D01*
X195468035Y-8319192D01*
X195677974Y-7812354D01*
X195785000Y-7274299D01*
X195785000Y-6725701D01*
X195677974Y-6187646D01*
X195468035Y-5680808D01*
X195163250Y-5224666D01*
X194775334Y-4836750D01*
X194319192Y-4531965D01*
X193812354Y-4322026D01*
X193274299Y-4215000D01*
X192725701Y-4215000D01*
X192187646Y-4322026D01*
X191680808Y-4531965D01*
X191224666Y-4836750D01*
X190836750Y-5224666D01*
X190531965Y-5680808D01*
X190322026Y-6187646D01*
X190215000Y-6725701D01*
X9785000Y-6725701D01*
X9677974Y-6187646D01*
X9468035Y-5680808D01*
X9163250Y-5224666D01*
X8775334Y-4836750D01*
X8319192Y-4531965D01*
X7812354Y-4322026D01*
X7450256Y-4250000D01*
X96011928Y-4250000D01*
X96011928Y-5750000D01*
X96028992Y-5923254D01*
X96079528Y-6089850D01*
X96161595Y-6243386D01*
X96272038Y-6377962D01*
X96406614Y-6488405D01*
X96560150Y-6570472D01*
X96726746Y-6621008D01*
X96900000Y-6638072D01*
X98100000Y-6638072D01*
X98273254Y-6621008D01*
X98439850Y-6570472D01*
X98593386Y-6488405D01*
X98727962Y-6377962D01*
X98838405Y-6243386D01*
X98892777Y-6141663D01*
X98944866Y-6205134D01*
X99170987Y-6390706D01*
X99428967Y-6528599D01*
X99708890Y-6613513D01*
X100000000Y-6642185D01*
X100291111Y-6613513D01*
X100571034Y-6528599D01*
X100829014Y-6390706D01*
X101055134Y-6205134D01*
X101240706Y-5979014D01*
X101378599Y-5721033D01*
X101463513Y-5441110D01*
X101485000Y-5222949D01*
X101485000Y-4777050D01*
X101463513Y-4558889D01*
X101378599Y-4278966D01*
X101240706Y-4020986D01*
X101055134Y-3794866D01*
X100829013Y-3609294D01*
X100571033Y-3471401D01*
X100291110Y-3386487D01*
X100000000Y-3357815D01*
X99708889Y-3386487D01*
X99428966Y-3471401D01*
X99170986Y-3609294D01*
X98944866Y-3794866D01*
X98892777Y-3858337D01*
X98838405Y-3756614D01*
X98727962Y-3622038D01*
X98593386Y-3511595D01*
X98439850Y-3429528D01*
X98273254Y-3378992D01*
X98100000Y-3361928D01*
X96900000Y-3361928D01*
X96726746Y-3378992D01*
X96560150Y-3429528D01*
X96406614Y-3511595D01*
X96272038Y-3622038D01*
X96161595Y-3756614D01*
X96079528Y-3910150D01*
X96028992Y-4076746D01*
X96011928Y-4250000D01*
X7450256Y-4250000D01*
X7274299Y-4215000D01*
X6725701Y-4215000D01*
X6187646Y-4322026D01*
X5680808Y-4531965D01*
X5224666Y-4836750D01*
X4836750Y-5224666D01*
X4531965Y-5680808D01*
X4322026Y-6187646D01*
X4215000Y-6725701D01*
X682203Y-6725701D01*
X731439Y-6063158D01*
X938769Y-5146894D01*
X1279252Y-4271343D01*
X1745410Y-3455735D01*
X2327005Y-2717986D01*
X3011251Y-2074311D01*
X3783129Y-1538840D01*
X4625677Y-1123341D01*
X5520376Y-836946D01*
X6457579Y-684311D01*
X7014404Y-660000D01*
X192975512Y-660000D01*
X193936842Y-731439D01*
G37*
G04 #@! TD.AperFunction*
M02*
