M48
; DRILL file {KiCad (5.1.7-0-10_14)} date Saturday, November 21, 2020 at 12:28:30 PM
; FORMAT={-:-/ absolute / inch / decimal}
; #@! TF.CreationDate,2020-11-21T12:28:30-08:00
; #@! TF.GenerationSoftware,Kicad,Pcbnew,(5.1.7-0-10_14)
; #@! TF.FileFunction,Plated,1,2,PTH
FMAT,2
INCH
T1C0.0157
T2C0.0295
T3C0.0370
T4C0.0394
T5C0.0510
%
G90
G05
T1
X0.4331Y-0.7874
X0.4331Y-0.9449
X0.4724Y-3.5433
X0.7087Y-1.1811
X0.748Y-1.0236
X0.7874Y-2.8543
X0.7874Y-4.8228
X0.7874Y-6.7913
X0.7918Y-0.8814
X2.1654Y-2.1654
X2.1654Y-4.0354
X2.1654Y-5.9055
X2.7559Y-0.8858
X2.7559Y-2.8543
X2.7559Y-4.8228
X2.7559Y-6.7913
X3.563Y-0.374
X3.6417Y-7.5394
X4.0335Y-2.2618
X4.1339Y-4.0354
X4.1339Y-5.9055
X4.7244Y-0.8858
X4.7244Y-2.8543
X4.7244Y-4.8228
X4.7244Y-6.7913
X6.1024Y-1.9685
X6.1024Y-4.0354
X6.1024Y-5.9055
X6.6929Y-0.8858
X6.6929Y-2.874
X6.6929Y-4.8228
X6.6929Y-6.7913
X6.9882Y-4.1732
T2
X3.878Y-0.689
X3.937Y-0.6102
X3.9567Y-7.3819
X4.0157Y-7.3031
X0.6102Y-3.9764
X0.689Y-4.0354
X7.1654Y-3.9567
X7.2441Y-4.0157
T3
X0.3756Y-1.5142
X0.3756Y-1.5942
X0.3756Y-1.6742
X0.3756Y-1.7542
X0.4456Y-1.4742
X0.4456Y-1.5542
X0.4456Y-1.6342
X0.4456Y-1.7142
T4
X3.9173Y-7.6772
X4.0157Y-7.6772
X3.8386Y-0.1969
X3.937Y-0.1969
X0.1969Y-3.937
X0.1969Y-4.0354
X7.6772Y-3.9173
X7.6772Y-4.0157
T5
X0.315Y-0.6693
X0.315Y-0.8661
X0.315Y-1.063
T0
M30
