G04 #@! TF.GenerationSoftware,KiCad,Pcbnew,(5.1.7-0-10_14)*
G04 #@! TF.CreationDate,2020-11-21T12:18:44-08:00*
G04 #@! TF.ProjectId,Main PCB,4d61696e-2050-4434-922e-6b696361645f,1*
G04 #@! TF.SameCoordinates,Original*
G04 #@! TF.FileFunction,Copper,L1,Top*
G04 #@! TF.FilePolarity,Positive*
%FSLAX46Y46*%
G04 Gerber Fmt 4.6, Leading zero omitted, Abs format (unit mm)*
G04 Created by KiCad (PCBNEW (5.1.7-0-10_14)) date 2020-11-21 12:18:44*
%MOMM*%
%LPD*%
G01*
G04 APERTURE LIST*
G04 #@! TA.AperFunction,SMDPad,CuDef*
%ADD10R,0.410000X1.570000*%
G04 #@! TD*
G04 #@! TA.AperFunction,ComponentPad*
%ADD11C,1.300000*%
G04 #@! TD*
G04 #@! TA.AperFunction,ComponentPad*
%ADD12C,1.600000*%
G04 #@! TD*
G04 #@! TA.AperFunction,ComponentPad*
%ADD13R,1.300000X1.300000*%
G04 #@! TD*
G04 #@! TA.AperFunction,ComponentPad*
%ADD14R,1.600000X1.600000*%
G04 #@! TD*
G04 #@! TA.AperFunction,ComponentPad*
%ADD15O,1.700000X1.700000*%
G04 #@! TD*
G04 #@! TA.AperFunction,ComponentPad*
%ADD16R,1.700000X1.700000*%
G04 #@! TD*
G04 #@! TA.AperFunction,ComponentPad*
%ADD17C,1.803400*%
G04 #@! TD*
G04 #@! TA.AperFunction,ComponentPad*
%ADD18C,1.447800*%
G04 #@! TD*
G04 #@! TA.AperFunction,ComponentPad*
%ADD19R,1.447800X1.447800*%
G04 #@! TD*
G04 #@! TA.AperFunction,ViaPad*
%ADD20C,0.600000*%
G04 #@! TD*
G04 #@! TA.AperFunction,Conductor*
%ADD21C,0.400000*%
G04 #@! TD*
G04 #@! TA.AperFunction,Conductor*
%ADD22C,2.000000*%
G04 #@! TD*
G04 #@! TA.AperFunction,Conductor*
%ADD23C,5.000000*%
G04 #@! TD*
G04 #@! TA.AperFunction,Conductor*
%ADD24C,0.500000*%
G04 #@! TD*
G04 #@! TA.AperFunction,Conductor*
%ADD25C,6.000000*%
G04 #@! TD*
G04 #@! TA.AperFunction,Conductor*
%ADD26C,1.000000*%
G04 #@! TD*
G04 APERTURE END LIST*
G04 #@! TA.AperFunction,SMDPad,CuDef*
G36*
G01*
X9500000Y-1000000D02*
X9500000Y1000000D01*
G75*
G02*
X9750000Y1250000I250000J0D01*
G01*
X12750000Y1250000D01*
G75*
G02*
X13000000Y1000000I0J-250000D01*
G01*
X13000000Y-1000000D01*
G75*
G02*
X12750000Y-1250000I-250000J0D01*
G01*
X9750000Y-1250000D01*
G75*
G02*
X9500000Y-1000000I0J250000D01*
G01*
G37*
G04 #@! TD.AperFunction*
G04 #@! TA.AperFunction,SMDPad,CuDef*
G36*
G01*
X3000000Y-1000000D02*
X3000000Y1000000D01*
G75*
G02*
X3250000Y1250000I250000J0D01*
G01*
X6250000Y1250000D01*
G75*
G02*
X6500000Y1000000I0J-250000D01*
G01*
X6500000Y-1000000D01*
G75*
G02*
X6250000Y-1250000I-250000J0D01*
G01*
X3250000Y-1250000D01*
G75*
G02*
X3000000Y-1000000I0J250000D01*
G01*
G37*
G04 #@! TD.AperFunction*
D10*
X10950000Y-33870000D03*
X10300000Y-33870000D03*
X9650000Y-33870000D03*
X9000000Y-33870000D03*
X8350000Y-33870000D03*
X7700000Y-33870000D03*
X7050000Y-33870000D03*
X7050000Y-28130000D03*
X7700000Y-28130000D03*
X8350000Y-28130000D03*
X9000000Y-28130000D03*
X9650000Y-28130000D03*
X10300000Y-28130000D03*
X10950000Y-28130000D03*
X10950000Y-20870000D03*
X10300000Y-20870000D03*
X9650000Y-20870000D03*
X9000000Y-20870000D03*
X8350000Y-20870000D03*
X7700000Y-20870000D03*
X7050000Y-20870000D03*
X7050000Y-15130000D03*
X7700000Y-15130000D03*
X8350000Y-15130000D03*
X9000000Y-15130000D03*
X9650000Y-15130000D03*
X10300000Y-15130000D03*
X10950000Y-15130000D03*
D11*
X35270000Y15480000D03*
X32730000Y15480000D03*
D12*
X39080000Y-29510000D03*
X36540000Y-29510000D03*
X34000000Y-29510000D03*
X31460000Y-29510000D03*
X28920000Y-29510000D03*
D11*
X35181600Y3240000D03*
X35181600Y1240000D03*
X37181600Y1240000D03*
X37181600Y3240000D03*
X39181600Y1240000D03*
D13*
X39181600Y3240000D03*
D12*
X26380000Y-24430000D03*
X26380000Y-26970000D03*
X26380000Y-29510000D03*
X26380000Y-32050000D03*
X26380000Y-21890000D03*
X26380000Y-19350000D03*
X26380000Y-16810000D03*
X26380000Y-34590000D03*
X26380000Y-37130000D03*
X26380000Y-39670000D03*
X26380000Y-42210000D03*
X41620000Y-42210000D03*
X41620000Y-39670000D03*
X41620000Y-37130000D03*
X41620000Y-34590000D03*
X41620000Y-32050000D03*
X41620000Y-29510000D03*
X41620000Y-26970000D03*
X41620000Y-24430000D03*
X41620000Y-21890000D03*
X41620000Y-19350000D03*
X26380000Y-14270000D03*
X26380000Y-11730000D03*
X26380000Y-9190000D03*
X26380000Y-6650000D03*
X26380000Y-4110000D03*
X26380000Y-1570000D03*
X26380000Y970000D03*
X26380000Y3510000D03*
X26380000Y6050000D03*
X26380000Y8590000D03*
X26380000Y11130000D03*
X26380000Y13670000D03*
D14*
X26380000Y16210000D03*
D12*
X41620000Y-16810000D03*
X41620000Y-14270000D03*
X41620000Y-11730000D03*
X41620000Y-9190000D03*
X41620000Y-6650000D03*
X41620000Y-4110000D03*
X41620000Y-1570000D03*
X41620000Y970000D03*
X41620000Y3510000D03*
X41620000Y6050000D03*
X41620000Y8590000D03*
X41620000Y11130000D03*
X41620000Y13670000D03*
X41620000Y16210000D03*
D14*
X29430800Y9910800D03*
D12*
X29430800Y7370800D03*
X29430800Y4830800D03*
X29430800Y2290800D03*
X29430800Y-249200D03*
X39080000Y13670000D03*
D15*
X10460000Y-39000000D03*
D16*
X13000000Y-39000000D03*
D17*
X16000000Y-49000000D03*
X11000000Y-49000000D03*
X6000000Y-49000000D03*
X-6000000Y-52000000D03*
X-6000000Y-47000000D03*
X-6000000Y-42000000D03*
X-6000000Y-33000000D03*
X-6000000Y-28000000D03*
X-6000000Y-23000000D03*
X-6000000Y-14000000D03*
X-6000000Y-9000000D03*
X-6000000Y-4000000D03*
X-6000000Y5000000D03*
X-6000000Y10000000D03*
X-6000000Y15000000D03*
X8000000Y12000000D03*
X13000000Y12000000D03*
D18*
X58682000Y-51556000D03*
X60460000Y-50540000D03*
X58682000Y-49524000D03*
X60460000Y-48508000D03*
X58682000Y-47492000D03*
X60460000Y-46476000D03*
X58682000Y-45460000D03*
D19*
X60460000Y-44444000D03*
D18*
X58682000Y-32556000D03*
X60460000Y-31540000D03*
X58682000Y-30524000D03*
X60460000Y-29508000D03*
X58682000Y-28492000D03*
X60460000Y-27476000D03*
X58682000Y-26460000D03*
D19*
X60460000Y-25444000D03*
D18*
X58682000Y-13556000D03*
X60460000Y-12540000D03*
X58682000Y-11524000D03*
X60460000Y-10508000D03*
X58682000Y-9492000D03*
X60460000Y-8476000D03*
X58682000Y-7460000D03*
D19*
X60460000Y-6444000D03*
D18*
X58682000Y5444000D03*
X60460000Y6460000D03*
X58682000Y7476000D03*
X60460000Y8492000D03*
X58682000Y9508000D03*
X60460000Y10524000D03*
X58682000Y11540000D03*
D19*
X60460000Y12556000D03*
D20*
X11000000Y-13000000D03*
X9000000Y-13000000D03*
X7000000Y-13000000D03*
X10000000Y-23000000D03*
X8000000Y-23000000D03*
X11000000Y-26000000D03*
X17000000Y3000000D03*
X7000000Y-30000000D03*
X-3000000Y0D03*
D21*
X10950000Y-13050000D02*
X11000000Y-13000000D01*
X10950000Y-15130000D02*
X10950000Y-13050000D01*
X9000000Y-15130000D02*
X9000000Y-13000000D01*
X7050000Y-13050000D02*
X7000000Y-13000000D01*
X7050000Y-15130000D02*
X7050000Y-13050000D01*
X10300000Y-22700000D02*
X10000000Y-23000000D01*
X10300000Y-20870000D02*
X10300000Y-22700000D01*
X8350000Y-22650000D02*
X8000000Y-23000000D01*
X8350000Y-20870000D02*
X8350000Y-22650000D01*
X10950000Y-26050000D02*
X11000000Y-26000000D01*
X10950000Y-28130000D02*
X10950000Y-26050000D01*
X7050000Y-29950000D02*
X7000000Y-30000000D01*
X7050000Y-28130000D02*
X7050000Y-29950000D01*
D22*
X14000000Y0D02*
X17000000Y3000000D01*
X12000000Y0D02*
X14000000Y0D01*
D23*
X-10000000Y-33000000D02*
X-11000000Y-32000000D01*
X-6000000Y-33000000D02*
X-10000000Y-33000000D01*
X-11000000Y-32000000D02*
X-11000000Y-13000000D01*
X-11000000Y-49000000D02*
X-11000000Y-32000000D01*
D24*
X10460000Y-43460000D02*
X16000000Y-49000000D01*
X10460000Y-39000000D02*
X10460000Y-43460000D01*
D21*
X2098301Y-31503097D02*
X2098301Y-52901699D01*
X8228399Y-25372999D02*
X2098301Y-31503097D01*
X10950000Y-20870000D02*
X10950000Y-25372999D01*
X10950000Y-25372999D02*
X8228399Y-25372999D01*
D25*
X-11000000Y0D02*
X-11000000Y-13000000D01*
X-6000000Y5000000D02*
X-11000000Y0D01*
X-10000000Y-14000000D02*
X-11000000Y-13000000D01*
X-6000000Y-14000000D02*
X-10000000Y-14000000D01*
X-10000000Y-14000000D02*
X-10028701Y-14028701D01*
X-11000000Y-29275196D02*
X-11000000Y-13000000D01*
X-7275196Y-33000000D02*
X-11000000Y-29275196D01*
X-6000000Y-33000000D02*
X-7275196Y-33000000D01*
X-11000000Y-48275196D02*
X-11000000Y-29275196D01*
X16000000Y-50275196D02*
X12275196Y-54000000D01*
X16000000Y-49000000D02*
X16000000Y-50275196D01*
X-4000000Y-54000000D02*
X-6000000Y-52000000D01*
X12275196Y-54000000D02*
X-4000000Y-54000000D01*
X-7275196Y-52000000D02*
X-11000000Y-48275196D01*
X-6000000Y-52000000D02*
X-7275196Y-52000000D01*
X-6000000Y5000000D02*
X-1000000Y5000000D01*
X4000000Y8000000D02*
X8000000Y12000000D01*
X4000000Y0D02*
X-1000000Y5000000D01*
X4750000Y0D02*
X4000000Y0D01*
X4750000Y7250000D02*
X4000000Y8000000D01*
X4750000Y0D02*
X4750000Y7250000D01*
D26*
X60460000Y12556000D02*
X60460000Y-50540000D01*
X43380901Y12890901D02*
X41620000Y11130000D01*
X60125099Y12890901D02*
X43380901Y12890901D01*
X60460000Y12556000D02*
X60125099Y12890901D01*
D24*
X44570000Y11540000D02*
X41620000Y8590000D01*
X58682000Y11540000D02*
X44570000Y11540000D01*
X45078000Y9508000D02*
X41620000Y6050000D01*
X58682000Y9508000D02*
X45078000Y9508000D01*
X45586000Y7476000D02*
X41620000Y3510000D01*
X58682000Y7476000D02*
X45586000Y7476000D01*
X46094000Y5444000D02*
X41620000Y970000D01*
X58682000Y5444000D02*
X46094000Y5444000D01*
X47510000Y-7460000D02*
X41620000Y-1570000D01*
X58682000Y-7460000D02*
X47510000Y-7460000D01*
X47002000Y-9492000D02*
X41620000Y-4110000D01*
X58682000Y-9492000D02*
X47002000Y-9492000D01*
X46494000Y-11524000D02*
X41620000Y-6650000D01*
X58682000Y-11524000D02*
X46494000Y-11524000D01*
X45986000Y-13556000D02*
X41620000Y-9190000D01*
X58682000Y-13556000D02*
X45986000Y-13556000D01*
X56350000Y-26460000D02*
X41620000Y-11730000D01*
X58682000Y-26460000D02*
X56350000Y-26460000D01*
X41620000Y-15068038D02*
X41620000Y-14270000D01*
X55043962Y-28492000D02*
X41620000Y-15068038D01*
X58682000Y-28492000D02*
X55043962Y-28492000D01*
X50254000Y-30524000D02*
X41620000Y-21890000D01*
X58682000Y-30524000D02*
X50254000Y-30524000D01*
X49746000Y-32556000D02*
X41620000Y-24430000D01*
X58682000Y-32556000D02*
X49746000Y-32556000D01*
X58682000Y-44032000D02*
X41620000Y-26970000D01*
X58682000Y-45460000D02*
X58682000Y-44032000D01*
X41620000Y-30308038D02*
X41620000Y-29510000D01*
X58682000Y-47370038D02*
X41620000Y-30308038D01*
X58682000Y-47492000D02*
X58682000Y-47370038D01*
X30097001Y-28945039D02*
X28121962Y-26970000D01*
X47192038Y-49524000D02*
X30097001Y-32428963D01*
X28121962Y-26970000D02*
X26380000Y-26970000D01*
X30097001Y-32428963D02*
X30097001Y-28945039D01*
X58682000Y-49524000D02*
X47192038Y-49524000D01*
X27557001Y-30687001D02*
X27557001Y-33557001D01*
X26380000Y-29510000D02*
X27557001Y-30687001D01*
X45556000Y-51556000D02*
X58682000Y-51556000D01*
X27557001Y-33557001D02*
X45556000Y-51556000D01*
D21*
X9650000Y-12650000D02*
X9650000Y-15130000D01*
X-3000000Y0D02*
X9650000Y-12650000D01*
X7700000Y-16058602D02*
X7700000Y-15130000D01*
X7516601Y-16242001D02*
X7700000Y-16058602D01*
X1242001Y-16242001D02*
X7516601Y-16242001D01*
X-6000000Y-9000000D02*
X1242001Y-16242001D01*
X-80000Y-28000000D02*
X7050000Y-20870000D01*
X-6000000Y-28000000D02*
X-80000Y-28000000D01*
X-3172990Y-44172990D02*
X-3172990Y-35100952D01*
X-3172990Y-35100952D02*
X9000000Y-22927962D01*
X-6000000Y-47000000D02*
X-3172990Y-44172990D01*
X9000000Y-22927962D02*
X9000000Y-20870000D01*
X6517999Y-32447001D02*
X9650000Y-29315000D01*
X9650000Y-29315000D02*
X9650000Y-28130000D01*
X6517999Y-44517999D02*
X6517999Y-32447001D01*
X11000000Y-49000000D02*
X6517999Y-44517999D01*
X10950000Y-36950000D02*
X13000000Y-39000000D01*
X10950000Y-33870000D02*
X10950000Y-36950000D01*
X25252999Y-2697001D02*
X26380000Y-1570000D01*
X25252999Y-15405603D02*
X25252999Y-2697001D01*
X11416601Y-29242001D02*
X25252999Y-15405603D01*
X10483399Y-29242001D02*
X11416601Y-29242001D01*
X10300000Y-29058602D02*
X10483399Y-29242001D01*
X10300000Y-28130000D02*
X10300000Y-29058602D01*
X26380000Y970000D02*
X17000000Y-8410000D01*
X9650000Y-19877010D02*
X9650000Y-20870000D01*
X13218294Y-19527010D02*
X10000000Y-19527010D01*
X10000000Y-19527010D02*
X9650000Y-19877010D01*
X17000000Y-15745304D02*
X13218294Y-19527010D01*
X17000000Y-8410000D02*
X17000000Y-15745304D01*
X7700000Y-19300000D02*
X7700000Y-20870000D01*
X16000000Y-14745304D02*
X12745304Y-18000000D01*
X16000000Y-6870000D02*
X16000000Y-14745304D01*
X9000000Y-18000000D02*
X7700000Y-19300000D01*
X12745304Y-18000000D02*
X9000000Y-18000000D01*
X26380000Y3510000D02*
X16000000Y-6870000D01*
X8350000Y-16058602D02*
X9321398Y-17030000D01*
X8350000Y-15130000D02*
X8350000Y-16058602D01*
X26380000Y6050000D02*
X14000000Y-6330000D01*
X14000000Y-6330000D02*
X14000000Y-16000000D01*
X12970000Y-17030000D02*
X9321398Y-17030000D01*
X14000000Y-16000000D02*
X12970000Y-17030000D01*
X26380000Y8590000D02*
X12000000Y-5790000D01*
X10483399Y-16242001D02*
X10300000Y-16058602D01*
X12000000Y-15658602D02*
X11416601Y-16242001D01*
X10300000Y-16058602D02*
X10300000Y-15130000D01*
X11416601Y-16242001D02*
X10483399Y-16242001D01*
X12000000Y-5790000D02*
X12000000Y-15658602D01*
M02*
