M48
; DRILL file {KiCad (5.1.7-0-10_14)} date Saturday, November 21, 2020 at 12:18:53 PM
; FORMAT={-:-/ absolute / inch / decimal}
; #@! TF.CreationDate,2020-11-21T12:18:53-08:00
; #@! TF.GenerationSoftware,Kicad,Pcbnew,(5.1.7-0-10_14)
; #@! TF.FileFunction,Plated,1,4,PTH
FMAT,2
INCH
T1C0.0118
T2C0.0315
T3C0.0370
T4C0.0394
T5C0.0433
T6C0.0510
%
G90
G05
T1
X-0.1181Y0.0
X0.2756Y-0.5118
X0.2756Y-1.1811
X0.315Y-0.9055
X0.3543Y-0.5118
X0.3937Y-0.9055
X0.4331Y-0.5118
X0.4331Y-1.0236
X0.6693Y0.1181
T2
X1.2886Y0.6094
X1.3851Y0.1276
X1.3851Y0.0488
X1.3886Y0.6094
X1.4638Y0.1276
X1.4638Y0.0488
X1.5426Y0.1276
X1.5426Y0.0488
T3
X2.3103Y0.4543
X2.3103Y0.3743
X2.3103Y0.2943
X2.3103Y0.2143
X2.3803Y0.4943
X2.3803Y0.4143
X2.3803Y0.3343
X2.3803Y0.2543
X2.3103Y-0.2937
X2.3103Y-0.3737
X2.3103Y-0.4537
X2.3103Y-0.5337
X2.3803Y-0.2537
X2.3803Y-0.3337
X2.3803Y-0.4137
X2.3803Y-0.4937
X2.3103Y-1.7898
X2.3103Y-1.8698
X2.3103Y-1.9498
X2.3103Y-2.0298
X2.3803Y-1.7498
X2.3803Y-1.8298
X2.3803Y-1.9098
X2.3803Y-1.9898
X2.3103Y-1.0417
X2.3103Y-1.1217
X2.3103Y-1.2017
X2.3103Y-1.2817
X2.3803Y-1.0017
X2.3803Y-1.0817
X2.3803Y-1.1617
X2.3803Y-1.2417
T4
X0.4118Y-1.5354
X0.5118Y-1.5354
T5
X1.0386Y0.6382
X1.0386Y0.5382
X1.0386Y0.4382
X1.0386Y0.3382
X1.0386Y0.2382
X1.0386Y0.1382
X1.0386Y0.0382
X1.0386Y-0.0618
X1.0386Y-0.1618
X1.0386Y-0.2618
X1.0386Y-0.3618
X1.0386Y-0.4618
X1.0386Y-0.5618
X1.0386Y-0.6618
X1.0386Y-0.7618
X1.0386Y-0.8618
X1.0386Y-0.9618
X1.0386Y-1.0618
X1.0386Y-1.1618
X1.0386Y-1.2618
X1.0386Y-1.3618
X1.0386Y-1.4618
X1.0386Y-1.5618
X1.0386Y-1.6618
X1.1386Y-1.1618
X1.1587Y0.3902
X1.1587Y0.2902
X1.1587Y0.1902
X1.1587Y0.0902
X1.1587Y-0.0098
X1.2386Y-1.1618
X1.3386Y-1.1618
X1.4386Y-1.1618
X1.5386Y0.5382
X1.5386Y-1.1618
X1.6386Y0.6382
X1.6386Y0.5382
X1.6386Y0.4382
X1.6386Y0.3382
X1.6386Y0.2382
X1.6386Y0.1382
X1.6386Y0.0382
X1.6386Y-0.0618
X1.6386Y-0.1618
X1.6386Y-0.2618
X1.6386Y-0.3618
X1.6386Y-0.4618
X1.6386Y-0.5618
X1.6386Y-0.6618
X1.6386Y-0.7618
X1.6386Y-0.8618
X1.6386Y-0.9618
X1.6386Y-1.0618
X1.6386Y-1.1618
X1.6386Y-1.2618
X1.6386Y-1.3618
X1.6386Y-1.4618
X1.6386Y-1.5618
X1.6386Y-1.6618
T6
X0.2362Y-1.9291
X0.4331Y-1.9291
X0.6299Y-1.9291
X-0.2362Y0.5906
X-0.2362Y0.3937
X-0.2362Y0.1969
X-0.2362Y-1.6535
X-0.2362Y-1.8504
X-0.2362Y-2.0472
X-0.2362Y-0.9055
X-0.2362Y-1.1024
X-0.2362Y-1.2992
X-0.2362Y-0.1575
X-0.2362Y-0.3543
X-0.2362Y-0.5512
X0.315Y0.4724
X0.5118Y0.4724
T0
M30
