G04 #@! TF.GenerationSoftware,KiCad,Pcbnew,(5.1.7-0-10_14)*
G04 #@! TF.CreationDate,2020-11-21T12:18:44-08:00*
G04 #@! TF.ProjectId,Main PCB,4d61696e-2050-4434-922e-6b696361645f,1*
G04 #@! TF.SameCoordinates,Original*
G04 #@! TF.FileFunction,Legend,Top*
G04 #@! TF.FilePolarity,Positive*
%FSLAX46Y46*%
G04 Gerber Fmt 4.6, Leading zero omitted, Abs format (unit mm)*
G04 Created by KiCad (PCBNEW (5.1.7-0-10_14)) date 2020-11-21 12:18:44*
%MOMM*%
%LPD*%
G01*
G04 APERTURE LIST*
%ADD10C,0.300000*%
%ADD11C,0.120000*%
%ADD12C,0.010000*%
%ADD13C,0.200000*%
%ADD14C,0.127000*%
%ADD15C,0.100000*%
%ADD16C,0.150000*%
%ADD17C,0.152400*%
%ADD18C,0.015000*%
G04 APERTURE END LIST*
D10*
X22619047Y-60254761D02*
X22619047Y-58254761D01*
X23095238Y-58254761D01*
X23380952Y-58350000D01*
X23571428Y-58540476D01*
X23666666Y-58730952D01*
X23761904Y-59111904D01*
X23761904Y-59397619D01*
X23666666Y-59778571D01*
X23571428Y-59969047D01*
X23380952Y-60159523D01*
X23095238Y-60254761D01*
X22619047Y-60254761D01*
X25476190Y-60254761D02*
X25476190Y-59207142D01*
X25380952Y-59016666D01*
X25190476Y-58921428D01*
X24809523Y-58921428D01*
X24619047Y-59016666D01*
X25476190Y-60159523D02*
X25285714Y-60254761D01*
X24809523Y-60254761D01*
X24619047Y-60159523D01*
X24523809Y-59969047D01*
X24523809Y-59778571D01*
X24619047Y-59588095D01*
X24809523Y-59492857D01*
X25285714Y-59492857D01*
X25476190Y-59397619D01*
X26428571Y-58921428D02*
X26428571Y-60254761D01*
X26428571Y-59111904D02*
X26523809Y-59016666D01*
X26714285Y-58921428D01*
X27000000Y-58921428D01*
X27190476Y-59016666D01*
X27285714Y-59207142D01*
X27285714Y-60254761D01*
X29095238Y-60159523D02*
X28904761Y-60254761D01*
X28523809Y-60254761D01*
X28333333Y-60159523D01*
X28238095Y-60064285D01*
X28142857Y-59873809D01*
X28142857Y-59302380D01*
X28238095Y-59111904D01*
X28333333Y-59016666D01*
X28523809Y-58921428D01*
X28904761Y-58921428D01*
X29095238Y-59016666D01*
X30714285Y-60159523D02*
X30523809Y-60254761D01*
X30142857Y-60254761D01*
X29952380Y-60159523D01*
X29857142Y-59969047D01*
X29857142Y-59207142D01*
X29952380Y-59016666D01*
X30142857Y-58921428D01*
X30523809Y-58921428D01*
X30714285Y-59016666D01*
X30809523Y-59207142D01*
X30809523Y-59397619D01*
X29857142Y-59588095D01*
X33190476Y-60254761D02*
X33190476Y-58254761D01*
X33952380Y-58254761D01*
X34142857Y-58350000D01*
X34238095Y-58445238D01*
X34333333Y-58635714D01*
X34333333Y-58921428D01*
X34238095Y-59111904D01*
X34142857Y-59207142D01*
X33952380Y-59302380D01*
X33190476Y-59302380D01*
X36047619Y-60254761D02*
X36047619Y-59207142D01*
X35952380Y-59016666D01*
X35761904Y-58921428D01*
X35380952Y-58921428D01*
X35190476Y-59016666D01*
X36047619Y-60159523D02*
X35857142Y-60254761D01*
X35380952Y-60254761D01*
X35190476Y-60159523D01*
X35095238Y-59969047D01*
X35095238Y-59778571D01*
X35190476Y-59588095D01*
X35380952Y-59492857D01*
X35857142Y-59492857D01*
X36047619Y-59397619D01*
X37857142Y-60254761D02*
X37857142Y-58254761D01*
X37857142Y-60159523D02*
X37666666Y-60254761D01*
X37285714Y-60254761D01*
X37095238Y-60159523D01*
X37000000Y-60064285D01*
X36904761Y-59873809D01*
X36904761Y-59302380D01*
X37000000Y-59111904D01*
X37095238Y-59016666D01*
X37285714Y-58921428D01*
X37666666Y-58921428D01*
X37857142Y-59016666D01*
X40333333Y-60254761D02*
X40333333Y-58254761D01*
X41095238Y-58254761D01*
X41285714Y-58350000D01*
X41380952Y-58445238D01*
X41476190Y-58635714D01*
X41476190Y-58921428D01*
X41380952Y-59111904D01*
X41285714Y-59207142D01*
X41095238Y-59302380D01*
X40333333Y-59302380D01*
X43476190Y-60064285D02*
X43380952Y-60159523D01*
X43095238Y-60254761D01*
X42904761Y-60254761D01*
X42619047Y-60159523D01*
X42428571Y-59969047D01*
X42333333Y-59778571D01*
X42238095Y-59397619D01*
X42238095Y-59111904D01*
X42333333Y-58730952D01*
X42428571Y-58540476D01*
X42619047Y-58350000D01*
X42904761Y-58254761D01*
X43095238Y-58254761D01*
X43380952Y-58350000D01*
X43476190Y-58445238D01*
X45000000Y-59207142D02*
X45285714Y-59302380D01*
X45380952Y-59397619D01*
X45476190Y-59588095D01*
X45476190Y-59873809D01*
X45380952Y-60064285D01*
X45285714Y-60159523D01*
X45095238Y-60254761D01*
X44333333Y-60254761D01*
X44333333Y-58254761D01*
X45000000Y-58254761D01*
X45190476Y-58350000D01*
X45285714Y-58445238D01*
X45380952Y-58635714D01*
X45380952Y-58826190D01*
X45285714Y-59016666D01*
X45190476Y-59111904D01*
X45000000Y-59207142D01*
X44333333Y-59207142D01*
X21523809Y-63554761D02*
X21523809Y-61554761D01*
X21523809Y-62316666D02*
X21714285Y-62221428D01*
X22095238Y-62221428D01*
X22285714Y-62316666D01*
X22380952Y-62411904D01*
X22476190Y-62602380D01*
X22476190Y-63173809D01*
X22380952Y-63364285D01*
X22285714Y-63459523D01*
X22095238Y-63554761D01*
X21714285Y-63554761D01*
X21523809Y-63459523D01*
X23142857Y-62221428D02*
X23619047Y-63554761D01*
X24095238Y-62221428D02*
X23619047Y-63554761D01*
X23428571Y-64030952D01*
X23333333Y-64126190D01*
X23142857Y-64221428D01*
X26190476Y-61554761D02*
X26666666Y-63554761D01*
X27047619Y-62126190D01*
X27428571Y-63554761D01*
X27904761Y-61554761D01*
X29428571Y-63459523D02*
X29238095Y-63554761D01*
X28857142Y-63554761D01*
X28666666Y-63459523D01*
X28571428Y-63269047D01*
X28571428Y-62507142D01*
X28666666Y-62316666D01*
X28857142Y-62221428D01*
X29238095Y-62221428D01*
X29428571Y-62316666D01*
X29523809Y-62507142D01*
X29523809Y-62697619D01*
X28571428Y-62888095D01*
X30285714Y-63459523D02*
X30476190Y-63554761D01*
X30857142Y-63554761D01*
X31047619Y-63459523D01*
X31142857Y-63269047D01*
X31142857Y-63173809D01*
X31047619Y-62983333D01*
X30857142Y-62888095D01*
X30571428Y-62888095D01*
X30380952Y-62792857D01*
X30285714Y-62602380D01*
X30285714Y-62507142D01*
X30380952Y-62316666D01*
X30571428Y-62221428D01*
X30857142Y-62221428D01*
X31047619Y-62316666D01*
X32285714Y-63554761D02*
X32095238Y-63459523D01*
X31999999Y-63269047D01*
X31999999Y-61554761D01*
X33809523Y-63459523D02*
X33619047Y-63554761D01*
X33238095Y-63554761D01*
X33047619Y-63459523D01*
X32952380Y-63269047D01*
X32952380Y-62507142D01*
X33047619Y-62316666D01*
X33238095Y-62221428D01*
X33619047Y-62221428D01*
X33809523Y-62316666D01*
X33904761Y-62507142D01*
X33904761Y-62697619D01*
X32952380Y-62888095D01*
X34571428Y-62221428D02*
X35047619Y-63554761D01*
X35523809Y-62221428D02*
X35047619Y-63554761D01*
X34857142Y-64030952D01*
X34761904Y-64126190D01*
X34571428Y-64221428D01*
X38952380Y-63364285D02*
X38857142Y-63459523D01*
X38571428Y-63554761D01*
X38380952Y-63554761D01*
X38095238Y-63459523D01*
X37904761Y-63269047D01*
X37809523Y-63078571D01*
X37714285Y-62697619D01*
X37714285Y-62411904D01*
X37809523Y-62030952D01*
X37904761Y-61840476D01*
X38095238Y-61650000D01*
X38380952Y-61554761D01*
X38571428Y-61554761D01*
X38857142Y-61650000D01*
X38952380Y-61745238D01*
X40666666Y-63554761D02*
X40666666Y-62507142D01*
X40571428Y-62316666D01*
X40380952Y-62221428D01*
X40000000Y-62221428D01*
X39809523Y-62316666D01*
X40666666Y-63459523D02*
X40476190Y-63554761D01*
X40000000Y-63554761D01*
X39809523Y-63459523D01*
X39714285Y-63269047D01*
X39714285Y-63078571D01*
X39809523Y-62888095D01*
X40000000Y-62792857D01*
X40476190Y-62792857D01*
X40666666Y-62697619D01*
X41523809Y-63459523D02*
X41714285Y-63554761D01*
X42095238Y-63554761D01*
X42285714Y-63459523D01*
X42380952Y-63269047D01*
X42380952Y-63173809D01*
X42285714Y-62983333D01*
X42095238Y-62888095D01*
X41809523Y-62888095D01*
X41619047Y-62792857D01*
X41523809Y-62602380D01*
X41523809Y-62507142D01*
X41619047Y-62316666D01*
X41809523Y-62221428D01*
X42095238Y-62221428D01*
X42285714Y-62316666D01*
X42952380Y-62221428D02*
X43714285Y-62221428D01*
X43238095Y-61554761D02*
X43238095Y-63269047D01*
X43333333Y-63459523D01*
X43523809Y-63554761D01*
X43714285Y-63554761D01*
X44380952Y-63554761D02*
X44380952Y-62221428D01*
X44380952Y-62602380D02*
X44476190Y-62411904D01*
X44571428Y-62316666D01*
X44761904Y-62221428D01*
X44952380Y-62221428D01*
X45904761Y-63554761D02*
X45714285Y-63459523D01*
X45619047Y-63364285D01*
X45523809Y-63173809D01*
X45523809Y-62602380D01*
X45619047Y-62411904D01*
X45714285Y-62316666D01*
X45904761Y-62221428D01*
X46190476Y-62221428D01*
X46380952Y-62316666D01*
X46476190Y-62411904D01*
X46571428Y-62602380D01*
X46571428Y-63173809D01*
X46476190Y-63364285D01*
X46380952Y-63459523D01*
X46190476Y-63554761D01*
X45904761Y-63554761D01*
D11*
X12260000Y-4260000D02*
X12260000Y-1510000D01*
X12260000Y4260000D02*
X12260000Y1510000D01*
X4804437Y4260000D02*
X12260000Y4260000D01*
X4804437Y-4260000D02*
X12260000Y-4260000D01*
X3740000Y-3195563D02*
X3740000Y-1510000D01*
X3740000Y3195563D02*
X3740000Y1510000D01*
X3740000Y3195563D02*
X4804437Y4260000D01*
X3740000Y-3195563D02*
X4804437Y-4260000D01*
X2500000Y2510000D02*
X3500000Y2510000D01*
X3000000Y3010000D02*
X3000000Y2010000D01*
D12*
G36*
X34036043Y-45110611D02*
G01*
X34119708Y-45184362D01*
X34249188Y-45303982D01*
X34421710Y-45466772D01*
X34634498Y-45670035D01*
X34884778Y-45911071D01*
X35169775Y-46187182D01*
X35486714Y-46495670D01*
X35832820Y-46833836D01*
X36205318Y-47198981D01*
X36601435Y-47588408D01*
X37018395Y-47999418D01*
X37453422Y-48429312D01*
X37903744Y-48875391D01*
X38179864Y-49149428D01*
X39842241Y-50800428D01*
X39842121Y-51469075D01*
X39842000Y-52137721D01*
X39290164Y-52693718D01*
X38738328Y-53249714D01*
X37469059Y-53249714D01*
X36685969Y-52469571D01*
X36490061Y-52275224D01*
X36310377Y-52098548D01*
X36153397Y-51945790D01*
X36025600Y-51823197D01*
X35933466Y-51737016D01*
X35883476Y-51693494D01*
X35876726Y-51689428D01*
X35871462Y-51724536D01*
X35866553Y-51825145D01*
X35862105Y-51984188D01*
X35858227Y-52194595D01*
X35855027Y-52449297D01*
X35852613Y-52741226D01*
X35851092Y-53063312D01*
X35850572Y-53403120D01*
X35850572Y-55116812D01*
X34951692Y-56015691D01*
X34740553Y-56225353D01*
X34544033Y-56417673D01*
X34368340Y-56586792D01*
X34219685Y-56726848D01*
X34104278Y-56831979D01*
X34028329Y-56896324D01*
X33999376Y-56914571D01*
X33962088Y-56889693D01*
X33880088Y-56818971D01*
X33759577Y-56708272D01*
X33606761Y-56563465D01*
X33427841Y-56390416D01*
X33229022Y-56194994D01*
X33048044Y-56014707D01*
X32150149Y-55114842D01*
X32140717Y-53393064D01*
X32131286Y-51671285D01*
X31330352Y-52460500D01*
X30529418Y-53249714D01*
X29261672Y-53249714D01*
X28709836Y-52693718D01*
X28158000Y-52137721D01*
X28158000Y-51023214D01*
X28585151Y-51023214D01*
X28587572Y-51508268D01*
X28589992Y-51993321D01*
X29017500Y-52421946D01*
X29445009Y-52850571D01*
X30408033Y-52850571D01*
X31409447Y-51861785D01*
X31632677Y-51642398D01*
X31840712Y-51439913D01*
X32027731Y-51259851D01*
X32187911Y-51107732D01*
X32315430Y-50989074D01*
X32404465Y-50909396D01*
X32449195Y-50874219D01*
X32452502Y-50873000D01*
X32462136Y-50893585D01*
X32470569Y-50957763D01*
X32477891Y-51069163D01*
X32484193Y-51231417D01*
X32489565Y-51448155D01*
X32494098Y-51723007D01*
X32497882Y-52059605D01*
X32501007Y-52461580D01*
X32503521Y-52923125D01*
X32512898Y-54973250D01*
X33247046Y-55708053D01*
X33435994Y-55896560D01*
X33608180Y-56067177D01*
X33757001Y-56213455D01*
X33875855Y-56328943D01*
X33958137Y-56407192D01*
X33997245Y-56441753D01*
X33999344Y-56442857D01*
X34028665Y-56418214D01*
X34102575Y-56348579D01*
X34214468Y-56240396D01*
X34357734Y-56100108D01*
X34525768Y-55934155D01*
X34711961Y-55748983D01*
X34752605Y-55708403D01*
X35487714Y-54973949D01*
X35487714Y-52936428D01*
X35487865Y-52497821D01*
X35488423Y-52126233D01*
X35489546Y-51816113D01*
X35491391Y-51561910D01*
X35494116Y-51358070D01*
X35497879Y-51199044D01*
X35502838Y-51079279D01*
X35509151Y-50993224D01*
X35516974Y-50935328D01*
X35526466Y-50900037D01*
X35537786Y-50881802D01*
X35546247Y-50876446D01*
X35578826Y-50886578D01*
X35643225Y-50932329D01*
X35742398Y-51016412D01*
X35879297Y-51141540D01*
X36056873Y-51310424D01*
X36278080Y-51525778D01*
X36545868Y-51790315D01*
X36607605Y-51851680D01*
X37610429Y-52849375D01*
X38082143Y-52849323D01*
X38553857Y-52849272D01*
X38998357Y-52413565D01*
X39442857Y-51977857D01*
X39442857Y-51017961D01*
X36730500Y-48306060D01*
X34018143Y-45594158D01*
X28585151Y-51023214D01*
X28158000Y-51023214D01*
X28158000Y-50801114D01*
X28947214Y-50021425D01*
X29305478Y-49667708D01*
X29714761Y-49264031D01*
X30174235Y-48811211D01*
X30683071Y-48310063D01*
X31240439Y-47761405D01*
X31845509Y-47166053D01*
X32497454Y-46524824D01*
X32883047Y-46145667D01*
X33114993Y-45918519D01*
X33331701Y-45708033D01*
X33527575Y-45519518D01*
X33697016Y-45358283D01*
X33834428Y-45229636D01*
X33934212Y-45138887D01*
X33990771Y-45091344D01*
X34000969Y-45085428D01*
X34036043Y-45110611D01*
G37*
X34036043Y-45110611D02*
X34119708Y-45184362D01*
X34249188Y-45303982D01*
X34421710Y-45466772D01*
X34634498Y-45670035D01*
X34884778Y-45911071D01*
X35169775Y-46187182D01*
X35486714Y-46495670D01*
X35832820Y-46833836D01*
X36205318Y-47198981D01*
X36601435Y-47588408D01*
X37018395Y-47999418D01*
X37453422Y-48429312D01*
X37903744Y-48875391D01*
X38179864Y-49149428D01*
X39842241Y-50800428D01*
X39842121Y-51469075D01*
X39842000Y-52137721D01*
X39290164Y-52693718D01*
X38738328Y-53249714D01*
X37469059Y-53249714D01*
X36685969Y-52469571D01*
X36490061Y-52275224D01*
X36310377Y-52098548D01*
X36153397Y-51945790D01*
X36025600Y-51823197D01*
X35933466Y-51737016D01*
X35883476Y-51693494D01*
X35876726Y-51689428D01*
X35871462Y-51724536D01*
X35866553Y-51825145D01*
X35862105Y-51984188D01*
X35858227Y-52194595D01*
X35855027Y-52449297D01*
X35852613Y-52741226D01*
X35851092Y-53063312D01*
X35850572Y-53403120D01*
X35850572Y-55116812D01*
X34951692Y-56015691D01*
X34740553Y-56225353D01*
X34544033Y-56417673D01*
X34368340Y-56586792D01*
X34219685Y-56726848D01*
X34104278Y-56831979D01*
X34028329Y-56896324D01*
X33999376Y-56914571D01*
X33962088Y-56889693D01*
X33880088Y-56818971D01*
X33759577Y-56708272D01*
X33606761Y-56563465D01*
X33427841Y-56390416D01*
X33229022Y-56194994D01*
X33048044Y-56014707D01*
X32150149Y-55114842D01*
X32140717Y-53393064D01*
X32131286Y-51671285D01*
X31330352Y-52460500D01*
X30529418Y-53249714D01*
X29261672Y-53249714D01*
X28709836Y-52693718D01*
X28158000Y-52137721D01*
X28158000Y-51023214D01*
X28585151Y-51023214D01*
X28587572Y-51508268D01*
X28589992Y-51993321D01*
X29017500Y-52421946D01*
X29445009Y-52850571D01*
X30408033Y-52850571D01*
X31409447Y-51861785D01*
X31632677Y-51642398D01*
X31840712Y-51439913D01*
X32027731Y-51259851D01*
X32187911Y-51107732D01*
X32315430Y-50989074D01*
X32404465Y-50909396D01*
X32449195Y-50874219D01*
X32452502Y-50873000D01*
X32462136Y-50893585D01*
X32470569Y-50957763D01*
X32477891Y-51069163D01*
X32484193Y-51231417D01*
X32489565Y-51448155D01*
X32494098Y-51723007D01*
X32497882Y-52059605D01*
X32501007Y-52461580D01*
X32503521Y-52923125D01*
X32512898Y-54973250D01*
X33247046Y-55708053D01*
X33435994Y-55896560D01*
X33608180Y-56067177D01*
X33757001Y-56213455D01*
X33875855Y-56328943D01*
X33958137Y-56407192D01*
X33997245Y-56441753D01*
X33999344Y-56442857D01*
X34028665Y-56418214D01*
X34102575Y-56348579D01*
X34214468Y-56240396D01*
X34357734Y-56100108D01*
X34525768Y-55934155D01*
X34711961Y-55748983D01*
X34752605Y-55708403D01*
X35487714Y-54973949D01*
X35487714Y-52936428D01*
X35487865Y-52497821D01*
X35488423Y-52126233D01*
X35489546Y-51816113D01*
X35491391Y-51561910D01*
X35494116Y-51358070D01*
X35497879Y-51199044D01*
X35502838Y-51079279D01*
X35509151Y-50993224D01*
X35516974Y-50935328D01*
X35526466Y-50900037D01*
X35537786Y-50881802D01*
X35546247Y-50876446D01*
X35578826Y-50886578D01*
X35643225Y-50932329D01*
X35742398Y-51016412D01*
X35879297Y-51141540D01*
X36056873Y-51310424D01*
X36278080Y-51525778D01*
X36545868Y-51790315D01*
X36607605Y-51851680D01*
X37610429Y-52849375D01*
X38082143Y-52849323D01*
X38553857Y-52849272D01*
X38998357Y-52413565D01*
X39442857Y-51977857D01*
X39442857Y-51017961D01*
X36730500Y-48306060D01*
X34018143Y-45594158D01*
X28585151Y-51023214D01*
X28158000Y-51023214D01*
X28158000Y-50801114D01*
X28947214Y-50021425D01*
X29305478Y-49667708D01*
X29714761Y-49264031D01*
X30174235Y-48811211D01*
X30683071Y-48310063D01*
X31240439Y-47761405D01*
X31845509Y-47166053D01*
X32497454Y-46524824D01*
X32883047Y-46145667D01*
X33114993Y-45918519D01*
X33331701Y-45708033D01*
X33527575Y-45519518D01*
X33697016Y-45358283D01*
X33834428Y-45229636D01*
X33934212Y-45138887D01*
X33990771Y-45091344D01*
X34000969Y-45085428D01*
X34036043Y-45110611D01*
G36*
X34059002Y-52004326D02*
G01*
X34136871Y-52071853D01*
X34244388Y-52172835D01*
X34371259Y-52297812D01*
X34412348Y-52339375D01*
X34765708Y-52699037D01*
X34754783Y-53564018D01*
X34743857Y-54429000D01*
X34375475Y-54796035D01*
X34007092Y-55163070D01*
X33640689Y-54795415D01*
X33274286Y-54427761D01*
X33274286Y-52685924D01*
X33628721Y-52332819D01*
X33760344Y-52204294D01*
X33875526Y-52096689D01*
X33963821Y-52019403D01*
X34014785Y-51981837D01*
X34021072Y-51979714D01*
X34059002Y-52004326D01*
G37*
X34059002Y-52004326D02*
X34136871Y-52071853D01*
X34244388Y-52172835D01*
X34371259Y-52297812D01*
X34412348Y-52339375D01*
X34765708Y-52699037D01*
X34754783Y-53564018D01*
X34743857Y-54429000D01*
X34375475Y-54796035D01*
X34007092Y-55163070D01*
X33640689Y-54795415D01*
X33274286Y-54427761D01*
X33274286Y-52685924D01*
X33628721Y-52332819D01*
X33760344Y-52204294D01*
X33875526Y-52096689D01*
X33963821Y-52019403D01*
X34014785Y-51981837D01*
X34021072Y-51979714D01*
X34059002Y-52004326D01*
G36*
X34135467Y-49226316D02*
G01*
X34222343Y-49308654D01*
X34338534Y-49424593D01*
X34464282Y-49554267D01*
X34517072Y-49610048D01*
X34762000Y-49871096D01*
X34762000Y-50999115D01*
X34761683Y-51317383D01*
X34760473Y-51570592D01*
X34757985Y-51766252D01*
X34753831Y-51911873D01*
X34747624Y-52014965D01*
X34738978Y-52083038D01*
X34727507Y-52123604D01*
X34712823Y-52144171D01*
X34702748Y-52149871D01*
X34656104Y-52141491D01*
X34578375Y-52088439D01*
X34464409Y-51986633D01*
X34334933Y-51858447D01*
X34214187Y-51737335D01*
X34111633Y-51637894D01*
X34037904Y-51570195D01*
X34003631Y-51544311D01*
X34003312Y-51544285D01*
X33970238Y-51568546D01*
X33897189Y-51634614D01*
X33794936Y-51732418D01*
X33674251Y-51851887D01*
X33673429Y-51852714D01*
X33550212Y-51972780D01*
X33442217Y-52071010D01*
X33361171Y-52137198D01*
X33319017Y-52161142D01*
X33305678Y-52148855D01*
X33295259Y-52107692D01*
X33287559Y-52031198D01*
X33282374Y-51912921D01*
X33279501Y-51746407D01*
X33278739Y-51525203D01*
X33279883Y-51242854D01*
X33281930Y-50980401D01*
X33292429Y-49799660D01*
X33645609Y-49451646D01*
X33998790Y-49103632D01*
X34135467Y-49226316D01*
G37*
X34135467Y-49226316D02*
X34222343Y-49308654D01*
X34338534Y-49424593D01*
X34464282Y-49554267D01*
X34517072Y-49610048D01*
X34762000Y-49871096D01*
X34762000Y-50999115D01*
X34761683Y-51317383D01*
X34760473Y-51570592D01*
X34757985Y-51766252D01*
X34753831Y-51911873D01*
X34747624Y-52014965D01*
X34738978Y-52083038D01*
X34727507Y-52123604D01*
X34712823Y-52144171D01*
X34702748Y-52149871D01*
X34656104Y-52141491D01*
X34578375Y-52088439D01*
X34464409Y-51986633D01*
X34334933Y-51858447D01*
X34214187Y-51737335D01*
X34111633Y-51637894D01*
X34037904Y-51570195D01*
X34003631Y-51544311D01*
X34003312Y-51544285D01*
X33970238Y-51568546D01*
X33897189Y-51634614D01*
X33794936Y-51732418D01*
X33674251Y-51851887D01*
X33673429Y-51852714D01*
X33550212Y-51972780D01*
X33442217Y-52071010D01*
X33361171Y-52137198D01*
X33319017Y-52161142D01*
X33305678Y-52148855D01*
X33295259Y-52107692D01*
X33287559Y-52031198D01*
X33282374Y-51912921D01*
X33279501Y-51746407D01*
X33278739Y-51525203D01*
X33279883Y-51242854D01*
X33281930Y-50980401D01*
X33292429Y-49799660D01*
X33645609Y-49451646D01*
X33998790Y-49103632D01*
X34135467Y-49226316D01*
G36*
X34038328Y-46699562D02*
G01*
X34075481Y-46727500D01*
X34131424Y-46775683D01*
X34208547Y-46846495D01*
X34309238Y-46942322D01*
X34435888Y-47065549D01*
X34590886Y-47218561D01*
X34776621Y-47403744D01*
X34995483Y-47623483D01*
X35249861Y-47880163D01*
X35542144Y-48176170D01*
X35874721Y-48513889D01*
X36249983Y-48895705D01*
X36670319Y-49324003D01*
X37138117Y-49801170D01*
X37297009Y-49963330D01*
X38325493Y-51013089D01*
X38300501Y-51324044D01*
X38284345Y-51470977D01*
X38263028Y-51592119D01*
X38240336Y-51667596D01*
X38232790Y-51679525D01*
X38176304Y-51706038D01*
X38069429Y-51733439D01*
X37934222Y-51758372D01*
X37792740Y-51777483D01*
X37667043Y-51787418D01*
X37579187Y-51784821D01*
X37563945Y-51781248D01*
X37524858Y-51751510D01*
X37440731Y-51676067D01*
X37317636Y-51560736D01*
X37161641Y-51411334D01*
X36978818Y-51233678D01*
X36775234Y-51033586D01*
X36556962Y-50816875D01*
X36540000Y-50799946D01*
X35578429Y-49839856D01*
X35336994Y-49839357D01*
X35095560Y-49838857D01*
X34753641Y-49485071D01*
X34604987Y-49330542D01*
X34453722Y-49172075D01*
X34317646Y-49028390D01*
X34215411Y-48919122D01*
X34019100Y-48706959D01*
X32929572Y-49839673D01*
X32693715Y-49840404D01*
X32457857Y-49841135D01*
X31783257Y-50502210D01*
X31487849Y-50791723D01*
X31239782Y-51034625D01*
X31034471Y-51235000D01*
X30867328Y-51396932D01*
X30733767Y-51524505D01*
X30629201Y-51621804D01*
X30549042Y-51692914D01*
X30488705Y-51741918D01*
X30443603Y-51772900D01*
X30409148Y-51789945D01*
X30380754Y-51797137D01*
X30353835Y-51798561D01*
X30327720Y-51798285D01*
X30239422Y-51794416D01*
X30189165Y-51784948D01*
X30186976Y-51783436D01*
X30144794Y-51772539D01*
X30055880Y-51762292D01*
X30008572Y-51758902D01*
X29899903Y-51746352D01*
X29819987Y-51726266D01*
X29803301Y-51717677D01*
X29777656Y-51667093D01*
X29753255Y-51567330D01*
X29737892Y-51460998D01*
X29721982Y-51322105D01*
X29705260Y-51197609D01*
X29694799Y-51133556D01*
X29692873Y-51102119D01*
X29702289Y-51065840D01*
X29727995Y-51018973D01*
X29774937Y-50955772D01*
X29848063Y-50870490D01*
X29952321Y-50757381D01*
X30092658Y-50610699D01*
X30274021Y-50424697D01*
X30501358Y-50193631D01*
X30522707Y-50171984D01*
X30861711Y-49827987D01*
X31223875Y-49459916D01*
X31599434Y-49077728D01*
X31978626Y-48691382D01*
X32351685Y-48310834D01*
X32708848Y-47946043D01*
X33040351Y-47606967D01*
X33336429Y-47303562D01*
X33492749Y-47143053D01*
X33674476Y-46959527D01*
X33813636Y-46826769D01*
X33915068Y-46740599D01*
X33983609Y-46696836D01*
X34017577Y-46689482D01*
X34038328Y-46699562D01*
G37*
X34038328Y-46699562D02*
X34075481Y-46727500D01*
X34131424Y-46775683D01*
X34208547Y-46846495D01*
X34309238Y-46942322D01*
X34435888Y-47065549D01*
X34590886Y-47218561D01*
X34776621Y-47403744D01*
X34995483Y-47623483D01*
X35249861Y-47880163D01*
X35542144Y-48176170D01*
X35874721Y-48513889D01*
X36249983Y-48895705D01*
X36670319Y-49324003D01*
X37138117Y-49801170D01*
X37297009Y-49963330D01*
X38325493Y-51013089D01*
X38300501Y-51324044D01*
X38284345Y-51470977D01*
X38263028Y-51592119D01*
X38240336Y-51667596D01*
X38232790Y-51679525D01*
X38176304Y-51706038D01*
X38069429Y-51733439D01*
X37934222Y-51758372D01*
X37792740Y-51777483D01*
X37667043Y-51787418D01*
X37579187Y-51784821D01*
X37563945Y-51781248D01*
X37524858Y-51751510D01*
X37440731Y-51676067D01*
X37317636Y-51560736D01*
X37161641Y-51411334D01*
X36978818Y-51233678D01*
X36775234Y-51033586D01*
X36556962Y-50816875D01*
X36540000Y-50799946D01*
X35578429Y-49839856D01*
X35336994Y-49839357D01*
X35095560Y-49838857D01*
X34753641Y-49485071D01*
X34604987Y-49330542D01*
X34453722Y-49172075D01*
X34317646Y-49028390D01*
X34215411Y-48919122D01*
X34019100Y-48706959D01*
X32929572Y-49839673D01*
X32693715Y-49840404D01*
X32457857Y-49841135D01*
X31783257Y-50502210D01*
X31487849Y-50791723D01*
X31239782Y-51034625D01*
X31034471Y-51235000D01*
X30867328Y-51396932D01*
X30733767Y-51524505D01*
X30629201Y-51621804D01*
X30549042Y-51692914D01*
X30488705Y-51741918D01*
X30443603Y-51772900D01*
X30409148Y-51789945D01*
X30380754Y-51797137D01*
X30353835Y-51798561D01*
X30327720Y-51798285D01*
X30239422Y-51794416D01*
X30189165Y-51784948D01*
X30186976Y-51783436D01*
X30144794Y-51772539D01*
X30055880Y-51762292D01*
X30008572Y-51758902D01*
X29899903Y-51746352D01*
X29819987Y-51726266D01*
X29803301Y-51717677D01*
X29777656Y-51667093D01*
X29753255Y-51567330D01*
X29737892Y-51460998D01*
X29721982Y-51322105D01*
X29705260Y-51197609D01*
X29694799Y-51133556D01*
X29692873Y-51102119D01*
X29702289Y-51065840D01*
X29727995Y-51018973D01*
X29774937Y-50955772D01*
X29848063Y-50870490D01*
X29952321Y-50757381D01*
X30092658Y-50610699D01*
X30274021Y-50424697D01*
X30501358Y-50193631D01*
X30522707Y-50171984D01*
X30861711Y-49827987D01*
X31223875Y-49459916D01*
X31599434Y-49077728D01*
X31978626Y-48691382D01*
X32351685Y-48310834D01*
X32708848Y-47946043D01*
X33040351Y-47606967D01*
X33336429Y-47303562D01*
X33492749Y-47143053D01*
X33674476Y-46959527D01*
X33813636Y-46826769D01*
X33915068Y-46740599D01*
X33983609Y-46696836D01*
X34017577Y-46689482D01*
X34038328Y-46699562D01*
D13*
X11360000Y-26760000D02*
G75*
G03*
X11360000Y-26760000I-100000J0D01*
G01*
D14*
X11500000Y-28800000D02*
X11500000Y-33200000D01*
X6500000Y-28800000D02*
X6500000Y-33200000D01*
D13*
X11360000Y-13760000D02*
G75*
G03*
X11360000Y-13760000I-100000J0D01*
G01*
D14*
X11500000Y-15800000D02*
X11500000Y-20200000D01*
X6500000Y-15800000D02*
X6500000Y-20200000D01*
D15*
G36*
X34307000Y-16197000D02*
G01*
X34053000Y-15943000D01*
X34434000Y-15689000D01*
X34688000Y-15943000D01*
X34307000Y-16197000D01*
G37*
X34307000Y-16197000D02*
X34053000Y-15943000D01*
X34434000Y-15689000D01*
X34688000Y-15943000D01*
X34307000Y-16197000D01*
G36*
X33926000Y-15816000D02*
G01*
X33672000Y-15562000D01*
X34053000Y-15308000D01*
X34307000Y-15562000D01*
X33926000Y-15816000D01*
G37*
X33926000Y-15816000D02*
X33672000Y-15562000D01*
X34053000Y-15308000D01*
X34307000Y-15562000D01*
X33926000Y-15816000D01*
G36*
X34688000Y-13911000D02*
G01*
X34434000Y-13657000D01*
X34815000Y-13403000D01*
X35069000Y-13657000D01*
X34688000Y-13911000D01*
G37*
X34688000Y-13911000D02*
X34434000Y-13657000D01*
X34815000Y-13403000D01*
X35069000Y-13657000D01*
X34688000Y-13911000D01*
G36*
X34180000Y-14292000D02*
G01*
X33926000Y-14038000D01*
X34307000Y-13784000D01*
X34561000Y-14038000D01*
X34180000Y-14292000D01*
G37*
X34180000Y-14292000D02*
X33926000Y-14038000D01*
X34307000Y-13784000D01*
X34561000Y-14038000D01*
X34180000Y-14292000D01*
G36*
X33672000Y-14673000D02*
G01*
X33418000Y-14419000D01*
X33799000Y-14165000D01*
X34053000Y-14419000D01*
X33672000Y-14673000D01*
G37*
X33672000Y-14673000D02*
X33418000Y-14419000D01*
X33799000Y-14165000D01*
X34053000Y-14419000D01*
X33672000Y-14673000D01*
G36*
X34561000Y-14673000D02*
G01*
X34307000Y-14419000D01*
X34688000Y-14165000D01*
X34942000Y-14419000D01*
X34561000Y-14673000D01*
G37*
X34561000Y-14673000D02*
X34307000Y-14419000D01*
X34688000Y-14165000D01*
X34942000Y-14419000D01*
X34561000Y-14673000D01*
G36*
X34053000Y-15054000D02*
G01*
X33799000Y-14800000D01*
X34180000Y-14546000D01*
X34434000Y-14800000D01*
X34053000Y-15054000D01*
G37*
X34053000Y-15054000D02*
X33799000Y-14800000D01*
X34180000Y-14546000D01*
X34434000Y-14800000D01*
X34053000Y-15054000D01*
G36*
X33545000Y-15435000D02*
G01*
X33291000Y-15181000D01*
X33672000Y-14927000D01*
X33926000Y-15181000D01*
X33545000Y-15435000D01*
G37*
X33545000Y-15435000D02*
X33291000Y-15181000D01*
X33672000Y-14927000D01*
X33926000Y-15181000D01*
X33545000Y-15435000D01*
D16*
X25110000Y17480000D02*
X42890000Y17480000D01*
X25110000Y-43480000D02*
X25110000Y17480000D01*
X42890000Y-43480000D02*
X25110000Y-43480000D01*
X42890000Y17480000D02*
X42890000Y-43480000D01*
X30190000Y12400000D02*
X30190000Y17480000D01*
X37810000Y12400000D02*
X37810000Y17480000D01*
X30190000Y12400000D02*
X37810000Y12400000D01*
X37810000Y18750000D02*
X37810000Y17480000D01*
X30190000Y18750000D02*
X37810000Y18750000D01*
X30190000Y17480000D02*
X30190000Y18750000D01*
X40350000Y-43480000D02*
X40350000Y-30780000D01*
X40350000Y-30780000D02*
X27650000Y-30780000D01*
X27650000Y-30780000D02*
X27650000Y-43480000D01*
X39080000Y-43480000D02*
X39080000Y-42210000D01*
X39080000Y-42210000D02*
X28920000Y-42210000D01*
X28920000Y-42210000D02*
X28920000Y-43480000D01*
X35270000Y-26970000D02*
X32730000Y-26970000D01*
X32730000Y-26970000D02*
X32730000Y-23160000D01*
X32730000Y-23160000D02*
X35270000Y-23160000D01*
X35270000Y-23160000D02*
X35270000Y-26970000D01*
X30700800Y11180800D02*
X30700800Y-1519200D01*
X30700800Y-1519200D02*
X28160800Y-1519200D01*
X28160800Y-1519200D02*
X28160800Y11180800D01*
X28160800Y11180800D02*
X30700800Y11180800D01*
X30700800Y11180800D02*
X30700800Y8640800D01*
X30700800Y8640800D02*
X28160800Y8640800D01*
X40101600Y4250000D02*
X34101600Y4250000D01*
X34101600Y4250000D02*
X34101600Y250000D01*
X34101600Y250000D02*
X40351600Y250000D01*
X40351600Y250000D02*
X40351600Y4250000D01*
X40351600Y4250000D02*
X40101600Y4250000D01*
X27650000Y-5380000D02*
X27650000Y-18080000D01*
X27650000Y-18080000D02*
X40350000Y-18080000D01*
X40350000Y-18080000D02*
X40350000Y-5380000D01*
X40350000Y-5380000D02*
X27650000Y-5380000D01*
X34898026Y-25065000D02*
G75*
G03*
X34898026Y-25065000I-898026J0D01*
G01*
D11*
X9130000Y-37670000D02*
X9130000Y-40330000D01*
X11730000Y-37670000D02*
X9130000Y-37670000D01*
X11730000Y-40330000D02*
X9130000Y-40330000D01*
X11730000Y-37670000D02*
X11730000Y-40330000D01*
X13000000Y-37670000D02*
X14330000Y-37670000D01*
X14330000Y-37670000D02*
X14330000Y-39000000D01*
D17*
X3373000Y-54127000D02*
X18627001Y-54127000D01*
X18627001Y-54127000D02*
X18627001Y-44873000D01*
X18627001Y-44873000D02*
X3373000Y-44873000D01*
X3373000Y-44873000D02*
X3373000Y-54127000D01*
X1976000Y-49000000D02*
G75*
G03*
X1976000Y-49000000I-381000J0D01*
G01*
X-11127000Y-39373000D02*
X-11127000Y-54627001D01*
X-11127000Y-54627001D02*
X-1873000Y-54627001D01*
X-1873000Y-54627001D02*
X-1873000Y-39373000D01*
X-1873000Y-39373000D02*
X-11127000Y-39373000D01*
X-5619000Y-37595000D02*
G75*
G03*
X-5619000Y-37595000I-381000J0D01*
G01*
X-11127000Y-20373000D02*
X-11127000Y-35627001D01*
X-11127000Y-35627001D02*
X-1873000Y-35627001D01*
X-1873000Y-35627001D02*
X-1873000Y-20373000D01*
X-1873000Y-20373000D02*
X-11127000Y-20373000D01*
X-5619000Y-18595000D02*
G75*
G03*
X-5619000Y-18595000I-381000J0D01*
G01*
X-11127000Y-1373000D02*
X-11127000Y-16627001D01*
X-11127000Y-16627001D02*
X-1873000Y-16627001D01*
X-1873000Y-16627001D02*
X-1873000Y-1373000D01*
X-1873000Y-1373000D02*
X-11127000Y-1373000D01*
X-5619000Y405000D02*
G75*
G03*
X-5619000Y405000I-381000J0D01*
G01*
X-11127000Y17627000D02*
X-11127000Y2372999D01*
X-11127000Y2372999D02*
X-1873000Y2372999D01*
X-1873000Y2372999D02*
X-1873000Y17627000D01*
X-1873000Y17627000D02*
X-11127000Y17627000D01*
X-5619000Y19405000D02*
G75*
G03*
X-5619000Y19405000I-381000J0D01*
G01*
X15627000Y17127000D02*
X5373000Y17127000D01*
X5373000Y17127000D02*
X5373000Y7873000D01*
X5373000Y7873000D02*
X15627000Y7873000D01*
X15627000Y7873000D02*
X15627000Y17127000D01*
X17786000Y12000000D02*
G75*
G03*
X17786000Y12000000I-381000J0D01*
G01*
D14*
X61030000Y-55875000D02*
X53090000Y-55875000D01*
X53090000Y-55875000D02*
X53090000Y-40125000D01*
X53090000Y-40125000D02*
X61030000Y-40125000D01*
X64970000Y-55875000D02*
X68080000Y-55875000D01*
X68080000Y-55875000D02*
X68080000Y-40125000D01*
X68080000Y-40125000D02*
X64970000Y-40125000D01*
D13*
X60700000Y-39400000D02*
G75*
G03*
X60700000Y-39400000I-100000J0D01*
G01*
D14*
X61030000Y-36875000D02*
X53090000Y-36875000D01*
X53090000Y-36875000D02*
X53090000Y-21125000D01*
X53090000Y-21125000D02*
X61030000Y-21125000D01*
X64970000Y-36875000D02*
X68080000Y-36875000D01*
X68080000Y-36875000D02*
X68080000Y-21125000D01*
X68080000Y-21125000D02*
X64970000Y-21125000D01*
D13*
X60700000Y-20400000D02*
G75*
G03*
X60700000Y-20400000I-100000J0D01*
G01*
D14*
X61030000Y-17875000D02*
X53090000Y-17875000D01*
X53090000Y-17875000D02*
X53090000Y-2125000D01*
X53090000Y-2125000D02*
X61030000Y-2125000D01*
X64970000Y-17875000D02*
X68080000Y-17875000D01*
X68080000Y-17875000D02*
X68080000Y-2125000D01*
X68080000Y-2125000D02*
X64970000Y-2125000D01*
D13*
X60700000Y-1400000D02*
G75*
G03*
X60700000Y-1400000I-100000J0D01*
G01*
D14*
X61030000Y1125000D02*
X53090000Y1125000D01*
X53090000Y1125000D02*
X53090000Y16875000D01*
X53090000Y16875000D02*
X61030000Y16875000D01*
X64970000Y1125000D02*
X68080000Y1125000D01*
X68080000Y1125000D02*
X68080000Y16875000D01*
X68080000Y16875000D02*
X64970000Y16875000D01*
D13*
X60700000Y17600000D02*
G75*
G03*
X60700000Y17600000I-100000J0D01*
G01*
D16*
X7833333Y4842857D02*
X7785714Y4795238D01*
X7642857Y4747619D01*
X7547619Y4747619D01*
X7404761Y4795238D01*
X7309523Y4890476D01*
X7261904Y4985714D01*
X7214285Y5176190D01*
X7214285Y5319047D01*
X7261904Y5509523D01*
X7309523Y5604761D01*
X7404761Y5700000D01*
X7547619Y5747619D01*
X7642857Y5747619D01*
X7785714Y5700000D01*
X7833333Y5652380D01*
X8785714Y4747619D02*
X8214285Y4747619D01*
X8500000Y4747619D02*
X8500000Y5747619D01*
X8404761Y5604761D01*
X8309523Y5509523D01*
X8214285Y5461904D01*
X-16333333Y-56702380D02*
X-16666666Y-56226190D01*
X-16904761Y-56702380D02*
X-16904761Y-55702380D01*
X-16523809Y-55702380D01*
X-16428571Y-55750000D01*
X-16380952Y-55797619D01*
X-16333333Y-55892857D01*
X-16333333Y-56035714D01*
X-16380952Y-56130952D01*
X-16428571Y-56178571D01*
X-16523809Y-56226190D01*
X-16904761Y-56226190D01*
X-15904761Y-56178571D02*
X-15571428Y-56178571D01*
X-15428571Y-56702380D02*
X-15904761Y-56702380D01*
X-15904761Y-55702380D01*
X-15428571Y-55702380D01*
X-14666666Y-56178571D02*
X-15000000Y-56178571D01*
X-15000000Y-56702380D02*
X-15000000Y-55702380D01*
X-14523809Y-55702380D01*
X-14000000Y-55702380D02*
X-14000000Y-55940476D01*
X-14238095Y-55845238D02*
X-14000000Y-55940476D01*
X-13761904Y-55845238D01*
X-14142857Y-56130952D02*
X-14000000Y-55940476D01*
X-13857142Y-56130952D01*
X-13238095Y-55702380D02*
X-13238095Y-55940476D01*
X-13476190Y-55845238D02*
X-13238095Y-55940476D01*
X-13000000Y-55845238D01*
X-13380952Y-56130952D02*
X-13238095Y-55940476D01*
X-13095238Y-56130952D01*
X70666666Y-56702380D02*
X70333333Y-56226190D01*
X70095238Y-56702380D02*
X70095238Y-55702380D01*
X70476190Y-55702380D01*
X70571428Y-55750000D01*
X70619047Y-55797619D01*
X70666666Y-55892857D01*
X70666666Y-56035714D01*
X70619047Y-56130952D01*
X70571428Y-56178571D01*
X70476190Y-56226190D01*
X70095238Y-56226190D01*
X71095238Y-56178571D02*
X71428571Y-56178571D01*
X71571428Y-56702380D02*
X71095238Y-56702380D01*
X71095238Y-55702380D01*
X71571428Y-55702380D01*
X72333333Y-56178571D02*
X72000000Y-56178571D01*
X72000000Y-56702380D02*
X72000000Y-55702380D01*
X72476190Y-55702380D01*
X73000000Y-55702380D02*
X73000000Y-55940476D01*
X72761904Y-55845238D02*
X73000000Y-55940476D01*
X73238095Y-55845238D01*
X72857142Y-56130952D02*
X73000000Y-55940476D01*
X73142857Y-56130952D01*
X73761904Y-55702380D02*
X73761904Y-55940476D01*
X73523809Y-55845238D02*
X73761904Y-55940476D01*
X74000000Y-55845238D01*
X73619047Y-56130952D02*
X73761904Y-55940476D01*
X73904761Y-56130952D01*
X70666666Y27297619D02*
X70333333Y27773809D01*
X70095238Y27297619D02*
X70095238Y28297619D01*
X70476190Y28297619D01*
X70571428Y28250000D01*
X70619047Y28202380D01*
X70666666Y28107142D01*
X70666666Y27964285D01*
X70619047Y27869047D01*
X70571428Y27821428D01*
X70476190Y27773809D01*
X70095238Y27773809D01*
X71095238Y27821428D02*
X71428571Y27821428D01*
X71571428Y27297619D02*
X71095238Y27297619D01*
X71095238Y28297619D01*
X71571428Y28297619D01*
X72333333Y27821428D02*
X72000000Y27821428D01*
X72000000Y27297619D02*
X72000000Y28297619D01*
X72476190Y28297619D01*
X73000000Y28297619D02*
X73000000Y28059523D01*
X72761904Y28154761D02*
X73000000Y28059523D01*
X73238095Y28154761D01*
X72857142Y27869047D02*
X73000000Y28059523D01*
X73142857Y27869047D01*
X73761904Y28297619D02*
X73761904Y28059523D01*
X73523809Y28154761D02*
X73761904Y28059523D01*
X74000000Y28154761D01*
X73619047Y27869047D02*
X73761904Y28059523D01*
X73904761Y27869047D01*
X-16333333Y27297619D02*
X-16666666Y27773809D01*
X-16904761Y27297619D02*
X-16904761Y28297619D01*
X-16523809Y28297619D01*
X-16428571Y28250000D01*
X-16380952Y28202380D01*
X-16333333Y28107142D01*
X-16333333Y27964285D01*
X-16380952Y27869047D01*
X-16428571Y27821428D01*
X-16523809Y27773809D01*
X-16904761Y27773809D01*
X-15904761Y27821428D02*
X-15571428Y27821428D01*
X-15428571Y27297619D02*
X-15904761Y27297619D01*
X-15904761Y28297619D01*
X-15428571Y28297619D01*
X-14666666Y27821428D02*
X-15000000Y27821428D01*
X-15000000Y27297619D02*
X-15000000Y28297619D01*
X-14523809Y28297619D01*
X-14000000Y28297619D02*
X-14000000Y28059523D01*
X-14238095Y28154761D02*
X-14000000Y28059523D01*
X-13761904Y28154761D01*
X-14142857Y27869047D02*
X-14000000Y28059523D01*
X-13857142Y27869047D01*
X-13238095Y28297619D02*
X-13238095Y28059523D01*
X-13476190Y28154761D02*
X-13238095Y28059523D01*
X-13000000Y28154761D01*
X-13380952Y27869047D02*
X-13238095Y28059523D01*
X-13095238Y27869047D01*
D18*
X11887380Y-31166904D02*
X12696904Y-31166904D01*
X12792142Y-31119285D01*
X12839761Y-31071666D01*
X12887380Y-30976428D01*
X12887380Y-30785952D01*
X12839761Y-30690714D01*
X12792142Y-30643095D01*
X12696904Y-30595476D01*
X11887380Y-30595476D01*
X11887380Y-30214523D02*
X11887380Y-29595476D01*
X12268333Y-29928809D01*
X12268333Y-29785952D01*
X12315952Y-29690714D01*
X12363571Y-29643095D01*
X12458809Y-29595476D01*
X12696904Y-29595476D01*
X12792142Y-29643095D01*
X12839761Y-29690714D01*
X12887380Y-29785952D01*
X12887380Y-30071666D01*
X12839761Y-30166904D01*
X12792142Y-30214523D01*
X11887380Y-18166904D02*
X12696904Y-18166904D01*
X12792142Y-18119285D01*
X12839761Y-18071666D01*
X12887380Y-17976428D01*
X12887380Y-17785952D01*
X12839761Y-17690714D01*
X12792142Y-17643095D01*
X12696904Y-17595476D01*
X11887380Y-17595476D01*
X11982619Y-17166904D02*
X11935000Y-17119285D01*
X11887380Y-17024047D01*
X11887380Y-16785952D01*
X11935000Y-16690714D01*
X11982619Y-16643095D01*
X12077857Y-16595476D01*
X12173095Y-16595476D01*
X12315952Y-16643095D01*
X12887380Y-17214523D01*
X12887380Y-16595476D01*
D16*
X43612380Y-13761904D02*
X44421904Y-13761904D01*
X44517142Y-13714285D01*
X44564761Y-13666666D01*
X44612380Y-13571428D01*
X44612380Y-13380952D01*
X44564761Y-13285714D01*
X44517142Y-13238095D01*
X44421904Y-13190476D01*
X43612380Y-13190476D01*
X44612380Y-12190476D02*
X44612380Y-12761904D01*
X44612380Y-12476190D02*
X43612380Y-12476190D01*
X43755238Y-12571428D01*
X43850476Y-12666666D01*
X43898095Y-12761904D01*
X30963180Y2156276D02*
X31772704Y2156276D01*
X31867942Y2203895D01*
X31915561Y2251514D01*
X31963180Y2346752D01*
X31963180Y2537228D01*
X31915561Y2632466D01*
X31867942Y2680085D01*
X31772704Y2727704D01*
X30963180Y2727704D01*
X31915561Y3156276D02*
X31963180Y3299133D01*
X31963180Y3537228D01*
X31915561Y3632466D01*
X31867942Y3680085D01*
X31772704Y3727704D01*
X31677466Y3727704D01*
X31582228Y3680085D01*
X31534609Y3632466D01*
X31486990Y3537228D01*
X31439371Y3346752D01*
X31391752Y3251514D01*
X31344133Y3203895D01*
X31248895Y3156276D01*
X31153657Y3156276D01*
X31058419Y3203895D01*
X31010800Y3251514D01*
X30963180Y3346752D01*
X30963180Y3584847D01*
X31010800Y3727704D01*
X31439371Y4489609D02*
X31486990Y4632466D01*
X31534609Y4680085D01*
X31629847Y4727704D01*
X31772704Y4727704D01*
X31867942Y4680085D01*
X31915561Y4632466D01*
X31963180Y4537228D01*
X31963180Y4156276D01*
X30963180Y4156276D01*
X30963180Y4489609D01*
X31010800Y4584847D01*
X31058419Y4632466D01*
X31153657Y4680085D01*
X31248895Y4680085D01*
X31344133Y4632466D01*
X31391752Y4584847D01*
X31439371Y4489609D01*
X31439371Y4156276D01*
X31963180Y5918180D02*
X30963180Y5918180D01*
X31439371Y5918180D02*
X31439371Y6489609D01*
X31963180Y6489609D02*
X30963180Y6489609D01*
X31963180Y7108657D02*
X31915561Y7013419D01*
X31867942Y6965800D01*
X31772704Y6918180D01*
X31486990Y6918180D01*
X31391752Y6965800D01*
X31344133Y7013419D01*
X31296514Y7108657D01*
X31296514Y7251514D01*
X31344133Y7346752D01*
X31391752Y7394371D01*
X31486990Y7441990D01*
X31772704Y7441990D01*
X31867942Y7394371D01*
X31915561Y7346752D01*
X31963180Y7251514D01*
X31963180Y7108657D01*
X31915561Y7822942D02*
X31963180Y7918180D01*
X31963180Y8108657D01*
X31915561Y8203895D01*
X31820323Y8251514D01*
X31772704Y8251514D01*
X31677466Y8203895D01*
X31629847Y8108657D01*
X31629847Y7965800D01*
X31582228Y7870561D01*
X31486990Y7822942D01*
X31439371Y7822942D01*
X31344133Y7870561D01*
X31296514Y7965800D01*
X31296514Y8108657D01*
X31344133Y8203895D01*
X31296514Y8537228D02*
X31296514Y8918180D01*
X30963180Y8680085D02*
X31820323Y8680085D01*
X31915561Y8727704D01*
X31963180Y8822942D01*
X31963180Y8918180D01*
X34419457Y-863571D02*
X34752790Y-863571D01*
X34895647Y-1387380D02*
X34419457Y-1387380D01*
X34419457Y-387380D01*
X34895647Y-387380D01*
X35181361Y-720714D02*
X35562314Y-720714D01*
X35324219Y-387380D02*
X35324219Y-1244523D01*
X35371838Y-1339761D01*
X35467076Y-1387380D01*
X35562314Y-1387380D01*
X35895647Y-1387380D02*
X35895647Y-387380D01*
X36324219Y-1387380D02*
X36324219Y-863571D01*
X36276600Y-768333D01*
X36181361Y-720714D01*
X36038504Y-720714D01*
X35943266Y-768333D01*
X35895647Y-815952D01*
X37181361Y-1339761D02*
X37086123Y-1387380D01*
X36895647Y-1387380D01*
X36800409Y-1339761D01*
X36752790Y-1244523D01*
X36752790Y-863571D01*
X36800409Y-768333D01*
X36895647Y-720714D01*
X37086123Y-720714D01*
X37181361Y-768333D01*
X37228980Y-863571D01*
X37228980Y-958809D01*
X36752790Y-1054047D01*
X37657552Y-1387380D02*
X37657552Y-720714D01*
X37657552Y-911190D02*
X37705171Y-815952D01*
X37752790Y-768333D01*
X37848028Y-720714D01*
X37943266Y-720714D01*
X38276600Y-720714D02*
X38276600Y-1387380D01*
X38276600Y-815952D02*
X38324219Y-768333D01*
X38419457Y-720714D01*
X38562314Y-720714D01*
X38657552Y-768333D01*
X38705171Y-863571D01*
X38705171Y-1387380D01*
X39562314Y-1339761D02*
X39467076Y-1387380D01*
X39276600Y-1387380D01*
X39181361Y-1339761D01*
X39133742Y-1244523D01*
X39133742Y-863571D01*
X39181361Y-768333D01*
X39276600Y-720714D01*
X39467076Y-720714D01*
X39562314Y-768333D01*
X39609933Y-863571D01*
X39609933Y-958809D01*
X39133742Y-1054047D01*
X39895647Y-720714D02*
X40276600Y-720714D01*
X40038504Y-387380D02*
X40038504Y-1244523D01*
X40086123Y-1339761D01*
X40181361Y-1387380D01*
X40276600Y-1387380D01*
X32738095Y14217619D02*
X32738095Y13408095D01*
X32785714Y13312857D01*
X32833333Y13265238D01*
X32928571Y13217619D01*
X33119047Y13217619D01*
X33214285Y13265238D01*
X33261904Y13312857D01*
X33309523Y13408095D01*
X33309523Y14217619D01*
X33738095Y13265238D02*
X33880952Y13217619D01*
X34119047Y13217619D01*
X34214285Y13265238D01*
X34261904Y13312857D01*
X34309523Y13408095D01*
X34309523Y13503333D01*
X34261904Y13598571D01*
X34214285Y13646190D01*
X34119047Y13693809D01*
X33928571Y13741428D01*
X33833333Y13789047D01*
X33785714Y13836666D01*
X33738095Y13931904D01*
X33738095Y14027142D01*
X33785714Y14122380D01*
X33833333Y14170000D01*
X33928571Y14217619D01*
X34166666Y14217619D01*
X34309523Y14170000D01*
X35071428Y13741428D02*
X35214285Y13693809D01*
X35261904Y13646190D01*
X35309523Y13550952D01*
X35309523Y13408095D01*
X35261904Y13312857D01*
X35214285Y13265238D01*
X35119047Y13217619D01*
X34738095Y13217619D01*
X34738095Y14217619D01*
X35071428Y14217619D01*
X35166666Y14170000D01*
X35214285Y14122380D01*
X35261904Y14027142D01*
X35261904Y13931904D01*
X35214285Y13836666D01*
X35166666Y13789047D01*
X35071428Y13741428D01*
X34738095Y13741428D01*
X34452380Y-40249047D02*
X33452380Y-40249047D01*
X34166666Y-39915714D01*
X33452380Y-39582380D01*
X34452380Y-39582380D01*
X34452380Y-39106190D02*
X33785714Y-39106190D01*
X33452380Y-39106190D02*
X33500000Y-39153809D01*
X33547619Y-39106190D01*
X33500000Y-39058571D01*
X33452380Y-39106190D01*
X33547619Y-39106190D01*
X34404761Y-38201428D02*
X34452380Y-38296666D01*
X34452380Y-38487142D01*
X34404761Y-38582380D01*
X34357142Y-38630000D01*
X34261904Y-38677619D01*
X33976190Y-38677619D01*
X33880952Y-38630000D01*
X33833333Y-38582380D01*
X33785714Y-38487142D01*
X33785714Y-38296666D01*
X33833333Y-38201428D01*
X34452380Y-37772857D02*
X33785714Y-37772857D01*
X33976190Y-37772857D02*
X33880952Y-37725238D01*
X33833333Y-37677619D01*
X33785714Y-37582380D01*
X33785714Y-37487142D01*
X34452380Y-37010952D02*
X34404761Y-37106190D01*
X34357142Y-37153809D01*
X34261904Y-37201428D01*
X33976190Y-37201428D01*
X33880952Y-37153809D01*
X33833333Y-37106190D01*
X33785714Y-37010952D01*
X33785714Y-36868095D01*
X33833333Y-36772857D01*
X33880952Y-36725238D01*
X33976190Y-36677619D01*
X34261904Y-36677619D01*
X34357142Y-36725238D01*
X34404761Y-36772857D01*
X34452380Y-36868095D01*
X34452380Y-37010952D01*
X34404761Y-35534761D02*
X34452380Y-35391904D01*
X34452380Y-35153809D01*
X34404761Y-35058571D01*
X34357142Y-35010952D01*
X34261904Y-34963333D01*
X34166666Y-34963333D01*
X34071428Y-35010952D01*
X34023809Y-35058571D01*
X33976190Y-35153809D01*
X33928571Y-35344285D01*
X33880952Y-35439523D01*
X33833333Y-35487142D01*
X33738095Y-35534761D01*
X33642857Y-35534761D01*
X33547619Y-35487142D01*
X33500000Y-35439523D01*
X33452380Y-35344285D01*
X33452380Y-35106190D01*
X33500000Y-34963333D01*
X34452380Y-34534761D02*
X33452380Y-34534761D01*
X33452380Y-34296666D01*
X33500000Y-34153809D01*
X33595238Y-34058571D01*
X33690476Y-34010952D01*
X33880952Y-33963333D01*
X34023809Y-33963333D01*
X34214285Y-34010952D01*
X34309523Y-34058571D01*
X34404761Y-34153809D01*
X34452380Y-34296666D01*
X34452380Y-34534761D01*
X30916666Y-12046666D02*
X30916666Y-11346666D01*
X31150000Y-11846666D01*
X31383333Y-11346666D01*
X31383333Y-12046666D01*
X31716666Y-12046666D02*
X31716666Y-11346666D01*
X32050000Y-12046666D02*
X32050000Y-11346666D01*
X32283333Y-11846666D01*
X32516666Y-11346666D01*
X32516666Y-12046666D01*
X32783333Y-11346666D02*
X33250000Y-12046666D01*
X33250000Y-11346666D02*
X32783333Y-12046666D01*
X33916666Y-12046666D02*
X33683333Y-11713333D01*
X33516666Y-12046666D02*
X33516666Y-11346666D01*
X33783333Y-11346666D01*
X33850000Y-11380000D01*
X33883333Y-11413333D01*
X33916666Y-11480000D01*
X33916666Y-11580000D01*
X33883333Y-11646666D01*
X33850000Y-11680000D01*
X33783333Y-11713333D01*
X33516666Y-11713333D01*
X34116666Y-11346666D02*
X34516666Y-11346666D01*
X34316666Y-12046666D02*
X34316666Y-11346666D01*
X35116666Y-12046666D02*
X34716666Y-12046666D01*
X34916666Y-12046666D02*
X34916666Y-11346666D01*
X34850000Y-11446666D01*
X34783333Y-11513333D01*
X34716666Y-11546666D01*
X35550000Y-11346666D02*
X35616666Y-11346666D01*
X35683333Y-11380000D01*
X35716666Y-11413333D01*
X35750000Y-11480000D01*
X35783333Y-11613333D01*
X35783333Y-11780000D01*
X35750000Y-11913333D01*
X35716666Y-11980000D01*
X35683333Y-12013333D01*
X35616666Y-12046666D01*
X35550000Y-12046666D01*
X35483333Y-12013333D01*
X35450000Y-11980000D01*
X35416666Y-11913333D01*
X35383333Y-11780000D01*
X35383333Y-11613333D01*
X35416666Y-11480000D01*
X35450000Y-11413333D01*
X35483333Y-11380000D01*
X35550000Y-11346666D01*
X36383333Y-11346666D02*
X36250000Y-11346666D01*
X36183333Y-11380000D01*
X36150000Y-11413333D01*
X36083333Y-11513333D01*
X36050000Y-11646666D01*
X36050000Y-11913333D01*
X36083333Y-11980000D01*
X36116666Y-12013333D01*
X36183333Y-12046666D01*
X36316666Y-12046666D01*
X36383333Y-12013333D01*
X36416666Y-11980000D01*
X36450000Y-11913333D01*
X36450000Y-11746666D01*
X36416666Y-11680000D01*
X36383333Y-11646666D01*
X36316666Y-11613333D01*
X36183333Y-11613333D01*
X36116666Y-11646666D01*
X36083333Y-11680000D01*
X36050000Y-11746666D01*
X36716666Y-11413333D02*
X36750000Y-11380000D01*
X36816666Y-11346666D01*
X36983333Y-11346666D01*
X37050000Y-11380000D01*
X37083333Y-11413333D01*
X37116666Y-11480000D01*
X37116666Y-11546666D01*
X37083333Y-11646666D01*
X36683333Y-12046666D01*
X37116666Y-12046666D01*
X32796666Y-10776666D02*
X32796666Y-10076666D01*
X32963333Y-10076666D01*
X33063333Y-10110000D01*
X33130000Y-10176666D01*
X33163333Y-10243333D01*
X33196666Y-10376666D01*
X33196666Y-10476666D01*
X33163333Y-10610000D01*
X33130000Y-10676666D01*
X33063333Y-10743333D01*
X32963333Y-10776666D01*
X32796666Y-10776666D01*
X33396666Y-10076666D02*
X33630000Y-10776666D01*
X33863333Y-10076666D01*
X34296666Y-10076666D02*
X34296666Y-10576666D01*
X34263333Y-10676666D01*
X34196666Y-10743333D01*
X34096666Y-10776666D01*
X34030000Y-10776666D01*
X34930000Y-10076666D02*
X34796666Y-10076666D01*
X34730000Y-10110000D01*
X34696666Y-10143333D01*
X34630000Y-10243333D01*
X34596666Y-10376666D01*
X34596666Y-10643333D01*
X34630000Y-10710000D01*
X34663333Y-10743333D01*
X34730000Y-10776666D01*
X34863333Y-10776666D01*
X34930000Y-10743333D01*
X34963333Y-10710000D01*
X34996666Y-10643333D01*
X34996666Y-10476666D01*
X34963333Y-10410000D01*
X34930000Y-10376666D01*
X34863333Y-10343333D01*
X34730000Y-10343333D01*
X34663333Y-10376666D01*
X34630000Y-10410000D01*
X34596666Y-10476666D01*
X35263333Y-10576666D02*
X35596666Y-10576666D01*
X35196666Y-10776666D02*
X35430000Y-10076666D01*
X35663333Y-10776666D01*
X14782380Y-39833333D02*
X15496666Y-39833333D01*
X15639523Y-39880952D01*
X15734761Y-39976190D01*
X15782380Y-40119047D01*
X15782380Y-40214285D01*
X15782380Y-39357142D02*
X14782380Y-39357142D01*
X14782380Y-38976190D01*
X14830000Y-38880952D01*
X14877619Y-38833333D01*
X14972857Y-38785714D01*
X15115714Y-38785714D01*
X15210952Y-38833333D01*
X15258571Y-38880952D01*
X15306190Y-38976190D01*
X15306190Y-39357142D01*
X15782380Y-37833333D02*
X15782380Y-38404761D01*
X15782380Y-38119047D02*
X14782380Y-38119047D01*
X14925238Y-38214285D01*
X15020476Y-38309523D01*
X15068095Y-38404761D01*
X10190476Y-48452380D02*
X10190476Y-49166666D01*
X10142857Y-49309523D01*
X10047619Y-49404761D01*
X9904761Y-49452380D01*
X9809523Y-49452380D01*
X11190476Y-49452380D02*
X10619047Y-49452380D01*
X10904761Y-49452380D02*
X10904761Y-48452380D01*
X10809523Y-48595238D01*
X10714285Y-48690476D01*
X10619047Y-48738095D01*
X11809523Y-48452380D02*
X11904761Y-48452380D01*
X12000000Y-48500000D01*
X12047619Y-48547619D01*
X12095238Y-48642857D01*
X12142857Y-48833333D01*
X12142857Y-49071428D01*
X12095238Y-49261904D01*
X12047619Y-49357142D01*
X12000000Y-49404761D01*
X11904761Y-49452380D01*
X11809523Y-49452380D01*
X11714285Y-49404761D01*
X11666666Y-49357142D01*
X11619047Y-49261904D01*
X11571428Y-49071428D01*
X11571428Y-48833333D01*
X11619047Y-48642857D01*
X11666666Y-48547619D01*
X11714285Y-48500000D01*
X11809523Y-48452380D01*
X6000000Y-48452380D02*
X6000000Y-48690476D01*
X5761904Y-48595238D02*
X6000000Y-48690476D01*
X6238095Y-48595238D01*
X5857142Y-48880952D02*
X6000000Y-48690476D01*
X6142857Y-48880952D01*
X-6547619Y-47333333D02*
X-5833333Y-47333333D01*
X-5690476Y-47380952D01*
X-5595238Y-47476190D01*
X-5547619Y-47619047D01*
X-5547619Y-47714285D01*
X-5547619Y-46809523D02*
X-5547619Y-46619047D01*
X-5595238Y-46523809D01*
X-5642857Y-46476190D01*
X-5785714Y-46380952D01*
X-5976190Y-46333333D01*
X-6357142Y-46333333D01*
X-6452380Y-46380952D01*
X-6500000Y-46428571D01*
X-6547619Y-46523809D01*
X-6547619Y-46714285D01*
X-6500000Y-46809523D01*
X-6452380Y-46857142D01*
X-6357142Y-46904761D01*
X-6119047Y-46904761D01*
X-6023809Y-46857142D01*
X-5976190Y-46809523D01*
X-5928571Y-46714285D01*
X-5928571Y-46523809D01*
X-5976190Y-46428571D01*
X-6023809Y-46380952D01*
X-6119047Y-46333333D01*
X-6547619Y-42000000D02*
X-6309523Y-42000000D01*
X-6404761Y-42238095D02*
X-6309523Y-42000000D01*
X-6404761Y-41761904D01*
X-6119047Y-42142857D02*
X-6309523Y-42000000D01*
X-6119047Y-41857142D01*
X-6547619Y-28333333D02*
X-5833333Y-28333333D01*
X-5690476Y-28380952D01*
X-5595238Y-28476190D01*
X-5547619Y-28619047D01*
X-5547619Y-28714285D01*
X-6119047Y-27714285D02*
X-6166666Y-27809523D01*
X-6214285Y-27857142D01*
X-6309523Y-27904761D01*
X-6357142Y-27904761D01*
X-6452380Y-27857142D01*
X-6500000Y-27809523D01*
X-6547619Y-27714285D01*
X-6547619Y-27523809D01*
X-6500000Y-27428571D01*
X-6452380Y-27380952D01*
X-6357142Y-27333333D01*
X-6309523Y-27333333D01*
X-6214285Y-27380952D01*
X-6166666Y-27428571D01*
X-6119047Y-27523809D01*
X-6119047Y-27714285D01*
X-6071428Y-27809523D01*
X-6023809Y-27857142D01*
X-5928571Y-27904761D01*
X-5738095Y-27904761D01*
X-5642857Y-27857142D01*
X-5595238Y-27809523D01*
X-5547619Y-27714285D01*
X-5547619Y-27523809D01*
X-5595238Y-27428571D01*
X-5642857Y-27380952D01*
X-5738095Y-27333333D01*
X-5928571Y-27333333D01*
X-6023809Y-27380952D01*
X-6071428Y-27428571D01*
X-6119047Y-27523809D01*
X-6547619Y-23000000D02*
X-6309523Y-23000000D01*
X-6404761Y-23238095D02*
X-6309523Y-23000000D01*
X-6404761Y-22761904D01*
X-6119047Y-23142857D02*
X-6309523Y-23000000D01*
X-6119047Y-22857142D01*
X-6547619Y-9333333D02*
X-5833333Y-9333333D01*
X-5690476Y-9380952D01*
X-5595238Y-9476190D01*
X-5547619Y-9619047D01*
X-5547619Y-9714285D01*
X-6547619Y-8952380D02*
X-6547619Y-8285714D01*
X-5547619Y-8714285D01*
X-6547619Y-4000000D02*
X-6309523Y-4000000D01*
X-6404761Y-4238095D02*
X-6309523Y-4000000D01*
X-6404761Y-3761904D01*
X-6119047Y-4142857D02*
X-6309523Y-4000000D01*
X-6119047Y-3857142D01*
X-6547619Y9666666D02*
X-5833333Y9666666D01*
X-5690476Y9619047D01*
X-5595238Y9523809D01*
X-5547619Y9380952D01*
X-5547619Y9285714D01*
X-6547619Y10571428D02*
X-6547619Y10380952D01*
X-6500000Y10285714D01*
X-6452380Y10238095D01*
X-6309523Y10142857D01*
X-6119047Y10095238D01*
X-5738095Y10095238D01*
X-5642857Y10142857D01*
X-5595238Y10190476D01*
X-5547619Y10285714D01*
X-5547619Y10476190D01*
X-5595238Y10571428D01*
X-5642857Y10619047D01*
X-5738095Y10666666D01*
X-5976190Y10666666D01*
X-6071428Y10619047D01*
X-6119047Y10571428D01*
X-6166666Y10476190D01*
X-6166666Y10285714D01*
X-6119047Y10190476D01*
X-6071428Y10142857D01*
X-5976190Y10095238D01*
X-6547619Y15000000D02*
X-6309523Y15000000D01*
X-6404761Y14761904D02*
X-6309523Y15000000D01*
X-6404761Y15238095D01*
X-6119047Y14857142D02*
X-6309523Y15000000D01*
X-6119047Y15142857D01*
X10166666Y12547619D02*
X10166666Y11833333D01*
X10119047Y11690476D01*
X10023809Y11595238D01*
X9880952Y11547619D01*
X9785714Y11547619D01*
X11119047Y12547619D02*
X10642857Y12547619D01*
X10595238Y12071428D01*
X10642857Y12119047D01*
X10738095Y12166666D01*
X10976190Y12166666D01*
X11071428Y12119047D01*
X11119047Y12071428D01*
X11166666Y11976190D01*
X11166666Y11738095D01*
X11119047Y11642857D01*
X11071428Y11595238D01*
X10976190Y11547619D01*
X10738095Y11547619D01*
X10642857Y11595238D01*
X10595238Y11642857D01*
X13000000Y12547619D02*
X13000000Y12309523D01*
X12761904Y12404761D02*
X13000000Y12309523D01*
X13238095Y12404761D01*
X12857142Y12119047D02*
X13000000Y12309523D01*
X13142857Y12119047D01*
D18*
X51517380Y-53158333D02*
X52231666Y-53158333D01*
X52374523Y-53205952D01*
X52469761Y-53301190D01*
X52517380Y-53444047D01*
X52517380Y-53539285D01*
X51850714Y-52253571D02*
X52517380Y-52253571D01*
X51469761Y-52491666D02*
X52184047Y-52729761D01*
X52184047Y-52110714D01*
X51517380Y-34158333D02*
X52231666Y-34158333D01*
X52374523Y-34205952D01*
X52469761Y-34301190D01*
X52517380Y-34444047D01*
X52517380Y-34539285D01*
X51517380Y-33777380D02*
X51517380Y-33158333D01*
X51898333Y-33491666D01*
X51898333Y-33348809D01*
X51945952Y-33253571D01*
X51993571Y-33205952D01*
X52088809Y-33158333D01*
X52326904Y-33158333D01*
X52422142Y-33205952D01*
X52469761Y-33253571D01*
X52517380Y-33348809D01*
X52517380Y-33634523D01*
X52469761Y-33729761D01*
X52422142Y-33777380D01*
X51517380Y-15158333D02*
X52231666Y-15158333D01*
X52374523Y-15205952D01*
X52469761Y-15301190D01*
X52517380Y-15444047D01*
X52517380Y-15539285D01*
X51612619Y-14729761D02*
X51565000Y-14682142D01*
X51517380Y-14586904D01*
X51517380Y-14348809D01*
X51565000Y-14253571D01*
X51612619Y-14205952D01*
X51707857Y-14158333D01*
X51803095Y-14158333D01*
X51945952Y-14205952D01*
X52517380Y-14777380D01*
X52517380Y-14158333D01*
X51517380Y3841666D02*
X52231666Y3841666D01*
X52374523Y3794047D01*
X52469761Y3698809D01*
X52517380Y3555952D01*
X52517380Y3460714D01*
X52517380Y4841666D02*
X52517380Y4270238D01*
X52517380Y4555952D02*
X51517380Y4555952D01*
X51660238Y4460714D01*
X51755476Y4365476D01*
X51803095Y4270238D01*
M02*
