G04 #@! TF.GenerationSoftware,KiCad,Pcbnew,(5.1.7-0-10_14)*
G04 #@! TF.CreationDate,2020-11-21T12:18:44-08:00*
G04 #@! TF.ProjectId,Main PCB,4d61696e-2050-4434-922e-6b696361645f,1*
G04 #@! TF.SameCoordinates,Original*
G04 #@! TF.FileFunction,Copper,L4,Bot*
G04 #@! TF.FilePolarity,Positive*
%FSLAX46Y46*%
G04 Gerber Fmt 4.6, Leading zero omitted, Abs format (unit mm)*
G04 Created by KiCad (PCBNEW (5.1.7-0-10_14)) date 2020-11-21 12:18:44*
%MOMM*%
%LPD*%
G01*
G04 APERTURE LIST*
G04 #@! TA.AperFunction,ComponentPad*
%ADD10C,1.300000*%
G04 #@! TD*
G04 #@! TA.AperFunction,ComponentPad*
%ADD11C,1.600000*%
G04 #@! TD*
G04 #@! TA.AperFunction,ComponentPad*
%ADD12R,1.300000X1.300000*%
G04 #@! TD*
G04 #@! TA.AperFunction,ComponentPad*
%ADD13R,1.600000X1.600000*%
G04 #@! TD*
G04 #@! TA.AperFunction,ComponentPad*
%ADD14O,1.700000X1.700000*%
G04 #@! TD*
G04 #@! TA.AperFunction,ComponentPad*
%ADD15R,1.700000X1.700000*%
G04 #@! TD*
G04 #@! TA.AperFunction,ComponentPad*
%ADD16C,1.803400*%
G04 #@! TD*
G04 #@! TA.AperFunction,ComponentPad*
%ADD17C,1.447800*%
G04 #@! TD*
G04 #@! TA.AperFunction,ComponentPad*
%ADD18R,1.447800X1.447800*%
G04 #@! TD*
G04 #@! TA.AperFunction,ViaPad*
%ADD19C,0.600000*%
G04 #@! TD*
G04 #@! TA.AperFunction,Conductor*
%ADD20C,0.400000*%
G04 #@! TD*
G04 #@! TA.AperFunction,Conductor*
%ADD21C,0.254000*%
G04 #@! TD*
G04 #@! TA.AperFunction,Conductor*
%ADD22C,0.100000*%
G04 #@! TD*
G04 APERTURE END LIST*
D10*
X35270000Y15480000D03*
X32730000Y15480000D03*
D11*
X39080000Y-29510000D03*
X36540000Y-29510000D03*
X34000000Y-29510000D03*
X31460000Y-29510000D03*
X28920000Y-29510000D03*
D10*
X35181600Y3240000D03*
X35181600Y1240000D03*
X37181600Y1240000D03*
X37181600Y3240000D03*
X39181600Y1240000D03*
D12*
X39181600Y3240000D03*
D11*
X26380000Y-24430000D03*
X26380000Y-26970000D03*
X26380000Y-29510000D03*
X26380000Y-32050000D03*
X26380000Y-21890000D03*
X26380000Y-19350000D03*
X26380000Y-16810000D03*
X26380000Y-34590000D03*
X26380000Y-37130000D03*
X26380000Y-39670000D03*
X26380000Y-42210000D03*
X41620000Y-42210000D03*
X41620000Y-39670000D03*
X41620000Y-37130000D03*
X41620000Y-34590000D03*
X41620000Y-32050000D03*
X41620000Y-29510000D03*
X41620000Y-26970000D03*
X41620000Y-24430000D03*
X41620000Y-21890000D03*
X41620000Y-19350000D03*
X26380000Y-14270000D03*
X26380000Y-11730000D03*
X26380000Y-9190000D03*
X26380000Y-6650000D03*
X26380000Y-4110000D03*
X26380000Y-1570000D03*
X26380000Y970000D03*
X26380000Y3510000D03*
X26380000Y6050000D03*
X26380000Y8590000D03*
X26380000Y11130000D03*
X26380000Y13670000D03*
D13*
X26380000Y16210000D03*
D11*
X41620000Y-16810000D03*
X41620000Y-14270000D03*
X41620000Y-11730000D03*
X41620000Y-9190000D03*
X41620000Y-6650000D03*
X41620000Y-4110000D03*
X41620000Y-1570000D03*
X41620000Y970000D03*
X41620000Y3510000D03*
X41620000Y6050000D03*
X41620000Y8590000D03*
X41620000Y11130000D03*
X41620000Y13670000D03*
X41620000Y16210000D03*
D13*
X29430800Y9910800D03*
D11*
X29430800Y7370800D03*
X29430800Y4830800D03*
X29430800Y2290800D03*
X29430800Y-249200D03*
X39080000Y13670000D03*
D14*
X10460000Y-39000000D03*
D15*
X13000000Y-39000000D03*
D16*
X16000000Y-49000000D03*
X11000000Y-49000000D03*
X6000000Y-49000000D03*
X-6000000Y-52000000D03*
X-6000000Y-47000000D03*
X-6000000Y-42000000D03*
X-6000000Y-33000000D03*
X-6000000Y-28000000D03*
X-6000000Y-23000000D03*
X-6000000Y-14000000D03*
X-6000000Y-9000000D03*
X-6000000Y-4000000D03*
X-6000000Y5000000D03*
X-6000000Y10000000D03*
X-6000000Y15000000D03*
X8000000Y12000000D03*
X13000000Y12000000D03*
D17*
X58682000Y-51556000D03*
X60460000Y-50540000D03*
X58682000Y-49524000D03*
X60460000Y-48508000D03*
X58682000Y-47492000D03*
X60460000Y-46476000D03*
X58682000Y-45460000D03*
D18*
X60460000Y-44444000D03*
D17*
X58682000Y-32556000D03*
X60460000Y-31540000D03*
X58682000Y-30524000D03*
X60460000Y-29508000D03*
X58682000Y-28492000D03*
X60460000Y-27476000D03*
X58682000Y-26460000D03*
D18*
X60460000Y-25444000D03*
D17*
X58682000Y-13556000D03*
X60460000Y-12540000D03*
X58682000Y-11524000D03*
X60460000Y-10508000D03*
X58682000Y-9492000D03*
X60460000Y-8476000D03*
X58682000Y-7460000D03*
D18*
X60460000Y-6444000D03*
D17*
X58682000Y5444000D03*
X60460000Y6460000D03*
X58682000Y7476000D03*
X60460000Y8492000D03*
X58682000Y9508000D03*
X60460000Y10524000D03*
X58682000Y11540000D03*
D18*
X60460000Y12556000D03*
D19*
X11000000Y-13000000D03*
X9000000Y-13000000D03*
X7000000Y-13000000D03*
X10000000Y-23000000D03*
X8000000Y-23000000D03*
X11000000Y-26000000D03*
X17000000Y3000000D03*
X7000000Y-30000000D03*
X-3000000Y0D03*
D20*
X-3000000Y7000000D02*
X-3000000Y0D01*
X-6000000Y10000000D02*
X-3000000Y7000000D01*
D21*
X72769142Y27274706D02*
X73513971Y27070943D01*
X74210947Y26738503D01*
X74838035Y26287895D01*
X75375416Y25733361D01*
X75806107Y25092423D01*
X76116489Y24385355D01*
X76297964Y23629464D01*
X76345951Y22975998D01*
X76345950Y-60970868D01*
X76274706Y-61769142D01*
X76070944Y-62513970D01*
X75738503Y-63210947D01*
X75287895Y-63838035D01*
X74733361Y-64375416D01*
X74092425Y-64806106D01*
X73385355Y-65116489D01*
X72629458Y-65297964D01*
X71976011Y-65345950D01*
X-14970868Y-65345950D01*
X-15769142Y-65274706D01*
X-16513970Y-65070944D01*
X-17210947Y-64738503D01*
X-17838035Y-64287895D01*
X-18375416Y-63733361D01*
X-18806106Y-63092425D01*
X-19116489Y-62385355D01*
X-19297964Y-61629458D01*
X-19345950Y-60976011D01*
X-19345950Y-60725701D01*
X-17785000Y-60725701D01*
X-17785000Y-61274299D01*
X-17677974Y-61812354D01*
X-17468035Y-62319192D01*
X-17163250Y-62775334D01*
X-16775334Y-63163250D01*
X-16319192Y-63468035D01*
X-15812354Y-63677974D01*
X-15274299Y-63785000D01*
X-14725701Y-63785000D01*
X-14187646Y-63677974D01*
X-13680808Y-63468035D01*
X-13224666Y-63163250D01*
X-12836750Y-62775334D01*
X-12531965Y-62319192D01*
X-12322026Y-61812354D01*
X-12215000Y-61274299D01*
X-12215000Y-60725701D01*
X69215000Y-60725701D01*
X69215000Y-61274299D01*
X69322026Y-61812354D01*
X69531965Y-62319192D01*
X69836750Y-62775334D01*
X70224666Y-63163250D01*
X70680808Y-63468035D01*
X71187646Y-63677974D01*
X71725701Y-63785000D01*
X72274299Y-63785000D01*
X72812354Y-63677974D01*
X73319192Y-63468035D01*
X73775334Y-63163250D01*
X74163250Y-62775334D01*
X74468035Y-62319192D01*
X74677974Y-61812354D01*
X74785000Y-61274299D01*
X74785000Y-60725701D01*
X74677974Y-60187646D01*
X74468035Y-59680808D01*
X74163250Y-59224666D01*
X73775334Y-58836750D01*
X73319192Y-58531965D01*
X72812354Y-58322026D01*
X72274299Y-58215000D01*
X71725701Y-58215000D01*
X71187646Y-58322026D01*
X70680808Y-58531965D01*
X70224666Y-58836750D01*
X69836750Y-59224666D01*
X69531965Y-59680808D01*
X69322026Y-60187646D01*
X69215000Y-60725701D01*
X-12215000Y-60725701D01*
X-12322026Y-60187646D01*
X-12531965Y-59680808D01*
X-12836750Y-59224666D01*
X-13224666Y-58836750D01*
X-13680808Y-58531965D01*
X-14187646Y-58322026D01*
X-14725701Y-58215000D01*
X-15274299Y-58215000D01*
X-15812354Y-58322026D01*
X-16319192Y-58531965D01*
X-16775334Y-58836750D01*
X-17163250Y-59224666D01*
X-17468035Y-59680808D01*
X-17677974Y-60187646D01*
X-17785000Y-60725701D01*
X-19345950Y-60725701D01*
X-19345950Y-54124849D01*
X60714000Y-54124849D01*
X60714000Y-54575151D01*
X60801850Y-55016802D01*
X60974173Y-55432827D01*
X61224348Y-55807240D01*
X61542760Y-56125652D01*
X61917173Y-56375827D01*
X62333198Y-56548150D01*
X62774849Y-56636000D01*
X63225151Y-56636000D01*
X63666802Y-56548150D01*
X64082827Y-56375827D01*
X64457240Y-56125652D01*
X64775652Y-55807240D01*
X65025827Y-55432827D01*
X65198150Y-55016802D01*
X65286000Y-54575151D01*
X65286000Y-54124849D01*
X65198150Y-53683198D01*
X65025827Y-53267173D01*
X64775652Y-52892760D01*
X64457240Y-52574348D01*
X64082827Y-52324173D01*
X63666802Y-52151850D01*
X63225151Y-52064000D01*
X62774849Y-52064000D01*
X62333198Y-52151850D01*
X61917173Y-52324173D01*
X61542760Y-52574348D01*
X61224348Y-52892760D01*
X60974173Y-53267173D01*
X60801850Y-53683198D01*
X60714000Y-54124849D01*
X-19345950Y-54124849D01*
X-19345950Y-51848648D01*
X-7536700Y-51848648D01*
X-7536700Y-52151352D01*
X-7477645Y-52448239D01*
X-7361805Y-52727900D01*
X-7193632Y-52979589D01*
X-6979589Y-53193632D01*
X-6727900Y-53361805D01*
X-6448239Y-53477645D01*
X-6151352Y-53536700D01*
X-5848648Y-53536700D01*
X-5551761Y-53477645D01*
X-5272100Y-53361805D01*
X-5020411Y-53193632D01*
X-4806368Y-52979589D01*
X-4638195Y-52727900D01*
X-4522355Y-52448239D01*
X-4463300Y-52151352D01*
X-4463300Y-51848648D01*
X-4522355Y-51551761D01*
X-4638195Y-51272100D01*
X-4806368Y-51020411D01*
X-5020411Y-50806368D01*
X-5272100Y-50638195D01*
X-5551761Y-50522355D01*
X-5848648Y-50463300D01*
X-6151352Y-50463300D01*
X-6448239Y-50522355D01*
X-6727900Y-50638195D01*
X-6979589Y-50806368D01*
X-7193632Y-51020411D01*
X-7361805Y-51272100D01*
X-7477645Y-51551761D01*
X-7536700Y-51848648D01*
X-19345950Y-51848648D01*
X-19345950Y-50065293D01*
X5114312Y-50065293D01*
X5198201Y-50319647D01*
X5471058Y-50450714D01*
X5764241Y-50526030D01*
X6066486Y-50542703D01*
X6366175Y-50500090D01*
X6651792Y-50399829D01*
X6801799Y-50319647D01*
X6885688Y-50065293D01*
X6000000Y-49179605D01*
X5114312Y-50065293D01*
X-19345950Y-50065293D01*
X-19345950Y-49066486D01*
X4457297Y-49066486D01*
X4499910Y-49366175D01*
X4600171Y-49651792D01*
X4680353Y-49801799D01*
X4934707Y-49885688D01*
X5820395Y-49000000D01*
X6179605Y-49000000D01*
X7065293Y-49885688D01*
X7319647Y-49801799D01*
X7450714Y-49528942D01*
X7526030Y-49235759D01*
X7542703Y-48933514D01*
X7530636Y-48848648D01*
X9463300Y-48848648D01*
X9463300Y-49151352D01*
X9522355Y-49448239D01*
X9638195Y-49727900D01*
X9806368Y-49979589D01*
X10020411Y-50193632D01*
X10272100Y-50361805D01*
X10551761Y-50477645D01*
X10848648Y-50536700D01*
X11151352Y-50536700D01*
X11448239Y-50477645D01*
X11727900Y-50361805D01*
X11979589Y-50193632D01*
X12193632Y-49979589D01*
X12361805Y-49727900D01*
X12477645Y-49448239D01*
X12536700Y-49151352D01*
X12536700Y-48848648D01*
X14463300Y-48848648D01*
X14463300Y-49151352D01*
X14522355Y-49448239D01*
X14638195Y-49727900D01*
X14806368Y-49979589D01*
X15020411Y-50193632D01*
X15272100Y-50361805D01*
X15551761Y-50477645D01*
X15848648Y-50536700D01*
X16151352Y-50536700D01*
X16448239Y-50477645D01*
X16727900Y-50361805D01*
X16979589Y-50193632D01*
X17193632Y-49979589D01*
X17361805Y-49727900D01*
X17477645Y-49448239D01*
X17536700Y-49151352D01*
X17536700Y-48848648D01*
X17477645Y-48551761D01*
X17361805Y-48272100D01*
X17193632Y-48020411D01*
X16979589Y-47806368D01*
X16727900Y-47638195D01*
X16448239Y-47522355D01*
X16151352Y-47463300D01*
X15848648Y-47463300D01*
X15551761Y-47522355D01*
X15272100Y-47638195D01*
X15020411Y-47806368D01*
X14806368Y-48020411D01*
X14638195Y-48272100D01*
X14522355Y-48551761D01*
X14463300Y-48848648D01*
X12536700Y-48848648D01*
X12477645Y-48551761D01*
X12361805Y-48272100D01*
X12193632Y-48020411D01*
X11979589Y-47806368D01*
X11727900Y-47638195D01*
X11448239Y-47522355D01*
X11151352Y-47463300D01*
X10848648Y-47463300D01*
X10551761Y-47522355D01*
X10272100Y-47638195D01*
X10020411Y-47806368D01*
X9806368Y-48020411D01*
X9638195Y-48272100D01*
X9522355Y-48551761D01*
X9463300Y-48848648D01*
X7530636Y-48848648D01*
X7500090Y-48633825D01*
X7399829Y-48348208D01*
X7319647Y-48198201D01*
X7065293Y-48114312D01*
X6179605Y-49000000D01*
X5820395Y-49000000D01*
X4934707Y-48114312D01*
X4680353Y-48198201D01*
X4549286Y-48471058D01*
X4473970Y-48764241D01*
X4457297Y-49066486D01*
X-19345950Y-49066486D01*
X-19345950Y-46848648D01*
X-7536700Y-46848648D01*
X-7536700Y-47151352D01*
X-7477645Y-47448239D01*
X-7361805Y-47727900D01*
X-7193632Y-47979589D01*
X-6979589Y-48193632D01*
X-6727900Y-48361805D01*
X-6448239Y-48477645D01*
X-6151352Y-48536700D01*
X-5848648Y-48536700D01*
X-5551761Y-48477645D01*
X-5272100Y-48361805D01*
X-5020411Y-48193632D01*
X-4806368Y-47979589D01*
X-4776379Y-47934707D01*
X5114312Y-47934707D01*
X6000000Y-48820395D01*
X6885688Y-47934707D01*
X6801799Y-47680353D01*
X6528942Y-47549286D01*
X6235759Y-47473970D01*
X5933514Y-47457297D01*
X5633825Y-47499910D01*
X5348208Y-47600171D01*
X5198201Y-47680353D01*
X5114312Y-47934707D01*
X-4776379Y-47934707D01*
X-4638195Y-47727900D01*
X-4522355Y-47448239D01*
X-4463300Y-47151352D01*
X-4463300Y-46848648D01*
X-4522355Y-46551761D01*
X-4638195Y-46272100D01*
X-4806368Y-46020411D01*
X-5020411Y-45806368D01*
X-5272100Y-45638195D01*
X-5551761Y-45522355D01*
X-5848648Y-45463300D01*
X-6151352Y-45463300D01*
X-6448239Y-45522355D01*
X-6727900Y-45638195D01*
X-6979589Y-45806368D01*
X-7193632Y-46020411D01*
X-7361805Y-46272100D01*
X-7477645Y-46551761D01*
X-7536700Y-46848648D01*
X-19345950Y-46848648D01*
X-19345950Y-45326160D01*
X57323100Y-45326160D01*
X57323100Y-45593840D01*
X57375322Y-45856376D01*
X57477759Y-46103680D01*
X57626474Y-46326248D01*
X57776226Y-46476000D01*
X57626474Y-46625752D01*
X57477759Y-46848320D01*
X57375322Y-47095624D01*
X57323100Y-47358160D01*
X57323100Y-47625840D01*
X57375322Y-47888376D01*
X57477759Y-48135680D01*
X57626474Y-48358248D01*
X57776226Y-48508000D01*
X57626474Y-48657752D01*
X57477759Y-48880320D01*
X57375322Y-49127624D01*
X57323100Y-49390160D01*
X57323100Y-49657840D01*
X57375322Y-49920376D01*
X57477759Y-50167680D01*
X57626474Y-50390248D01*
X57776226Y-50540000D01*
X57626474Y-50689752D01*
X57477759Y-50912320D01*
X57375322Y-51159624D01*
X57323100Y-51422160D01*
X57323100Y-51689840D01*
X57375322Y-51952376D01*
X57477759Y-52199680D01*
X57626474Y-52422248D01*
X57815752Y-52611526D01*
X58038320Y-52760241D01*
X58285624Y-52862678D01*
X58548160Y-52914900D01*
X58815840Y-52914900D01*
X59078376Y-52862678D01*
X59325680Y-52760241D01*
X59548248Y-52611526D01*
X59737526Y-52422248D01*
X59886241Y-52199680D01*
X59988678Y-51952376D01*
X60013807Y-51826043D01*
X60063624Y-51846678D01*
X60326160Y-51898900D01*
X60593840Y-51898900D01*
X60856376Y-51846678D01*
X61103680Y-51744241D01*
X61326248Y-51595526D01*
X61515526Y-51406248D01*
X61664241Y-51183680D01*
X61766678Y-50936376D01*
X61818900Y-50673840D01*
X61818900Y-50406160D01*
X61766678Y-50143624D01*
X61664241Y-49896320D01*
X61515526Y-49673752D01*
X61365774Y-49524000D01*
X61515526Y-49374248D01*
X61664241Y-49151680D01*
X61766678Y-48904376D01*
X61818900Y-48641840D01*
X61818900Y-48374160D01*
X61766678Y-48111624D01*
X61664241Y-47864320D01*
X61515526Y-47641752D01*
X61365774Y-47492000D01*
X61515526Y-47342248D01*
X61664241Y-47119680D01*
X61766678Y-46872376D01*
X61818900Y-46609840D01*
X61818900Y-46342160D01*
X61766678Y-46079624D01*
X61664241Y-45832320D01*
X61561896Y-45679150D01*
X61635085Y-45619085D01*
X61714437Y-45522394D01*
X61773402Y-45412080D01*
X61809712Y-45292382D01*
X61821972Y-45167900D01*
X61821972Y-43720100D01*
X61810598Y-43604616D01*
X61917173Y-43675827D01*
X62333198Y-43848150D01*
X62774849Y-43936000D01*
X63225151Y-43936000D01*
X63666802Y-43848150D01*
X64082827Y-43675827D01*
X64457240Y-43425652D01*
X64775652Y-43107240D01*
X65025827Y-42732827D01*
X65198150Y-42316802D01*
X65286000Y-41875151D01*
X65286000Y-41424849D01*
X65198150Y-40983198D01*
X65025827Y-40567173D01*
X64775652Y-40192760D01*
X64457240Y-39874348D01*
X64082827Y-39624173D01*
X63666802Y-39451850D01*
X63225151Y-39364000D01*
X62774849Y-39364000D01*
X62333198Y-39451850D01*
X61917173Y-39624173D01*
X61542760Y-39874348D01*
X61224348Y-40192760D01*
X60974173Y-40567173D01*
X60801850Y-40983198D01*
X60714000Y-41424849D01*
X60714000Y-41875151D01*
X60801850Y-42316802D01*
X60974173Y-42732827D01*
X61209164Y-43084516D01*
X61183900Y-43082028D01*
X59736100Y-43082028D01*
X59611618Y-43094288D01*
X59491920Y-43130598D01*
X59381606Y-43189563D01*
X59284915Y-43268915D01*
X59205563Y-43365606D01*
X59146598Y-43475920D01*
X59110288Y-43595618D01*
X59098028Y-43720100D01*
X59098028Y-44161462D01*
X59078376Y-44153322D01*
X58815840Y-44101100D01*
X58548160Y-44101100D01*
X58285624Y-44153322D01*
X58038320Y-44255759D01*
X57815752Y-44404474D01*
X57626474Y-44593752D01*
X57477759Y-44816320D01*
X57375322Y-45063624D01*
X57323100Y-45326160D01*
X-19345950Y-45326160D01*
X-19345950Y-43065293D01*
X-6885688Y-43065293D01*
X-6801799Y-43319647D01*
X-6528942Y-43450714D01*
X-6235759Y-43526030D01*
X-5933514Y-43542703D01*
X-5633825Y-43500090D01*
X-5348208Y-43399829D01*
X-5198201Y-43319647D01*
X-5114312Y-43065293D01*
X-6000000Y-42179605D01*
X-6885688Y-43065293D01*
X-19345950Y-43065293D01*
X-19345950Y-42066486D01*
X-7542703Y-42066486D01*
X-7500090Y-42366175D01*
X-7399829Y-42651792D01*
X-7319647Y-42801799D01*
X-7065293Y-42885688D01*
X-6179605Y-42000000D01*
X-5820395Y-42000000D01*
X-4934707Y-42885688D01*
X-4680353Y-42801799D01*
X-4549286Y-42528942D01*
X-4473970Y-42235759D01*
X-4457297Y-41933514D01*
X-4499910Y-41633825D01*
X-4600171Y-41348208D01*
X-4680353Y-41198201D01*
X-4934707Y-41114312D01*
X-5820395Y-42000000D01*
X-6179605Y-42000000D01*
X-7065293Y-41114312D01*
X-7319647Y-41198201D01*
X-7450714Y-41471058D01*
X-7526030Y-41764241D01*
X-7542703Y-42066486D01*
X-19345950Y-42066486D01*
X-19345950Y-40934707D01*
X-6885688Y-40934707D01*
X-6000000Y-41820395D01*
X-5114312Y-40934707D01*
X-5198201Y-40680353D01*
X-5471058Y-40549286D01*
X-5764241Y-40473970D01*
X-6066486Y-40457297D01*
X-6366175Y-40499910D01*
X-6651792Y-40600171D01*
X-6801799Y-40680353D01*
X-6885688Y-40934707D01*
X-19345950Y-40934707D01*
X-19345950Y-38853740D01*
X8975000Y-38853740D01*
X8975000Y-39146260D01*
X9032068Y-39433158D01*
X9144010Y-39703411D01*
X9306525Y-39946632D01*
X9513368Y-40153475D01*
X9756589Y-40315990D01*
X10026842Y-40427932D01*
X10313740Y-40485000D01*
X10606260Y-40485000D01*
X10893158Y-40427932D01*
X11163411Y-40315990D01*
X11406632Y-40153475D01*
X11538487Y-40021620D01*
X11560498Y-40094180D01*
X11619463Y-40204494D01*
X11698815Y-40301185D01*
X11795506Y-40380537D01*
X11905820Y-40439502D01*
X12025518Y-40475812D01*
X12150000Y-40488072D01*
X13850000Y-40488072D01*
X13974482Y-40475812D01*
X14094180Y-40439502D01*
X14204494Y-40380537D01*
X14301185Y-40301185D01*
X14380537Y-40204494D01*
X14439502Y-40094180D01*
X14475812Y-39974482D01*
X14488072Y-39850000D01*
X14488072Y-38150000D01*
X14475812Y-38025518D01*
X14439502Y-37905820D01*
X14380537Y-37795506D01*
X14301185Y-37698815D01*
X14204494Y-37619463D01*
X14094180Y-37560498D01*
X13974482Y-37524188D01*
X13850000Y-37511928D01*
X12150000Y-37511928D01*
X12025518Y-37524188D01*
X11905820Y-37560498D01*
X11795506Y-37619463D01*
X11698815Y-37698815D01*
X11619463Y-37795506D01*
X11560498Y-37905820D01*
X11538487Y-37978380D01*
X11406632Y-37846525D01*
X11163411Y-37684010D01*
X10893158Y-37572068D01*
X10606260Y-37515000D01*
X10313740Y-37515000D01*
X10026842Y-37572068D01*
X9756589Y-37684010D01*
X9513368Y-37846525D01*
X9306525Y-38053368D01*
X9144010Y-38296589D01*
X9032068Y-38566842D01*
X8975000Y-38853740D01*
X-19345950Y-38853740D01*
X-19345950Y-32848648D01*
X-7536700Y-32848648D01*
X-7536700Y-33151352D01*
X-7477645Y-33448239D01*
X-7361805Y-33727900D01*
X-7193632Y-33979589D01*
X-6979589Y-34193632D01*
X-6727900Y-34361805D01*
X-6448239Y-34477645D01*
X-6151352Y-34536700D01*
X-5848648Y-34536700D01*
X-5551761Y-34477645D01*
X-5272100Y-34361805D01*
X-5020411Y-34193632D01*
X-4806368Y-33979589D01*
X-4638195Y-33727900D01*
X-4522355Y-33448239D01*
X-4463300Y-33151352D01*
X-4463300Y-32848648D01*
X-4522355Y-32551761D01*
X-4638195Y-32272100D01*
X-4806368Y-32020411D01*
X-5020411Y-31806368D01*
X-5272100Y-31638195D01*
X-5551761Y-31522355D01*
X-5848648Y-31463300D01*
X-6151352Y-31463300D01*
X-6448239Y-31522355D01*
X-6727900Y-31638195D01*
X-6979589Y-31806368D01*
X-7193632Y-32020411D01*
X-7361805Y-32272100D01*
X-7477645Y-32551761D01*
X-7536700Y-32848648D01*
X-19345950Y-32848648D01*
X-19345950Y-27848648D01*
X-7536700Y-27848648D01*
X-7536700Y-28151352D01*
X-7477645Y-28448239D01*
X-7361805Y-28727900D01*
X-7193632Y-28979589D01*
X-6979589Y-29193632D01*
X-6727900Y-29361805D01*
X-6448239Y-29477645D01*
X-6151352Y-29536700D01*
X-5848648Y-29536700D01*
X-5551761Y-29477645D01*
X-5272100Y-29361805D01*
X-5020411Y-29193632D01*
X-4806368Y-28979589D01*
X-4638195Y-28727900D01*
X-4522355Y-28448239D01*
X-4463300Y-28151352D01*
X-4463300Y-27848648D01*
X-4522355Y-27551761D01*
X-4638195Y-27272100D01*
X-4806368Y-27020411D01*
X-5020411Y-26806368D01*
X-5272100Y-26638195D01*
X-5551761Y-26522355D01*
X-5848648Y-26463300D01*
X-6151352Y-26463300D01*
X-6448239Y-26522355D01*
X-6727900Y-26638195D01*
X-6979589Y-26806368D01*
X-7193632Y-27020411D01*
X-7361805Y-27272100D01*
X-7477645Y-27551761D01*
X-7536700Y-27848648D01*
X-19345950Y-27848648D01*
X-19345950Y-24065293D01*
X-6885688Y-24065293D01*
X-6801799Y-24319647D01*
X-6528942Y-24450714D01*
X-6235759Y-24526030D01*
X-5933514Y-24542703D01*
X-5633825Y-24500090D01*
X-5348208Y-24399829D01*
X-5198201Y-24319647D01*
X-5114312Y-24065293D01*
X-6000000Y-23179605D01*
X-6885688Y-24065293D01*
X-19345950Y-24065293D01*
X-19345950Y-23066486D01*
X-7542703Y-23066486D01*
X-7500090Y-23366175D01*
X-7399829Y-23651792D01*
X-7319647Y-23801799D01*
X-7065293Y-23885688D01*
X-6179605Y-23000000D01*
X-5820395Y-23000000D01*
X-4934707Y-23885688D01*
X-4680353Y-23801799D01*
X-4549286Y-23528942D01*
X-4473970Y-23235759D01*
X-4457297Y-22933514D01*
X-4499910Y-22633825D01*
X-4600171Y-22348208D01*
X-4680353Y-22198201D01*
X-4934707Y-22114312D01*
X-5820395Y-23000000D01*
X-6179605Y-23000000D01*
X-7065293Y-22114312D01*
X-7319647Y-22198201D01*
X-7450714Y-22471058D01*
X-7526030Y-22764241D01*
X-7542703Y-23066486D01*
X-19345950Y-23066486D01*
X-19345950Y-21934707D01*
X-6885688Y-21934707D01*
X-6000000Y-22820395D01*
X-5114312Y-21934707D01*
X-5198201Y-21680353D01*
X-5471058Y-21549286D01*
X-5764241Y-21473970D01*
X-6066486Y-21457297D01*
X-6366175Y-21499910D01*
X-6651792Y-21600171D01*
X-6801799Y-21680353D01*
X-6885688Y-21934707D01*
X-19345950Y-21934707D01*
X-19345950Y-13848648D01*
X-7536700Y-13848648D01*
X-7536700Y-14151352D01*
X-7477645Y-14448239D01*
X-7361805Y-14727900D01*
X-7193632Y-14979589D01*
X-6979589Y-15193632D01*
X-6727900Y-15361805D01*
X-6448239Y-15477645D01*
X-6151352Y-15536700D01*
X-5848648Y-15536700D01*
X-5551761Y-15477645D01*
X-5272100Y-15361805D01*
X-5020411Y-15193632D01*
X-4806368Y-14979589D01*
X-4638195Y-14727900D01*
X-4522355Y-14448239D01*
X-4463300Y-14151352D01*
X-4463300Y-13848648D01*
X-4522355Y-13551761D01*
X-4638195Y-13272100D01*
X-4806368Y-13020411D01*
X-5020411Y-12806368D01*
X-5272100Y-12638195D01*
X-5551761Y-12522355D01*
X-5848648Y-12463300D01*
X-6151352Y-12463300D01*
X-6448239Y-12522355D01*
X-6727900Y-12638195D01*
X-6979589Y-12806368D01*
X-7193632Y-13020411D01*
X-7361805Y-13272100D01*
X-7477645Y-13551761D01*
X-7536700Y-13848648D01*
X-19345950Y-13848648D01*
X-19345950Y-8848648D01*
X-7536700Y-8848648D01*
X-7536700Y-9151352D01*
X-7477645Y-9448239D01*
X-7361805Y-9727900D01*
X-7193632Y-9979589D01*
X-6979589Y-10193632D01*
X-6727900Y-10361805D01*
X-6448239Y-10477645D01*
X-6151352Y-10536700D01*
X-5848648Y-10536700D01*
X-5551761Y-10477645D01*
X-5272100Y-10361805D01*
X-5020411Y-10193632D01*
X-4806368Y-9979589D01*
X-4638195Y-9727900D01*
X-4522355Y-9448239D01*
X-4463300Y-9151352D01*
X-4463300Y-8848648D01*
X-4522355Y-8551761D01*
X-4638195Y-8272100D01*
X-4806368Y-8020411D01*
X-5020411Y-7806368D01*
X-5272100Y-7638195D01*
X-5551761Y-7522355D01*
X-5848648Y-7463300D01*
X-6151352Y-7463300D01*
X-6448239Y-7522355D01*
X-6727900Y-7638195D01*
X-6979589Y-7806368D01*
X-7193632Y-8020411D01*
X-7361805Y-8272100D01*
X-7477645Y-8551761D01*
X-7536700Y-8848648D01*
X-19345950Y-8848648D01*
X-19345950Y-5065293D01*
X-6885688Y-5065293D01*
X-6801799Y-5319647D01*
X-6528942Y-5450714D01*
X-6235759Y-5526030D01*
X-5933514Y-5542703D01*
X-5633825Y-5500090D01*
X-5348208Y-5399829D01*
X-5198201Y-5319647D01*
X-5114312Y-5065293D01*
X-6000000Y-4179605D01*
X-6885688Y-5065293D01*
X-19345950Y-5065293D01*
X-19345950Y-4066486D01*
X-7542703Y-4066486D01*
X-7500090Y-4366175D01*
X-7399829Y-4651792D01*
X-7319647Y-4801799D01*
X-7065293Y-4885688D01*
X-6179605Y-4000000D01*
X-5820395Y-4000000D01*
X-4934707Y-4885688D01*
X-4680353Y-4801799D01*
X-4549286Y-4528942D01*
X-4473970Y-4235759D01*
X-4457297Y-3933514D01*
X-4499910Y-3633825D01*
X-4600171Y-3348208D01*
X-4680353Y-3198201D01*
X-4934707Y-3114312D01*
X-5820395Y-4000000D01*
X-6179605Y-4000000D01*
X-7065293Y-3114312D01*
X-7319647Y-3198201D01*
X-7450714Y-3471058D01*
X-7526030Y-3764241D01*
X-7542703Y-4066486D01*
X-19345950Y-4066486D01*
X-19345950Y-2934707D01*
X-6885688Y-2934707D01*
X-6000000Y-3820395D01*
X-5114312Y-2934707D01*
X-5198201Y-2680353D01*
X-5471058Y-2549286D01*
X-5764241Y-2473970D01*
X-6066486Y-2457297D01*
X-6366175Y-2499910D01*
X-6651792Y-2600171D01*
X-6801799Y-2680353D01*
X-6885688Y-2934707D01*
X-19345950Y-2934707D01*
X-19345950Y5151352D01*
X-7536700Y5151352D01*
X-7536700Y4848648D01*
X-7477645Y4551761D01*
X-7361805Y4272100D01*
X-7193632Y4020411D01*
X-6979589Y3806368D01*
X-6727900Y3638195D01*
X-6448239Y3522355D01*
X-6151352Y3463300D01*
X-5848648Y3463300D01*
X-5551761Y3522355D01*
X-5272100Y3638195D01*
X-5020411Y3806368D01*
X-4806368Y4020411D01*
X-4638195Y4272100D01*
X-4522355Y4551761D01*
X-4463300Y4848648D01*
X-4463300Y5151352D01*
X-4522355Y5448239D01*
X-4638195Y5727900D01*
X-4806368Y5979589D01*
X-5020411Y6193632D01*
X-5272100Y6361805D01*
X-5551761Y6477645D01*
X-5848648Y6536700D01*
X-6151352Y6536700D01*
X-6448239Y6477645D01*
X-6727900Y6361805D01*
X-6979589Y6193632D01*
X-7193632Y5979589D01*
X-7361805Y5727900D01*
X-7477645Y5448239D01*
X-7536700Y5151352D01*
X-19345950Y5151352D01*
X-19345950Y10151352D01*
X-7536700Y10151352D01*
X-7536700Y9848648D01*
X-7477645Y9551761D01*
X-7361805Y9272100D01*
X-7193632Y9020411D01*
X-6979589Y8806368D01*
X-6727900Y8638195D01*
X-6448239Y8522355D01*
X-6151352Y8463300D01*
X-5848648Y8463300D01*
X-5678093Y8497226D01*
X-3835000Y6654131D01*
X-3834999Y427406D01*
X-3899068Y272729D01*
X-3935000Y92089D01*
X-3935000Y-92089D01*
X-3899068Y-272729D01*
X-3828586Y-442889D01*
X-3726262Y-596028D01*
X-3596028Y-726262D01*
X-3442889Y-828586D01*
X-3272729Y-899068D01*
X-3092089Y-935000D01*
X-2907911Y-935000D01*
X-2727271Y-899068D01*
X-2557111Y-828586D01*
X-2403972Y-726262D01*
X-2273738Y-596028D01*
X-2171414Y-442889D01*
X-2100932Y-272729D01*
X-2065000Y-92089D01*
X-2065000Y92089D01*
X-2100932Y272729D01*
X-2165000Y427404D01*
X-2165000Y6958982D01*
X-2160960Y7000000D01*
X-2177082Y7163688D01*
X-2183644Y7185322D01*
X-2224828Y7321087D01*
X-2302364Y7466146D01*
X-2406709Y7593291D01*
X-2438567Y7619436D01*
X-4497226Y9678093D01*
X-4463300Y9848648D01*
X-4463300Y10151352D01*
X-4522355Y10448239D01*
X-4638195Y10727900D01*
X-4806368Y10979589D01*
X-5020411Y11193632D01*
X-5272100Y11361805D01*
X-5551761Y11477645D01*
X-5848648Y11536700D01*
X-6151352Y11536700D01*
X-6448239Y11477645D01*
X-6727900Y11361805D01*
X-6979589Y11193632D01*
X-7193632Y10979589D01*
X-7361805Y10727900D01*
X-7477645Y10448239D01*
X-7536700Y10151352D01*
X-19345950Y10151352D01*
X-19345950Y12151352D01*
X6463300Y12151352D01*
X6463300Y11848648D01*
X6522355Y11551761D01*
X6638195Y11272100D01*
X6806368Y11020411D01*
X7020411Y10806368D01*
X7272100Y10638195D01*
X7551761Y10522355D01*
X7848648Y10463300D01*
X8151352Y10463300D01*
X8448239Y10522355D01*
X8727900Y10638195D01*
X8979589Y10806368D01*
X9107928Y10934707D01*
X12114312Y10934707D01*
X12198201Y10680353D01*
X12471058Y10549286D01*
X12764241Y10473970D01*
X13066486Y10457297D01*
X13366175Y10499910D01*
X13651792Y10600171D01*
X13801799Y10680353D01*
X13885688Y10934707D01*
X13000000Y11820395D01*
X12114312Y10934707D01*
X9107928Y10934707D01*
X9193632Y11020411D01*
X9361805Y11272100D01*
X9477645Y11551761D01*
X9536700Y11848648D01*
X9536700Y11933514D01*
X11457297Y11933514D01*
X11499910Y11633825D01*
X11600171Y11348208D01*
X11680353Y11198201D01*
X11934707Y11114312D01*
X12820395Y12000000D01*
X13179605Y12000000D01*
X14065293Y11114312D01*
X14319647Y11198201D01*
X14450714Y11471058D01*
X14526030Y11764241D01*
X14542703Y12066486D01*
X14500090Y12366175D01*
X14399829Y12651792D01*
X14319647Y12801799D01*
X14065293Y12885688D01*
X13179605Y12000000D01*
X12820395Y12000000D01*
X11934707Y12885688D01*
X11680353Y12801799D01*
X11549286Y12528942D01*
X11473970Y12235759D01*
X11457297Y11933514D01*
X9536700Y11933514D01*
X9536700Y12151352D01*
X9477645Y12448239D01*
X9361805Y12727900D01*
X9193632Y12979589D01*
X9107928Y13065293D01*
X12114312Y13065293D01*
X13000000Y12179605D01*
X13885688Y13065293D01*
X13801799Y13319647D01*
X13528942Y13450714D01*
X13235759Y13526030D01*
X12933514Y13542703D01*
X12633825Y13500090D01*
X12348208Y13399829D01*
X12198201Y13319647D01*
X12114312Y13065293D01*
X9107928Y13065293D01*
X8979589Y13193632D01*
X8727900Y13361805D01*
X8448239Y13477645D01*
X8151352Y13536700D01*
X7848648Y13536700D01*
X7551761Y13477645D01*
X7272100Y13361805D01*
X7020411Y13193632D01*
X6806368Y12979589D01*
X6638195Y12727900D01*
X6522355Y12448239D01*
X6463300Y12151352D01*
X-19345950Y12151352D01*
X-19345950Y13934707D01*
X-6885688Y13934707D01*
X-6801799Y13680353D01*
X-6528942Y13549286D01*
X-6235759Y13473970D01*
X-5933514Y13457297D01*
X-5633825Y13499910D01*
X-5348208Y13600171D01*
X-5198201Y13680353D01*
X-5114312Y13934707D01*
X-6000000Y14820395D01*
X-6885688Y13934707D01*
X-19345950Y13934707D01*
X-19345950Y14933514D01*
X-7542703Y14933514D01*
X-7500090Y14633825D01*
X-7399829Y14348208D01*
X-7319647Y14198201D01*
X-7065293Y14114312D01*
X-6179605Y15000000D01*
X-5820395Y15000000D01*
X-4934707Y14114312D01*
X-4680353Y14198201D01*
X-4549286Y14471058D01*
X-4473970Y14764241D01*
X-4457297Y15066486D01*
X-4499910Y15366175D01*
X-4515294Y15410000D01*
X24941928Y15410000D01*
X24954188Y15285518D01*
X24990498Y15165820D01*
X25049463Y15055506D01*
X25128815Y14958815D01*
X25225506Y14879463D01*
X25335820Y14820498D01*
X25455518Y14784188D01*
X25463961Y14783357D01*
X25265363Y14584759D01*
X25108320Y14349727D01*
X25000147Y14088574D01*
X24945000Y13811335D01*
X24945000Y13528665D01*
X25000147Y13251426D01*
X25108320Y12990273D01*
X25265363Y12755241D01*
X25465241Y12555363D01*
X25697759Y12400000D01*
X25465241Y12244637D01*
X25265363Y12044759D01*
X25108320Y11809727D01*
X25000147Y11548574D01*
X24945000Y11271335D01*
X24945000Y10988665D01*
X25000147Y10711426D01*
X25108320Y10450273D01*
X25265363Y10215241D01*
X25465241Y10015363D01*
X25697759Y9860000D01*
X25465241Y9704637D01*
X25265363Y9504759D01*
X25108320Y9269727D01*
X25000147Y9008574D01*
X24945000Y8731335D01*
X24945000Y8448665D01*
X25000147Y8171426D01*
X25108320Y7910273D01*
X25265363Y7675241D01*
X25465241Y7475363D01*
X25697759Y7320000D01*
X25465241Y7164637D01*
X25265363Y6964759D01*
X25108320Y6729727D01*
X25000147Y6468574D01*
X24945000Y6191335D01*
X24945000Y5908665D01*
X25000147Y5631426D01*
X25108320Y5370273D01*
X25265363Y5135241D01*
X25465241Y4935363D01*
X25697759Y4780000D01*
X25465241Y4624637D01*
X25265363Y4424759D01*
X25108320Y4189727D01*
X25000147Y3928574D01*
X24945000Y3651335D01*
X24945000Y3368665D01*
X25000147Y3091426D01*
X25108320Y2830273D01*
X25265363Y2595241D01*
X25465241Y2395363D01*
X25697759Y2240000D01*
X25465241Y2084637D01*
X25265363Y1884759D01*
X25108320Y1649727D01*
X25000147Y1388574D01*
X24945000Y1111335D01*
X24945000Y828665D01*
X25000147Y551426D01*
X25108320Y290273D01*
X25265363Y55241D01*
X25465241Y-144637D01*
X25697759Y-300000D01*
X25465241Y-455363D01*
X25265363Y-655241D01*
X25108320Y-890273D01*
X25000147Y-1151426D01*
X24945000Y-1428665D01*
X24945000Y-1711335D01*
X25000147Y-1988574D01*
X25108320Y-2249727D01*
X25265363Y-2484759D01*
X25465241Y-2684637D01*
X25697759Y-2840000D01*
X25465241Y-2995363D01*
X25265363Y-3195241D01*
X25108320Y-3430273D01*
X25000147Y-3691426D01*
X24945000Y-3968665D01*
X24945000Y-4251335D01*
X25000147Y-4528574D01*
X25108320Y-4789727D01*
X25265363Y-5024759D01*
X25465241Y-5224637D01*
X25697759Y-5380000D01*
X25465241Y-5535363D01*
X25265363Y-5735241D01*
X25108320Y-5970273D01*
X25000147Y-6231426D01*
X24945000Y-6508665D01*
X24945000Y-6791335D01*
X25000147Y-7068574D01*
X25108320Y-7329727D01*
X25265363Y-7564759D01*
X25465241Y-7764637D01*
X25697759Y-7920000D01*
X25465241Y-8075363D01*
X25265363Y-8275241D01*
X25108320Y-8510273D01*
X25000147Y-8771426D01*
X24945000Y-9048665D01*
X24945000Y-9331335D01*
X25000147Y-9608574D01*
X25108320Y-9869727D01*
X25265363Y-10104759D01*
X25465241Y-10304637D01*
X25697759Y-10460000D01*
X25465241Y-10615363D01*
X25265363Y-10815241D01*
X25108320Y-11050273D01*
X25000147Y-11311426D01*
X24945000Y-11588665D01*
X24945000Y-11871335D01*
X25000147Y-12148574D01*
X25108320Y-12409727D01*
X25265363Y-12644759D01*
X25465241Y-12844637D01*
X25697759Y-13000000D01*
X25465241Y-13155363D01*
X25265363Y-13355241D01*
X25108320Y-13590273D01*
X25000147Y-13851426D01*
X24945000Y-14128665D01*
X24945000Y-14411335D01*
X25000147Y-14688574D01*
X25108320Y-14949727D01*
X25265363Y-15184759D01*
X25465241Y-15384637D01*
X25697759Y-15540000D01*
X25465241Y-15695363D01*
X25265363Y-15895241D01*
X25108320Y-16130273D01*
X25000147Y-16391426D01*
X24945000Y-16668665D01*
X24945000Y-16951335D01*
X25000147Y-17228574D01*
X25108320Y-17489727D01*
X25265363Y-17724759D01*
X25465241Y-17924637D01*
X25697759Y-18080000D01*
X25465241Y-18235363D01*
X25265363Y-18435241D01*
X25108320Y-18670273D01*
X25000147Y-18931426D01*
X24945000Y-19208665D01*
X24945000Y-19491335D01*
X25000147Y-19768574D01*
X25108320Y-20029727D01*
X25265363Y-20264759D01*
X25465241Y-20464637D01*
X25697759Y-20620000D01*
X25465241Y-20775363D01*
X25265363Y-20975241D01*
X25108320Y-21210273D01*
X25000147Y-21471426D01*
X24945000Y-21748665D01*
X24945000Y-22031335D01*
X25000147Y-22308574D01*
X25108320Y-22569727D01*
X25265363Y-22804759D01*
X25465241Y-23004637D01*
X25697759Y-23160000D01*
X25465241Y-23315363D01*
X25265363Y-23515241D01*
X25108320Y-23750273D01*
X25000147Y-24011426D01*
X24945000Y-24288665D01*
X24945000Y-24571335D01*
X25000147Y-24848574D01*
X25108320Y-25109727D01*
X25265363Y-25344759D01*
X25465241Y-25544637D01*
X25697759Y-25700000D01*
X25465241Y-25855363D01*
X25265363Y-26055241D01*
X25108320Y-26290273D01*
X25000147Y-26551426D01*
X24945000Y-26828665D01*
X24945000Y-27111335D01*
X25000147Y-27388574D01*
X25108320Y-27649727D01*
X25265363Y-27884759D01*
X25465241Y-28084637D01*
X25697759Y-28240000D01*
X25465241Y-28395363D01*
X25265363Y-28595241D01*
X25108320Y-28830273D01*
X25000147Y-29091426D01*
X24945000Y-29368665D01*
X24945000Y-29651335D01*
X25000147Y-29928574D01*
X25108320Y-30189727D01*
X25265363Y-30424759D01*
X25465241Y-30624637D01*
X25697759Y-30780000D01*
X25465241Y-30935363D01*
X25265363Y-31135241D01*
X25108320Y-31370273D01*
X25000147Y-31631426D01*
X24945000Y-31908665D01*
X24945000Y-32191335D01*
X25000147Y-32468574D01*
X25108320Y-32729727D01*
X25265363Y-32964759D01*
X25465241Y-33164637D01*
X25697759Y-33320000D01*
X25465241Y-33475363D01*
X25265363Y-33675241D01*
X25108320Y-33910273D01*
X25000147Y-34171426D01*
X24945000Y-34448665D01*
X24945000Y-34731335D01*
X25000147Y-35008574D01*
X25108320Y-35269727D01*
X25265363Y-35504759D01*
X25465241Y-35704637D01*
X25697759Y-35860000D01*
X25465241Y-36015363D01*
X25265363Y-36215241D01*
X25108320Y-36450273D01*
X25000147Y-36711426D01*
X24945000Y-36988665D01*
X24945000Y-37271335D01*
X25000147Y-37548574D01*
X25108320Y-37809727D01*
X25265363Y-38044759D01*
X25465241Y-38244637D01*
X25697759Y-38400000D01*
X25465241Y-38555363D01*
X25265363Y-38755241D01*
X25108320Y-38990273D01*
X25000147Y-39251426D01*
X24945000Y-39528665D01*
X24945000Y-39811335D01*
X25000147Y-40088574D01*
X25108320Y-40349727D01*
X25265363Y-40584759D01*
X25465241Y-40784637D01*
X25697759Y-40940000D01*
X25465241Y-41095363D01*
X25265363Y-41295241D01*
X25108320Y-41530273D01*
X25000147Y-41791426D01*
X24945000Y-42068665D01*
X24945000Y-42351335D01*
X25000147Y-42628574D01*
X25108320Y-42889727D01*
X25265363Y-43124759D01*
X25465241Y-43324637D01*
X25700273Y-43481680D01*
X25961426Y-43589853D01*
X26238665Y-43645000D01*
X26521335Y-43645000D01*
X26798574Y-43589853D01*
X27059727Y-43481680D01*
X27294759Y-43324637D01*
X27494637Y-43124759D01*
X27651680Y-42889727D01*
X27759853Y-42628574D01*
X27815000Y-42351335D01*
X27815000Y-42068665D01*
X27759853Y-41791426D01*
X27651680Y-41530273D01*
X27494637Y-41295241D01*
X27294759Y-41095363D01*
X27062241Y-40940000D01*
X27294759Y-40784637D01*
X27494637Y-40584759D01*
X27651680Y-40349727D01*
X27759853Y-40088574D01*
X27815000Y-39811335D01*
X27815000Y-39528665D01*
X27759853Y-39251426D01*
X27651680Y-38990273D01*
X27494637Y-38755241D01*
X27294759Y-38555363D01*
X27062241Y-38400000D01*
X27294759Y-38244637D01*
X27494637Y-38044759D01*
X27651680Y-37809727D01*
X27759853Y-37548574D01*
X27815000Y-37271335D01*
X27815000Y-36988665D01*
X27759853Y-36711426D01*
X27651680Y-36450273D01*
X27494637Y-36215241D01*
X27294759Y-36015363D01*
X27062241Y-35860000D01*
X27294759Y-35704637D01*
X27494637Y-35504759D01*
X27651680Y-35269727D01*
X27759853Y-35008574D01*
X27815000Y-34731335D01*
X27815000Y-34448665D01*
X27759853Y-34171426D01*
X27651680Y-33910273D01*
X27494637Y-33675241D01*
X27294759Y-33475363D01*
X27062241Y-33320000D01*
X27294759Y-33164637D01*
X27494637Y-32964759D01*
X27651680Y-32729727D01*
X27759853Y-32468574D01*
X27815000Y-32191335D01*
X27815000Y-31908665D01*
X27759853Y-31631426D01*
X27651680Y-31370273D01*
X27494637Y-31135241D01*
X27294759Y-30935363D01*
X27062241Y-30780000D01*
X27294759Y-30624637D01*
X27494637Y-30424759D01*
X27650000Y-30192241D01*
X27805363Y-30424759D01*
X28005241Y-30624637D01*
X28240273Y-30781680D01*
X28501426Y-30889853D01*
X28778665Y-30945000D01*
X29061335Y-30945000D01*
X29338574Y-30889853D01*
X29599727Y-30781680D01*
X29834759Y-30624637D01*
X30034637Y-30424759D01*
X30190000Y-30192241D01*
X30345363Y-30424759D01*
X30545241Y-30624637D01*
X30780273Y-30781680D01*
X31041426Y-30889853D01*
X31318665Y-30945000D01*
X31601335Y-30945000D01*
X31878574Y-30889853D01*
X32139727Y-30781680D01*
X32374759Y-30624637D01*
X32574637Y-30424759D01*
X32730000Y-30192241D01*
X32885363Y-30424759D01*
X33085241Y-30624637D01*
X33320273Y-30781680D01*
X33581426Y-30889853D01*
X33858665Y-30945000D01*
X34141335Y-30945000D01*
X34418574Y-30889853D01*
X34679727Y-30781680D01*
X34914759Y-30624637D01*
X35114637Y-30424759D01*
X35270000Y-30192241D01*
X35425363Y-30424759D01*
X35625241Y-30624637D01*
X35860273Y-30781680D01*
X36121426Y-30889853D01*
X36398665Y-30945000D01*
X36681335Y-30945000D01*
X36958574Y-30889853D01*
X37219727Y-30781680D01*
X37454759Y-30624637D01*
X37654637Y-30424759D01*
X37810000Y-30192241D01*
X37965363Y-30424759D01*
X38165241Y-30624637D01*
X38400273Y-30781680D01*
X38661426Y-30889853D01*
X38938665Y-30945000D01*
X39221335Y-30945000D01*
X39498574Y-30889853D01*
X39759727Y-30781680D01*
X39994759Y-30624637D01*
X40194637Y-30424759D01*
X40350000Y-30192241D01*
X40505363Y-30424759D01*
X40705241Y-30624637D01*
X40937759Y-30780000D01*
X40705241Y-30935363D01*
X40505363Y-31135241D01*
X40348320Y-31370273D01*
X40240147Y-31631426D01*
X40185000Y-31908665D01*
X40185000Y-32191335D01*
X40240147Y-32468574D01*
X40348320Y-32729727D01*
X40505363Y-32964759D01*
X40705241Y-33164637D01*
X40937759Y-33320000D01*
X40705241Y-33475363D01*
X40505363Y-33675241D01*
X40348320Y-33910273D01*
X40240147Y-34171426D01*
X40185000Y-34448665D01*
X40185000Y-34731335D01*
X40240147Y-35008574D01*
X40348320Y-35269727D01*
X40505363Y-35504759D01*
X40705241Y-35704637D01*
X40937759Y-35860000D01*
X40705241Y-36015363D01*
X40505363Y-36215241D01*
X40348320Y-36450273D01*
X40240147Y-36711426D01*
X40185000Y-36988665D01*
X40185000Y-37271335D01*
X40240147Y-37548574D01*
X40348320Y-37809727D01*
X40505363Y-38044759D01*
X40705241Y-38244637D01*
X40937759Y-38400000D01*
X40705241Y-38555363D01*
X40505363Y-38755241D01*
X40348320Y-38990273D01*
X40240147Y-39251426D01*
X40185000Y-39528665D01*
X40185000Y-39811335D01*
X40240147Y-40088574D01*
X40348320Y-40349727D01*
X40505363Y-40584759D01*
X40705241Y-40784637D01*
X40937759Y-40940000D01*
X40705241Y-41095363D01*
X40505363Y-41295241D01*
X40348320Y-41530273D01*
X40240147Y-41791426D01*
X40185000Y-42068665D01*
X40185000Y-42351335D01*
X40240147Y-42628574D01*
X40348320Y-42889727D01*
X40505363Y-43124759D01*
X40705241Y-43324637D01*
X40940273Y-43481680D01*
X41201426Y-43589853D01*
X41478665Y-43645000D01*
X41761335Y-43645000D01*
X42038574Y-43589853D01*
X42299727Y-43481680D01*
X42534759Y-43324637D01*
X42734637Y-43124759D01*
X42891680Y-42889727D01*
X42999853Y-42628574D01*
X43055000Y-42351335D01*
X43055000Y-42068665D01*
X42999853Y-41791426D01*
X42891680Y-41530273D01*
X42734637Y-41295241D01*
X42534759Y-41095363D01*
X42302241Y-40940000D01*
X42534759Y-40784637D01*
X42734637Y-40584759D01*
X42891680Y-40349727D01*
X42999853Y-40088574D01*
X43055000Y-39811335D01*
X43055000Y-39528665D01*
X42999853Y-39251426D01*
X42891680Y-38990273D01*
X42734637Y-38755241D01*
X42534759Y-38555363D01*
X42302241Y-38400000D01*
X42534759Y-38244637D01*
X42734637Y-38044759D01*
X42891680Y-37809727D01*
X42999853Y-37548574D01*
X43055000Y-37271335D01*
X43055000Y-36988665D01*
X42999853Y-36711426D01*
X42891680Y-36450273D01*
X42734637Y-36215241D01*
X42534759Y-36015363D01*
X42302241Y-35860000D01*
X42534759Y-35704637D01*
X42734637Y-35504759D01*
X42891680Y-35269727D01*
X42951690Y-35124849D01*
X60714000Y-35124849D01*
X60714000Y-35575151D01*
X60801850Y-36016802D01*
X60974173Y-36432827D01*
X61224348Y-36807240D01*
X61542760Y-37125652D01*
X61917173Y-37375827D01*
X62333198Y-37548150D01*
X62774849Y-37636000D01*
X63225151Y-37636000D01*
X63666802Y-37548150D01*
X64082827Y-37375827D01*
X64457240Y-37125652D01*
X64775652Y-36807240D01*
X65025827Y-36432827D01*
X65198150Y-36016802D01*
X65286000Y-35575151D01*
X65286000Y-35124849D01*
X65198150Y-34683198D01*
X65025827Y-34267173D01*
X64775652Y-33892760D01*
X64457240Y-33574348D01*
X64082827Y-33324173D01*
X63666802Y-33151850D01*
X63225151Y-33064000D01*
X62774849Y-33064000D01*
X62333198Y-33151850D01*
X61917173Y-33324173D01*
X61542760Y-33574348D01*
X61224348Y-33892760D01*
X60974173Y-34267173D01*
X60801850Y-34683198D01*
X60714000Y-35124849D01*
X42951690Y-35124849D01*
X42999853Y-35008574D01*
X43055000Y-34731335D01*
X43055000Y-34448665D01*
X42999853Y-34171426D01*
X42891680Y-33910273D01*
X42734637Y-33675241D01*
X42534759Y-33475363D01*
X42302241Y-33320000D01*
X42534759Y-33164637D01*
X42734637Y-32964759D01*
X42891680Y-32729727D01*
X42999853Y-32468574D01*
X43055000Y-32191335D01*
X43055000Y-31908665D01*
X42999853Y-31631426D01*
X42891680Y-31370273D01*
X42734637Y-31135241D01*
X42534759Y-30935363D01*
X42302241Y-30780000D01*
X42534759Y-30624637D01*
X42734637Y-30424759D01*
X42891680Y-30189727D01*
X42999853Y-29928574D01*
X43055000Y-29651335D01*
X43055000Y-29368665D01*
X42999853Y-29091426D01*
X42891680Y-28830273D01*
X42734637Y-28595241D01*
X42534759Y-28395363D01*
X42302241Y-28240000D01*
X42534759Y-28084637D01*
X42734637Y-27884759D01*
X42891680Y-27649727D01*
X42999853Y-27388574D01*
X43055000Y-27111335D01*
X43055000Y-26828665D01*
X42999853Y-26551426D01*
X42906545Y-26326160D01*
X57323100Y-26326160D01*
X57323100Y-26593840D01*
X57375322Y-26856376D01*
X57477759Y-27103680D01*
X57626474Y-27326248D01*
X57776226Y-27476000D01*
X57626474Y-27625752D01*
X57477759Y-27848320D01*
X57375322Y-28095624D01*
X57323100Y-28358160D01*
X57323100Y-28625840D01*
X57375322Y-28888376D01*
X57477759Y-29135680D01*
X57626474Y-29358248D01*
X57776226Y-29508000D01*
X57626474Y-29657752D01*
X57477759Y-29880320D01*
X57375322Y-30127624D01*
X57323100Y-30390160D01*
X57323100Y-30657840D01*
X57375322Y-30920376D01*
X57477759Y-31167680D01*
X57626474Y-31390248D01*
X57776226Y-31540000D01*
X57626474Y-31689752D01*
X57477759Y-31912320D01*
X57375322Y-32159624D01*
X57323100Y-32422160D01*
X57323100Y-32689840D01*
X57375322Y-32952376D01*
X57477759Y-33199680D01*
X57626474Y-33422248D01*
X57815752Y-33611526D01*
X58038320Y-33760241D01*
X58285624Y-33862678D01*
X58548160Y-33914900D01*
X58815840Y-33914900D01*
X59078376Y-33862678D01*
X59325680Y-33760241D01*
X59548248Y-33611526D01*
X59737526Y-33422248D01*
X59886241Y-33199680D01*
X59988678Y-32952376D01*
X60013807Y-32826043D01*
X60063624Y-32846678D01*
X60326160Y-32898900D01*
X60593840Y-32898900D01*
X60856376Y-32846678D01*
X61103680Y-32744241D01*
X61326248Y-32595526D01*
X61515526Y-32406248D01*
X61664241Y-32183680D01*
X61766678Y-31936376D01*
X61818900Y-31673840D01*
X61818900Y-31406160D01*
X61766678Y-31143624D01*
X61664241Y-30896320D01*
X61515526Y-30673752D01*
X61365774Y-30524000D01*
X61515526Y-30374248D01*
X61664241Y-30151680D01*
X61766678Y-29904376D01*
X61818900Y-29641840D01*
X61818900Y-29374160D01*
X61766678Y-29111624D01*
X61664241Y-28864320D01*
X61515526Y-28641752D01*
X61365774Y-28492000D01*
X61515526Y-28342248D01*
X61664241Y-28119680D01*
X61766678Y-27872376D01*
X61818900Y-27609840D01*
X61818900Y-27342160D01*
X61766678Y-27079624D01*
X61664241Y-26832320D01*
X61561896Y-26679150D01*
X61635085Y-26619085D01*
X61714437Y-26522394D01*
X61773402Y-26412080D01*
X61809712Y-26292382D01*
X61821972Y-26167900D01*
X61821972Y-24720100D01*
X61810598Y-24604616D01*
X61917173Y-24675827D01*
X62333198Y-24848150D01*
X62774849Y-24936000D01*
X63225151Y-24936000D01*
X63666802Y-24848150D01*
X64082827Y-24675827D01*
X64457240Y-24425652D01*
X64775652Y-24107240D01*
X65025827Y-23732827D01*
X65198150Y-23316802D01*
X65286000Y-22875151D01*
X65286000Y-22424849D01*
X65198150Y-21983198D01*
X65025827Y-21567173D01*
X64775652Y-21192760D01*
X64457240Y-20874348D01*
X64082827Y-20624173D01*
X63666802Y-20451850D01*
X63225151Y-20364000D01*
X62774849Y-20364000D01*
X62333198Y-20451850D01*
X61917173Y-20624173D01*
X61542760Y-20874348D01*
X61224348Y-21192760D01*
X60974173Y-21567173D01*
X60801850Y-21983198D01*
X60714000Y-22424849D01*
X60714000Y-22875151D01*
X60801850Y-23316802D01*
X60974173Y-23732827D01*
X61209164Y-24084516D01*
X61183900Y-24082028D01*
X59736100Y-24082028D01*
X59611618Y-24094288D01*
X59491920Y-24130598D01*
X59381606Y-24189563D01*
X59284915Y-24268915D01*
X59205563Y-24365606D01*
X59146598Y-24475920D01*
X59110288Y-24595618D01*
X59098028Y-24720100D01*
X59098028Y-25161462D01*
X59078376Y-25153322D01*
X58815840Y-25101100D01*
X58548160Y-25101100D01*
X58285624Y-25153322D01*
X58038320Y-25255759D01*
X57815752Y-25404474D01*
X57626474Y-25593752D01*
X57477759Y-25816320D01*
X57375322Y-26063624D01*
X57323100Y-26326160D01*
X42906545Y-26326160D01*
X42891680Y-26290273D01*
X42734637Y-26055241D01*
X42534759Y-25855363D01*
X42302241Y-25700000D01*
X42534759Y-25544637D01*
X42734637Y-25344759D01*
X42891680Y-25109727D01*
X42999853Y-24848574D01*
X43055000Y-24571335D01*
X43055000Y-24288665D01*
X42999853Y-24011426D01*
X42891680Y-23750273D01*
X42734637Y-23515241D01*
X42534759Y-23315363D01*
X42302241Y-23160000D01*
X42534759Y-23004637D01*
X42734637Y-22804759D01*
X42891680Y-22569727D01*
X42999853Y-22308574D01*
X43055000Y-22031335D01*
X43055000Y-21748665D01*
X42999853Y-21471426D01*
X42891680Y-21210273D01*
X42734637Y-20975241D01*
X42534759Y-20775363D01*
X42300872Y-20619085D01*
X42361514Y-20586671D01*
X42433097Y-20342702D01*
X41620000Y-19529605D01*
X40806903Y-20342702D01*
X40878486Y-20586671D01*
X40942992Y-20617194D01*
X40940273Y-20618320D01*
X40705241Y-20775363D01*
X40505363Y-20975241D01*
X40348320Y-21210273D01*
X40240147Y-21471426D01*
X40185000Y-21748665D01*
X40185000Y-22031335D01*
X40240147Y-22308574D01*
X40348320Y-22569727D01*
X40505363Y-22804759D01*
X40705241Y-23004637D01*
X40937759Y-23160000D01*
X40705241Y-23315363D01*
X40505363Y-23515241D01*
X40348320Y-23750273D01*
X40240147Y-24011426D01*
X40185000Y-24288665D01*
X40185000Y-24571335D01*
X40240147Y-24848574D01*
X40348320Y-25109727D01*
X40505363Y-25344759D01*
X40705241Y-25544637D01*
X40937759Y-25700000D01*
X40705241Y-25855363D01*
X40505363Y-26055241D01*
X40348320Y-26290273D01*
X40240147Y-26551426D01*
X40185000Y-26828665D01*
X40185000Y-27111335D01*
X40240147Y-27388574D01*
X40348320Y-27649727D01*
X40505363Y-27884759D01*
X40705241Y-28084637D01*
X40937759Y-28240000D01*
X40705241Y-28395363D01*
X40505363Y-28595241D01*
X40350000Y-28827759D01*
X40194637Y-28595241D01*
X39994759Y-28395363D01*
X39759727Y-28238320D01*
X39498574Y-28130147D01*
X39221335Y-28075000D01*
X38938665Y-28075000D01*
X38661426Y-28130147D01*
X38400273Y-28238320D01*
X38165241Y-28395363D01*
X37965363Y-28595241D01*
X37810000Y-28827759D01*
X37654637Y-28595241D01*
X37454759Y-28395363D01*
X37219727Y-28238320D01*
X36958574Y-28130147D01*
X36681335Y-28075000D01*
X36398665Y-28075000D01*
X36121426Y-28130147D01*
X35860273Y-28238320D01*
X35625241Y-28395363D01*
X35425363Y-28595241D01*
X35270000Y-28827759D01*
X35114637Y-28595241D01*
X34914759Y-28395363D01*
X34679727Y-28238320D01*
X34418574Y-28130147D01*
X34141335Y-28075000D01*
X33858665Y-28075000D01*
X33581426Y-28130147D01*
X33320273Y-28238320D01*
X33085241Y-28395363D01*
X32885363Y-28595241D01*
X32730000Y-28827759D01*
X32574637Y-28595241D01*
X32374759Y-28395363D01*
X32139727Y-28238320D01*
X31878574Y-28130147D01*
X31601335Y-28075000D01*
X31318665Y-28075000D01*
X31041426Y-28130147D01*
X30780273Y-28238320D01*
X30545241Y-28395363D01*
X30345363Y-28595241D01*
X30190000Y-28827759D01*
X30034637Y-28595241D01*
X29834759Y-28395363D01*
X29599727Y-28238320D01*
X29338574Y-28130147D01*
X29061335Y-28075000D01*
X28778665Y-28075000D01*
X28501426Y-28130147D01*
X28240273Y-28238320D01*
X28005241Y-28395363D01*
X27805363Y-28595241D01*
X27650000Y-28827759D01*
X27494637Y-28595241D01*
X27294759Y-28395363D01*
X27062241Y-28240000D01*
X27294759Y-28084637D01*
X27494637Y-27884759D01*
X27651680Y-27649727D01*
X27759853Y-27388574D01*
X27815000Y-27111335D01*
X27815000Y-26828665D01*
X27759853Y-26551426D01*
X27651680Y-26290273D01*
X27494637Y-26055241D01*
X27294759Y-25855363D01*
X27062241Y-25700000D01*
X27294759Y-25544637D01*
X27494637Y-25344759D01*
X27651680Y-25109727D01*
X27759853Y-24848574D01*
X27815000Y-24571335D01*
X27815000Y-24288665D01*
X27759853Y-24011426D01*
X27651680Y-23750273D01*
X27494637Y-23515241D01*
X27294759Y-23315363D01*
X27062241Y-23160000D01*
X27294759Y-23004637D01*
X27494637Y-22804759D01*
X27651680Y-22569727D01*
X27759853Y-22308574D01*
X27815000Y-22031335D01*
X27815000Y-21748665D01*
X27759853Y-21471426D01*
X27651680Y-21210273D01*
X27494637Y-20975241D01*
X27294759Y-20775363D01*
X27062241Y-20620000D01*
X27294759Y-20464637D01*
X27494637Y-20264759D01*
X27651680Y-20029727D01*
X27759853Y-19768574D01*
X27815000Y-19491335D01*
X27815000Y-19420512D01*
X40179783Y-19420512D01*
X40221213Y-19700130D01*
X40316397Y-19966292D01*
X40383329Y-20091514D01*
X40627298Y-20163097D01*
X41440395Y-19350000D01*
X41799605Y-19350000D01*
X42612702Y-20163097D01*
X42856671Y-20091514D01*
X42977571Y-19836004D01*
X43046300Y-19561816D01*
X43060217Y-19279488D01*
X43018787Y-18999870D01*
X42923603Y-18733708D01*
X42856671Y-18608486D01*
X42612702Y-18536903D01*
X41799605Y-19350000D01*
X41440395Y-19350000D01*
X40627298Y-18536903D01*
X40383329Y-18608486D01*
X40262429Y-18863996D01*
X40193700Y-19138184D01*
X40179783Y-19420512D01*
X27815000Y-19420512D01*
X27815000Y-19208665D01*
X27759853Y-18931426D01*
X27651680Y-18670273D01*
X27494637Y-18435241D01*
X27294759Y-18235363D01*
X27062241Y-18080000D01*
X27294759Y-17924637D01*
X27494637Y-17724759D01*
X27651680Y-17489727D01*
X27759853Y-17228574D01*
X27815000Y-16951335D01*
X27815000Y-16668665D01*
X27759853Y-16391426D01*
X27651680Y-16130273D01*
X27494637Y-15895241D01*
X27294759Y-15695363D01*
X27062241Y-15540000D01*
X27294759Y-15384637D01*
X27494637Y-15184759D01*
X27651680Y-14949727D01*
X27759853Y-14688574D01*
X27815000Y-14411335D01*
X27815000Y-14128665D01*
X27759853Y-13851426D01*
X27651680Y-13590273D01*
X27494637Y-13355241D01*
X27294759Y-13155363D01*
X27062241Y-13000000D01*
X27294759Y-12844637D01*
X27494637Y-12644759D01*
X27651680Y-12409727D01*
X27759853Y-12148574D01*
X27815000Y-11871335D01*
X27815000Y-11588665D01*
X27759853Y-11311426D01*
X27651680Y-11050273D01*
X27494637Y-10815241D01*
X27294759Y-10615363D01*
X27062241Y-10460000D01*
X27294759Y-10304637D01*
X27494637Y-10104759D01*
X27651680Y-9869727D01*
X27759853Y-9608574D01*
X27815000Y-9331335D01*
X27815000Y-9048665D01*
X27759853Y-8771426D01*
X27651680Y-8510273D01*
X27494637Y-8275241D01*
X27294759Y-8075363D01*
X27062241Y-7920000D01*
X27294759Y-7764637D01*
X27494637Y-7564759D01*
X27651680Y-7329727D01*
X27759853Y-7068574D01*
X27815000Y-6791335D01*
X27815000Y-6508665D01*
X27759853Y-6231426D01*
X27651680Y-5970273D01*
X27494637Y-5735241D01*
X27294759Y-5535363D01*
X27062241Y-5380000D01*
X27294759Y-5224637D01*
X27494637Y-5024759D01*
X27651680Y-4789727D01*
X27759853Y-4528574D01*
X27815000Y-4251335D01*
X27815000Y-3968665D01*
X27759853Y-3691426D01*
X27651680Y-3430273D01*
X27494637Y-3195241D01*
X27294759Y-2995363D01*
X27062241Y-2840000D01*
X27294759Y-2684637D01*
X27494637Y-2484759D01*
X27651680Y-2249727D01*
X27759853Y-1988574D01*
X27815000Y-1711335D01*
X27815000Y-1428665D01*
X27759853Y-1151426D01*
X27651680Y-890273D01*
X27494637Y-655241D01*
X27294759Y-455363D01*
X27062241Y-300000D01*
X27294759Y-144637D01*
X27494637Y55241D01*
X27651680Y290273D01*
X27759853Y551426D01*
X27815000Y828665D01*
X27815000Y1111335D01*
X27759853Y1388574D01*
X27651680Y1649727D01*
X27494637Y1884759D01*
X27294759Y2084637D01*
X27062241Y2240000D01*
X27294759Y2395363D01*
X27494637Y2595241D01*
X27651680Y2830273D01*
X27759853Y3091426D01*
X27815000Y3368665D01*
X27815000Y3651335D01*
X27759853Y3928574D01*
X27651680Y4189727D01*
X27494637Y4424759D01*
X27294759Y4624637D01*
X27062241Y4780000D01*
X27294759Y4935363D01*
X27494637Y5135241D01*
X27651680Y5370273D01*
X27759853Y5631426D01*
X27815000Y5908665D01*
X27815000Y6191335D01*
X27759853Y6468574D01*
X27651680Y6729727D01*
X27494637Y6964759D01*
X27294759Y7164637D01*
X27062241Y7320000D01*
X27294759Y7475363D01*
X27494637Y7675241D01*
X27651680Y7910273D01*
X27759853Y8171426D01*
X27815000Y8448665D01*
X27815000Y8731335D01*
X27759853Y9008574D01*
X27651680Y9269727D01*
X27494637Y9504759D01*
X27294759Y9704637D01*
X27062241Y9860000D01*
X27294759Y10015363D01*
X27494637Y10215241D01*
X27651680Y10450273D01*
X27759593Y10710800D01*
X27992728Y10710800D01*
X27992728Y9110800D01*
X28004988Y8986318D01*
X28041298Y8866620D01*
X28100263Y8756306D01*
X28179615Y8659615D01*
X28276306Y8580263D01*
X28386620Y8521298D01*
X28506318Y8484988D01*
X28514761Y8484157D01*
X28316163Y8285559D01*
X28159120Y8050527D01*
X28050947Y7789374D01*
X27995800Y7512135D01*
X27995800Y7229465D01*
X28050947Y6952226D01*
X28159120Y6691073D01*
X28316163Y6456041D01*
X28516041Y6256163D01*
X28748559Y6100800D01*
X28516041Y5945437D01*
X28316163Y5745559D01*
X28159120Y5510527D01*
X28050947Y5249374D01*
X27995800Y4972135D01*
X27995800Y4689465D01*
X28050947Y4412226D01*
X28159120Y4151073D01*
X28316163Y3916041D01*
X28516041Y3716163D01*
X28748559Y3560800D01*
X28516041Y3405437D01*
X28316163Y3205559D01*
X28159120Y2970527D01*
X28050947Y2709374D01*
X27995800Y2432135D01*
X27995800Y2149465D01*
X28050947Y1872226D01*
X28159120Y1611073D01*
X28316163Y1376041D01*
X28516041Y1176163D01*
X28748559Y1020800D01*
X28516041Y865437D01*
X28316163Y665559D01*
X28159120Y430527D01*
X28050947Y169374D01*
X27995800Y-107865D01*
X27995800Y-390535D01*
X28050947Y-667774D01*
X28159120Y-928927D01*
X28316163Y-1163959D01*
X28516041Y-1363837D01*
X28751073Y-1520880D01*
X29012226Y-1629053D01*
X29289465Y-1684200D01*
X29572135Y-1684200D01*
X29849374Y-1629053D01*
X30110527Y-1520880D01*
X30345559Y-1363837D01*
X30545437Y-1163959D01*
X30702480Y-928927D01*
X30810653Y-667774D01*
X30865800Y-390535D01*
X30865800Y-107865D01*
X30810653Y169374D01*
X30702480Y430527D01*
X30545437Y665559D01*
X30345559Y865437D01*
X30113041Y1020800D01*
X30345559Y1176163D01*
X30545437Y1376041D01*
X30702480Y1611073D01*
X30810653Y1872226D01*
X30865800Y2149465D01*
X30865800Y2432135D01*
X30810653Y2709374D01*
X30702480Y2970527D01*
X30545437Y3205559D01*
X30384435Y3366561D01*
X33896600Y3366561D01*
X33896600Y3113439D01*
X33945981Y2865179D01*
X34042847Y2631324D01*
X34183475Y2420860D01*
X34362460Y2241875D01*
X34365266Y2240000D01*
X34362460Y2238125D01*
X34183475Y2059140D01*
X34042847Y1848676D01*
X33945981Y1614821D01*
X33896600Y1366561D01*
X33896600Y1113439D01*
X33945981Y865179D01*
X34042847Y631324D01*
X34183475Y420860D01*
X34362460Y241875D01*
X34572924Y101247D01*
X34806779Y4381D01*
X35055039Y-45000D01*
X35308161Y-45000D01*
X35556421Y4381D01*
X35790276Y101247D01*
X36000740Y241875D01*
X36179725Y420860D01*
X36181600Y423666D01*
X36183475Y420860D01*
X36362460Y241875D01*
X36572924Y101247D01*
X36806779Y4381D01*
X37055039Y-45000D01*
X37308161Y-45000D01*
X37556421Y4381D01*
X37790276Y101247D01*
X38000740Y241875D01*
X38179725Y420860D01*
X38181600Y423666D01*
X38183475Y420860D01*
X38362460Y241875D01*
X38572924Y101247D01*
X38806779Y4381D01*
X39055039Y-45000D01*
X39308161Y-45000D01*
X39556421Y4381D01*
X39790276Y101247D01*
X40000740Y241875D01*
X40179725Y420860D01*
X40250410Y526648D01*
X40348320Y290273D01*
X40505363Y55241D01*
X40705241Y-144637D01*
X40937759Y-300000D01*
X40705241Y-455363D01*
X40505363Y-655241D01*
X40348320Y-890273D01*
X40240147Y-1151426D01*
X40185000Y-1428665D01*
X40185000Y-1711335D01*
X40240147Y-1988574D01*
X40348320Y-2249727D01*
X40505363Y-2484759D01*
X40705241Y-2684637D01*
X40937759Y-2840000D01*
X40705241Y-2995363D01*
X40505363Y-3195241D01*
X40348320Y-3430273D01*
X40240147Y-3691426D01*
X40185000Y-3968665D01*
X40185000Y-4251335D01*
X40240147Y-4528574D01*
X40348320Y-4789727D01*
X40505363Y-5024759D01*
X40705241Y-5224637D01*
X40937759Y-5380000D01*
X40705241Y-5535363D01*
X40505363Y-5735241D01*
X40348320Y-5970273D01*
X40240147Y-6231426D01*
X40185000Y-6508665D01*
X40185000Y-6791335D01*
X40240147Y-7068574D01*
X40348320Y-7329727D01*
X40505363Y-7564759D01*
X40705241Y-7764637D01*
X40937759Y-7920000D01*
X40705241Y-8075363D01*
X40505363Y-8275241D01*
X40348320Y-8510273D01*
X40240147Y-8771426D01*
X40185000Y-9048665D01*
X40185000Y-9331335D01*
X40240147Y-9608574D01*
X40348320Y-9869727D01*
X40505363Y-10104759D01*
X40705241Y-10304637D01*
X40937759Y-10460000D01*
X40705241Y-10615363D01*
X40505363Y-10815241D01*
X40348320Y-11050273D01*
X40240147Y-11311426D01*
X40185000Y-11588665D01*
X40185000Y-11871335D01*
X40240147Y-12148574D01*
X40348320Y-12409727D01*
X40505363Y-12644759D01*
X40705241Y-12844637D01*
X40937759Y-13000000D01*
X40705241Y-13155363D01*
X40505363Y-13355241D01*
X40348320Y-13590273D01*
X40240147Y-13851426D01*
X40185000Y-14128665D01*
X40185000Y-14411335D01*
X40240147Y-14688574D01*
X40348320Y-14949727D01*
X40505363Y-15184759D01*
X40705241Y-15384637D01*
X40937759Y-15540000D01*
X40705241Y-15695363D01*
X40505363Y-15895241D01*
X40348320Y-16130273D01*
X40240147Y-16391426D01*
X40185000Y-16668665D01*
X40185000Y-16951335D01*
X40240147Y-17228574D01*
X40348320Y-17489727D01*
X40505363Y-17724759D01*
X40705241Y-17924637D01*
X40939128Y-18080915D01*
X40878486Y-18113329D01*
X40806903Y-18357298D01*
X41620000Y-19170395D01*
X42433097Y-18357298D01*
X42361514Y-18113329D01*
X42297008Y-18082806D01*
X42299727Y-18081680D01*
X42534759Y-17924637D01*
X42734637Y-17724759D01*
X42891680Y-17489727D01*
X42999853Y-17228574D01*
X43055000Y-16951335D01*
X43055000Y-16668665D01*
X42999853Y-16391426D01*
X42891680Y-16130273D01*
X42888056Y-16124849D01*
X60714000Y-16124849D01*
X60714000Y-16575151D01*
X60801850Y-17016802D01*
X60974173Y-17432827D01*
X61224348Y-17807240D01*
X61542760Y-18125652D01*
X61917173Y-18375827D01*
X62333198Y-18548150D01*
X62774849Y-18636000D01*
X63225151Y-18636000D01*
X63666802Y-18548150D01*
X64082827Y-18375827D01*
X64457240Y-18125652D01*
X64775652Y-17807240D01*
X65025827Y-17432827D01*
X65198150Y-17016802D01*
X65286000Y-16575151D01*
X65286000Y-16124849D01*
X65198150Y-15683198D01*
X65025827Y-15267173D01*
X64775652Y-14892760D01*
X64457240Y-14574348D01*
X64082827Y-14324173D01*
X63666802Y-14151850D01*
X63225151Y-14064000D01*
X62774849Y-14064000D01*
X62333198Y-14151850D01*
X61917173Y-14324173D01*
X61542760Y-14574348D01*
X61224348Y-14892760D01*
X60974173Y-15267173D01*
X60801850Y-15683198D01*
X60714000Y-16124849D01*
X42888056Y-16124849D01*
X42734637Y-15895241D01*
X42534759Y-15695363D01*
X42302241Y-15540000D01*
X42534759Y-15384637D01*
X42734637Y-15184759D01*
X42891680Y-14949727D01*
X42999853Y-14688574D01*
X43055000Y-14411335D01*
X43055000Y-14128665D01*
X42999853Y-13851426D01*
X42891680Y-13590273D01*
X42734637Y-13355241D01*
X42534759Y-13155363D01*
X42302241Y-13000000D01*
X42534759Y-12844637D01*
X42734637Y-12644759D01*
X42891680Y-12409727D01*
X42999853Y-12148574D01*
X43055000Y-11871335D01*
X43055000Y-11588665D01*
X42999853Y-11311426D01*
X42891680Y-11050273D01*
X42734637Y-10815241D01*
X42534759Y-10615363D01*
X42302241Y-10460000D01*
X42534759Y-10304637D01*
X42734637Y-10104759D01*
X42891680Y-9869727D01*
X42999853Y-9608574D01*
X43055000Y-9331335D01*
X43055000Y-9048665D01*
X42999853Y-8771426D01*
X42891680Y-8510273D01*
X42734637Y-8275241D01*
X42534759Y-8075363D01*
X42302241Y-7920000D01*
X42534759Y-7764637D01*
X42734637Y-7564759D01*
X42891680Y-7329727D01*
X42893157Y-7326160D01*
X57323100Y-7326160D01*
X57323100Y-7593840D01*
X57375322Y-7856376D01*
X57477759Y-8103680D01*
X57626474Y-8326248D01*
X57776226Y-8476000D01*
X57626474Y-8625752D01*
X57477759Y-8848320D01*
X57375322Y-9095624D01*
X57323100Y-9358160D01*
X57323100Y-9625840D01*
X57375322Y-9888376D01*
X57477759Y-10135680D01*
X57626474Y-10358248D01*
X57776226Y-10508000D01*
X57626474Y-10657752D01*
X57477759Y-10880320D01*
X57375322Y-11127624D01*
X57323100Y-11390160D01*
X57323100Y-11657840D01*
X57375322Y-11920376D01*
X57477759Y-12167680D01*
X57626474Y-12390248D01*
X57776226Y-12540000D01*
X57626474Y-12689752D01*
X57477759Y-12912320D01*
X57375322Y-13159624D01*
X57323100Y-13422160D01*
X57323100Y-13689840D01*
X57375322Y-13952376D01*
X57477759Y-14199680D01*
X57626474Y-14422248D01*
X57815752Y-14611526D01*
X58038320Y-14760241D01*
X58285624Y-14862678D01*
X58548160Y-14914900D01*
X58815840Y-14914900D01*
X59078376Y-14862678D01*
X59325680Y-14760241D01*
X59548248Y-14611526D01*
X59737526Y-14422248D01*
X59886241Y-14199680D01*
X59988678Y-13952376D01*
X60013807Y-13826043D01*
X60063624Y-13846678D01*
X60326160Y-13898900D01*
X60593840Y-13898900D01*
X60856376Y-13846678D01*
X61103680Y-13744241D01*
X61326248Y-13595526D01*
X61515526Y-13406248D01*
X61664241Y-13183680D01*
X61766678Y-12936376D01*
X61818900Y-12673840D01*
X61818900Y-12406160D01*
X61766678Y-12143624D01*
X61664241Y-11896320D01*
X61515526Y-11673752D01*
X61365774Y-11524000D01*
X61515526Y-11374248D01*
X61664241Y-11151680D01*
X61766678Y-10904376D01*
X61818900Y-10641840D01*
X61818900Y-10374160D01*
X61766678Y-10111624D01*
X61664241Y-9864320D01*
X61515526Y-9641752D01*
X61365774Y-9492000D01*
X61515526Y-9342248D01*
X61664241Y-9119680D01*
X61766678Y-8872376D01*
X61818900Y-8609840D01*
X61818900Y-8342160D01*
X61766678Y-8079624D01*
X61664241Y-7832320D01*
X61561896Y-7679150D01*
X61635085Y-7619085D01*
X61714437Y-7522394D01*
X61773402Y-7412080D01*
X61809712Y-7292382D01*
X61821972Y-7167900D01*
X61821972Y-5720100D01*
X61810598Y-5604616D01*
X61917173Y-5675827D01*
X62333198Y-5848150D01*
X62774849Y-5936000D01*
X63225151Y-5936000D01*
X63666802Y-5848150D01*
X64082827Y-5675827D01*
X64457240Y-5425652D01*
X64775652Y-5107240D01*
X65025827Y-4732827D01*
X65198150Y-4316802D01*
X65286000Y-3875151D01*
X65286000Y-3424849D01*
X65198150Y-2983198D01*
X65025827Y-2567173D01*
X64775652Y-2192760D01*
X64457240Y-1874348D01*
X64082827Y-1624173D01*
X63666802Y-1451850D01*
X63225151Y-1364000D01*
X62774849Y-1364000D01*
X62333198Y-1451850D01*
X61917173Y-1624173D01*
X61542760Y-1874348D01*
X61224348Y-2192760D01*
X60974173Y-2567173D01*
X60801850Y-2983198D01*
X60714000Y-3424849D01*
X60714000Y-3875151D01*
X60801850Y-4316802D01*
X60974173Y-4732827D01*
X61209164Y-5084516D01*
X61183900Y-5082028D01*
X59736100Y-5082028D01*
X59611618Y-5094288D01*
X59491920Y-5130598D01*
X59381606Y-5189563D01*
X59284915Y-5268915D01*
X59205563Y-5365606D01*
X59146598Y-5475920D01*
X59110288Y-5595618D01*
X59098028Y-5720100D01*
X59098028Y-6161462D01*
X59078376Y-6153322D01*
X58815840Y-6101100D01*
X58548160Y-6101100D01*
X58285624Y-6153322D01*
X58038320Y-6255759D01*
X57815752Y-6404474D01*
X57626474Y-6593752D01*
X57477759Y-6816320D01*
X57375322Y-7063624D01*
X57323100Y-7326160D01*
X42893157Y-7326160D01*
X42999853Y-7068574D01*
X43055000Y-6791335D01*
X43055000Y-6508665D01*
X42999853Y-6231426D01*
X42891680Y-5970273D01*
X42734637Y-5735241D01*
X42534759Y-5535363D01*
X42302241Y-5380000D01*
X42534759Y-5224637D01*
X42734637Y-5024759D01*
X42891680Y-4789727D01*
X42999853Y-4528574D01*
X43055000Y-4251335D01*
X43055000Y-3968665D01*
X42999853Y-3691426D01*
X42891680Y-3430273D01*
X42734637Y-3195241D01*
X42534759Y-2995363D01*
X42302241Y-2840000D01*
X42534759Y-2684637D01*
X42734637Y-2484759D01*
X42891680Y-2249727D01*
X42999853Y-1988574D01*
X43055000Y-1711335D01*
X43055000Y-1428665D01*
X42999853Y-1151426D01*
X42891680Y-890273D01*
X42734637Y-655241D01*
X42534759Y-455363D01*
X42302241Y-300000D01*
X42534759Y-144637D01*
X42734637Y55241D01*
X42891680Y290273D01*
X42999853Y551426D01*
X43055000Y828665D01*
X43055000Y1111335D01*
X42999853Y1388574D01*
X42891680Y1649727D01*
X42734637Y1884759D01*
X42534759Y2084637D01*
X42302241Y2240000D01*
X42534759Y2395363D01*
X42734637Y2595241D01*
X42891680Y2830273D01*
X42910269Y2875151D01*
X60714000Y2875151D01*
X60714000Y2424849D01*
X60801850Y1983198D01*
X60974173Y1567173D01*
X61224348Y1192760D01*
X61542760Y874348D01*
X61917173Y624173D01*
X62333198Y451850D01*
X62774849Y364000D01*
X63225151Y364000D01*
X63666802Y451850D01*
X64082827Y624173D01*
X64457240Y874348D01*
X64775652Y1192760D01*
X65025827Y1567173D01*
X65198150Y1983198D01*
X65286000Y2424849D01*
X65286000Y2875151D01*
X65198150Y3316802D01*
X65025827Y3732827D01*
X64775652Y4107240D01*
X64457240Y4425652D01*
X64082827Y4675827D01*
X63666802Y4848150D01*
X63225151Y4936000D01*
X62774849Y4936000D01*
X62333198Y4848150D01*
X61917173Y4675827D01*
X61542760Y4425652D01*
X61224348Y4107240D01*
X60974173Y3732827D01*
X60801850Y3316802D01*
X60714000Y2875151D01*
X42910269Y2875151D01*
X42999853Y3091426D01*
X43055000Y3368665D01*
X43055000Y3651335D01*
X42999853Y3928574D01*
X42891680Y4189727D01*
X42734637Y4424759D01*
X42534759Y4624637D01*
X42302241Y4780000D01*
X42534759Y4935363D01*
X42734637Y5135241D01*
X42891680Y5370273D01*
X42999853Y5631426D01*
X43055000Y5908665D01*
X43055000Y6191335D01*
X42999853Y6468574D01*
X42891680Y6729727D01*
X42734637Y6964759D01*
X42534759Y7164637D01*
X42302241Y7320000D01*
X42534759Y7475363D01*
X42734637Y7675241D01*
X42891680Y7910273D01*
X42999853Y8171426D01*
X43055000Y8448665D01*
X43055000Y8731335D01*
X42999853Y9008574D01*
X42891680Y9269727D01*
X42734637Y9504759D01*
X42534759Y9704637D01*
X42302241Y9860000D01*
X42534759Y10015363D01*
X42734637Y10215241D01*
X42891680Y10450273D01*
X42999853Y10711426D01*
X43055000Y10988665D01*
X43055000Y11271335D01*
X42999853Y11548574D01*
X42947967Y11673840D01*
X57323100Y11673840D01*
X57323100Y11406160D01*
X57375322Y11143624D01*
X57477759Y10896320D01*
X57626474Y10673752D01*
X57776226Y10524000D01*
X57626474Y10374248D01*
X57477759Y10151680D01*
X57375322Y9904376D01*
X57323100Y9641840D01*
X57323100Y9374160D01*
X57375322Y9111624D01*
X57477759Y8864320D01*
X57626474Y8641752D01*
X57776226Y8492000D01*
X57626474Y8342248D01*
X57477759Y8119680D01*
X57375322Y7872376D01*
X57323100Y7609840D01*
X57323100Y7342160D01*
X57375322Y7079624D01*
X57477759Y6832320D01*
X57626474Y6609752D01*
X57776226Y6460000D01*
X57626474Y6310248D01*
X57477759Y6087680D01*
X57375322Y5840376D01*
X57323100Y5577840D01*
X57323100Y5310160D01*
X57375322Y5047624D01*
X57477759Y4800320D01*
X57626474Y4577752D01*
X57815752Y4388474D01*
X58038320Y4239759D01*
X58285624Y4137322D01*
X58548160Y4085100D01*
X58815840Y4085100D01*
X59078376Y4137322D01*
X59325680Y4239759D01*
X59548248Y4388474D01*
X59737526Y4577752D01*
X59886241Y4800320D01*
X59988678Y5047624D01*
X60013807Y5173957D01*
X60063624Y5153322D01*
X60326160Y5101100D01*
X60593840Y5101100D01*
X60856376Y5153322D01*
X61103680Y5255759D01*
X61326248Y5404474D01*
X61515526Y5593752D01*
X61664241Y5816320D01*
X61766678Y6063624D01*
X61818900Y6326160D01*
X61818900Y6593840D01*
X61766678Y6856376D01*
X61664241Y7103680D01*
X61515526Y7326248D01*
X61365774Y7476000D01*
X61515526Y7625752D01*
X61664241Y7848320D01*
X61766678Y8095624D01*
X61818900Y8358160D01*
X61818900Y8625840D01*
X61766678Y8888376D01*
X61664241Y9135680D01*
X61515526Y9358248D01*
X61365774Y9508000D01*
X61515526Y9657752D01*
X61664241Y9880320D01*
X61766678Y10127624D01*
X61818900Y10390160D01*
X61818900Y10657840D01*
X61766678Y10920376D01*
X61664241Y11167680D01*
X61561896Y11320850D01*
X61635085Y11380915D01*
X61714437Y11477606D01*
X61773402Y11587920D01*
X61809712Y11707618D01*
X61821972Y11832100D01*
X61821972Y13279900D01*
X61810598Y13395384D01*
X61917173Y13324173D01*
X62333198Y13151850D01*
X62774849Y13064000D01*
X63225151Y13064000D01*
X63666802Y13151850D01*
X64082827Y13324173D01*
X64457240Y13574348D01*
X64775652Y13892760D01*
X65025827Y14267173D01*
X65198150Y14683198D01*
X65286000Y15124849D01*
X65286000Y15575151D01*
X65198150Y16016802D01*
X65025827Y16432827D01*
X64775652Y16807240D01*
X64457240Y17125652D01*
X64082827Y17375827D01*
X63666802Y17548150D01*
X63225151Y17636000D01*
X62774849Y17636000D01*
X62333198Y17548150D01*
X61917173Y17375827D01*
X61542760Y17125652D01*
X61224348Y16807240D01*
X60974173Y16432827D01*
X60801850Y16016802D01*
X60714000Y15575151D01*
X60714000Y15124849D01*
X60801850Y14683198D01*
X60974173Y14267173D01*
X61209164Y13915484D01*
X61183900Y13917972D01*
X59736100Y13917972D01*
X59611618Y13905712D01*
X59491920Y13869402D01*
X59381606Y13810437D01*
X59284915Y13731085D01*
X59205563Y13634394D01*
X59146598Y13524080D01*
X59110288Y13404382D01*
X59098028Y13279900D01*
X59098028Y12838538D01*
X59078376Y12846678D01*
X58815840Y12898900D01*
X58548160Y12898900D01*
X58285624Y12846678D01*
X58038320Y12744241D01*
X57815752Y12595526D01*
X57626474Y12406248D01*
X57477759Y12183680D01*
X57375322Y11936376D01*
X57323100Y11673840D01*
X42947967Y11673840D01*
X42891680Y11809727D01*
X42734637Y12044759D01*
X42534759Y12244637D01*
X42300872Y12400915D01*
X42361514Y12433329D01*
X42433097Y12677298D01*
X41620000Y13490395D01*
X40806903Y12677298D01*
X40878486Y12433329D01*
X40942992Y12402806D01*
X40940273Y12401680D01*
X40705241Y12244637D01*
X40505363Y12044759D01*
X40348320Y11809727D01*
X40240147Y11548574D01*
X40185000Y11271335D01*
X40185000Y10988665D01*
X40240147Y10711426D01*
X40348320Y10450273D01*
X40505363Y10215241D01*
X40705241Y10015363D01*
X40937759Y9860000D01*
X40705241Y9704637D01*
X40505363Y9504759D01*
X40348320Y9269727D01*
X40240147Y9008574D01*
X40185000Y8731335D01*
X40185000Y8448665D01*
X40240147Y8171426D01*
X40348320Y7910273D01*
X40505363Y7675241D01*
X40705241Y7475363D01*
X40937759Y7320000D01*
X40705241Y7164637D01*
X40505363Y6964759D01*
X40348320Y6729727D01*
X40240147Y6468574D01*
X40185000Y6191335D01*
X40185000Y5908665D01*
X40240147Y5631426D01*
X40348320Y5370273D01*
X40505363Y5135241D01*
X40705241Y4935363D01*
X40937759Y4780000D01*
X40705241Y4624637D01*
X40505363Y4424759D01*
X40372260Y4225556D01*
X40362137Y4244494D01*
X40282785Y4341185D01*
X40186094Y4420537D01*
X40075780Y4479502D01*
X39956082Y4515812D01*
X39831600Y4528072D01*
X38531600Y4528072D01*
X38407118Y4515812D01*
X38287420Y4479502D01*
X38177106Y4420537D01*
X38080415Y4341185D01*
X38001063Y4244494D01*
X37998470Y4239642D01*
X37790276Y4378753D01*
X37556421Y4475619D01*
X37308161Y4525000D01*
X37055039Y4525000D01*
X36806779Y4475619D01*
X36572924Y4378753D01*
X36362460Y4238125D01*
X36183475Y4059140D01*
X36181600Y4056334D01*
X36179725Y4059140D01*
X36000740Y4238125D01*
X35790276Y4378753D01*
X35556421Y4475619D01*
X35308161Y4525000D01*
X35055039Y4525000D01*
X34806779Y4475619D01*
X34572924Y4378753D01*
X34362460Y4238125D01*
X34183475Y4059140D01*
X34042847Y3848676D01*
X33945981Y3614821D01*
X33896600Y3366561D01*
X30384435Y3366561D01*
X30345559Y3405437D01*
X30113041Y3560800D01*
X30345559Y3716163D01*
X30545437Y3916041D01*
X30702480Y4151073D01*
X30810653Y4412226D01*
X30865800Y4689465D01*
X30865800Y4972135D01*
X30810653Y5249374D01*
X30702480Y5510527D01*
X30545437Y5745559D01*
X30345559Y5945437D01*
X30113041Y6100800D01*
X30345559Y6256163D01*
X30545437Y6456041D01*
X30702480Y6691073D01*
X30810653Y6952226D01*
X30865800Y7229465D01*
X30865800Y7512135D01*
X30810653Y7789374D01*
X30702480Y8050527D01*
X30545437Y8285559D01*
X30346839Y8484157D01*
X30355282Y8484988D01*
X30474980Y8521298D01*
X30585294Y8580263D01*
X30681985Y8659615D01*
X30761337Y8756306D01*
X30820302Y8866620D01*
X30856612Y8986318D01*
X30868872Y9110800D01*
X30868872Y10710800D01*
X30856612Y10835282D01*
X30820302Y10954980D01*
X30761337Y11065294D01*
X30681985Y11161985D01*
X30585294Y11241337D01*
X30474980Y11300302D01*
X30355282Y11336612D01*
X30230800Y11348872D01*
X28630800Y11348872D01*
X28506318Y11336612D01*
X28386620Y11300302D01*
X28276306Y11241337D01*
X28179615Y11161985D01*
X28100263Y11065294D01*
X28041298Y10954980D01*
X28004988Y10835282D01*
X27992728Y10710800D01*
X27759593Y10710800D01*
X27759853Y10711426D01*
X27815000Y10988665D01*
X27815000Y11271335D01*
X27759853Y11548574D01*
X27651680Y11809727D01*
X27494637Y12044759D01*
X27294759Y12244637D01*
X27062241Y12400000D01*
X27294759Y12555363D01*
X27494637Y12755241D01*
X27651680Y12990273D01*
X27759853Y13251426D01*
X27815000Y13528665D01*
X27815000Y13811335D01*
X37645000Y13811335D01*
X37645000Y13528665D01*
X37700147Y13251426D01*
X37808320Y12990273D01*
X37965363Y12755241D01*
X38165241Y12555363D01*
X38400273Y12398320D01*
X38661426Y12290147D01*
X38938665Y12235000D01*
X39221335Y12235000D01*
X39498574Y12290147D01*
X39759727Y12398320D01*
X39994759Y12555363D01*
X40194637Y12755241D01*
X40350915Y12989128D01*
X40383329Y12928486D01*
X40627298Y12856903D01*
X41440395Y13670000D01*
X41799605Y13670000D01*
X42612702Y12856903D01*
X42856671Y12928486D01*
X42977571Y13183996D01*
X43046300Y13458184D01*
X43060217Y13740512D01*
X43018787Y14020130D01*
X42923603Y14286292D01*
X42856671Y14411514D01*
X42612702Y14483097D01*
X41799605Y13670000D01*
X41440395Y13670000D01*
X40627298Y14483097D01*
X40383329Y14411514D01*
X40352806Y14347008D01*
X40351680Y14349727D01*
X40194637Y14584759D01*
X39994759Y14784637D01*
X39759727Y14941680D01*
X39498574Y15049853D01*
X39221335Y15105000D01*
X38938665Y15105000D01*
X38661426Y15049853D01*
X38400273Y14941680D01*
X38165241Y14784637D01*
X37965363Y14584759D01*
X37808320Y14349727D01*
X37700147Y14088574D01*
X37645000Y13811335D01*
X27815000Y13811335D01*
X27759853Y14088574D01*
X27651680Y14349727D01*
X27494637Y14584759D01*
X27296039Y14783357D01*
X27304482Y14784188D01*
X27424180Y14820498D01*
X27534494Y14879463D01*
X27631185Y14958815D01*
X27710537Y15055506D01*
X27769502Y15165820D01*
X27805812Y15285518D01*
X27818072Y15410000D01*
X27816898Y15606561D01*
X31445000Y15606561D01*
X31445000Y15353439D01*
X31494381Y15105179D01*
X31591247Y14871324D01*
X31731875Y14660860D01*
X31910860Y14481875D01*
X32121324Y14341247D01*
X32355179Y14244381D01*
X32603439Y14195000D01*
X32856561Y14195000D01*
X33104821Y14244381D01*
X33338676Y14341247D01*
X33549140Y14481875D01*
X33728125Y14660860D01*
X33868753Y14871324D01*
X33965619Y15105179D01*
X34000000Y15278027D01*
X34034381Y15105179D01*
X34131247Y14871324D01*
X34271875Y14660860D01*
X34450860Y14481875D01*
X34661324Y14341247D01*
X34895179Y14244381D01*
X35143439Y14195000D01*
X35396561Y14195000D01*
X35644821Y14244381D01*
X35878676Y14341247D01*
X36089140Y14481875D01*
X36268125Y14660860D01*
X36408753Y14871324D01*
X36505619Y15105179D01*
X36555000Y15353439D01*
X36555000Y15606561D01*
X36505619Y15854821D01*
X36408753Y16088676D01*
X36268125Y16299140D01*
X36215930Y16351335D01*
X40185000Y16351335D01*
X40185000Y16068665D01*
X40240147Y15791426D01*
X40348320Y15530273D01*
X40505363Y15295241D01*
X40705241Y15095363D01*
X40939128Y14939085D01*
X40878486Y14906671D01*
X40806903Y14662702D01*
X41620000Y13849605D01*
X42433097Y14662702D01*
X42361514Y14906671D01*
X42297008Y14937194D01*
X42299727Y14938320D01*
X42534759Y15095363D01*
X42734637Y15295241D01*
X42891680Y15530273D01*
X42999853Y15791426D01*
X43055000Y16068665D01*
X43055000Y16351335D01*
X42999853Y16628574D01*
X42891680Y16889727D01*
X42734637Y17124759D01*
X42534759Y17324637D01*
X42299727Y17481680D01*
X42038574Y17589853D01*
X41761335Y17645000D01*
X41478665Y17645000D01*
X41201426Y17589853D01*
X40940273Y17481680D01*
X40705241Y17324637D01*
X40505363Y17124759D01*
X40348320Y16889727D01*
X40240147Y16628574D01*
X40185000Y16351335D01*
X36215930Y16351335D01*
X36089140Y16478125D01*
X35878676Y16618753D01*
X35644821Y16715619D01*
X35396561Y16765000D01*
X35143439Y16765000D01*
X34895179Y16715619D01*
X34661324Y16618753D01*
X34450860Y16478125D01*
X34271875Y16299140D01*
X34131247Y16088676D01*
X34034381Y15854821D01*
X34000000Y15681973D01*
X33965619Y15854821D01*
X33868753Y16088676D01*
X33728125Y16299140D01*
X33549140Y16478125D01*
X33338676Y16618753D01*
X33104821Y16715619D01*
X32856561Y16765000D01*
X32603439Y16765000D01*
X32355179Y16715619D01*
X32121324Y16618753D01*
X31910860Y16478125D01*
X31731875Y16299140D01*
X31591247Y16088676D01*
X31494381Y15854821D01*
X31445000Y15606561D01*
X27816898Y15606561D01*
X27815000Y15924250D01*
X27656250Y16083000D01*
X26507000Y16083000D01*
X26507000Y16063000D01*
X26253000Y16063000D01*
X26253000Y16083000D01*
X25103750Y16083000D01*
X24945000Y15924250D01*
X24941928Y15410000D01*
X-4515294Y15410000D01*
X-4600171Y15651792D01*
X-4680353Y15801799D01*
X-4934707Y15885688D01*
X-5820395Y15000000D01*
X-6179605Y15000000D01*
X-7065293Y15885688D01*
X-7319647Y15801799D01*
X-7450714Y15528942D01*
X-7526030Y15235759D01*
X-7542703Y14933514D01*
X-19345950Y14933514D01*
X-19345950Y16065293D01*
X-6885688Y16065293D01*
X-6000000Y15179605D01*
X-5114312Y16065293D01*
X-5198201Y16319647D01*
X-5471058Y16450714D01*
X-5764241Y16526030D01*
X-6066486Y16542703D01*
X-6366175Y16500090D01*
X-6651792Y16399829D01*
X-6801799Y16319647D01*
X-6885688Y16065293D01*
X-19345950Y16065293D01*
X-19345950Y17010000D01*
X24941928Y17010000D01*
X24945000Y16495750D01*
X25103750Y16337000D01*
X26253000Y16337000D01*
X26253000Y17486250D01*
X26507000Y17486250D01*
X26507000Y16337000D01*
X27656250Y16337000D01*
X27815000Y16495750D01*
X27818072Y17010000D01*
X27805812Y17134482D01*
X27769502Y17254180D01*
X27710537Y17364494D01*
X27631185Y17461185D01*
X27534494Y17540537D01*
X27424180Y17599502D01*
X27304482Y17635812D01*
X27180000Y17648072D01*
X26665750Y17645000D01*
X26507000Y17486250D01*
X26253000Y17486250D01*
X26094250Y17645000D01*
X25580000Y17648072D01*
X25455518Y17635812D01*
X25335820Y17599502D01*
X25225506Y17540537D01*
X25128815Y17461185D01*
X25049463Y17364494D01*
X24990498Y17254180D01*
X24954188Y17134482D01*
X24941928Y17010000D01*
X-19345950Y17010000D01*
X-19345950Y22970868D01*
X-19318870Y23274299D01*
X-17785000Y23274299D01*
X-17785000Y22725701D01*
X-17677974Y22187646D01*
X-17468035Y21680808D01*
X-17163250Y21224666D01*
X-16775334Y20836750D01*
X-16319192Y20531965D01*
X-15812354Y20322026D01*
X-15274299Y20215000D01*
X-14725701Y20215000D01*
X-14187646Y20322026D01*
X-13680808Y20531965D01*
X-13224666Y20836750D01*
X-12836750Y21224666D01*
X-12531965Y21680808D01*
X-12322026Y22187646D01*
X-12215000Y22725701D01*
X-12215000Y23274299D01*
X69215000Y23274299D01*
X69215000Y22725701D01*
X69322026Y22187646D01*
X69531965Y21680808D01*
X69836750Y21224666D01*
X70224666Y20836750D01*
X70680808Y20531965D01*
X71187646Y20322026D01*
X71725701Y20215000D01*
X72274299Y20215000D01*
X72812354Y20322026D01*
X73319192Y20531965D01*
X73775334Y20836750D01*
X74163250Y21224666D01*
X74468035Y21680808D01*
X74677974Y22187646D01*
X74785000Y22725701D01*
X74785000Y23274299D01*
X74677974Y23812354D01*
X74468035Y24319192D01*
X74163250Y24775334D01*
X73775334Y25163250D01*
X73319192Y25468035D01*
X72812354Y25677974D01*
X72274299Y25785000D01*
X71725701Y25785000D01*
X71187646Y25677974D01*
X70680808Y25468035D01*
X70224666Y25163250D01*
X69836750Y24775334D01*
X69531965Y24319192D01*
X69322026Y23812354D01*
X69215000Y23274299D01*
X-12215000Y23274299D01*
X-12322026Y23812354D01*
X-12531965Y24319192D01*
X-12836750Y24775334D01*
X-13224666Y25163250D01*
X-13680808Y25468035D01*
X-14187646Y25677974D01*
X-14725701Y25785000D01*
X-15274299Y25785000D01*
X-15812354Y25677974D01*
X-16319192Y25468035D01*
X-16775334Y25163250D01*
X-17163250Y24775334D01*
X-17468035Y24319192D01*
X-17677974Y23812354D01*
X-17785000Y23274299D01*
X-19318870Y23274299D01*
X-19274706Y23769142D01*
X-19070943Y24513971D01*
X-18738503Y25210947D01*
X-18287895Y25838035D01*
X-17733361Y26375416D01*
X-17092423Y26806107D01*
X-16385355Y27116489D01*
X-15629464Y27297964D01*
X-14976011Y27345950D01*
X71970868Y27345950D01*
X72769142Y27274706D01*
G04 #@! TA.AperFunction,Conductor*
D22*
G36*
X72769142Y27274706D02*
G01*
X73513971Y27070943D01*
X74210947Y26738503D01*
X74838035Y26287895D01*
X75375416Y25733361D01*
X75806107Y25092423D01*
X76116489Y24385355D01*
X76297964Y23629464D01*
X76345951Y22975998D01*
X76345950Y-60970868D01*
X76274706Y-61769142D01*
X76070944Y-62513970D01*
X75738503Y-63210947D01*
X75287895Y-63838035D01*
X74733361Y-64375416D01*
X74092425Y-64806106D01*
X73385355Y-65116489D01*
X72629458Y-65297964D01*
X71976011Y-65345950D01*
X-14970868Y-65345950D01*
X-15769142Y-65274706D01*
X-16513970Y-65070944D01*
X-17210947Y-64738503D01*
X-17838035Y-64287895D01*
X-18375416Y-63733361D01*
X-18806106Y-63092425D01*
X-19116489Y-62385355D01*
X-19297964Y-61629458D01*
X-19345950Y-60976011D01*
X-19345950Y-60725701D01*
X-17785000Y-60725701D01*
X-17785000Y-61274299D01*
X-17677974Y-61812354D01*
X-17468035Y-62319192D01*
X-17163250Y-62775334D01*
X-16775334Y-63163250D01*
X-16319192Y-63468035D01*
X-15812354Y-63677974D01*
X-15274299Y-63785000D01*
X-14725701Y-63785000D01*
X-14187646Y-63677974D01*
X-13680808Y-63468035D01*
X-13224666Y-63163250D01*
X-12836750Y-62775334D01*
X-12531965Y-62319192D01*
X-12322026Y-61812354D01*
X-12215000Y-61274299D01*
X-12215000Y-60725701D01*
X69215000Y-60725701D01*
X69215000Y-61274299D01*
X69322026Y-61812354D01*
X69531965Y-62319192D01*
X69836750Y-62775334D01*
X70224666Y-63163250D01*
X70680808Y-63468035D01*
X71187646Y-63677974D01*
X71725701Y-63785000D01*
X72274299Y-63785000D01*
X72812354Y-63677974D01*
X73319192Y-63468035D01*
X73775334Y-63163250D01*
X74163250Y-62775334D01*
X74468035Y-62319192D01*
X74677974Y-61812354D01*
X74785000Y-61274299D01*
X74785000Y-60725701D01*
X74677974Y-60187646D01*
X74468035Y-59680808D01*
X74163250Y-59224666D01*
X73775334Y-58836750D01*
X73319192Y-58531965D01*
X72812354Y-58322026D01*
X72274299Y-58215000D01*
X71725701Y-58215000D01*
X71187646Y-58322026D01*
X70680808Y-58531965D01*
X70224666Y-58836750D01*
X69836750Y-59224666D01*
X69531965Y-59680808D01*
X69322026Y-60187646D01*
X69215000Y-60725701D01*
X-12215000Y-60725701D01*
X-12322026Y-60187646D01*
X-12531965Y-59680808D01*
X-12836750Y-59224666D01*
X-13224666Y-58836750D01*
X-13680808Y-58531965D01*
X-14187646Y-58322026D01*
X-14725701Y-58215000D01*
X-15274299Y-58215000D01*
X-15812354Y-58322026D01*
X-16319192Y-58531965D01*
X-16775334Y-58836750D01*
X-17163250Y-59224666D01*
X-17468035Y-59680808D01*
X-17677974Y-60187646D01*
X-17785000Y-60725701D01*
X-19345950Y-60725701D01*
X-19345950Y-54124849D01*
X60714000Y-54124849D01*
X60714000Y-54575151D01*
X60801850Y-55016802D01*
X60974173Y-55432827D01*
X61224348Y-55807240D01*
X61542760Y-56125652D01*
X61917173Y-56375827D01*
X62333198Y-56548150D01*
X62774849Y-56636000D01*
X63225151Y-56636000D01*
X63666802Y-56548150D01*
X64082827Y-56375827D01*
X64457240Y-56125652D01*
X64775652Y-55807240D01*
X65025827Y-55432827D01*
X65198150Y-55016802D01*
X65286000Y-54575151D01*
X65286000Y-54124849D01*
X65198150Y-53683198D01*
X65025827Y-53267173D01*
X64775652Y-52892760D01*
X64457240Y-52574348D01*
X64082827Y-52324173D01*
X63666802Y-52151850D01*
X63225151Y-52064000D01*
X62774849Y-52064000D01*
X62333198Y-52151850D01*
X61917173Y-52324173D01*
X61542760Y-52574348D01*
X61224348Y-52892760D01*
X60974173Y-53267173D01*
X60801850Y-53683198D01*
X60714000Y-54124849D01*
X-19345950Y-54124849D01*
X-19345950Y-51848648D01*
X-7536700Y-51848648D01*
X-7536700Y-52151352D01*
X-7477645Y-52448239D01*
X-7361805Y-52727900D01*
X-7193632Y-52979589D01*
X-6979589Y-53193632D01*
X-6727900Y-53361805D01*
X-6448239Y-53477645D01*
X-6151352Y-53536700D01*
X-5848648Y-53536700D01*
X-5551761Y-53477645D01*
X-5272100Y-53361805D01*
X-5020411Y-53193632D01*
X-4806368Y-52979589D01*
X-4638195Y-52727900D01*
X-4522355Y-52448239D01*
X-4463300Y-52151352D01*
X-4463300Y-51848648D01*
X-4522355Y-51551761D01*
X-4638195Y-51272100D01*
X-4806368Y-51020411D01*
X-5020411Y-50806368D01*
X-5272100Y-50638195D01*
X-5551761Y-50522355D01*
X-5848648Y-50463300D01*
X-6151352Y-50463300D01*
X-6448239Y-50522355D01*
X-6727900Y-50638195D01*
X-6979589Y-50806368D01*
X-7193632Y-51020411D01*
X-7361805Y-51272100D01*
X-7477645Y-51551761D01*
X-7536700Y-51848648D01*
X-19345950Y-51848648D01*
X-19345950Y-50065293D01*
X5114312Y-50065293D01*
X5198201Y-50319647D01*
X5471058Y-50450714D01*
X5764241Y-50526030D01*
X6066486Y-50542703D01*
X6366175Y-50500090D01*
X6651792Y-50399829D01*
X6801799Y-50319647D01*
X6885688Y-50065293D01*
X6000000Y-49179605D01*
X5114312Y-50065293D01*
X-19345950Y-50065293D01*
X-19345950Y-49066486D01*
X4457297Y-49066486D01*
X4499910Y-49366175D01*
X4600171Y-49651792D01*
X4680353Y-49801799D01*
X4934707Y-49885688D01*
X5820395Y-49000000D01*
X6179605Y-49000000D01*
X7065293Y-49885688D01*
X7319647Y-49801799D01*
X7450714Y-49528942D01*
X7526030Y-49235759D01*
X7542703Y-48933514D01*
X7530636Y-48848648D01*
X9463300Y-48848648D01*
X9463300Y-49151352D01*
X9522355Y-49448239D01*
X9638195Y-49727900D01*
X9806368Y-49979589D01*
X10020411Y-50193632D01*
X10272100Y-50361805D01*
X10551761Y-50477645D01*
X10848648Y-50536700D01*
X11151352Y-50536700D01*
X11448239Y-50477645D01*
X11727900Y-50361805D01*
X11979589Y-50193632D01*
X12193632Y-49979589D01*
X12361805Y-49727900D01*
X12477645Y-49448239D01*
X12536700Y-49151352D01*
X12536700Y-48848648D01*
X14463300Y-48848648D01*
X14463300Y-49151352D01*
X14522355Y-49448239D01*
X14638195Y-49727900D01*
X14806368Y-49979589D01*
X15020411Y-50193632D01*
X15272100Y-50361805D01*
X15551761Y-50477645D01*
X15848648Y-50536700D01*
X16151352Y-50536700D01*
X16448239Y-50477645D01*
X16727900Y-50361805D01*
X16979589Y-50193632D01*
X17193632Y-49979589D01*
X17361805Y-49727900D01*
X17477645Y-49448239D01*
X17536700Y-49151352D01*
X17536700Y-48848648D01*
X17477645Y-48551761D01*
X17361805Y-48272100D01*
X17193632Y-48020411D01*
X16979589Y-47806368D01*
X16727900Y-47638195D01*
X16448239Y-47522355D01*
X16151352Y-47463300D01*
X15848648Y-47463300D01*
X15551761Y-47522355D01*
X15272100Y-47638195D01*
X15020411Y-47806368D01*
X14806368Y-48020411D01*
X14638195Y-48272100D01*
X14522355Y-48551761D01*
X14463300Y-48848648D01*
X12536700Y-48848648D01*
X12477645Y-48551761D01*
X12361805Y-48272100D01*
X12193632Y-48020411D01*
X11979589Y-47806368D01*
X11727900Y-47638195D01*
X11448239Y-47522355D01*
X11151352Y-47463300D01*
X10848648Y-47463300D01*
X10551761Y-47522355D01*
X10272100Y-47638195D01*
X10020411Y-47806368D01*
X9806368Y-48020411D01*
X9638195Y-48272100D01*
X9522355Y-48551761D01*
X9463300Y-48848648D01*
X7530636Y-48848648D01*
X7500090Y-48633825D01*
X7399829Y-48348208D01*
X7319647Y-48198201D01*
X7065293Y-48114312D01*
X6179605Y-49000000D01*
X5820395Y-49000000D01*
X4934707Y-48114312D01*
X4680353Y-48198201D01*
X4549286Y-48471058D01*
X4473970Y-48764241D01*
X4457297Y-49066486D01*
X-19345950Y-49066486D01*
X-19345950Y-46848648D01*
X-7536700Y-46848648D01*
X-7536700Y-47151352D01*
X-7477645Y-47448239D01*
X-7361805Y-47727900D01*
X-7193632Y-47979589D01*
X-6979589Y-48193632D01*
X-6727900Y-48361805D01*
X-6448239Y-48477645D01*
X-6151352Y-48536700D01*
X-5848648Y-48536700D01*
X-5551761Y-48477645D01*
X-5272100Y-48361805D01*
X-5020411Y-48193632D01*
X-4806368Y-47979589D01*
X-4776379Y-47934707D01*
X5114312Y-47934707D01*
X6000000Y-48820395D01*
X6885688Y-47934707D01*
X6801799Y-47680353D01*
X6528942Y-47549286D01*
X6235759Y-47473970D01*
X5933514Y-47457297D01*
X5633825Y-47499910D01*
X5348208Y-47600171D01*
X5198201Y-47680353D01*
X5114312Y-47934707D01*
X-4776379Y-47934707D01*
X-4638195Y-47727900D01*
X-4522355Y-47448239D01*
X-4463300Y-47151352D01*
X-4463300Y-46848648D01*
X-4522355Y-46551761D01*
X-4638195Y-46272100D01*
X-4806368Y-46020411D01*
X-5020411Y-45806368D01*
X-5272100Y-45638195D01*
X-5551761Y-45522355D01*
X-5848648Y-45463300D01*
X-6151352Y-45463300D01*
X-6448239Y-45522355D01*
X-6727900Y-45638195D01*
X-6979589Y-45806368D01*
X-7193632Y-46020411D01*
X-7361805Y-46272100D01*
X-7477645Y-46551761D01*
X-7536700Y-46848648D01*
X-19345950Y-46848648D01*
X-19345950Y-45326160D01*
X57323100Y-45326160D01*
X57323100Y-45593840D01*
X57375322Y-45856376D01*
X57477759Y-46103680D01*
X57626474Y-46326248D01*
X57776226Y-46476000D01*
X57626474Y-46625752D01*
X57477759Y-46848320D01*
X57375322Y-47095624D01*
X57323100Y-47358160D01*
X57323100Y-47625840D01*
X57375322Y-47888376D01*
X57477759Y-48135680D01*
X57626474Y-48358248D01*
X57776226Y-48508000D01*
X57626474Y-48657752D01*
X57477759Y-48880320D01*
X57375322Y-49127624D01*
X57323100Y-49390160D01*
X57323100Y-49657840D01*
X57375322Y-49920376D01*
X57477759Y-50167680D01*
X57626474Y-50390248D01*
X57776226Y-50540000D01*
X57626474Y-50689752D01*
X57477759Y-50912320D01*
X57375322Y-51159624D01*
X57323100Y-51422160D01*
X57323100Y-51689840D01*
X57375322Y-51952376D01*
X57477759Y-52199680D01*
X57626474Y-52422248D01*
X57815752Y-52611526D01*
X58038320Y-52760241D01*
X58285624Y-52862678D01*
X58548160Y-52914900D01*
X58815840Y-52914900D01*
X59078376Y-52862678D01*
X59325680Y-52760241D01*
X59548248Y-52611526D01*
X59737526Y-52422248D01*
X59886241Y-52199680D01*
X59988678Y-51952376D01*
X60013807Y-51826043D01*
X60063624Y-51846678D01*
X60326160Y-51898900D01*
X60593840Y-51898900D01*
X60856376Y-51846678D01*
X61103680Y-51744241D01*
X61326248Y-51595526D01*
X61515526Y-51406248D01*
X61664241Y-51183680D01*
X61766678Y-50936376D01*
X61818900Y-50673840D01*
X61818900Y-50406160D01*
X61766678Y-50143624D01*
X61664241Y-49896320D01*
X61515526Y-49673752D01*
X61365774Y-49524000D01*
X61515526Y-49374248D01*
X61664241Y-49151680D01*
X61766678Y-48904376D01*
X61818900Y-48641840D01*
X61818900Y-48374160D01*
X61766678Y-48111624D01*
X61664241Y-47864320D01*
X61515526Y-47641752D01*
X61365774Y-47492000D01*
X61515526Y-47342248D01*
X61664241Y-47119680D01*
X61766678Y-46872376D01*
X61818900Y-46609840D01*
X61818900Y-46342160D01*
X61766678Y-46079624D01*
X61664241Y-45832320D01*
X61561896Y-45679150D01*
X61635085Y-45619085D01*
X61714437Y-45522394D01*
X61773402Y-45412080D01*
X61809712Y-45292382D01*
X61821972Y-45167900D01*
X61821972Y-43720100D01*
X61810598Y-43604616D01*
X61917173Y-43675827D01*
X62333198Y-43848150D01*
X62774849Y-43936000D01*
X63225151Y-43936000D01*
X63666802Y-43848150D01*
X64082827Y-43675827D01*
X64457240Y-43425652D01*
X64775652Y-43107240D01*
X65025827Y-42732827D01*
X65198150Y-42316802D01*
X65286000Y-41875151D01*
X65286000Y-41424849D01*
X65198150Y-40983198D01*
X65025827Y-40567173D01*
X64775652Y-40192760D01*
X64457240Y-39874348D01*
X64082827Y-39624173D01*
X63666802Y-39451850D01*
X63225151Y-39364000D01*
X62774849Y-39364000D01*
X62333198Y-39451850D01*
X61917173Y-39624173D01*
X61542760Y-39874348D01*
X61224348Y-40192760D01*
X60974173Y-40567173D01*
X60801850Y-40983198D01*
X60714000Y-41424849D01*
X60714000Y-41875151D01*
X60801850Y-42316802D01*
X60974173Y-42732827D01*
X61209164Y-43084516D01*
X61183900Y-43082028D01*
X59736100Y-43082028D01*
X59611618Y-43094288D01*
X59491920Y-43130598D01*
X59381606Y-43189563D01*
X59284915Y-43268915D01*
X59205563Y-43365606D01*
X59146598Y-43475920D01*
X59110288Y-43595618D01*
X59098028Y-43720100D01*
X59098028Y-44161462D01*
X59078376Y-44153322D01*
X58815840Y-44101100D01*
X58548160Y-44101100D01*
X58285624Y-44153322D01*
X58038320Y-44255759D01*
X57815752Y-44404474D01*
X57626474Y-44593752D01*
X57477759Y-44816320D01*
X57375322Y-45063624D01*
X57323100Y-45326160D01*
X-19345950Y-45326160D01*
X-19345950Y-43065293D01*
X-6885688Y-43065293D01*
X-6801799Y-43319647D01*
X-6528942Y-43450714D01*
X-6235759Y-43526030D01*
X-5933514Y-43542703D01*
X-5633825Y-43500090D01*
X-5348208Y-43399829D01*
X-5198201Y-43319647D01*
X-5114312Y-43065293D01*
X-6000000Y-42179605D01*
X-6885688Y-43065293D01*
X-19345950Y-43065293D01*
X-19345950Y-42066486D01*
X-7542703Y-42066486D01*
X-7500090Y-42366175D01*
X-7399829Y-42651792D01*
X-7319647Y-42801799D01*
X-7065293Y-42885688D01*
X-6179605Y-42000000D01*
X-5820395Y-42000000D01*
X-4934707Y-42885688D01*
X-4680353Y-42801799D01*
X-4549286Y-42528942D01*
X-4473970Y-42235759D01*
X-4457297Y-41933514D01*
X-4499910Y-41633825D01*
X-4600171Y-41348208D01*
X-4680353Y-41198201D01*
X-4934707Y-41114312D01*
X-5820395Y-42000000D01*
X-6179605Y-42000000D01*
X-7065293Y-41114312D01*
X-7319647Y-41198201D01*
X-7450714Y-41471058D01*
X-7526030Y-41764241D01*
X-7542703Y-42066486D01*
X-19345950Y-42066486D01*
X-19345950Y-40934707D01*
X-6885688Y-40934707D01*
X-6000000Y-41820395D01*
X-5114312Y-40934707D01*
X-5198201Y-40680353D01*
X-5471058Y-40549286D01*
X-5764241Y-40473970D01*
X-6066486Y-40457297D01*
X-6366175Y-40499910D01*
X-6651792Y-40600171D01*
X-6801799Y-40680353D01*
X-6885688Y-40934707D01*
X-19345950Y-40934707D01*
X-19345950Y-38853740D01*
X8975000Y-38853740D01*
X8975000Y-39146260D01*
X9032068Y-39433158D01*
X9144010Y-39703411D01*
X9306525Y-39946632D01*
X9513368Y-40153475D01*
X9756589Y-40315990D01*
X10026842Y-40427932D01*
X10313740Y-40485000D01*
X10606260Y-40485000D01*
X10893158Y-40427932D01*
X11163411Y-40315990D01*
X11406632Y-40153475D01*
X11538487Y-40021620D01*
X11560498Y-40094180D01*
X11619463Y-40204494D01*
X11698815Y-40301185D01*
X11795506Y-40380537D01*
X11905820Y-40439502D01*
X12025518Y-40475812D01*
X12150000Y-40488072D01*
X13850000Y-40488072D01*
X13974482Y-40475812D01*
X14094180Y-40439502D01*
X14204494Y-40380537D01*
X14301185Y-40301185D01*
X14380537Y-40204494D01*
X14439502Y-40094180D01*
X14475812Y-39974482D01*
X14488072Y-39850000D01*
X14488072Y-38150000D01*
X14475812Y-38025518D01*
X14439502Y-37905820D01*
X14380537Y-37795506D01*
X14301185Y-37698815D01*
X14204494Y-37619463D01*
X14094180Y-37560498D01*
X13974482Y-37524188D01*
X13850000Y-37511928D01*
X12150000Y-37511928D01*
X12025518Y-37524188D01*
X11905820Y-37560498D01*
X11795506Y-37619463D01*
X11698815Y-37698815D01*
X11619463Y-37795506D01*
X11560498Y-37905820D01*
X11538487Y-37978380D01*
X11406632Y-37846525D01*
X11163411Y-37684010D01*
X10893158Y-37572068D01*
X10606260Y-37515000D01*
X10313740Y-37515000D01*
X10026842Y-37572068D01*
X9756589Y-37684010D01*
X9513368Y-37846525D01*
X9306525Y-38053368D01*
X9144010Y-38296589D01*
X9032068Y-38566842D01*
X8975000Y-38853740D01*
X-19345950Y-38853740D01*
X-19345950Y-32848648D01*
X-7536700Y-32848648D01*
X-7536700Y-33151352D01*
X-7477645Y-33448239D01*
X-7361805Y-33727900D01*
X-7193632Y-33979589D01*
X-6979589Y-34193632D01*
X-6727900Y-34361805D01*
X-6448239Y-34477645D01*
X-6151352Y-34536700D01*
X-5848648Y-34536700D01*
X-5551761Y-34477645D01*
X-5272100Y-34361805D01*
X-5020411Y-34193632D01*
X-4806368Y-33979589D01*
X-4638195Y-33727900D01*
X-4522355Y-33448239D01*
X-4463300Y-33151352D01*
X-4463300Y-32848648D01*
X-4522355Y-32551761D01*
X-4638195Y-32272100D01*
X-4806368Y-32020411D01*
X-5020411Y-31806368D01*
X-5272100Y-31638195D01*
X-5551761Y-31522355D01*
X-5848648Y-31463300D01*
X-6151352Y-31463300D01*
X-6448239Y-31522355D01*
X-6727900Y-31638195D01*
X-6979589Y-31806368D01*
X-7193632Y-32020411D01*
X-7361805Y-32272100D01*
X-7477645Y-32551761D01*
X-7536700Y-32848648D01*
X-19345950Y-32848648D01*
X-19345950Y-27848648D01*
X-7536700Y-27848648D01*
X-7536700Y-28151352D01*
X-7477645Y-28448239D01*
X-7361805Y-28727900D01*
X-7193632Y-28979589D01*
X-6979589Y-29193632D01*
X-6727900Y-29361805D01*
X-6448239Y-29477645D01*
X-6151352Y-29536700D01*
X-5848648Y-29536700D01*
X-5551761Y-29477645D01*
X-5272100Y-29361805D01*
X-5020411Y-29193632D01*
X-4806368Y-28979589D01*
X-4638195Y-28727900D01*
X-4522355Y-28448239D01*
X-4463300Y-28151352D01*
X-4463300Y-27848648D01*
X-4522355Y-27551761D01*
X-4638195Y-27272100D01*
X-4806368Y-27020411D01*
X-5020411Y-26806368D01*
X-5272100Y-26638195D01*
X-5551761Y-26522355D01*
X-5848648Y-26463300D01*
X-6151352Y-26463300D01*
X-6448239Y-26522355D01*
X-6727900Y-26638195D01*
X-6979589Y-26806368D01*
X-7193632Y-27020411D01*
X-7361805Y-27272100D01*
X-7477645Y-27551761D01*
X-7536700Y-27848648D01*
X-19345950Y-27848648D01*
X-19345950Y-24065293D01*
X-6885688Y-24065293D01*
X-6801799Y-24319647D01*
X-6528942Y-24450714D01*
X-6235759Y-24526030D01*
X-5933514Y-24542703D01*
X-5633825Y-24500090D01*
X-5348208Y-24399829D01*
X-5198201Y-24319647D01*
X-5114312Y-24065293D01*
X-6000000Y-23179605D01*
X-6885688Y-24065293D01*
X-19345950Y-24065293D01*
X-19345950Y-23066486D01*
X-7542703Y-23066486D01*
X-7500090Y-23366175D01*
X-7399829Y-23651792D01*
X-7319647Y-23801799D01*
X-7065293Y-23885688D01*
X-6179605Y-23000000D01*
X-5820395Y-23000000D01*
X-4934707Y-23885688D01*
X-4680353Y-23801799D01*
X-4549286Y-23528942D01*
X-4473970Y-23235759D01*
X-4457297Y-22933514D01*
X-4499910Y-22633825D01*
X-4600171Y-22348208D01*
X-4680353Y-22198201D01*
X-4934707Y-22114312D01*
X-5820395Y-23000000D01*
X-6179605Y-23000000D01*
X-7065293Y-22114312D01*
X-7319647Y-22198201D01*
X-7450714Y-22471058D01*
X-7526030Y-22764241D01*
X-7542703Y-23066486D01*
X-19345950Y-23066486D01*
X-19345950Y-21934707D01*
X-6885688Y-21934707D01*
X-6000000Y-22820395D01*
X-5114312Y-21934707D01*
X-5198201Y-21680353D01*
X-5471058Y-21549286D01*
X-5764241Y-21473970D01*
X-6066486Y-21457297D01*
X-6366175Y-21499910D01*
X-6651792Y-21600171D01*
X-6801799Y-21680353D01*
X-6885688Y-21934707D01*
X-19345950Y-21934707D01*
X-19345950Y-13848648D01*
X-7536700Y-13848648D01*
X-7536700Y-14151352D01*
X-7477645Y-14448239D01*
X-7361805Y-14727900D01*
X-7193632Y-14979589D01*
X-6979589Y-15193632D01*
X-6727900Y-15361805D01*
X-6448239Y-15477645D01*
X-6151352Y-15536700D01*
X-5848648Y-15536700D01*
X-5551761Y-15477645D01*
X-5272100Y-15361805D01*
X-5020411Y-15193632D01*
X-4806368Y-14979589D01*
X-4638195Y-14727900D01*
X-4522355Y-14448239D01*
X-4463300Y-14151352D01*
X-4463300Y-13848648D01*
X-4522355Y-13551761D01*
X-4638195Y-13272100D01*
X-4806368Y-13020411D01*
X-5020411Y-12806368D01*
X-5272100Y-12638195D01*
X-5551761Y-12522355D01*
X-5848648Y-12463300D01*
X-6151352Y-12463300D01*
X-6448239Y-12522355D01*
X-6727900Y-12638195D01*
X-6979589Y-12806368D01*
X-7193632Y-13020411D01*
X-7361805Y-13272100D01*
X-7477645Y-13551761D01*
X-7536700Y-13848648D01*
X-19345950Y-13848648D01*
X-19345950Y-8848648D01*
X-7536700Y-8848648D01*
X-7536700Y-9151352D01*
X-7477645Y-9448239D01*
X-7361805Y-9727900D01*
X-7193632Y-9979589D01*
X-6979589Y-10193632D01*
X-6727900Y-10361805D01*
X-6448239Y-10477645D01*
X-6151352Y-10536700D01*
X-5848648Y-10536700D01*
X-5551761Y-10477645D01*
X-5272100Y-10361805D01*
X-5020411Y-10193632D01*
X-4806368Y-9979589D01*
X-4638195Y-9727900D01*
X-4522355Y-9448239D01*
X-4463300Y-9151352D01*
X-4463300Y-8848648D01*
X-4522355Y-8551761D01*
X-4638195Y-8272100D01*
X-4806368Y-8020411D01*
X-5020411Y-7806368D01*
X-5272100Y-7638195D01*
X-5551761Y-7522355D01*
X-5848648Y-7463300D01*
X-6151352Y-7463300D01*
X-6448239Y-7522355D01*
X-6727900Y-7638195D01*
X-6979589Y-7806368D01*
X-7193632Y-8020411D01*
X-7361805Y-8272100D01*
X-7477645Y-8551761D01*
X-7536700Y-8848648D01*
X-19345950Y-8848648D01*
X-19345950Y-5065293D01*
X-6885688Y-5065293D01*
X-6801799Y-5319647D01*
X-6528942Y-5450714D01*
X-6235759Y-5526030D01*
X-5933514Y-5542703D01*
X-5633825Y-5500090D01*
X-5348208Y-5399829D01*
X-5198201Y-5319647D01*
X-5114312Y-5065293D01*
X-6000000Y-4179605D01*
X-6885688Y-5065293D01*
X-19345950Y-5065293D01*
X-19345950Y-4066486D01*
X-7542703Y-4066486D01*
X-7500090Y-4366175D01*
X-7399829Y-4651792D01*
X-7319647Y-4801799D01*
X-7065293Y-4885688D01*
X-6179605Y-4000000D01*
X-5820395Y-4000000D01*
X-4934707Y-4885688D01*
X-4680353Y-4801799D01*
X-4549286Y-4528942D01*
X-4473970Y-4235759D01*
X-4457297Y-3933514D01*
X-4499910Y-3633825D01*
X-4600171Y-3348208D01*
X-4680353Y-3198201D01*
X-4934707Y-3114312D01*
X-5820395Y-4000000D01*
X-6179605Y-4000000D01*
X-7065293Y-3114312D01*
X-7319647Y-3198201D01*
X-7450714Y-3471058D01*
X-7526030Y-3764241D01*
X-7542703Y-4066486D01*
X-19345950Y-4066486D01*
X-19345950Y-2934707D01*
X-6885688Y-2934707D01*
X-6000000Y-3820395D01*
X-5114312Y-2934707D01*
X-5198201Y-2680353D01*
X-5471058Y-2549286D01*
X-5764241Y-2473970D01*
X-6066486Y-2457297D01*
X-6366175Y-2499910D01*
X-6651792Y-2600171D01*
X-6801799Y-2680353D01*
X-6885688Y-2934707D01*
X-19345950Y-2934707D01*
X-19345950Y5151352D01*
X-7536700Y5151352D01*
X-7536700Y4848648D01*
X-7477645Y4551761D01*
X-7361805Y4272100D01*
X-7193632Y4020411D01*
X-6979589Y3806368D01*
X-6727900Y3638195D01*
X-6448239Y3522355D01*
X-6151352Y3463300D01*
X-5848648Y3463300D01*
X-5551761Y3522355D01*
X-5272100Y3638195D01*
X-5020411Y3806368D01*
X-4806368Y4020411D01*
X-4638195Y4272100D01*
X-4522355Y4551761D01*
X-4463300Y4848648D01*
X-4463300Y5151352D01*
X-4522355Y5448239D01*
X-4638195Y5727900D01*
X-4806368Y5979589D01*
X-5020411Y6193632D01*
X-5272100Y6361805D01*
X-5551761Y6477645D01*
X-5848648Y6536700D01*
X-6151352Y6536700D01*
X-6448239Y6477645D01*
X-6727900Y6361805D01*
X-6979589Y6193632D01*
X-7193632Y5979589D01*
X-7361805Y5727900D01*
X-7477645Y5448239D01*
X-7536700Y5151352D01*
X-19345950Y5151352D01*
X-19345950Y10151352D01*
X-7536700Y10151352D01*
X-7536700Y9848648D01*
X-7477645Y9551761D01*
X-7361805Y9272100D01*
X-7193632Y9020411D01*
X-6979589Y8806368D01*
X-6727900Y8638195D01*
X-6448239Y8522355D01*
X-6151352Y8463300D01*
X-5848648Y8463300D01*
X-5678093Y8497226D01*
X-3835000Y6654131D01*
X-3834999Y427406D01*
X-3899068Y272729D01*
X-3935000Y92089D01*
X-3935000Y-92089D01*
X-3899068Y-272729D01*
X-3828586Y-442889D01*
X-3726262Y-596028D01*
X-3596028Y-726262D01*
X-3442889Y-828586D01*
X-3272729Y-899068D01*
X-3092089Y-935000D01*
X-2907911Y-935000D01*
X-2727271Y-899068D01*
X-2557111Y-828586D01*
X-2403972Y-726262D01*
X-2273738Y-596028D01*
X-2171414Y-442889D01*
X-2100932Y-272729D01*
X-2065000Y-92089D01*
X-2065000Y92089D01*
X-2100932Y272729D01*
X-2165000Y427404D01*
X-2165000Y6958982D01*
X-2160960Y7000000D01*
X-2177082Y7163688D01*
X-2183644Y7185322D01*
X-2224828Y7321087D01*
X-2302364Y7466146D01*
X-2406709Y7593291D01*
X-2438567Y7619436D01*
X-4497226Y9678093D01*
X-4463300Y9848648D01*
X-4463300Y10151352D01*
X-4522355Y10448239D01*
X-4638195Y10727900D01*
X-4806368Y10979589D01*
X-5020411Y11193632D01*
X-5272100Y11361805D01*
X-5551761Y11477645D01*
X-5848648Y11536700D01*
X-6151352Y11536700D01*
X-6448239Y11477645D01*
X-6727900Y11361805D01*
X-6979589Y11193632D01*
X-7193632Y10979589D01*
X-7361805Y10727900D01*
X-7477645Y10448239D01*
X-7536700Y10151352D01*
X-19345950Y10151352D01*
X-19345950Y12151352D01*
X6463300Y12151352D01*
X6463300Y11848648D01*
X6522355Y11551761D01*
X6638195Y11272100D01*
X6806368Y11020411D01*
X7020411Y10806368D01*
X7272100Y10638195D01*
X7551761Y10522355D01*
X7848648Y10463300D01*
X8151352Y10463300D01*
X8448239Y10522355D01*
X8727900Y10638195D01*
X8979589Y10806368D01*
X9107928Y10934707D01*
X12114312Y10934707D01*
X12198201Y10680353D01*
X12471058Y10549286D01*
X12764241Y10473970D01*
X13066486Y10457297D01*
X13366175Y10499910D01*
X13651792Y10600171D01*
X13801799Y10680353D01*
X13885688Y10934707D01*
X13000000Y11820395D01*
X12114312Y10934707D01*
X9107928Y10934707D01*
X9193632Y11020411D01*
X9361805Y11272100D01*
X9477645Y11551761D01*
X9536700Y11848648D01*
X9536700Y11933514D01*
X11457297Y11933514D01*
X11499910Y11633825D01*
X11600171Y11348208D01*
X11680353Y11198201D01*
X11934707Y11114312D01*
X12820395Y12000000D01*
X13179605Y12000000D01*
X14065293Y11114312D01*
X14319647Y11198201D01*
X14450714Y11471058D01*
X14526030Y11764241D01*
X14542703Y12066486D01*
X14500090Y12366175D01*
X14399829Y12651792D01*
X14319647Y12801799D01*
X14065293Y12885688D01*
X13179605Y12000000D01*
X12820395Y12000000D01*
X11934707Y12885688D01*
X11680353Y12801799D01*
X11549286Y12528942D01*
X11473970Y12235759D01*
X11457297Y11933514D01*
X9536700Y11933514D01*
X9536700Y12151352D01*
X9477645Y12448239D01*
X9361805Y12727900D01*
X9193632Y12979589D01*
X9107928Y13065293D01*
X12114312Y13065293D01*
X13000000Y12179605D01*
X13885688Y13065293D01*
X13801799Y13319647D01*
X13528942Y13450714D01*
X13235759Y13526030D01*
X12933514Y13542703D01*
X12633825Y13500090D01*
X12348208Y13399829D01*
X12198201Y13319647D01*
X12114312Y13065293D01*
X9107928Y13065293D01*
X8979589Y13193632D01*
X8727900Y13361805D01*
X8448239Y13477645D01*
X8151352Y13536700D01*
X7848648Y13536700D01*
X7551761Y13477645D01*
X7272100Y13361805D01*
X7020411Y13193632D01*
X6806368Y12979589D01*
X6638195Y12727900D01*
X6522355Y12448239D01*
X6463300Y12151352D01*
X-19345950Y12151352D01*
X-19345950Y13934707D01*
X-6885688Y13934707D01*
X-6801799Y13680353D01*
X-6528942Y13549286D01*
X-6235759Y13473970D01*
X-5933514Y13457297D01*
X-5633825Y13499910D01*
X-5348208Y13600171D01*
X-5198201Y13680353D01*
X-5114312Y13934707D01*
X-6000000Y14820395D01*
X-6885688Y13934707D01*
X-19345950Y13934707D01*
X-19345950Y14933514D01*
X-7542703Y14933514D01*
X-7500090Y14633825D01*
X-7399829Y14348208D01*
X-7319647Y14198201D01*
X-7065293Y14114312D01*
X-6179605Y15000000D01*
X-5820395Y15000000D01*
X-4934707Y14114312D01*
X-4680353Y14198201D01*
X-4549286Y14471058D01*
X-4473970Y14764241D01*
X-4457297Y15066486D01*
X-4499910Y15366175D01*
X-4515294Y15410000D01*
X24941928Y15410000D01*
X24954188Y15285518D01*
X24990498Y15165820D01*
X25049463Y15055506D01*
X25128815Y14958815D01*
X25225506Y14879463D01*
X25335820Y14820498D01*
X25455518Y14784188D01*
X25463961Y14783357D01*
X25265363Y14584759D01*
X25108320Y14349727D01*
X25000147Y14088574D01*
X24945000Y13811335D01*
X24945000Y13528665D01*
X25000147Y13251426D01*
X25108320Y12990273D01*
X25265363Y12755241D01*
X25465241Y12555363D01*
X25697759Y12400000D01*
X25465241Y12244637D01*
X25265363Y12044759D01*
X25108320Y11809727D01*
X25000147Y11548574D01*
X24945000Y11271335D01*
X24945000Y10988665D01*
X25000147Y10711426D01*
X25108320Y10450273D01*
X25265363Y10215241D01*
X25465241Y10015363D01*
X25697759Y9860000D01*
X25465241Y9704637D01*
X25265363Y9504759D01*
X25108320Y9269727D01*
X25000147Y9008574D01*
X24945000Y8731335D01*
X24945000Y8448665D01*
X25000147Y8171426D01*
X25108320Y7910273D01*
X25265363Y7675241D01*
X25465241Y7475363D01*
X25697759Y7320000D01*
X25465241Y7164637D01*
X25265363Y6964759D01*
X25108320Y6729727D01*
X25000147Y6468574D01*
X24945000Y6191335D01*
X24945000Y5908665D01*
X25000147Y5631426D01*
X25108320Y5370273D01*
X25265363Y5135241D01*
X25465241Y4935363D01*
X25697759Y4780000D01*
X25465241Y4624637D01*
X25265363Y4424759D01*
X25108320Y4189727D01*
X25000147Y3928574D01*
X24945000Y3651335D01*
X24945000Y3368665D01*
X25000147Y3091426D01*
X25108320Y2830273D01*
X25265363Y2595241D01*
X25465241Y2395363D01*
X25697759Y2240000D01*
X25465241Y2084637D01*
X25265363Y1884759D01*
X25108320Y1649727D01*
X25000147Y1388574D01*
X24945000Y1111335D01*
X24945000Y828665D01*
X25000147Y551426D01*
X25108320Y290273D01*
X25265363Y55241D01*
X25465241Y-144637D01*
X25697759Y-300000D01*
X25465241Y-455363D01*
X25265363Y-655241D01*
X25108320Y-890273D01*
X25000147Y-1151426D01*
X24945000Y-1428665D01*
X24945000Y-1711335D01*
X25000147Y-1988574D01*
X25108320Y-2249727D01*
X25265363Y-2484759D01*
X25465241Y-2684637D01*
X25697759Y-2840000D01*
X25465241Y-2995363D01*
X25265363Y-3195241D01*
X25108320Y-3430273D01*
X25000147Y-3691426D01*
X24945000Y-3968665D01*
X24945000Y-4251335D01*
X25000147Y-4528574D01*
X25108320Y-4789727D01*
X25265363Y-5024759D01*
X25465241Y-5224637D01*
X25697759Y-5380000D01*
X25465241Y-5535363D01*
X25265363Y-5735241D01*
X25108320Y-5970273D01*
X25000147Y-6231426D01*
X24945000Y-6508665D01*
X24945000Y-6791335D01*
X25000147Y-7068574D01*
X25108320Y-7329727D01*
X25265363Y-7564759D01*
X25465241Y-7764637D01*
X25697759Y-7920000D01*
X25465241Y-8075363D01*
X25265363Y-8275241D01*
X25108320Y-8510273D01*
X25000147Y-8771426D01*
X24945000Y-9048665D01*
X24945000Y-9331335D01*
X25000147Y-9608574D01*
X25108320Y-9869727D01*
X25265363Y-10104759D01*
X25465241Y-10304637D01*
X25697759Y-10460000D01*
X25465241Y-10615363D01*
X25265363Y-10815241D01*
X25108320Y-11050273D01*
X25000147Y-11311426D01*
X24945000Y-11588665D01*
X24945000Y-11871335D01*
X25000147Y-12148574D01*
X25108320Y-12409727D01*
X25265363Y-12644759D01*
X25465241Y-12844637D01*
X25697759Y-13000000D01*
X25465241Y-13155363D01*
X25265363Y-13355241D01*
X25108320Y-13590273D01*
X25000147Y-13851426D01*
X24945000Y-14128665D01*
X24945000Y-14411335D01*
X25000147Y-14688574D01*
X25108320Y-14949727D01*
X25265363Y-15184759D01*
X25465241Y-15384637D01*
X25697759Y-15540000D01*
X25465241Y-15695363D01*
X25265363Y-15895241D01*
X25108320Y-16130273D01*
X25000147Y-16391426D01*
X24945000Y-16668665D01*
X24945000Y-16951335D01*
X25000147Y-17228574D01*
X25108320Y-17489727D01*
X25265363Y-17724759D01*
X25465241Y-17924637D01*
X25697759Y-18080000D01*
X25465241Y-18235363D01*
X25265363Y-18435241D01*
X25108320Y-18670273D01*
X25000147Y-18931426D01*
X24945000Y-19208665D01*
X24945000Y-19491335D01*
X25000147Y-19768574D01*
X25108320Y-20029727D01*
X25265363Y-20264759D01*
X25465241Y-20464637D01*
X25697759Y-20620000D01*
X25465241Y-20775363D01*
X25265363Y-20975241D01*
X25108320Y-21210273D01*
X25000147Y-21471426D01*
X24945000Y-21748665D01*
X24945000Y-22031335D01*
X25000147Y-22308574D01*
X25108320Y-22569727D01*
X25265363Y-22804759D01*
X25465241Y-23004637D01*
X25697759Y-23160000D01*
X25465241Y-23315363D01*
X25265363Y-23515241D01*
X25108320Y-23750273D01*
X25000147Y-24011426D01*
X24945000Y-24288665D01*
X24945000Y-24571335D01*
X25000147Y-24848574D01*
X25108320Y-25109727D01*
X25265363Y-25344759D01*
X25465241Y-25544637D01*
X25697759Y-25700000D01*
X25465241Y-25855363D01*
X25265363Y-26055241D01*
X25108320Y-26290273D01*
X25000147Y-26551426D01*
X24945000Y-26828665D01*
X24945000Y-27111335D01*
X25000147Y-27388574D01*
X25108320Y-27649727D01*
X25265363Y-27884759D01*
X25465241Y-28084637D01*
X25697759Y-28240000D01*
X25465241Y-28395363D01*
X25265363Y-28595241D01*
X25108320Y-28830273D01*
X25000147Y-29091426D01*
X24945000Y-29368665D01*
X24945000Y-29651335D01*
X25000147Y-29928574D01*
X25108320Y-30189727D01*
X25265363Y-30424759D01*
X25465241Y-30624637D01*
X25697759Y-30780000D01*
X25465241Y-30935363D01*
X25265363Y-31135241D01*
X25108320Y-31370273D01*
X25000147Y-31631426D01*
X24945000Y-31908665D01*
X24945000Y-32191335D01*
X25000147Y-32468574D01*
X25108320Y-32729727D01*
X25265363Y-32964759D01*
X25465241Y-33164637D01*
X25697759Y-33320000D01*
X25465241Y-33475363D01*
X25265363Y-33675241D01*
X25108320Y-33910273D01*
X25000147Y-34171426D01*
X24945000Y-34448665D01*
X24945000Y-34731335D01*
X25000147Y-35008574D01*
X25108320Y-35269727D01*
X25265363Y-35504759D01*
X25465241Y-35704637D01*
X25697759Y-35860000D01*
X25465241Y-36015363D01*
X25265363Y-36215241D01*
X25108320Y-36450273D01*
X25000147Y-36711426D01*
X24945000Y-36988665D01*
X24945000Y-37271335D01*
X25000147Y-37548574D01*
X25108320Y-37809727D01*
X25265363Y-38044759D01*
X25465241Y-38244637D01*
X25697759Y-38400000D01*
X25465241Y-38555363D01*
X25265363Y-38755241D01*
X25108320Y-38990273D01*
X25000147Y-39251426D01*
X24945000Y-39528665D01*
X24945000Y-39811335D01*
X25000147Y-40088574D01*
X25108320Y-40349727D01*
X25265363Y-40584759D01*
X25465241Y-40784637D01*
X25697759Y-40940000D01*
X25465241Y-41095363D01*
X25265363Y-41295241D01*
X25108320Y-41530273D01*
X25000147Y-41791426D01*
X24945000Y-42068665D01*
X24945000Y-42351335D01*
X25000147Y-42628574D01*
X25108320Y-42889727D01*
X25265363Y-43124759D01*
X25465241Y-43324637D01*
X25700273Y-43481680D01*
X25961426Y-43589853D01*
X26238665Y-43645000D01*
X26521335Y-43645000D01*
X26798574Y-43589853D01*
X27059727Y-43481680D01*
X27294759Y-43324637D01*
X27494637Y-43124759D01*
X27651680Y-42889727D01*
X27759853Y-42628574D01*
X27815000Y-42351335D01*
X27815000Y-42068665D01*
X27759853Y-41791426D01*
X27651680Y-41530273D01*
X27494637Y-41295241D01*
X27294759Y-41095363D01*
X27062241Y-40940000D01*
X27294759Y-40784637D01*
X27494637Y-40584759D01*
X27651680Y-40349727D01*
X27759853Y-40088574D01*
X27815000Y-39811335D01*
X27815000Y-39528665D01*
X27759853Y-39251426D01*
X27651680Y-38990273D01*
X27494637Y-38755241D01*
X27294759Y-38555363D01*
X27062241Y-38400000D01*
X27294759Y-38244637D01*
X27494637Y-38044759D01*
X27651680Y-37809727D01*
X27759853Y-37548574D01*
X27815000Y-37271335D01*
X27815000Y-36988665D01*
X27759853Y-36711426D01*
X27651680Y-36450273D01*
X27494637Y-36215241D01*
X27294759Y-36015363D01*
X27062241Y-35860000D01*
X27294759Y-35704637D01*
X27494637Y-35504759D01*
X27651680Y-35269727D01*
X27759853Y-35008574D01*
X27815000Y-34731335D01*
X27815000Y-34448665D01*
X27759853Y-34171426D01*
X27651680Y-33910273D01*
X27494637Y-33675241D01*
X27294759Y-33475363D01*
X27062241Y-33320000D01*
X27294759Y-33164637D01*
X27494637Y-32964759D01*
X27651680Y-32729727D01*
X27759853Y-32468574D01*
X27815000Y-32191335D01*
X27815000Y-31908665D01*
X27759853Y-31631426D01*
X27651680Y-31370273D01*
X27494637Y-31135241D01*
X27294759Y-30935363D01*
X27062241Y-30780000D01*
X27294759Y-30624637D01*
X27494637Y-30424759D01*
X27650000Y-30192241D01*
X27805363Y-30424759D01*
X28005241Y-30624637D01*
X28240273Y-30781680D01*
X28501426Y-30889853D01*
X28778665Y-30945000D01*
X29061335Y-30945000D01*
X29338574Y-30889853D01*
X29599727Y-30781680D01*
X29834759Y-30624637D01*
X30034637Y-30424759D01*
X30190000Y-30192241D01*
X30345363Y-30424759D01*
X30545241Y-30624637D01*
X30780273Y-30781680D01*
X31041426Y-30889853D01*
X31318665Y-30945000D01*
X31601335Y-30945000D01*
X31878574Y-30889853D01*
X32139727Y-30781680D01*
X32374759Y-30624637D01*
X32574637Y-30424759D01*
X32730000Y-30192241D01*
X32885363Y-30424759D01*
X33085241Y-30624637D01*
X33320273Y-30781680D01*
X33581426Y-30889853D01*
X33858665Y-30945000D01*
X34141335Y-30945000D01*
X34418574Y-30889853D01*
X34679727Y-30781680D01*
X34914759Y-30624637D01*
X35114637Y-30424759D01*
X35270000Y-30192241D01*
X35425363Y-30424759D01*
X35625241Y-30624637D01*
X35860273Y-30781680D01*
X36121426Y-30889853D01*
X36398665Y-30945000D01*
X36681335Y-30945000D01*
X36958574Y-30889853D01*
X37219727Y-30781680D01*
X37454759Y-30624637D01*
X37654637Y-30424759D01*
X37810000Y-30192241D01*
X37965363Y-30424759D01*
X38165241Y-30624637D01*
X38400273Y-30781680D01*
X38661426Y-30889853D01*
X38938665Y-30945000D01*
X39221335Y-30945000D01*
X39498574Y-30889853D01*
X39759727Y-30781680D01*
X39994759Y-30624637D01*
X40194637Y-30424759D01*
X40350000Y-30192241D01*
X40505363Y-30424759D01*
X40705241Y-30624637D01*
X40937759Y-30780000D01*
X40705241Y-30935363D01*
X40505363Y-31135241D01*
X40348320Y-31370273D01*
X40240147Y-31631426D01*
X40185000Y-31908665D01*
X40185000Y-32191335D01*
X40240147Y-32468574D01*
X40348320Y-32729727D01*
X40505363Y-32964759D01*
X40705241Y-33164637D01*
X40937759Y-33320000D01*
X40705241Y-33475363D01*
X40505363Y-33675241D01*
X40348320Y-33910273D01*
X40240147Y-34171426D01*
X40185000Y-34448665D01*
X40185000Y-34731335D01*
X40240147Y-35008574D01*
X40348320Y-35269727D01*
X40505363Y-35504759D01*
X40705241Y-35704637D01*
X40937759Y-35860000D01*
X40705241Y-36015363D01*
X40505363Y-36215241D01*
X40348320Y-36450273D01*
X40240147Y-36711426D01*
X40185000Y-36988665D01*
X40185000Y-37271335D01*
X40240147Y-37548574D01*
X40348320Y-37809727D01*
X40505363Y-38044759D01*
X40705241Y-38244637D01*
X40937759Y-38400000D01*
X40705241Y-38555363D01*
X40505363Y-38755241D01*
X40348320Y-38990273D01*
X40240147Y-39251426D01*
X40185000Y-39528665D01*
X40185000Y-39811335D01*
X40240147Y-40088574D01*
X40348320Y-40349727D01*
X40505363Y-40584759D01*
X40705241Y-40784637D01*
X40937759Y-40940000D01*
X40705241Y-41095363D01*
X40505363Y-41295241D01*
X40348320Y-41530273D01*
X40240147Y-41791426D01*
X40185000Y-42068665D01*
X40185000Y-42351335D01*
X40240147Y-42628574D01*
X40348320Y-42889727D01*
X40505363Y-43124759D01*
X40705241Y-43324637D01*
X40940273Y-43481680D01*
X41201426Y-43589853D01*
X41478665Y-43645000D01*
X41761335Y-43645000D01*
X42038574Y-43589853D01*
X42299727Y-43481680D01*
X42534759Y-43324637D01*
X42734637Y-43124759D01*
X42891680Y-42889727D01*
X42999853Y-42628574D01*
X43055000Y-42351335D01*
X43055000Y-42068665D01*
X42999853Y-41791426D01*
X42891680Y-41530273D01*
X42734637Y-41295241D01*
X42534759Y-41095363D01*
X42302241Y-40940000D01*
X42534759Y-40784637D01*
X42734637Y-40584759D01*
X42891680Y-40349727D01*
X42999853Y-40088574D01*
X43055000Y-39811335D01*
X43055000Y-39528665D01*
X42999853Y-39251426D01*
X42891680Y-38990273D01*
X42734637Y-38755241D01*
X42534759Y-38555363D01*
X42302241Y-38400000D01*
X42534759Y-38244637D01*
X42734637Y-38044759D01*
X42891680Y-37809727D01*
X42999853Y-37548574D01*
X43055000Y-37271335D01*
X43055000Y-36988665D01*
X42999853Y-36711426D01*
X42891680Y-36450273D01*
X42734637Y-36215241D01*
X42534759Y-36015363D01*
X42302241Y-35860000D01*
X42534759Y-35704637D01*
X42734637Y-35504759D01*
X42891680Y-35269727D01*
X42951690Y-35124849D01*
X60714000Y-35124849D01*
X60714000Y-35575151D01*
X60801850Y-36016802D01*
X60974173Y-36432827D01*
X61224348Y-36807240D01*
X61542760Y-37125652D01*
X61917173Y-37375827D01*
X62333198Y-37548150D01*
X62774849Y-37636000D01*
X63225151Y-37636000D01*
X63666802Y-37548150D01*
X64082827Y-37375827D01*
X64457240Y-37125652D01*
X64775652Y-36807240D01*
X65025827Y-36432827D01*
X65198150Y-36016802D01*
X65286000Y-35575151D01*
X65286000Y-35124849D01*
X65198150Y-34683198D01*
X65025827Y-34267173D01*
X64775652Y-33892760D01*
X64457240Y-33574348D01*
X64082827Y-33324173D01*
X63666802Y-33151850D01*
X63225151Y-33064000D01*
X62774849Y-33064000D01*
X62333198Y-33151850D01*
X61917173Y-33324173D01*
X61542760Y-33574348D01*
X61224348Y-33892760D01*
X60974173Y-34267173D01*
X60801850Y-34683198D01*
X60714000Y-35124849D01*
X42951690Y-35124849D01*
X42999853Y-35008574D01*
X43055000Y-34731335D01*
X43055000Y-34448665D01*
X42999853Y-34171426D01*
X42891680Y-33910273D01*
X42734637Y-33675241D01*
X42534759Y-33475363D01*
X42302241Y-33320000D01*
X42534759Y-33164637D01*
X42734637Y-32964759D01*
X42891680Y-32729727D01*
X42999853Y-32468574D01*
X43055000Y-32191335D01*
X43055000Y-31908665D01*
X42999853Y-31631426D01*
X42891680Y-31370273D01*
X42734637Y-31135241D01*
X42534759Y-30935363D01*
X42302241Y-30780000D01*
X42534759Y-30624637D01*
X42734637Y-30424759D01*
X42891680Y-30189727D01*
X42999853Y-29928574D01*
X43055000Y-29651335D01*
X43055000Y-29368665D01*
X42999853Y-29091426D01*
X42891680Y-28830273D01*
X42734637Y-28595241D01*
X42534759Y-28395363D01*
X42302241Y-28240000D01*
X42534759Y-28084637D01*
X42734637Y-27884759D01*
X42891680Y-27649727D01*
X42999853Y-27388574D01*
X43055000Y-27111335D01*
X43055000Y-26828665D01*
X42999853Y-26551426D01*
X42906545Y-26326160D01*
X57323100Y-26326160D01*
X57323100Y-26593840D01*
X57375322Y-26856376D01*
X57477759Y-27103680D01*
X57626474Y-27326248D01*
X57776226Y-27476000D01*
X57626474Y-27625752D01*
X57477759Y-27848320D01*
X57375322Y-28095624D01*
X57323100Y-28358160D01*
X57323100Y-28625840D01*
X57375322Y-28888376D01*
X57477759Y-29135680D01*
X57626474Y-29358248D01*
X57776226Y-29508000D01*
X57626474Y-29657752D01*
X57477759Y-29880320D01*
X57375322Y-30127624D01*
X57323100Y-30390160D01*
X57323100Y-30657840D01*
X57375322Y-30920376D01*
X57477759Y-31167680D01*
X57626474Y-31390248D01*
X57776226Y-31540000D01*
X57626474Y-31689752D01*
X57477759Y-31912320D01*
X57375322Y-32159624D01*
X57323100Y-32422160D01*
X57323100Y-32689840D01*
X57375322Y-32952376D01*
X57477759Y-33199680D01*
X57626474Y-33422248D01*
X57815752Y-33611526D01*
X58038320Y-33760241D01*
X58285624Y-33862678D01*
X58548160Y-33914900D01*
X58815840Y-33914900D01*
X59078376Y-33862678D01*
X59325680Y-33760241D01*
X59548248Y-33611526D01*
X59737526Y-33422248D01*
X59886241Y-33199680D01*
X59988678Y-32952376D01*
X60013807Y-32826043D01*
X60063624Y-32846678D01*
X60326160Y-32898900D01*
X60593840Y-32898900D01*
X60856376Y-32846678D01*
X61103680Y-32744241D01*
X61326248Y-32595526D01*
X61515526Y-32406248D01*
X61664241Y-32183680D01*
X61766678Y-31936376D01*
X61818900Y-31673840D01*
X61818900Y-31406160D01*
X61766678Y-31143624D01*
X61664241Y-30896320D01*
X61515526Y-30673752D01*
X61365774Y-30524000D01*
X61515526Y-30374248D01*
X61664241Y-30151680D01*
X61766678Y-29904376D01*
X61818900Y-29641840D01*
X61818900Y-29374160D01*
X61766678Y-29111624D01*
X61664241Y-28864320D01*
X61515526Y-28641752D01*
X61365774Y-28492000D01*
X61515526Y-28342248D01*
X61664241Y-28119680D01*
X61766678Y-27872376D01*
X61818900Y-27609840D01*
X61818900Y-27342160D01*
X61766678Y-27079624D01*
X61664241Y-26832320D01*
X61561896Y-26679150D01*
X61635085Y-26619085D01*
X61714437Y-26522394D01*
X61773402Y-26412080D01*
X61809712Y-26292382D01*
X61821972Y-26167900D01*
X61821972Y-24720100D01*
X61810598Y-24604616D01*
X61917173Y-24675827D01*
X62333198Y-24848150D01*
X62774849Y-24936000D01*
X63225151Y-24936000D01*
X63666802Y-24848150D01*
X64082827Y-24675827D01*
X64457240Y-24425652D01*
X64775652Y-24107240D01*
X65025827Y-23732827D01*
X65198150Y-23316802D01*
X65286000Y-22875151D01*
X65286000Y-22424849D01*
X65198150Y-21983198D01*
X65025827Y-21567173D01*
X64775652Y-21192760D01*
X64457240Y-20874348D01*
X64082827Y-20624173D01*
X63666802Y-20451850D01*
X63225151Y-20364000D01*
X62774849Y-20364000D01*
X62333198Y-20451850D01*
X61917173Y-20624173D01*
X61542760Y-20874348D01*
X61224348Y-21192760D01*
X60974173Y-21567173D01*
X60801850Y-21983198D01*
X60714000Y-22424849D01*
X60714000Y-22875151D01*
X60801850Y-23316802D01*
X60974173Y-23732827D01*
X61209164Y-24084516D01*
X61183900Y-24082028D01*
X59736100Y-24082028D01*
X59611618Y-24094288D01*
X59491920Y-24130598D01*
X59381606Y-24189563D01*
X59284915Y-24268915D01*
X59205563Y-24365606D01*
X59146598Y-24475920D01*
X59110288Y-24595618D01*
X59098028Y-24720100D01*
X59098028Y-25161462D01*
X59078376Y-25153322D01*
X58815840Y-25101100D01*
X58548160Y-25101100D01*
X58285624Y-25153322D01*
X58038320Y-25255759D01*
X57815752Y-25404474D01*
X57626474Y-25593752D01*
X57477759Y-25816320D01*
X57375322Y-26063624D01*
X57323100Y-26326160D01*
X42906545Y-26326160D01*
X42891680Y-26290273D01*
X42734637Y-26055241D01*
X42534759Y-25855363D01*
X42302241Y-25700000D01*
X42534759Y-25544637D01*
X42734637Y-25344759D01*
X42891680Y-25109727D01*
X42999853Y-24848574D01*
X43055000Y-24571335D01*
X43055000Y-24288665D01*
X42999853Y-24011426D01*
X42891680Y-23750273D01*
X42734637Y-23515241D01*
X42534759Y-23315363D01*
X42302241Y-23160000D01*
X42534759Y-23004637D01*
X42734637Y-22804759D01*
X42891680Y-22569727D01*
X42999853Y-22308574D01*
X43055000Y-22031335D01*
X43055000Y-21748665D01*
X42999853Y-21471426D01*
X42891680Y-21210273D01*
X42734637Y-20975241D01*
X42534759Y-20775363D01*
X42300872Y-20619085D01*
X42361514Y-20586671D01*
X42433097Y-20342702D01*
X41620000Y-19529605D01*
X40806903Y-20342702D01*
X40878486Y-20586671D01*
X40942992Y-20617194D01*
X40940273Y-20618320D01*
X40705241Y-20775363D01*
X40505363Y-20975241D01*
X40348320Y-21210273D01*
X40240147Y-21471426D01*
X40185000Y-21748665D01*
X40185000Y-22031335D01*
X40240147Y-22308574D01*
X40348320Y-22569727D01*
X40505363Y-22804759D01*
X40705241Y-23004637D01*
X40937759Y-23160000D01*
X40705241Y-23315363D01*
X40505363Y-23515241D01*
X40348320Y-23750273D01*
X40240147Y-24011426D01*
X40185000Y-24288665D01*
X40185000Y-24571335D01*
X40240147Y-24848574D01*
X40348320Y-25109727D01*
X40505363Y-25344759D01*
X40705241Y-25544637D01*
X40937759Y-25700000D01*
X40705241Y-25855363D01*
X40505363Y-26055241D01*
X40348320Y-26290273D01*
X40240147Y-26551426D01*
X40185000Y-26828665D01*
X40185000Y-27111335D01*
X40240147Y-27388574D01*
X40348320Y-27649727D01*
X40505363Y-27884759D01*
X40705241Y-28084637D01*
X40937759Y-28240000D01*
X40705241Y-28395363D01*
X40505363Y-28595241D01*
X40350000Y-28827759D01*
X40194637Y-28595241D01*
X39994759Y-28395363D01*
X39759727Y-28238320D01*
X39498574Y-28130147D01*
X39221335Y-28075000D01*
X38938665Y-28075000D01*
X38661426Y-28130147D01*
X38400273Y-28238320D01*
X38165241Y-28395363D01*
X37965363Y-28595241D01*
X37810000Y-28827759D01*
X37654637Y-28595241D01*
X37454759Y-28395363D01*
X37219727Y-28238320D01*
X36958574Y-28130147D01*
X36681335Y-28075000D01*
X36398665Y-28075000D01*
X36121426Y-28130147D01*
X35860273Y-28238320D01*
X35625241Y-28395363D01*
X35425363Y-28595241D01*
X35270000Y-28827759D01*
X35114637Y-28595241D01*
X34914759Y-28395363D01*
X34679727Y-28238320D01*
X34418574Y-28130147D01*
X34141335Y-28075000D01*
X33858665Y-28075000D01*
X33581426Y-28130147D01*
X33320273Y-28238320D01*
X33085241Y-28395363D01*
X32885363Y-28595241D01*
X32730000Y-28827759D01*
X32574637Y-28595241D01*
X32374759Y-28395363D01*
X32139727Y-28238320D01*
X31878574Y-28130147D01*
X31601335Y-28075000D01*
X31318665Y-28075000D01*
X31041426Y-28130147D01*
X30780273Y-28238320D01*
X30545241Y-28395363D01*
X30345363Y-28595241D01*
X30190000Y-28827759D01*
X30034637Y-28595241D01*
X29834759Y-28395363D01*
X29599727Y-28238320D01*
X29338574Y-28130147D01*
X29061335Y-28075000D01*
X28778665Y-28075000D01*
X28501426Y-28130147D01*
X28240273Y-28238320D01*
X28005241Y-28395363D01*
X27805363Y-28595241D01*
X27650000Y-28827759D01*
X27494637Y-28595241D01*
X27294759Y-28395363D01*
X27062241Y-28240000D01*
X27294759Y-28084637D01*
X27494637Y-27884759D01*
X27651680Y-27649727D01*
X27759853Y-27388574D01*
X27815000Y-27111335D01*
X27815000Y-26828665D01*
X27759853Y-26551426D01*
X27651680Y-26290273D01*
X27494637Y-26055241D01*
X27294759Y-25855363D01*
X27062241Y-25700000D01*
X27294759Y-25544637D01*
X27494637Y-25344759D01*
X27651680Y-25109727D01*
X27759853Y-24848574D01*
X27815000Y-24571335D01*
X27815000Y-24288665D01*
X27759853Y-24011426D01*
X27651680Y-23750273D01*
X27494637Y-23515241D01*
X27294759Y-23315363D01*
X27062241Y-23160000D01*
X27294759Y-23004637D01*
X27494637Y-22804759D01*
X27651680Y-22569727D01*
X27759853Y-22308574D01*
X27815000Y-22031335D01*
X27815000Y-21748665D01*
X27759853Y-21471426D01*
X27651680Y-21210273D01*
X27494637Y-20975241D01*
X27294759Y-20775363D01*
X27062241Y-20620000D01*
X27294759Y-20464637D01*
X27494637Y-20264759D01*
X27651680Y-20029727D01*
X27759853Y-19768574D01*
X27815000Y-19491335D01*
X27815000Y-19420512D01*
X40179783Y-19420512D01*
X40221213Y-19700130D01*
X40316397Y-19966292D01*
X40383329Y-20091514D01*
X40627298Y-20163097D01*
X41440395Y-19350000D01*
X41799605Y-19350000D01*
X42612702Y-20163097D01*
X42856671Y-20091514D01*
X42977571Y-19836004D01*
X43046300Y-19561816D01*
X43060217Y-19279488D01*
X43018787Y-18999870D01*
X42923603Y-18733708D01*
X42856671Y-18608486D01*
X42612702Y-18536903D01*
X41799605Y-19350000D01*
X41440395Y-19350000D01*
X40627298Y-18536903D01*
X40383329Y-18608486D01*
X40262429Y-18863996D01*
X40193700Y-19138184D01*
X40179783Y-19420512D01*
X27815000Y-19420512D01*
X27815000Y-19208665D01*
X27759853Y-18931426D01*
X27651680Y-18670273D01*
X27494637Y-18435241D01*
X27294759Y-18235363D01*
X27062241Y-18080000D01*
X27294759Y-17924637D01*
X27494637Y-17724759D01*
X27651680Y-17489727D01*
X27759853Y-17228574D01*
X27815000Y-16951335D01*
X27815000Y-16668665D01*
X27759853Y-16391426D01*
X27651680Y-16130273D01*
X27494637Y-15895241D01*
X27294759Y-15695363D01*
X27062241Y-15540000D01*
X27294759Y-15384637D01*
X27494637Y-15184759D01*
X27651680Y-14949727D01*
X27759853Y-14688574D01*
X27815000Y-14411335D01*
X27815000Y-14128665D01*
X27759853Y-13851426D01*
X27651680Y-13590273D01*
X27494637Y-13355241D01*
X27294759Y-13155363D01*
X27062241Y-13000000D01*
X27294759Y-12844637D01*
X27494637Y-12644759D01*
X27651680Y-12409727D01*
X27759853Y-12148574D01*
X27815000Y-11871335D01*
X27815000Y-11588665D01*
X27759853Y-11311426D01*
X27651680Y-11050273D01*
X27494637Y-10815241D01*
X27294759Y-10615363D01*
X27062241Y-10460000D01*
X27294759Y-10304637D01*
X27494637Y-10104759D01*
X27651680Y-9869727D01*
X27759853Y-9608574D01*
X27815000Y-9331335D01*
X27815000Y-9048665D01*
X27759853Y-8771426D01*
X27651680Y-8510273D01*
X27494637Y-8275241D01*
X27294759Y-8075363D01*
X27062241Y-7920000D01*
X27294759Y-7764637D01*
X27494637Y-7564759D01*
X27651680Y-7329727D01*
X27759853Y-7068574D01*
X27815000Y-6791335D01*
X27815000Y-6508665D01*
X27759853Y-6231426D01*
X27651680Y-5970273D01*
X27494637Y-5735241D01*
X27294759Y-5535363D01*
X27062241Y-5380000D01*
X27294759Y-5224637D01*
X27494637Y-5024759D01*
X27651680Y-4789727D01*
X27759853Y-4528574D01*
X27815000Y-4251335D01*
X27815000Y-3968665D01*
X27759853Y-3691426D01*
X27651680Y-3430273D01*
X27494637Y-3195241D01*
X27294759Y-2995363D01*
X27062241Y-2840000D01*
X27294759Y-2684637D01*
X27494637Y-2484759D01*
X27651680Y-2249727D01*
X27759853Y-1988574D01*
X27815000Y-1711335D01*
X27815000Y-1428665D01*
X27759853Y-1151426D01*
X27651680Y-890273D01*
X27494637Y-655241D01*
X27294759Y-455363D01*
X27062241Y-300000D01*
X27294759Y-144637D01*
X27494637Y55241D01*
X27651680Y290273D01*
X27759853Y551426D01*
X27815000Y828665D01*
X27815000Y1111335D01*
X27759853Y1388574D01*
X27651680Y1649727D01*
X27494637Y1884759D01*
X27294759Y2084637D01*
X27062241Y2240000D01*
X27294759Y2395363D01*
X27494637Y2595241D01*
X27651680Y2830273D01*
X27759853Y3091426D01*
X27815000Y3368665D01*
X27815000Y3651335D01*
X27759853Y3928574D01*
X27651680Y4189727D01*
X27494637Y4424759D01*
X27294759Y4624637D01*
X27062241Y4780000D01*
X27294759Y4935363D01*
X27494637Y5135241D01*
X27651680Y5370273D01*
X27759853Y5631426D01*
X27815000Y5908665D01*
X27815000Y6191335D01*
X27759853Y6468574D01*
X27651680Y6729727D01*
X27494637Y6964759D01*
X27294759Y7164637D01*
X27062241Y7320000D01*
X27294759Y7475363D01*
X27494637Y7675241D01*
X27651680Y7910273D01*
X27759853Y8171426D01*
X27815000Y8448665D01*
X27815000Y8731335D01*
X27759853Y9008574D01*
X27651680Y9269727D01*
X27494637Y9504759D01*
X27294759Y9704637D01*
X27062241Y9860000D01*
X27294759Y10015363D01*
X27494637Y10215241D01*
X27651680Y10450273D01*
X27759593Y10710800D01*
X27992728Y10710800D01*
X27992728Y9110800D01*
X28004988Y8986318D01*
X28041298Y8866620D01*
X28100263Y8756306D01*
X28179615Y8659615D01*
X28276306Y8580263D01*
X28386620Y8521298D01*
X28506318Y8484988D01*
X28514761Y8484157D01*
X28316163Y8285559D01*
X28159120Y8050527D01*
X28050947Y7789374D01*
X27995800Y7512135D01*
X27995800Y7229465D01*
X28050947Y6952226D01*
X28159120Y6691073D01*
X28316163Y6456041D01*
X28516041Y6256163D01*
X28748559Y6100800D01*
X28516041Y5945437D01*
X28316163Y5745559D01*
X28159120Y5510527D01*
X28050947Y5249374D01*
X27995800Y4972135D01*
X27995800Y4689465D01*
X28050947Y4412226D01*
X28159120Y4151073D01*
X28316163Y3916041D01*
X28516041Y3716163D01*
X28748559Y3560800D01*
X28516041Y3405437D01*
X28316163Y3205559D01*
X28159120Y2970527D01*
X28050947Y2709374D01*
X27995800Y2432135D01*
X27995800Y2149465D01*
X28050947Y1872226D01*
X28159120Y1611073D01*
X28316163Y1376041D01*
X28516041Y1176163D01*
X28748559Y1020800D01*
X28516041Y865437D01*
X28316163Y665559D01*
X28159120Y430527D01*
X28050947Y169374D01*
X27995800Y-107865D01*
X27995800Y-390535D01*
X28050947Y-667774D01*
X28159120Y-928927D01*
X28316163Y-1163959D01*
X28516041Y-1363837D01*
X28751073Y-1520880D01*
X29012226Y-1629053D01*
X29289465Y-1684200D01*
X29572135Y-1684200D01*
X29849374Y-1629053D01*
X30110527Y-1520880D01*
X30345559Y-1363837D01*
X30545437Y-1163959D01*
X30702480Y-928927D01*
X30810653Y-667774D01*
X30865800Y-390535D01*
X30865800Y-107865D01*
X30810653Y169374D01*
X30702480Y430527D01*
X30545437Y665559D01*
X30345559Y865437D01*
X30113041Y1020800D01*
X30345559Y1176163D01*
X30545437Y1376041D01*
X30702480Y1611073D01*
X30810653Y1872226D01*
X30865800Y2149465D01*
X30865800Y2432135D01*
X30810653Y2709374D01*
X30702480Y2970527D01*
X30545437Y3205559D01*
X30384435Y3366561D01*
X33896600Y3366561D01*
X33896600Y3113439D01*
X33945981Y2865179D01*
X34042847Y2631324D01*
X34183475Y2420860D01*
X34362460Y2241875D01*
X34365266Y2240000D01*
X34362460Y2238125D01*
X34183475Y2059140D01*
X34042847Y1848676D01*
X33945981Y1614821D01*
X33896600Y1366561D01*
X33896600Y1113439D01*
X33945981Y865179D01*
X34042847Y631324D01*
X34183475Y420860D01*
X34362460Y241875D01*
X34572924Y101247D01*
X34806779Y4381D01*
X35055039Y-45000D01*
X35308161Y-45000D01*
X35556421Y4381D01*
X35790276Y101247D01*
X36000740Y241875D01*
X36179725Y420860D01*
X36181600Y423666D01*
X36183475Y420860D01*
X36362460Y241875D01*
X36572924Y101247D01*
X36806779Y4381D01*
X37055039Y-45000D01*
X37308161Y-45000D01*
X37556421Y4381D01*
X37790276Y101247D01*
X38000740Y241875D01*
X38179725Y420860D01*
X38181600Y423666D01*
X38183475Y420860D01*
X38362460Y241875D01*
X38572924Y101247D01*
X38806779Y4381D01*
X39055039Y-45000D01*
X39308161Y-45000D01*
X39556421Y4381D01*
X39790276Y101247D01*
X40000740Y241875D01*
X40179725Y420860D01*
X40250410Y526648D01*
X40348320Y290273D01*
X40505363Y55241D01*
X40705241Y-144637D01*
X40937759Y-300000D01*
X40705241Y-455363D01*
X40505363Y-655241D01*
X40348320Y-890273D01*
X40240147Y-1151426D01*
X40185000Y-1428665D01*
X40185000Y-1711335D01*
X40240147Y-1988574D01*
X40348320Y-2249727D01*
X40505363Y-2484759D01*
X40705241Y-2684637D01*
X40937759Y-2840000D01*
X40705241Y-2995363D01*
X40505363Y-3195241D01*
X40348320Y-3430273D01*
X40240147Y-3691426D01*
X40185000Y-3968665D01*
X40185000Y-4251335D01*
X40240147Y-4528574D01*
X40348320Y-4789727D01*
X40505363Y-5024759D01*
X40705241Y-5224637D01*
X40937759Y-5380000D01*
X40705241Y-5535363D01*
X40505363Y-5735241D01*
X40348320Y-5970273D01*
X40240147Y-6231426D01*
X40185000Y-6508665D01*
X40185000Y-6791335D01*
X40240147Y-7068574D01*
X40348320Y-7329727D01*
X40505363Y-7564759D01*
X40705241Y-7764637D01*
X40937759Y-7920000D01*
X40705241Y-8075363D01*
X40505363Y-8275241D01*
X40348320Y-8510273D01*
X40240147Y-8771426D01*
X40185000Y-9048665D01*
X40185000Y-9331335D01*
X40240147Y-9608574D01*
X40348320Y-9869727D01*
X40505363Y-10104759D01*
X40705241Y-10304637D01*
X40937759Y-10460000D01*
X40705241Y-10615363D01*
X40505363Y-10815241D01*
X40348320Y-11050273D01*
X40240147Y-11311426D01*
X40185000Y-11588665D01*
X40185000Y-11871335D01*
X40240147Y-12148574D01*
X40348320Y-12409727D01*
X40505363Y-12644759D01*
X40705241Y-12844637D01*
X40937759Y-13000000D01*
X40705241Y-13155363D01*
X40505363Y-13355241D01*
X40348320Y-13590273D01*
X40240147Y-13851426D01*
X40185000Y-14128665D01*
X40185000Y-14411335D01*
X40240147Y-14688574D01*
X40348320Y-14949727D01*
X40505363Y-15184759D01*
X40705241Y-15384637D01*
X40937759Y-15540000D01*
X40705241Y-15695363D01*
X40505363Y-15895241D01*
X40348320Y-16130273D01*
X40240147Y-16391426D01*
X40185000Y-16668665D01*
X40185000Y-16951335D01*
X40240147Y-17228574D01*
X40348320Y-17489727D01*
X40505363Y-17724759D01*
X40705241Y-17924637D01*
X40939128Y-18080915D01*
X40878486Y-18113329D01*
X40806903Y-18357298D01*
X41620000Y-19170395D01*
X42433097Y-18357298D01*
X42361514Y-18113329D01*
X42297008Y-18082806D01*
X42299727Y-18081680D01*
X42534759Y-17924637D01*
X42734637Y-17724759D01*
X42891680Y-17489727D01*
X42999853Y-17228574D01*
X43055000Y-16951335D01*
X43055000Y-16668665D01*
X42999853Y-16391426D01*
X42891680Y-16130273D01*
X42888056Y-16124849D01*
X60714000Y-16124849D01*
X60714000Y-16575151D01*
X60801850Y-17016802D01*
X60974173Y-17432827D01*
X61224348Y-17807240D01*
X61542760Y-18125652D01*
X61917173Y-18375827D01*
X62333198Y-18548150D01*
X62774849Y-18636000D01*
X63225151Y-18636000D01*
X63666802Y-18548150D01*
X64082827Y-18375827D01*
X64457240Y-18125652D01*
X64775652Y-17807240D01*
X65025827Y-17432827D01*
X65198150Y-17016802D01*
X65286000Y-16575151D01*
X65286000Y-16124849D01*
X65198150Y-15683198D01*
X65025827Y-15267173D01*
X64775652Y-14892760D01*
X64457240Y-14574348D01*
X64082827Y-14324173D01*
X63666802Y-14151850D01*
X63225151Y-14064000D01*
X62774849Y-14064000D01*
X62333198Y-14151850D01*
X61917173Y-14324173D01*
X61542760Y-14574348D01*
X61224348Y-14892760D01*
X60974173Y-15267173D01*
X60801850Y-15683198D01*
X60714000Y-16124849D01*
X42888056Y-16124849D01*
X42734637Y-15895241D01*
X42534759Y-15695363D01*
X42302241Y-15540000D01*
X42534759Y-15384637D01*
X42734637Y-15184759D01*
X42891680Y-14949727D01*
X42999853Y-14688574D01*
X43055000Y-14411335D01*
X43055000Y-14128665D01*
X42999853Y-13851426D01*
X42891680Y-13590273D01*
X42734637Y-13355241D01*
X42534759Y-13155363D01*
X42302241Y-13000000D01*
X42534759Y-12844637D01*
X42734637Y-12644759D01*
X42891680Y-12409727D01*
X42999853Y-12148574D01*
X43055000Y-11871335D01*
X43055000Y-11588665D01*
X42999853Y-11311426D01*
X42891680Y-11050273D01*
X42734637Y-10815241D01*
X42534759Y-10615363D01*
X42302241Y-10460000D01*
X42534759Y-10304637D01*
X42734637Y-10104759D01*
X42891680Y-9869727D01*
X42999853Y-9608574D01*
X43055000Y-9331335D01*
X43055000Y-9048665D01*
X42999853Y-8771426D01*
X42891680Y-8510273D01*
X42734637Y-8275241D01*
X42534759Y-8075363D01*
X42302241Y-7920000D01*
X42534759Y-7764637D01*
X42734637Y-7564759D01*
X42891680Y-7329727D01*
X42893157Y-7326160D01*
X57323100Y-7326160D01*
X57323100Y-7593840D01*
X57375322Y-7856376D01*
X57477759Y-8103680D01*
X57626474Y-8326248D01*
X57776226Y-8476000D01*
X57626474Y-8625752D01*
X57477759Y-8848320D01*
X57375322Y-9095624D01*
X57323100Y-9358160D01*
X57323100Y-9625840D01*
X57375322Y-9888376D01*
X57477759Y-10135680D01*
X57626474Y-10358248D01*
X57776226Y-10508000D01*
X57626474Y-10657752D01*
X57477759Y-10880320D01*
X57375322Y-11127624D01*
X57323100Y-11390160D01*
X57323100Y-11657840D01*
X57375322Y-11920376D01*
X57477759Y-12167680D01*
X57626474Y-12390248D01*
X57776226Y-12540000D01*
X57626474Y-12689752D01*
X57477759Y-12912320D01*
X57375322Y-13159624D01*
X57323100Y-13422160D01*
X57323100Y-13689840D01*
X57375322Y-13952376D01*
X57477759Y-14199680D01*
X57626474Y-14422248D01*
X57815752Y-14611526D01*
X58038320Y-14760241D01*
X58285624Y-14862678D01*
X58548160Y-14914900D01*
X58815840Y-14914900D01*
X59078376Y-14862678D01*
X59325680Y-14760241D01*
X59548248Y-14611526D01*
X59737526Y-14422248D01*
X59886241Y-14199680D01*
X59988678Y-13952376D01*
X60013807Y-13826043D01*
X60063624Y-13846678D01*
X60326160Y-13898900D01*
X60593840Y-13898900D01*
X60856376Y-13846678D01*
X61103680Y-13744241D01*
X61326248Y-13595526D01*
X61515526Y-13406248D01*
X61664241Y-13183680D01*
X61766678Y-12936376D01*
X61818900Y-12673840D01*
X61818900Y-12406160D01*
X61766678Y-12143624D01*
X61664241Y-11896320D01*
X61515526Y-11673752D01*
X61365774Y-11524000D01*
X61515526Y-11374248D01*
X61664241Y-11151680D01*
X61766678Y-10904376D01*
X61818900Y-10641840D01*
X61818900Y-10374160D01*
X61766678Y-10111624D01*
X61664241Y-9864320D01*
X61515526Y-9641752D01*
X61365774Y-9492000D01*
X61515526Y-9342248D01*
X61664241Y-9119680D01*
X61766678Y-8872376D01*
X61818900Y-8609840D01*
X61818900Y-8342160D01*
X61766678Y-8079624D01*
X61664241Y-7832320D01*
X61561896Y-7679150D01*
X61635085Y-7619085D01*
X61714437Y-7522394D01*
X61773402Y-7412080D01*
X61809712Y-7292382D01*
X61821972Y-7167900D01*
X61821972Y-5720100D01*
X61810598Y-5604616D01*
X61917173Y-5675827D01*
X62333198Y-5848150D01*
X62774849Y-5936000D01*
X63225151Y-5936000D01*
X63666802Y-5848150D01*
X64082827Y-5675827D01*
X64457240Y-5425652D01*
X64775652Y-5107240D01*
X65025827Y-4732827D01*
X65198150Y-4316802D01*
X65286000Y-3875151D01*
X65286000Y-3424849D01*
X65198150Y-2983198D01*
X65025827Y-2567173D01*
X64775652Y-2192760D01*
X64457240Y-1874348D01*
X64082827Y-1624173D01*
X63666802Y-1451850D01*
X63225151Y-1364000D01*
X62774849Y-1364000D01*
X62333198Y-1451850D01*
X61917173Y-1624173D01*
X61542760Y-1874348D01*
X61224348Y-2192760D01*
X60974173Y-2567173D01*
X60801850Y-2983198D01*
X60714000Y-3424849D01*
X60714000Y-3875151D01*
X60801850Y-4316802D01*
X60974173Y-4732827D01*
X61209164Y-5084516D01*
X61183900Y-5082028D01*
X59736100Y-5082028D01*
X59611618Y-5094288D01*
X59491920Y-5130598D01*
X59381606Y-5189563D01*
X59284915Y-5268915D01*
X59205563Y-5365606D01*
X59146598Y-5475920D01*
X59110288Y-5595618D01*
X59098028Y-5720100D01*
X59098028Y-6161462D01*
X59078376Y-6153322D01*
X58815840Y-6101100D01*
X58548160Y-6101100D01*
X58285624Y-6153322D01*
X58038320Y-6255759D01*
X57815752Y-6404474D01*
X57626474Y-6593752D01*
X57477759Y-6816320D01*
X57375322Y-7063624D01*
X57323100Y-7326160D01*
X42893157Y-7326160D01*
X42999853Y-7068574D01*
X43055000Y-6791335D01*
X43055000Y-6508665D01*
X42999853Y-6231426D01*
X42891680Y-5970273D01*
X42734637Y-5735241D01*
X42534759Y-5535363D01*
X42302241Y-5380000D01*
X42534759Y-5224637D01*
X42734637Y-5024759D01*
X42891680Y-4789727D01*
X42999853Y-4528574D01*
X43055000Y-4251335D01*
X43055000Y-3968665D01*
X42999853Y-3691426D01*
X42891680Y-3430273D01*
X42734637Y-3195241D01*
X42534759Y-2995363D01*
X42302241Y-2840000D01*
X42534759Y-2684637D01*
X42734637Y-2484759D01*
X42891680Y-2249727D01*
X42999853Y-1988574D01*
X43055000Y-1711335D01*
X43055000Y-1428665D01*
X42999853Y-1151426D01*
X42891680Y-890273D01*
X42734637Y-655241D01*
X42534759Y-455363D01*
X42302241Y-300000D01*
X42534759Y-144637D01*
X42734637Y55241D01*
X42891680Y290273D01*
X42999853Y551426D01*
X43055000Y828665D01*
X43055000Y1111335D01*
X42999853Y1388574D01*
X42891680Y1649727D01*
X42734637Y1884759D01*
X42534759Y2084637D01*
X42302241Y2240000D01*
X42534759Y2395363D01*
X42734637Y2595241D01*
X42891680Y2830273D01*
X42910269Y2875151D01*
X60714000Y2875151D01*
X60714000Y2424849D01*
X60801850Y1983198D01*
X60974173Y1567173D01*
X61224348Y1192760D01*
X61542760Y874348D01*
X61917173Y624173D01*
X62333198Y451850D01*
X62774849Y364000D01*
X63225151Y364000D01*
X63666802Y451850D01*
X64082827Y624173D01*
X64457240Y874348D01*
X64775652Y1192760D01*
X65025827Y1567173D01*
X65198150Y1983198D01*
X65286000Y2424849D01*
X65286000Y2875151D01*
X65198150Y3316802D01*
X65025827Y3732827D01*
X64775652Y4107240D01*
X64457240Y4425652D01*
X64082827Y4675827D01*
X63666802Y4848150D01*
X63225151Y4936000D01*
X62774849Y4936000D01*
X62333198Y4848150D01*
X61917173Y4675827D01*
X61542760Y4425652D01*
X61224348Y4107240D01*
X60974173Y3732827D01*
X60801850Y3316802D01*
X60714000Y2875151D01*
X42910269Y2875151D01*
X42999853Y3091426D01*
X43055000Y3368665D01*
X43055000Y3651335D01*
X42999853Y3928574D01*
X42891680Y4189727D01*
X42734637Y4424759D01*
X42534759Y4624637D01*
X42302241Y4780000D01*
X42534759Y4935363D01*
X42734637Y5135241D01*
X42891680Y5370273D01*
X42999853Y5631426D01*
X43055000Y5908665D01*
X43055000Y6191335D01*
X42999853Y6468574D01*
X42891680Y6729727D01*
X42734637Y6964759D01*
X42534759Y7164637D01*
X42302241Y7320000D01*
X42534759Y7475363D01*
X42734637Y7675241D01*
X42891680Y7910273D01*
X42999853Y8171426D01*
X43055000Y8448665D01*
X43055000Y8731335D01*
X42999853Y9008574D01*
X42891680Y9269727D01*
X42734637Y9504759D01*
X42534759Y9704637D01*
X42302241Y9860000D01*
X42534759Y10015363D01*
X42734637Y10215241D01*
X42891680Y10450273D01*
X42999853Y10711426D01*
X43055000Y10988665D01*
X43055000Y11271335D01*
X42999853Y11548574D01*
X42947967Y11673840D01*
X57323100Y11673840D01*
X57323100Y11406160D01*
X57375322Y11143624D01*
X57477759Y10896320D01*
X57626474Y10673752D01*
X57776226Y10524000D01*
X57626474Y10374248D01*
X57477759Y10151680D01*
X57375322Y9904376D01*
X57323100Y9641840D01*
X57323100Y9374160D01*
X57375322Y9111624D01*
X57477759Y8864320D01*
X57626474Y8641752D01*
X57776226Y8492000D01*
X57626474Y8342248D01*
X57477759Y8119680D01*
X57375322Y7872376D01*
X57323100Y7609840D01*
X57323100Y7342160D01*
X57375322Y7079624D01*
X57477759Y6832320D01*
X57626474Y6609752D01*
X57776226Y6460000D01*
X57626474Y6310248D01*
X57477759Y6087680D01*
X57375322Y5840376D01*
X57323100Y5577840D01*
X57323100Y5310160D01*
X57375322Y5047624D01*
X57477759Y4800320D01*
X57626474Y4577752D01*
X57815752Y4388474D01*
X58038320Y4239759D01*
X58285624Y4137322D01*
X58548160Y4085100D01*
X58815840Y4085100D01*
X59078376Y4137322D01*
X59325680Y4239759D01*
X59548248Y4388474D01*
X59737526Y4577752D01*
X59886241Y4800320D01*
X59988678Y5047624D01*
X60013807Y5173957D01*
X60063624Y5153322D01*
X60326160Y5101100D01*
X60593840Y5101100D01*
X60856376Y5153322D01*
X61103680Y5255759D01*
X61326248Y5404474D01*
X61515526Y5593752D01*
X61664241Y5816320D01*
X61766678Y6063624D01*
X61818900Y6326160D01*
X61818900Y6593840D01*
X61766678Y6856376D01*
X61664241Y7103680D01*
X61515526Y7326248D01*
X61365774Y7476000D01*
X61515526Y7625752D01*
X61664241Y7848320D01*
X61766678Y8095624D01*
X61818900Y8358160D01*
X61818900Y8625840D01*
X61766678Y8888376D01*
X61664241Y9135680D01*
X61515526Y9358248D01*
X61365774Y9508000D01*
X61515526Y9657752D01*
X61664241Y9880320D01*
X61766678Y10127624D01*
X61818900Y10390160D01*
X61818900Y10657840D01*
X61766678Y10920376D01*
X61664241Y11167680D01*
X61561896Y11320850D01*
X61635085Y11380915D01*
X61714437Y11477606D01*
X61773402Y11587920D01*
X61809712Y11707618D01*
X61821972Y11832100D01*
X61821972Y13279900D01*
X61810598Y13395384D01*
X61917173Y13324173D01*
X62333198Y13151850D01*
X62774849Y13064000D01*
X63225151Y13064000D01*
X63666802Y13151850D01*
X64082827Y13324173D01*
X64457240Y13574348D01*
X64775652Y13892760D01*
X65025827Y14267173D01*
X65198150Y14683198D01*
X65286000Y15124849D01*
X65286000Y15575151D01*
X65198150Y16016802D01*
X65025827Y16432827D01*
X64775652Y16807240D01*
X64457240Y17125652D01*
X64082827Y17375827D01*
X63666802Y17548150D01*
X63225151Y17636000D01*
X62774849Y17636000D01*
X62333198Y17548150D01*
X61917173Y17375827D01*
X61542760Y17125652D01*
X61224348Y16807240D01*
X60974173Y16432827D01*
X60801850Y16016802D01*
X60714000Y15575151D01*
X60714000Y15124849D01*
X60801850Y14683198D01*
X60974173Y14267173D01*
X61209164Y13915484D01*
X61183900Y13917972D01*
X59736100Y13917972D01*
X59611618Y13905712D01*
X59491920Y13869402D01*
X59381606Y13810437D01*
X59284915Y13731085D01*
X59205563Y13634394D01*
X59146598Y13524080D01*
X59110288Y13404382D01*
X59098028Y13279900D01*
X59098028Y12838538D01*
X59078376Y12846678D01*
X58815840Y12898900D01*
X58548160Y12898900D01*
X58285624Y12846678D01*
X58038320Y12744241D01*
X57815752Y12595526D01*
X57626474Y12406248D01*
X57477759Y12183680D01*
X57375322Y11936376D01*
X57323100Y11673840D01*
X42947967Y11673840D01*
X42891680Y11809727D01*
X42734637Y12044759D01*
X42534759Y12244637D01*
X42300872Y12400915D01*
X42361514Y12433329D01*
X42433097Y12677298D01*
X41620000Y13490395D01*
X40806903Y12677298D01*
X40878486Y12433329D01*
X40942992Y12402806D01*
X40940273Y12401680D01*
X40705241Y12244637D01*
X40505363Y12044759D01*
X40348320Y11809727D01*
X40240147Y11548574D01*
X40185000Y11271335D01*
X40185000Y10988665D01*
X40240147Y10711426D01*
X40348320Y10450273D01*
X40505363Y10215241D01*
X40705241Y10015363D01*
X40937759Y9860000D01*
X40705241Y9704637D01*
X40505363Y9504759D01*
X40348320Y9269727D01*
X40240147Y9008574D01*
X40185000Y8731335D01*
X40185000Y8448665D01*
X40240147Y8171426D01*
X40348320Y7910273D01*
X40505363Y7675241D01*
X40705241Y7475363D01*
X40937759Y7320000D01*
X40705241Y7164637D01*
X40505363Y6964759D01*
X40348320Y6729727D01*
X40240147Y6468574D01*
X40185000Y6191335D01*
X40185000Y5908665D01*
X40240147Y5631426D01*
X40348320Y5370273D01*
X40505363Y5135241D01*
X40705241Y4935363D01*
X40937759Y4780000D01*
X40705241Y4624637D01*
X40505363Y4424759D01*
X40372260Y4225556D01*
X40362137Y4244494D01*
X40282785Y4341185D01*
X40186094Y4420537D01*
X40075780Y4479502D01*
X39956082Y4515812D01*
X39831600Y4528072D01*
X38531600Y4528072D01*
X38407118Y4515812D01*
X38287420Y4479502D01*
X38177106Y4420537D01*
X38080415Y4341185D01*
X38001063Y4244494D01*
X37998470Y4239642D01*
X37790276Y4378753D01*
X37556421Y4475619D01*
X37308161Y4525000D01*
X37055039Y4525000D01*
X36806779Y4475619D01*
X36572924Y4378753D01*
X36362460Y4238125D01*
X36183475Y4059140D01*
X36181600Y4056334D01*
X36179725Y4059140D01*
X36000740Y4238125D01*
X35790276Y4378753D01*
X35556421Y4475619D01*
X35308161Y4525000D01*
X35055039Y4525000D01*
X34806779Y4475619D01*
X34572924Y4378753D01*
X34362460Y4238125D01*
X34183475Y4059140D01*
X34042847Y3848676D01*
X33945981Y3614821D01*
X33896600Y3366561D01*
X30384435Y3366561D01*
X30345559Y3405437D01*
X30113041Y3560800D01*
X30345559Y3716163D01*
X30545437Y3916041D01*
X30702480Y4151073D01*
X30810653Y4412226D01*
X30865800Y4689465D01*
X30865800Y4972135D01*
X30810653Y5249374D01*
X30702480Y5510527D01*
X30545437Y5745559D01*
X30345559Y5945437D01*
X30113041Y6100800D01*
X30345559Y6256163D01*
X30545437Y6456041D01*
X30702480Y6691073D01*
X30810653Y6952226D01*
X30865800Y7229465D01*
X30865800Y7512135D01*
X30810653Y7789374D01*
X30702480Y8050527D01*
X30545437Y8285559D01*
X30346839Y8484157D01*
X30355282Y8484988D01*
X30474980Y8521298D01*
X30585294Y8580263D01*
X30681985Y8659615D01*
X30761337Y8756306D01*
X30820302Y8866620D01*
X30856612Y8986318D01*
X30868872Y9110800D01*
X30868872Y10710800D01*
X30856612Y10835282D01*
X30820302Y10954980D01*
X30761337Y11065294D01*
X30681985Y11161985D01*
X30585294Y11241337D01*
X30474980Y11300302D01*
X30355282Y11336612D01*
X30230800Y11348872D01*
X28630800Y11348872D01*
X28506318Y11336612D01*
X28386620Y11300302D01*
X28276306Y11241337D01*
X28179615Y11161985D01*
X28100263Y11065294D01*
X28041298Y10954980D01*
X28004988Y10835282D01*
X27992728Y10710800D01*
X27759593Y10710800D01*
X27759853Y10711426D01*
X27815000Y10988665D01*
X27815000Y11271335D01*
X27759853Y11548574D01*
X27651680Y11809727D01*
X27494637Y12044759D01*
X27294759Y12244637D01*
X27062241Y12400000D01*
X27294759Y12555363D01*
X27494637Y12755241D01*
X27651680Y12990273D01*
X27759853Y13251426D01*
X27815000Y13528665D01*
X27815000Y13811335D01*
X37645000Y13811335D01*
X37645000Y13528665D01*
X37700147Y13251426D01*
X37808320Y12990273D01*
X37965363Y12755241D01*
X38165241Y12555363D01*
X38400273Y12398320D01*
X38661426Y12290147D01*
X38938665Y12235000D01*
X39221335Y12235000D01*
X39498574Y12290147D01*
X39759727Y12398320D01*
X39994759Y12555363D01*
X40194637Y12755241D01*
X40350915Y12989128D01*
X40383329Y12928486D01*
X40627298Y12856903D01*
X41440395Y13670000D01*
X41799605Y13670000D01*
X42612702Y12856903D01*
X42856671Y12928486D01*
X42977571Y13183996D01*
X43046300Y13458184D01*
X43060217Y13740512D01*
X43018787Y14020130D01*
X42923603Y14286292D01*
X42856671Y14411514D01*
X42612702Y14483097D01*
X41799605Y13670000D01*
X41440395Y13670000D01*
X40627298Y14483097D01*
X40383329Y14411514D01*
X40352806Y14347008D01*
X40351680Y14349727D01*
X40194637Y14584759D01*
X39994759Y14784637D01*
X39759727Y14941680D01*
X39498574Y15049853D01*
X39221335Y15105000D01*
X38938665Y15105000D01*
X38661426Y15049853D01*
X38400273Y14941680D01*
X38165241Y14784637D01*
X37965363Y14584759D01*
X37808320Y14349727D01*
X37700147Y14088574D01*
X37645000Y13811335D01*
X27815000Y13811335D01*
X27759853Y14088574D01*
X27651680Y14349727D01*
X27494637Y14584759D01*
X27296039Y14783357D01*
X27304482Y14784188D01*
X27424180Y14820498D01*
X27534494Y14879463D01*
X27631185Y14958815D01*
X27710537Y15055506D01*
X27769502Y15165820D01*
X27805812Y15285518D01*
X27818072Y15410000D01*
X27816898Y15606561D01*
X31445000Y15606561D01*
X31445000Y15353439D01*
X31494381Y15105179D01*
X31591247Y14871324D01*
X31731875Y14660860D01*
X31910860Y14481875D01*
X32121324Y14341247D01*
X32355179Y14244381D01*
X32603439Y14195000D01*
X32856561Y14195000D01*
X33104821Y14244381D01*
X33338676Y14341247D01*
X33549140Y14481875D01*
X33728125Y14660860D01*
X33868753Y14871324D01*
X33965619Y15105179D01*
X34000000Y15278027D01*
X34034381Y15105179D01*
X34131247Y14871324D01*
X34271875Y14660860D01*
X34450860Y14481875D01*
X34661324Y14341247D01*
X34895179Y14244381D01*
X35143439Y14195000D01*
X35396561Y14195000D01*
X35644821Y14244381D01*
X35878676Y14341247D01*
X36089140Y14481875D01*
X36268125Y14660860D01*
X36408753Y14871324D01*
X36505619Y15105179D01*
X36555000Y15353439D01*
X36555000Y15606561D01*
X36505619Y15854821D01*
X36408753Y16088676D01*
X36268125Y16299140D01*
X36215930Y16351335D01*
X40185000Y16351335D01*
X40185000Y16068665D01*
X40240147Y15791426D01*
X40348320Y15530273D01*
X40505363Y15295241D01*
X40705241Y15095363D01*
X40939128Y14939085D01*
X40878486Y14906671D01*
X40806903Y14662702D01*
X41620000Y13849605D01*
X42433097Y14662702D01*
X42361514Y14906671D01*
X42297008Y14937194D01*
X42299727Y14938320D01*
X42534759Y15095363D01*
X42734637Y15295241D01*
X42891680Y15530273D01*
X42999853Y15791426D01*
X43055000Y16068665D01*
X43055000Y16351335D01*
X42999853Y16628574D01*
X42891680Y16889727D01*
X42734637Y17124759D01*
X42534759Y17324637D01*
X42299727Y17481680D01*
X42038574Y17589853D01*
X41761335Y17645000D01*
X41478665Y17645000D01*
X41201426Y17589853D01*
X40940273Y17481680D01*
X40705241Y17324637D01*
X40505363Y17124759D01*
X40348320Y16889727D01*
X40240147Y16628574D01*
X40185000Y16351335D01*
X36215930Y16351335D01*
X36089140Y16478125D01*
X35878676Y16618753D01*
X35644821Y16715619D01*
X35396561Y16765000D01*
X35143439Y16765000D01*
X34895179Y16715619D01*
X34661324Y16618753D01*
X34450860Y16478125D01*
X34271875Y16299140D01*
X34131247Y16088676D01*
X34034381Y15854821D01*
X34000000Y15681973D01*
X33965619Y15854821D01*
X33868753Y16088676D01*
X33728125Y16299140D01*
X33549140Y16478125D01*
X33338676Y16618753D01*
X33104821Y16715619D01*
X32856561Y16765000D01*
X32603439Y16765000D01*
X32355179Y16715619D01*
X32121324Y16618753D01*
X31910860Y16478125D01*
X31731875Y16299140D01*
X31591247Y16088676D01*
X31494381Y15854821D01*
X31445000Y15606561D01*
X27816898Y15606561D01*
X27815000Y15924250D01*
X27656250Y16083000D01*
X26507000Y16083000D01*
X26507000Y16063000D01*
X26253000Y16063000D01*
X26253000Y16083000D01*
X25103750Y16083000D01*
X24945000Y15924250D01*
X24941928Y15410000D01*
X-4515294Y15410000D01*
X-4600171Y15651792D01*
X-4680353Y15801799D01*
X-4934707Y15885688D01*
X-5820395Y15000000D01*
X-6179605Y15000000D01*
X-7065293Y15885688D01*
X-7319647Y15801799D01*
X-7450714Y15528942D01*
X-7526030Y15235759D01*
X-7542703Y14933514D01*
X-19345950Y14933514D01*
X-19345950Y16065293D01*
X-6885688Y16065293D01*
X-6000000Y15179605D01*
X-5114312Y16065293D01*
X-5198201Y16319647D01*
X-5471058Y16450714D01*
X-5764241Y16526030D01*
X-6066486Y16542703D01*
X-6366175Y16500090D01*
X-6651792Y16399829D01*
X-6801799Y16319647D01*
X-6885688Y16065293D01*
X-19345950Y16065293D01*
X-19345950Y17010000D01*
X24941928Y17010000D01*
X24945000Y16495750D01*
X25103750Y16337000D01*
X26253000Y16337000D01*
X26253000Y17486250D01*
X26507000Y17486250D01*
X26507000Y16337000D01*
X27656250Y16337000D01*
X27815000Y16495750D01*
X27818072Y17010000D01*
X27805812Y17134482D01*
X27769502Y17254180D01*
X27710537Y17364494D01*
X27631185Y17461185D01*
X27534494Y17540537D01*
X27424180Y17599502D01*
X27304482Y17635812D01*
X27180000Y17648072D01*
X26665750Y17645000D01*
X26507000Y17486250D01*
X26253000Y17486250D01*
X26094250Y17645000D01*
X25580000Y17648072D01*
X25455518Y17635812D01*
X25335820Y17599502D01*
X25225506Y17540537D01*
X25128815Y17461185D01*
X25049463Y17364494D01*
X24990498Y17254180D01*
X24954188Y17134482D01*
X24941928Y17010000D01*
X-19345950Y17010000D01*
X-19345950Y22970868D01*
X-19318870Y23274299D01*
X-17785000Y23274299D01*
X-17785000Y22725701D01*
X-17677974Y22187646D01*
X-17468035Y21680808D01*
X-17163250Y21224666D01*
X-16775334Y20836750D01*
X-16319192Y20531965D01*
X-15812354Y20322026D01*
X-15274299Y20215000D01*
X-14725701Y20215000D01*
X-14187646Y20322026D01*
X-13680808Y20531965D01*
X-13224666Y20836750D01*
X-12836750Y21224666D01*
X-12531965Y21680808D01*
X-12322026Y22187646D01*
X-12215000Y22725701D01*
X-12215000Y23274299D01*
X69215000Y23274299D01*
X69215000Y22725701D01*
X69322026Y22187646D01*
X69531965Y21680808D01*
X69836750Y21224666D01*
X70224666Y20836750D01*
X70680808Y20531965D01*
X71187646Y20322026D01*
X71725701Y20215000D01*
X72274299Y20215000D01*
X72812354Y20322026D01*
X73319192Y20531965D01*
X73775334Y20836750D01*
X74163250Y21224666D01*
X74468035Y21680808D01*
X74677974Y22187646D01*
X74785000Y22725701D01*
X74785000Y23274299D01*
X74677974Y23812354D01*
X74468035Y24319192D01*
X74163250Y24775334D01*
X73775334Y25163250D01*
X73319192Y25468035D01*
X72812354Y25677974D01*
X72274299Y25785000D01*
X71725701Y25785000D01*
X71187646Y25677974D01*
X70680808Y25468035D01*
X70224666Y25163250D01*
X69836750Y24775334D01*
X69531965Y24319192D01*
X69322026Y23812354D01*
X69215000Y23274299D01*
X-12215000Y23274299D01*
X-12322026Y23812354D01*
X-12531965Y24319192D01*
X-12836750Y24775334D01*
X-13224666Y25163250D01*
X-13680808Y25468035D01*
X-14187646Y25677974D01*
X-14725701Y25785000D01*
X-15274299Y25785000D01*
X-15812354Y25677974D01*
X-16319192Y25468035D01*
X-16775334Y25163250D01*
X-17163250Y24775334D01*
X-17468035Y24319192D01*
X-17677974Y23812354D01*
X-17785000Y23274299D01*
X-19318870Y23274299D01*
X-19274706Y23769142D01*
X-19070943Y24513971D01*
X-18738503Y25210947D01*
X-18287895Y25838035D01*
X-17733361Y26375416D01*
X-17092423Y26806107D01*
X-16385355Y27116489D01*
X-15629464Y27297964D01*
X-14976011Y27345950D01*
X71970868Y27345950D01*
X72769142Y27274706D01*
G37*
G04 #@! TD.AperFunction*
M02*
